<?xml version="1.0" encoding="utf-8" standalone="no"?>
<!DOCTYPE svg PUBLIC "-//W3C//DTD SVG 1.1//EN"
  "http://www.w3.org/Graphics/SVG/1.1/DTD/svg11.dtd">
<svg xmlns:xlink="http://www.w3.org/1999/xlink" width="619.2pt" height="352.8pt" viewBox="0 0 619.2 352.8" xmlns="http://www.w3.org/2000/svg" version="1.1">
 <metadata>
  <rdf:RDF xmlns:dc="http://purl.org/dc/elements/1.1/" xmlns:cc="http://creativecommons.org/ns#" xmlns:rdf="http://www.w3.org/1999/02/22-rdf-syntax-ns#">
   <cc:Work>
    <dc:type rdf:resource="http://purl.org/dc/dcmitype/StillImage"/>
    <dc:format>image/svg+xml</dc:format>
    <dc:creator>
     <cc:Agent>
      <dc:title>Matplotlib v3.10.9, https://matplotlib.org/</dc:title>
     </cc:Agent>
    </dc:creator>
   </cc:Work>
  </rdf:RDF>
 </metadata>
 <defs>
  <style type="text/css">*{stroke-linejoin: round; stroke-linecap: butt}</style>
 </defs>
 <g id="figure_1">
  <g id="patch_1">
   <path d="M 0 352.8 
L 619.2 352.8 
L 619.2 0 
L 0 0 
z
" style="fill: #ffffff"/>
  </g>
  <g id="axes_1">
   <g id="patch_2">
    <path d="M 46.44 292.824 
L 572.76 292.824 
L 572.76 70.56 
L 46.44 70.56 
z
" style="fill: #ffffff"/>
   </g>
   <g id="matplotlib.axis_1">
    <g id="xtick_1">
     <g id="line2d_1"/>
     <g id="text_1">
      <!-- 26/09 -->
      <g style="fill: #6b7076" transform="translate(41.266135 303.487437) scale(0.09 -0.09)">
       <defs>
        <path id="NotoSansCJKtc-Regular-32" d="M 282 0 
L 3232 0 
L 3232 506 
L 1933 506 
C 1696 506 1408 480 1165 461 
C 2266 1504 3008 2458 3008 3398 
C 3008 4230 2477 4774 1638 4774 
C 1043 4774 634 4506 256 4090 
L 595 3757 
C 858 4070 1184 4301 1568 4301 
C 2150 4301 2432 3910 2432 3373 
C 2432 2566 1754 1632 282 346 
L 282 0 
z
" transform="scale(0.015625)"/>
        <path id="NotoSansCJKtc-Regular-36" d="M 1926 -83 
C 2656 -83 3277 531 3277 1440 
C 3277 2426 2765 2912 1971 2912 
C 1606 2912 1197 2701 909 2349 
C 934 3802 1466 4294 2118 4294 
C 2400 4294 2682 4154 2861 3936 
L 3194 4294 
C 2931 4576 2579 4774 2093 4774 
C 1184 4774 358 4077 358 2240 
C 358 691 1030 -83 1926 -83 
z
M 922 1882 
C 1229 2317 1587 2477 1875 2477 
C 2445 2477 2720 2074 2720 1440 
C 2720 800 2374 378 1926 378 
C 1338 378 986 909 922 1882 
z
" transform="scale(0.015625)"/>
        <path id="NotoSansCJKtc-Regular-2f" d="M 70 -1146 
L 499 -1146 
L 2413 5082 
L 1990 5082 
L 70 -1146 
z
" transform="scale(0.015625)"/>
        <path id="NotoSansCJKtc-Regular-30" d="M 1779 -83 
C 2669 -83 3238 723 3238 2362 
C 3238 3987 2669 4774 1779 4774 
C 883 4774 320 3987 320 2362 
C 320 723 883 -83 1779 -83 
z
M 1779 390 
C 1248 390 883 986 883 2362 
C 883 3731 1248 4314 1779 4314 
C 2310 4314 2675 3731 2675 2362 
C 2675 986 2310 390 1779 390 
z
" transform="scale(0.015625)"/>
        <path id="NotoSansCJKtc-Regular-39" d="M 1504 -83 
C 2381 -83 3206 646 3206 2547 
C 3206 4038 2528 4774 1626 4774 
C 896 4774 282 4166 282 3251 
C 282 2285 794 1779 1574 1779 
C 1965 1779 2368 2003 2656 2349 
C 2611 896 2086 403 1485 403 
C 1178 403 896 538 691 762 
L 371 397 
C 634 122 992 -83 1504 -83 
z
M 2650 2842 
C 2336 2394 1984 2214 1670 2214 
C 1114 2214 832 2624 832 3251 
C 832 3898 1178 4320 1632 4320 
C 2227 4320 2586 3808 2650 2842 
z
" transform="scale(0.015625)"/>
       </defs>
       <use xlink:href="#NotoSansCJKtc-Regular-32"/>
       <use xlink:href="#NotoSansCJKtc-Regular-36" transform="translate(55.499985 0)"/>
       <use xlink:href="#NotoSansCJKtc-Regular-2f" transform="translate(110.999969 0)"/>
       <use xlink:href="#NotoSansCJKtc-Regular-30" transform="translate(150.199966 0)"/>
       <use xlink:href="#NotoSansCJKtc-Regular-39" transform="translate(205.699951 0)"/>
      </g>
     </g>
    </g>
    <g id="xtick_2">
     <g id="line2d_2"/>
     <g id="text_2">
      <!-- 26/11 -->
      <g style="fill: #6b7076" transform="translate(103.498195 303.487437) scale(0.09 -0.09)">
       <defs>
        <path id="NotoSansCJKtc-Regular-31" d="M 563 0 
L 3136 0 
L 3136 486 
L 2195 486 
L 2195 4691 
L 1747 4691 
C 1491 4544 1190 4435 774 4358 
L 774 3987 
L 1613 3987 
L 1613 486 
L 563 486 
L 563 0 
z
" transform="scale(0.015625)"/>
       </defs>
       <use xlink:href="#NotoSansCJKtc-Regular-32"/>
       <use xlink:href="#NotoSansCJKtc-Regular-36" transform="translate(55.499985 0)"/>
       <use xlink:href="#NotoSansCJKtc-Regular-2f" transform="translate(110.999969 0)"/>
       <use xlink:href="#NotoSansCJKtc-Regular-31" transform="translate(150.199966 0)"/>
       <use xlink:href="#NotoSansCJKtc-Regular-31" transform="translate(205.699951 0)"/>
      </g>
     </g>
    </g>
    <g id="xtick_3">
     <g id="line2d_3"/>
     <g id="text_3">
      <!-- 27/01 -->
      <g style="fill: #6b7076" transform="translate(165.730256 303.487437) scale(0.09 -0.09)">
       <defs>
        <path id="NotoSansCJKtc-Regular-37" d="M 1267 0 
L 1875 0 
C 1952 1837 2150 2931 3251 4339 
L 3251 4691 
L 314 4691 
L 314 4192 
L 2592 4192 
C 1670 2912 1350 1779 1267 0 
z
" transform="scale(0.015625)"/>
       </defs>
       <use xlink:href="#NotoSansCJKtc-Regular-32"/>
       <use xlink:href="#NotoSansCJKtc-Regular-37" transform="translate(55.499985 0)"/>
       <use xlink:href="#NotoSansCJKtc-Regular-2f" transform="translate(110.999969 0)"/>
       <use xlink:href="#NotoSansCJKtc-Regular-30" transform="translate(150.199966 0)"/>
       <use xlink:href="#NotoSansCJKtc-Regular-31" transform="translate(205.699951 0)"/>
      </g>
     </g>
    </g>
    <g id="xtick_4">
     <g id="line2d_4"/>
     <g id="text_4">
      <!-- 27/03 -->
      <g style="fill: #6b7076" transform="translate(225.921921 303.487437) scale(0.09 -0.09)">
       <defs>
        <path id="NotoSansCJKtc-Regular-33" d="M 1683 -83 
C 2522 -83 3194 416 3194 1254 
C 3194 1901 2752 2310 2202 2445 
L 2202 2477 
C 2701 2650 3034 3034 3034 3603 
C 3034 4346 2458 4774 1664 4774 
C 1126 4774 710 4538 358 4218 
L 672 3846 
C 941 4115 1267 4301 1645 4301 
C 2138 4301 2438 4006 2438 3558 
C 2438 3053 2112 2662 1139 2662 
L 1139 2214 
C 2227 2214 2598 1843 2598 1274 
C 2598 736 2208 403 1645 403 
C 1114 403 762 659 486 941 
L 186 563 
C 493 224 954 -83 1683 -83 
z
" transform="scale(0.015625)"/>
       </defs>
       <use xlink:href="#NotoSansCJKtc-Regular-32"/>
       <use xlink:href="#NotoSansCJKtc-Regular-37" transform="translate(55.499985 0)"/>
       <use xlink:href="#NotoSansCJKtc-Regular-2f" transform="translate(110.999969 0)"/>
       <use xlink:href="#NotoSansCJKtc-Regular-30" transform="translate(150.199966 0)"/>
       <use xlink:href="#NotoSansCJKtc-Regular-33" transform="translate(205.699951 0)"/>
      </g>
     </g>
    </g>
    <g id="xtick_5">
     <g id="line2d_5"/>
     <g id="text_5">
      <!-- 27/05 -->
      <g style="fill: #6b7076" transform="translate(288.153981 303.487437) scale(0.09 -0.09)">
       <defs>
        <path id="NotoSansCJKtc-Regular-35" d="M 1677 -83 
C 2464 -83 3213 499 3213 1523 
C 3213 2560 2573 3021 1798 3021 
C 1517 3021 1306 2950 1094 2835 
L 1216 4192 
L 2982 4192 
L 2982 4691 
L 704 4691 
L 550 2502 
L 864 2304 
C 1133 2483 1331 2579 1645 2579 
C 2234 2579 2618 2182 2618 1510 
C 2618 826 2176 403 1619 403 
C 1075 403 730 653 467 922 
L 173 538 
C 493 224 941 -83 1677 -83 
z
" transform="scale(0.015625)"/>
       </defs>
       <use xlink:href="#NotoSansCJKtc-Regular-32"/>
       <use xlink:href="#NotoSansCJKtc-Regular-37" transform="translate(55.499985 0)"/>
       <use xlink:href="#NotoSansCJKtc-Regular-2f" transform="translate(110.999969 0)"/>
       <use xlink:href="#NotoSansCJKtc-Regular-30" transform="translate(150.199966 0)"/>
       <use xlink:href="#NotoSansCJKtc-Regular-35" transform="translate(205.699951 0)"/>
      </g>
     </g>
    </g>
    <g id="xtick_6">
     <g id="line2d_6"/>
     <g id="text_6">
      <!-- 27/07 -->
      <g style="fill: #6b7076" transform="translate(350.386042 303.487437) scale(0.09 -0.09)">
       <use xlink:href="#NotoSansCJKtc-Regular-32"/>
       <use xlink:href="#NotoSansCJKtc-Regular-37" transform="translate(55.499985 0)"/>
       <use xlink:href="#NotoSansCJKtc-Regular-2f" transform="translate(110.999969 0)"/>
       <use xlink:href="#NotoSansCJKtc-Regular-30" transform="translate(150.199966 0)"/>
       <use xlink:href="#NotoSansCJKtc-Regular-37" transform="translate(205.699951 0)"/>
      </g>
     </g>
    </g>
    <g id="xtick_7">
     <g id="line2d_7"/>
     <g id="text_7">
      <!-- 27/09 -->
      <g style="fill: #6b7076" transform="translate(413.6383 303.487437) scale(0.09 -0.09)">
       <use xlink:href="#NotoSansCJKtc-Regular-32"/>
       <use xlink:href="#NotoSansCJKtc-Regular-37" transform="translate(55.499985 0)"/>
       <use xlink:href="#NotoSansCJKtc-Regular-2f" transform="translate(110.999969 0)"/>
       <use xlink:href="#NotoSansCJKtc-Regular-30" transform="translate(150.199966 0)"/>
       <use xlink:href="#NotoSansCJKtc-Regular-39" transform="translate(205.699951 0)"/>
      </g>
     </g>
    </g>
    <g id="xtick_8">
     <g id="line2d_8"/>
     <g id="text_8">
      <!-- 27/11 -->
      <g style="fill: #6b7076" transform="translate(475.87036 303.487437) scale(0.09 -0.09)">
       <use xlink:href="#NotoSansCJKtc-Regular-32"/>
       <use xlink:href="#NotoSansCJKtc-Regular-37" transform="translate(55.499985 0)"/>
       <use xlink:href="#NotoSansCJKtc-Regular-2f" transform="translate(110.999969 0)"/>
       <use xlink:href="#NotoSansCJKtc-Regular-31" transform="translate(150.199966 0)"/>
       <use xlink:href="#NotoSansCJKtc-Regular-31" transform="translate(205.699951 0)"/>
      </g>
     </g>
    </g>
    <g id="xtick_9">
     <g id="line2d_9"/>
     <g id="text_9">
      <!-- 28/01 -->
      <g style="fill: #6b7076" transform="translate(538.102421 303.487437) scale(0.09 -0.09)">
       <defs>
        <path id="NotoSansCJKtc-Regular-38" d="M 1792 -83 
C 2669 -83 3258 448 3258 1126 
C 3258 1773 2880 2125 2470 2362 
L 2470 2394 
C 2746 2611 3091 3034 3091 3526 
C 3091 4250 2605 4762 1805 4762 
C 1075 4762 518 4282 518 3571 
C 518 3078 813 2726 1152 2490 
L 1152 2464 
C 723 2234 294 1792 294 1165 
C 294 442 922 -83 1792 -83 
z
M 2112 2547 
C 1555 2765 1050 3014 1050 3571 
C 1050 4026 1363 4326 1798 4326 
C 2298 4326 2592 3962 2592 3494 
C 2592 3149 2426 2829 2112 2547 
z
M 1798 352 
C 1235 352 813 717 813 1216 
C 813 1664 1082 2035 1459 2278 
C 2125 2010 2701 1779 2701 1146 
C 2701 678 2342 352 1798 352 
z
" transform="scale(0.015625)"/>
       </defs>
       <use xlink:href="#NotoSansCJKtc-Regular-32"/>
       <use xlink:href="#NotoSansCJKtc-Regular-38" transform="translate(55.499985 0)"/>
       <use xlink:href="#NotoSansCJKtc-Regular-2f" transform="translate(110.999969 0)"/>
       <use xlink:href="#NotoSansCJKtc-Regular-30" transform="translate(150.199966 0)"/>
       <use xlink:href="#NotoSansCJKtc-Regular-31" transform="translate(205.699951 0)"/>
      </g>
     </g>
    </g>
   </g>
   <g id="matplotlib.axis_2">
    <g id="ytick_1">
     <g id="line2d_10">
      <path d="M 46.44 286.944 
L 572.76 286.944 
" clip-path="url(#p590cffd353)" style="fill: none; stroke: #e7e5e2; stroke-width: 0.8; stroke-linecap: square"/>
     </g>
     <g id="line2d_11"/>
     <g id="text_10">
      <!-- 1 -->
      <g style="fill: #6b7076" transform="translate(37.945 290.525719) scale(0.09 -0.09)">
       <use xlink:href="#NotoSansCJKtc-Regular-31"/>
      </g>
     </g>
    </g>
    <g id="ytick_2">
     <g id="line2d_12">
      <path d="M 46.44 239.904 
L 572.76 239.904 
" clip-path="url(#p590cffd353)" style="fill: none; stroke: #e7e5e2; stroke-width: 0.8; stroke-linecap: square"/>
     </g>
     <g id="line2d_13"/>
     <g id="text_11">
      <!-- 1 -->
      <g style="fill: #6b7076" transform="translate(37.945 243.485719) scale(0.09 -0.09)">
       <use xlink:href="#NotoSansCJKtc-Regular-31"/>
      </g>
     </g>
    </g>
    <g id="ytick_3">
     <g id="line2d_14">
      <path d="M 46.44 192.864 
L 572.76 192.864 
" clip-path="url(#p590cffd353)" style="fill: none; stroke: #e7e5e2; stroke-width: 0.8; stroke-linecap: square"/>
     </g>
     <g id="line2d_15"/>
     <g id="text_12">
      <!-- 2 -->
      <g style="fill: #6b7076" transform="translate(37.945 196.445719) scale(0.09 -0.09)">
       <use xlink:href="#NotoSansCJKtc-Regular-32"/>
      </g>
     </g>
    </g>
    <g id="ytick_4">
     <g id="line2d_16">
      <path d="M 46.44 145.824 
L 572.76 145.824 
" clip-path="url(#p590cffd353)" style="fill: none; stroke: #e7e5e2; stroke-width: 0.8; stroke-linecap: square"/>
     </g>
     <g id="line2d_17"/>
     <g id="text_13">
      <!-- 2 -->
      <g style="fill: #6b7076" transform="translate(37.945 149.405719) scale(0.09 -0.09)">
       <use xlink:href="#NotoSansCJKtc-Regular-32"/>
      </g>
     </g>
    </g>
    <g id="ytick_5">
     <g id="line2d_18">
      <path d="M 46.44 98.784 
L 572.76 98.784 
" clip-path="url(#p590cffd353)" style="fill: none; stroke: #e7e5e2; stroke-width: 0.8; stroke-linecap: square"/>
     </g>
     <g id="line2d_19"/>
     <g id="text_14">
      <!-- 2 -->
      <g style="fill: #6b7076" transform="translate(37.945 102.365719) scale(0.09 -0.09)">
       <use xlink:href="#NotoSansCJKtc-Regular-32"/>
      </g>
     </g>
    </g>
   </g>
   <g id="line2d_20">
    <path d="M 70.363636 275.184 
L 176.464198 216.384 
L 548.836364 157.584 
" clip-path="url(#p590cffd353)" style="fill: none; stroke: #d70c18; stroke-width: 1.9; stroke-linecap: square"/>
   </g>
   <g id="line2d_21">
    <path d="M 70.363636 275.184 
L 176.464198 216.384 
L 548.836364 98.784 
" clip-path="url(#p590cffd353)" style="fill: none; stroke: #1f4e79; stroke-width: 1.9; stroke-linecap: square"/>
   </g>
   <g id="line2d_22">
    <path d="M 70.363636 275.184 
L 176.464198 157.584 
L 548.836364 157.584 
" clip-path="url(#p590cffd353)" style="fill: none; stroke: #8a8f95; stroke-width: 1.9; stroke-linecap: square"/>
   </g>
   <g id="patch_3">
    <path d="M 46.44 292.824 
L 572.76 292.824 
" style="fill: none; stroke: #c9c5c0; stroke-width: 0.9; stroke-linejoin: miter; stroke-linecap: square"/>
   </g>
   <g id="text_15">
    <!-- 1.75 -->
    <g style="fill: #d70c18" transform="translate(553.836364 160.584) scale(0.085 -0.085)">
     <defs>
      <path id="NotoSansCJKtc-Bold-31" d="M 525 0 
L 3373 0 
L 3373 768 
L 2483 768 
L 2483 4742 
L 1786 4742 
C 1485 4550 1165 4429 685 4346 
L 685 3757 
L 1549 3757 
L 1549 768 
L 525 768 
L 525 0 
z
" transform="scale(0.015625)"/>
      <path id="NotoSansCJKtc-Bold-2e" d="M 1043 -90 
C 1376 -90 1626 179 1626 525 
C 1626 877 1376 1139 1043 1139 
C 704 1139 454 877 454 525 
C 454 179 704 -90 1043 -90 
z
" transform="scale(0.015625)"/>
      <path id="NotoSansCJKtc-Bold-37" d="M 1190 0 
L 2138 0 
C 2221 1850 2368 2822 3469 4166 
L 3469 4742 
L 320 4742 
L 320 3949 
L 2451 3949 
C 1549 2694 1274 1645 1190 0 
z
" transform="scale(0.015625)"/>
      <path id="NotoSansCJKtc-Bold-35" d="M 1773 -90 
C 2637 -90 3424 518 3424 1574 
C 3424 2605 2765 3072 1965 3072 
C 1747 3072 1581 3034 1395 2944 
L 1485 3949 
L 3206 3949 
L 3206 4742 
L 672 4742 
L 544 2438 
L 973 2163 
C 1254 2342 1408 2406 1683 2406 
C 2157 2406 2483 2099 2483 1549 
C 2483 992 2138 678 1645 678 
C 1210 678 870 896 602 1158 
L 166 557 
C 525 205 1018 -90 1773 -90 
z
" transform="scale(0.015625)"/>
     </defs>
     <use xlink:href="#NotoSansCJKtc-Bold-31"/>
     <use xlink:href="#NotoSansCJKtc-Bold-2e" transform="translate(58.999985 0)"/>
     <use xlink:href="#NotoSansCJKtc-Bold-37" transform="translate(91.499969 0)"/>
     <use xlink:href="#NotoSansCJKtc-Bold-35" transform="translate(150.499954 0)"/>
    </g>
   </g>
   <g id="text_16">
    <!-- 2 -->
    <g style="fill: #1f4e79" transform="translate(553.836364 101.784) scale(0.085 -0.085)">
     <defs>
      <path id="NotoSansCJKtc-Bold-32" d="M 275 0 
L 3450 0 
L 3450 794 
L 2426 794 
C 2202 794 1888 768 1645 736 
C 2509 1587 3226 2509 3226 3366 
C 3226 4250 2630 4826 1734 4826 
C 1088 4826 666 4576 224 4102 
L 749 3597 
C 986 3859 1267 4083 1613 4083 
C 2067 4083 2323 3789 2323 3322 
C 2323 2586 1568 1696 275 544 
L 275 0 
z
" transform="scale(0.015625)"/>
     </defs>
     <use xlink:href="#NotoSansCJKtc-Bold-32"/>
    </g>
   </g>
   <g id="text_17">
    <!-- 1.75 -->
    <g style="fill: #8a8f95" transform="translate(553.836364 148.584) scale(0.085 -0.085)">
     <use xlink:href="#NotoSansCJKtc-Bold-31"/>
     <use xlink:href="#NotoSansCJKtc-Bold-2e" transform="translate(58.999985 0)"/>
     <use xlink:href="#NotoSansCJKtc-Bold-37" transform="translate(91.499969 0)"/>
     <use xlink:href="#NotoSansCJKtc-Bold-35" transform="translate(150.499954 0)"/>
    </g>
   </g>
   <g id="legend_1">
    <g id="line2d_23">
     <path d="M 54.54 78.228157 
L 61.74 78.228157 
L 68.94 78.228157 
" style="fill: none; stroke: #d70c18; stroke-width: 1.9; stroke-linecap: square"/>
    </g>
    <g id="text_18">
     <!-- 主情境（60%） -->
     <g style="fill: #14161a" transform="translate(76.14 81.378157) scale(0.09 -0.09)">
      <defs>
       <path id="NotoSansCJKtc-Regular-4e3b" d="M 2394 5088 
C 2784 4800 3232 4390 3488 4096 
L 659 4096 
L 659 3629 
L 2938 3629 
L 2938 2221 
L 954 2221 
L 954 1754 
L 2938 1754 
L 2938 173 
L 358 173 
L 358 -294 
L 6067 -294 
L 6067 173 
L 3456 173 
L 3456 1754 
L 5478 1754 
L 5478 2221 
L 3456 2221 
L 3456 3629 
L 5741 3629 
L 5741 4096 
L 3661 4096 
L 3968 4320 
C 3712 4621 3194 5056 2784 5350 
L 2394 5088 
z
" transform="scale(0.015625)"/>
       <path id="NotoSansCJKtc-Regular-60c5" d="M 1165 5382 
L 1165 -499 
L 1613 -499 
L 1613 5382 
L 1165 5382 
z
M 506 4141 
C 461 3635 346 2931 186 2496 
L 582 2355 
C 742 2835 851 3578 890 4083 
L 506 4141 
z
M 1651 4314 
C 1805 4000 1971 3578 2042 3322 
L 2387 3507 
C 2317 3744 2138 4147 1978 4454 
L 1651 4314 
z
M 5267 1344 
L 5267 858 
L 3053 858 
C 3072 1030 3078 1190 3078 1344 
L 5267 1344 
z
M 5267 1709 
L 3078 1709 
L 3078 2202 
L 5267 2202 
L 5267 1709 
z
M 3891 5376 
L 3891 4877 
L 2368 4877 
L 2368 4506 
L 3891 4506 
L 3891 4096 
L 2547 4096 
L 2547 3744 
L 3891 3744 
L 3891 3302 
L 2195 3302 
L 2195 2931 
L 6118 2931 
L 6118 3302 
L 4371 3302 
L 4371 3744 
L 5754 3744 
L 5754 4096 
L 4371 4096 
L 4371 4506 
L 5926 4506 
L 5926 4877 
L 4371 4877 
L 4371 5376 
L 3891 5376 
z
M 2624 2560 
L 2624 1382 
C 2624 877 2586 230 2234 -250 
C 2330 -314 2515 -486 2579 -582 
C 2810 -275 2938 109 3008 493 
L 5267 493 
L 5267 13 
C 5267 -64 5235 -90 5146 -90 
C 5062 -96 4755 -96 4429 -90 
C 4493 -205 4550 -384 4576 -499 
C 5024 -499 5312 -499 5491 -429 
C 5670 -358 5722 -230 5722 13 
L 5722 2560 
L 2624 2560 
z
" transform="scale(0.015625)"/>
       <path id="NotoSansCJKtc-Regular-5883" d="M 3104 1920 
L 5126 1920 
L 5126 1498 
L 3104 1498 
L 3104 1920 
z
M 3104 2656 
L 5126 2656 
L 5126 2240 
L 3104 2240 
L 3104 2656 
z
M 3757 5331 
C 3814 5203 3878 5050 3930 4909 
L 2541 4909 
L 2541 4506 
L 5760 4506 
L 5760 4909 
L 4429 4909 
C 4371 5069 4288 5261 4205 5414 
L 3757 5331 
z
M 4787 4429 
C 4730 4230 4621 3949 4518 3738 
L 3437 3738 
L 3680 3802 
C 3642 3974 3539 4243 3450 4442 
L 3053 4352 
C 3136 4166 3219 3917 3258 3738 
L 2349 3738 
L 2349 3328 
L 5933 3328 
L 5933 3738 
L 4947 3738 
C 5043 3910 5139 4122 5229 4320 
L 4787 4429 
z
M 2656 2995 
L 2656 1158 
L 3322 1158 
C 3238 416 2963 45 1914 -160 
C 2010 -243 2131 -422 2163 -531 
C 3341 -256 3674 230 3776 1158 
L 4358 1158 
L 4358 211 
C 4358 -134 4403 -237 4512 -314 
C 4614 -397 4806 -422 4954 -422 
C 5037 -422 5293 -422 5389 -422 
C 5510 -422 5690 -410 5779 -378 
C 5894 -339 5971 -275 6016 -166 
C 6061 -70 6086 198 6099 461 
C 5971 499 5798 576 5715 659 
C 5709 397 5702 205 5683 115 
C 5664 32 5619 -6 5568 -26 
C 5530 -45 5434 -45 5350 -45 
C 5261 -45 5107 -45 5043 -45 
C 4960 -45 4902 -38 4864 -19 
C 4819 6 4813 64 4813 166 
L 4813 1158 
L 5587 1158 
L 5587 2995 
L 2656 2995 
z
M 218 826 
L 378 339 
C 915 550 1606 819 2259 1088 
L 2163 1523 
L 1491 1274 
L 1491 3360 
L 2112 3360 
L 2112 3814 
L 1491 3814 
L 1491 5299 
L 1024 5299 
L 1024 3814 
L 320 3814 
L 320 3360 
L 1024 3360 
L 1024 1101 
C 723 992 442 896 218 826 
z
" transform="scale(0.015625)"/>
       <path id="NotoSansCJKtc-Regular-ff08" d="M 4448 2432 
C 4448 1184 4954 166 5722 -614 
L 6106 -416 
C 5370 346 4915 1293 4915 2432 
C 4915 3571 5370 4518 6106 5280 
L 5722 5478 
C 4954 4698 4448 3680 4448 2432 
z
" transform="scale(0.015625)"/>
       <path id="NotoSansCJKtc-Regular-25" d="M 1312 1818 
C 1958 1818 2381 2362 2381 3309 
C 2381 4243 1958 4774 1312 4774 
C 672 4774 250 4243 250 3309 
C 250 2362 672 1818 1312 1818 
z
M 1312 2176 
C 941 2176 691 2560 691 3309 
C 691 4058 941 4416 1312 4416 
C 1683 4416 1933 4058 1933 3309 
C 1933 2560 1683 2176 1312 2176 
z
M 1446 -83 
L 1843 -83 
L 4435 4774 
L 4038 4774 
L 1446 -83 
z
M 4582 -83 
C 5222 -83 5645 454 5645 1402 
C 5645 2342 5222 2874 4582 2874 
C 3942 2874 3520 2342 3520 1402 
C 3520 454 3942 -83 4582 -83 
z
M 4582 275 
C 4211 275 3955 653 3955 1402 
C 3955 2150 4211 2515 4582 2515 
C 4947 2515 5210 2150 5210 1402 
C 5210 653 4947 275 4582 275 
z
" transform="scale(0.015625)"/>
       <path id="NotoSansCJKtc-Regular-ff09" d="M 1952 2432 
C 1952 3680 1446 4698 678 5478 
L 294 5280 
C 1030 4518 1485 3571 1485 2432 
C 1485 1293 1030 346 294 -416 
L 678 -614 
C 1446 166 1952 1184 1952 2432 
z
" transform="scale(0.015625)"/>
      </defs>
      <use xlink:href="#NotoSansCJKtc-Regular-4e3b"/>
      <use xlink:href="#NotoSansCJKtc-Regular-60c5" transform="translate(99.999985 0)"/>
      <use xlink:href="#NotoSansCJKtc-Regular-5883" transform="translate(199.999969 0)"/>
      <use xlink:href="#NotoSansCJKtc-Regular-ff08" transform="translate(299.999954 0)"/>
      <use xlink:href="#NotoSansCJKtc-Regular-36" transform="translate(399.999939 0)"/>
      <use xlink:href="#NotoSansCJKtc-Regular-30" transform="translate(455.499924 0)"/>
      <use xlink:href="#NotoSansCJKtc-Regular-25" transform="translate(510.999908 0)"/>
      <use xlink:href="#NotoSansCJKtc-Regular-ff09" transform="translate(603.099899 0)"/>
     </g>
    </g>
    <g id="line2d_24">
     <path d="M 157.418437 78.228157 
L 164.618437 78.228157 
L 171.818437 78.228157 
" style="fill: none; stroke: #1f4e79; stroke-width: 1.9; stroke-linecap: square"/>
    </g>
    <g id="text_19">
     <!-- 風險情境 A（30%） -->
     <g style="fill: #14161a" transform="translate(179.018437 81.378157) scale(0.09 -0.09)">
      <defs>
       <path id="NotoSansCJKtc-Regular-98a8" d="M 986 5030 
L 986 2963 
C 986 1978 915 666 224 -256 
C 333 -307 538 -442 614 -525 
C 1338 448 1440 1914 1440 2963 
L 1440 4576 
L 4928 4576 
C 4947 1773 4941 -512 5715 -512 
C 6042 -512 6138 -186 6189 640 
C 6099 717 5978 864 5894 992 
C 5882 429 5843 -6 5766 -6 
C 5389 -6 5382 2630 5389 5030 
L 986 5030 
z
M 2202 2752 
L 2925 2752 
L 2925 1766 
L 2202 1766 
L 2202 2752 
z
M 3354 2752 
L 4090 2752 
L 4090 1766 
L 3354 1766 
L 3354 2752 
z
M 1722 4154 
L 1722 3757 
L 2925 3757 
L 2925 3136 
L 1811 3136 
L 1811 1376 
L 2925 1376 
L 2925 480 
C 2349 442 1824 416 1421 397 
L 1459 -45 
L 4390 166 
C 4474 -13 4544 -186 4582 -333 
L 4979 -186 
C 4870 211 4544 800 4211 1229 
L 3840 1101 
C 3962 934 4077 749 4186 557 
L 3354 506 
L 3354 1376 
L 4493 1376 
L 4493 3136 
L 3354 3136 
L 3354 3757 
L 4602 3757 
L 4602 4154 
L 1722 4154 
z
" transform="scale(0.015625)"/>
       <path id="NotoSansCJKtc-Regular-96aa" d="M 2778 2726 
L 3462 2726 
L 3462 1882 
L 2778 1882 
L 2778 2726 
z
M 2406 3072 
L 2406 1530 
L 3840 1530 
L 3840 3072 
L 2406 3072 
z
M 4614 2726 
L 5325 2726 
L 5325 1882 
L 4614 1882 
L 4614 2726 
z
M 4243 3072 
L 4243 1530 
L 5715 1530 
L 5715 3072 
L 4243 3072 
z
M 499 5120 
L 499 -493 
L 915 -493 
L 915 4685 
L 1683 4685 
C 1555 4256 1382 3693 1203 3232 
C 1638 2720 1741 2285 1741 1933 
C 1741 1734 1709 1562 1619 1485 
C 1568 1446 1498 1434 1427 1427 
C 1331 1421 1210 1427 1075 1434 
C 1146 1312 1184 1126 1190 1011 
C 1325 1005 1478 1005 1600 1018 
C 1728 1037 1837 1069 1920 1139 
C 2093 1267 2163 1542 2163 1888 
C 2163 2285 2054 2752 1619 3283 
C 1824 3795 2048 4429 2221 4954 
L 1920 5139 
L 1850 5120 
L 499 5120 
z
M 3891 5427 
C 3526 4819 2835 4192 2061 3789 
C 2157 3718 2317 3558 2387 3469 
C 2624 3603 2854 3750 3072 3917 
L 3072 3546 
L 4992 3546 
L 4992 3930 
L 3091 3930 
C 3418 4173 3718 4454 3968 4749 
C 4499 4275 5280 3802 5946 3514 
C 5984 3635 6080 3834 6163 3942 
C 5504 4179 4691 4614 4211 5062 
L 4352 5267 
L 3891 5427 
z
M 2957 1382 
C 2746 691 2310 134 1722 -218 
C 1824 -294 1984 -448 2048 -531 
C 2426 -275 2758 70 3021 486 
C 3264 314 3526 96 3667 -64 
L 3923 262 
C 3770 422 3469 653 3200 819 
C 3270 973 3334 1126 3386 1293 
L 2957 1382 
z
M 4742 1389 
C 4602 698 4262 141 3738 -198 
C 3834 -269 4000 -435 4064 -506 
C 4384 -275 4646 26 4851 397 
C 5222 134 5626 -192 5837 -422 
L 6131 -83 
C 5888 160 5421 506 5018 768 
C 5088 941 5139 1126 5184 1325 
L 4742 1389 
z
" transform="scale(0.015625)"/>
       <path id="NotoSansCJKtc-Regular-20" transform="scale(0.015625)"/>
       <path id="NotoSansCJKtc-Regular-41" d="M 26 0 
L 621 0 
L 1075 1434 
L 2790 1434 
L 3238 0 
L 3866 0 
L 2272 4691 
L 1613 4691 
L 26 0 
z
M 1222 1901 
L 1453 2624 
C 1619 3155 1773 3661 1920 4211 
L 1946 4211 
C 2099 3667 2246 3155 2419 2624 
L 2643 1901 
L 1222 1901 
z
" transform="scale(0.015625)"/>
      </defs>
      <use xlink:href="#NotoSansCJKtc-Regular-98a8"/>
      <use xlink:href="#NotoSansCJKtc-Regular-96aa" transform="translate(99.999985 0)"/>
      <use xlink:href="#NotoSansCJKtc-Regular-60c5" transform="translate(199.999969 0)"/>
      <use xlink:href="#NotoSansCJKtc-Regular-5883" transform="translate(299.999954 0)"/>
      <use xlink:href="#NotoSansCJKtc-Regular-20" transform="translate(399.999939 0)"/>
      <use xlink:href="#NotoSansCJKtc-Regular-41" transform="translate(422.399933 0)"/>
      <use xlink:href="#NotoSansCJKtc-Regular-ff08" transform="translate(483.199921 0)"/>
      <use xlink:href="#NotoSansCJKtc-Regular-33" transform="translate(583.199905 0)"/>
      <use xlink:href="#NotoSansCJKtc-Regular-30" transform="translate(638.69989 0)"/>
      <use xlink:href="#NotoSansCJKtc-Regular-25" transform="translate(694.199875 0)"/>
      <use xlink:href="#NotoSansCJKtc-Regular-ff09" transform="translate(786.299866 0)"/>
     </g>
    </g>
    <g id="line2d_25">
     <path d="M 276.785156 78.228157 
L 283.985156 78.228157 
L 291.185156 78.228157 
" style="fill: none; stroke: #8a8f95; stroke-width: 1.9; stroke-linecap: square"/>
    </g>
    <g id="text_20">
     <!-- 風險情境 B（10%） -->
     <g style="fill: #14161a" transform="translate(298.385156 81.378157) scale(0.09 -0.09)">
      <defs>
       <path id="NotoSansCJKtc-Regular-42" d="M 646 0 
L 2138 0 
C 3187 0 3917 454 3917 1376 
C 3917 2016 3520 2387 2963 2496 
L 2963 2528 
C 3405 2669 3648 3078 3648 3546 
C 3648 4371 2982 4691 2035 4691 
L 646 4691 
L 646 0 
z
M 1235 2701 
L 1235 4224 
L 1958 4224 
C 2694 4224 3066 4019 3066 3469 
C 3066 2989 2739 2701 1933 2701 
L 1235 2701 
z
M 1235 474 
L 1235 2240 
L 2054 2240 
C 2880 2240 3334 1978 3334 1395 
C 3334 762 2861 474 2054 474 
L 1235 474 
z
" transform="scale(0.015625)"/>
      </defs>
      <use xlink:href="#NotoSansCJKtc-Regular-98a8"/>
      <use xlink:href="#NotoSansCJKtc-Regular-96aa" transform="translate(99.999985 0)"/>
      <use xlink:href="#NotoSansCJKtc-Regular-60c5" transform="translate(199.999969 0)"/>
      <use xlink:href="#NotoSansCJKtc-Regular-5883" transform="translate(299.999954 0)"/>
      <use xlink:href="#NotoSansCJKtc-Regular-20" transform="translate(399.999939 0)"/>
      <use xlink:href="#NotoSansCJKtc-Regular-42" transform="translate(422.399933 0)"/>
      <use xlink:href="#NotoSansCJKtc-Regular-ff08" transform="translate(488.09993 0)"/>
      <use xlink:href="#NotoSansCJKtc-Regular-31" transform="translate(588.099915 0)"/>
      <use xlink:href="#NotoSansCJKtc-Regular-30" transform="translate(643.599899 0)"/>
      <use xlink:href="#NotoSansCJKtc-Regular-25" transform="translate(699.099884 0)"/>
      <use xlink:href="#NotoSansCJKtc-Regular-ff09" transform="translate(791.199875 0)"/>
     </g>
    </g>
   </g>
  </g>
  <g id="text_21">
   <!-- 野村三個日銀情境的政策利率路徑 -->
   <g style="fill: #14161a" transform="translate(46.44 27.446547) scale(0.145 -0.145)">
    <defs>
     <path id="NotoSansCJKtc-Bold-91ce" d="M 1018 3488 
L 1491 3488 
L 1491 3008 
L 1018 3008 
L 1018 3488 
z
M 2131 3488 
L 2592 3488 
L 2592 3008 
L 2131 3008 
L 2131 3488 
z
M 1018 4525 
L 1491 4525 
L 1491 4058 
L 1018 4058 
L 1018 4525 
z
M 2131 4525 
L 2592 4525 
L 2592 4058 
L 2131 4058 
L 2131 4525 
z
M 192 365 
L 282 -384 
C 1114 -282 2278 -134 3373 13 
L 3354 691 
L 2182 563 
L 2182 1184 
L 3251 1184 
L 3251 1875 
L 2182 1875 
L 2182 2400 
L 3245 2400 
L 3245 5139 
L 390 5139 
L 390 2400 
L 1440 2400 
L 1440 1875 
L 403 1875 
L 403 1184 
L 1440 1184 
L 1440 486 
L 192 365 
z
M 3552 3738 
C 3942 3552 4378 3290 4730 3040 
L 3386 3040 
L 3386 2310 
L 4230 2310 
L 4230 275 
C 4230 192 4198 173 4109 173 
C 4013 166 3680 166 3392 186 
C 3494 -26 3597 -352 3616 -570 
C 4083 -570 4429 -563 4678 -442 
C 4928 -326 4992 -109 4992 256 
L 4992 2310 
L 5421 2310 
C 5350 1984 5274 1670 5210 1446 
L 5830 1312 
C 5984 1728 6150 2374 6272 2950 
L 5747 3059 
L 5638 3040 
L 5491 3040 
L 5658 3226 
C 5517 3341 5338 3469 5133 3603 
C 5523 3955 5894 4416 6157 4832 
L 5670 5178 
L 5504 5139 
L 3456 5139 
L 3456 4454 
L 4992 4454 
C 4864 4275 4717 4090 4570 3936 
C 4384 4038 4198 4134 4026 4211 
L 3552 3738 
z
" transform="scale(0.015625)"/>
     <path id="NotoSansCJKtc-Bold-6751" d="M 3110 2618 
C 3424 2144 3738 1510 3834 1101 
L 4525 1446 
C 4416 1862 4077 2464 3744 2925 
L 3110 2618 
z
M 4806 5434 
L 4806 4128 
L 3059 4128 
L 3059 3398 
L 4806 3398 
L 4806 378 
C 4806 262 4762 224 4634 224 
C 4506 218 4096 218 3699 237 
C 3814 13 3936 -352 3968 -576 
C 4544 -576 4966 -550 5229 -422 
C 5498 -301 5587 -83 5587 371 
L 5587 3398 
L 6246 3398 
L 6246 4128 
L 5587 4128 
L 5587 5434 
L 4806 5434 
z
M 1280 5440 
L 1280 4115 
L 294 4115 
L 294 3392 
L 1197 3392 
C 973 2618 570 1760 115 1248 
C 237 1056 422 736 499 512 
C 794 864 1056 1389 1280 1958 
L 1280 -570 
L 2029 -570 
L 2029 2074 
C 2214 1798 2406 1498 2515 1286 
L 2982 1926 
C 2842 2106 2234 2822 2029 3027 
L 2029 3392 
L 2880 3392 
L 2880 4115 
L 2029 4115 
L 2029 5440 
L 1280 5440 
z
" transform="scale(0.015625)"/>
     <path id="NotoSansCJKtc-Bold-4e09" d="M 762 4826 
L 762 4038 
L 5645 4038 
L 5645 4826 
L 762 4826 
z
M 1203 2765 
L 1203 1984 
L 5133 1984 
L 5133 2765 
L 1203 2765 
z
M 403 595 
L 403 -186 
L 5984 -186 
L 5984 595 
L 403 595 
z
" transform="scale(0.015625)"/>
     <path id="NotoSansCJKtc-Bold-500b" d="M 3757 2016 
L 4403 2016 
L 4403 1344 
L 3757 1344 
L 3757 2016 
z
M 2170 5107 
L 2170 -570 
L 2874 -570 
L 2874 -192 
L 5286 -192 
L 5286 -512 
L 6016 -512 
L 6016 5107 
L 2170 5107 
z
M 2874 474 
L 2874 4442 
L 5286 4442 
L 5286 474 
L 2874 474 
z
M 3200 2547 
L 3200 819 
L 4986 819 
L 4986 2547 
L 4365 2547 
L 4365 3104 
L 5146 3104 
L 5146 3661 
L 4365 3661 
L 4365 4314 
L 3770 4314 
L 3770 3661 
L 3040 3661 
L 3040 3104 
L 3770 3104 
L 3770 2547 
L 3200 2547 
z
M 1382 5421 
C 1088 4499 595 3584 64 2995 
C 186 2797 371 2349 429 2157 
C 576 2323 717 2509 858 2707 
L 858 -582 
L 1587 -582 
L 1587 3981 
C 1779 4384 1946 4800 2080 5203 
L 1382 5421 
z
" transform="scale(0.015625)"/>
     <path id="NotoSansCJKtc-Bold-65e5" d="M 1773 2144 
L 4627 2144 
L 4627 698 
L 1773 698 
L 1773 2144 
z
M 1773 2899 
L 1773 4275 
L 4627 4275 
L 4627 2899 
L 1773 2899 
z
M 986 5050 
L 986 -499 
L 1773 -499 
L 1773 -77 
L 4627 -77 
L 4627 -486 
L 5453 -486 
L 5453 5050 
L 986 5050 
z
" transform="scale(0.015625)"/>
     <path id="NotoSansCJKtc-Bold-9280" d="M 448 1702 
C 557 1344 659 870 691 570 
L 1216 717 
C 1178 1018 1062 1478 947 1837 
L 448 1702 
z
M 5254 3405 
L 5254 2893 
L 3802 2893 
L 3802 3405 
L 5254 3405 
z
M 5254 4026 
L 3802 4026 
L 3802 4525 
L 5254 4525 
L 5254 4026 
z
M 3046 -589 
C 3194 -480 3424 -378 4691 6 
C 4666 173 4627 474 4627 678 
L 3802 461 
L 3802 2234 
L 4128 2234 
C 4416 1018 4890 32 5754 -499 
C 5869 -294 6106 13 6278 160 
C 5894 352 5581 653 5331 1018 
C 5606 1190 5920 1414 6182 1626 
L 5690 2170 
C 5517 1984 5261 1766 5024 1587 
C 4928 1792 4851 2010 4787 2234 
L 5997 2234 
L 5997 5184 
L 3059 5184 
L 3059 474 
C 3059 224 2925 122 2797 64 
C 2899 -90 3014 -403 3046 -589 
z
M 1530 5459 
C 1216 4890 672 4346 154 3994 
C 256 3814 416 3411 461 3245 
L 704 3437 
L 704 3174 
L 1248 3174 
L 1248 2714 
L 365 2714 
L 365 2048 
L 1248 2048 
L 1248 499 
L 243 307 
L 422 -435 
C 1101 -269 1990 -45 2829 173 
L 2758 813 
L 2394 736 
C 2496 1005 2624 1421 2739 1779 
L 2176 1926 
C 2138 1600 2029 1139 1946 838 
L 2342 723 
L 1914 634 
L 1914 2048 
L 2758 2048 
L 2758 2714 
L 1914 2714 
L 1914 3174 
L 2477 3174 
L 2477 3718 
L 2566 3616 
L 3021 4160 
C 2803 4403 2426 4742 2048 5030 
L 2157 5222 
L 1530 5459 
z
M 1120 3821 
C 1318 4026 1504 4250 1677 4480 
C 1926 4269 2182 4026 2381 3821 
L 1120 3821 
z
" transform="scale(0.015625)"/>
     <path id="NotoSansCJKtc-Bold-60c5" d="M 454 4173 
C 410 3642 282 2925 134 2490 
L 736 2272 
C 883 2778 1005 3539 1043 4090 
L 454 4173 
z
M 5101 1210 
L 5101 922 
L 3270 922 
L 3283 1210 
L 5101 1210 
z
M 5101 1747 
L 3290 1747 
L 3290 2074 
L 5101 2074 
L 5101 1747 
z
M 1120 5446 
L 1120 -563 
L 1824 -563 
L 1824 4006 
C 1933 3757 2029 3501 2080 3322 
L 2234 3398 
L 2234 2861 
L 6170 2861 
L 6170 3411 
L 4557 3411 
L 4557 3680 
L 5766 3680 
L 5766 4192 
L 4557 4192 
L 4557 4454 
L 5965 4454 
L 5965 4998 
L 4557 4998 
L 4557 5440 
L 3795 5440 
L 3795 4998 
L 2381 4998 
L 2381 4454 
L 3795 4454 
L 3795 4192 
L 2598 4192 
L 2598 3680 
L 3795 3680 
L 3795 3411 
L 2253 3411 
L 2605 3590 
C 2515 3840 2317 4269 2157 4589 
L 1824 4435 
L 1824 5446 
L 1120 5446 
z
M 2566 2611 
L 2566 1446 
C 2566 954 2534 333 2163 -122 
C 2317 -218 2611 -493 2720 -634 
C 2963 -358 3104 6 3187 384 
L 5101 384 
L 5101 166 
C 5101 90 5069 64 4986 64 
C 4902 64 4595 58 4333 77 
C 4416 -109 4512 -390 4538 -576 
C 4986 -576 5299 -570 5530 -467 
C 5760 -365 5824 -179 5824 154 
L 5824 2611 
L 2566 2611 
z
" transform="scale(0.015625)"/>
     <path id="NotoSansCJKtc-Bold-5883" d="M 3302 1837 
L 4947 1837 
L 4947 1568 
L 3302 1568 
L 3302 1837 
z
M 3302 2554 
L 4947 2554 
L 4947 2291 
L 3302 2291 
L 3302 2554 
z
M 4723 4422 
C 4678 4269 4602 4058 4531 3878 
L 3808 3878 
C 3770 4032 3693 4262 3610 4429 
L 2989 4301 
C 3040 4173 3091 4013 3130 3878 
L 2342 3878 
L 2342 3245 
L 5997 3245 
L 5997 3878 
L 5203 3878 
L 5414 4301 
L 4723 4422 
z
M 3699 5350 
L 3802 5050 
L 2534 5050 
L 2534 4429 
L 5837 4429 
L 5837 5050 
L 4589 5050 
C 4538 5190 4480 5357 4416 5491 
L 3699 5350 
z
M 2605 3034 
L 2605 1088 
L 3130 1088 
C 3046 518 2810 192 1824 -6 
C 1971 -134 2150 -416 2214 -595 
C 3424 -294 3744 237 3853 1088 
L 4314 1088 
L 4314 307 
C 4314 -83 4371 -224 4493 -333 
C 4608 -435 4819 -486 4986 -486 
C 5088 -486 5286 -486 5402 -486 
C 5517 -486 5696 -467 5798 -429 
C 5920 -378 6010 -301 6067 -186 
C 6118 -77 6144 173 6163 422 
C 5978 480 5702 614 5574 730 
C 5568 506 5562 326 5549 250 
C 5530 173 5504 134 5472 122 
C 5440 109 5395 109 5344 109 
C 5286 109 5203 109 5158 109 
C 5114 109 5075 115 5050 134 
C 5030 160 5024 205 5024 288 
L 5024 1088 
L 5683 1088 
L 5683 3034 
L 2605 3034 
z
M 141 966 
L 390 179 
C 973 410 1702 698 2368 979 
L 2214 1677 
L 1626 1466 
L 1626 3181 
L 2176 3181 
L 2176 3910 
L 1626 3910 
L 1626 5350 
L 883 5350 
L 883 3910 
L 256 3910 
L 256 3181 
L 883 3181 
L 883 1203 
C 608 1107 352 1030 141 966 
z
" transform="scale(0.015625)"/>
     <path id="NotoSansCJKtc-Bold-7684" d="M 3430 2598 
C 3744 2131 4141 1498 4320 1107 
L 4973 1504 
C 4774 1882 4346 2496 4032 2938 
L 3430 2598 
z
M 3744 5434 
C 3558 4672 3251 3898 2880 3347 
L 2880 4397 
L 1888 4397 
C 1997 4666 2112 4998 2214 5318 
L 1382 5440 
C 1357 5133 1280 4717 1197 4397 
L 467 4397 
L 467 -384 
L 1165 -384 
L 1165 90 
L 2880 90 
L 2880 3098 
C 3053 2989 3270 2829 3379 2726 
C 3578 3002 3770 3354 3942 3744 
L 5318 3744 
C 5254 1478 5171 512 4973 307 
C 4896 218 4826 198 4698 198 
C 4531 198 4147 198 3738 237 
C 3872 26 3974 -301 3987 -512 
C 4365 -525 4755 -531 4998 -499 
C 5261 -454 5440 -384 5613 -141 
C 5882 198 5952 1222 6035 4102 
C 6042 4192 6042 4448 6042 4448 
L 4230 4448 
C 4326 4717 4416 4992 4486 5261 
L 3744 5434 
z
M 1165 3731 
L 2189 3731 
L 2189 2688 
L 1165 2688 
L 1165 3731 
z
M 1165 762 
L 1165 2022 
L 2189 2022 
L 2189 762 
L 1165 762 
z
" transform="scale(0.015625)"/>
     <path id="NotoSansCJKtc-Bold-653f" d="M 3846 5440 
C 3706 4531 3450 3661 3046 3034 
L 3046 3200 
L 2317 3200 
L 2317 4320 
L 3226 4320 
L 3226 5062 
L 282 5062 
L 282 4320 
L 1568 4320 
L 1568 1018 
L 1158 934 
L 1158 3552 
L 467 3552 
L 467 806 
L 128 749 
L 269 -26 
C 1094 154 2234 403 3290 646 
L 3219 1350 
L 2317 1165 
L 2317 2477 
L 3046 2477 
L 3046 2534 
C 3187 2413 3334 2278 3405 2189 
C 3482 2285 3558 2387 3629 2502 
C 3763 1984 3936 1510 4154 1088 
C 3834 666 3405 333 2842 90 
C 2982 -70 3206 -416 3277 -589 
C 3808 -320 4237 6 4582 410 
C 4896 13 5274 -320 5734 -563 
C 5850 -358 6086 -64 6259 90 
C 5766 320 5370 659 5056 1088 
C 5427 1754 5651 2566 5798 3558 
L 6202 3558 
L 6202 4269 
L 4371 4269 
C 4467 4608 4544 4960 4608 5318 
L 3846 5440 
z
M 4141 3558 
L 5030 3558 
C 4941 2912 4813 2342 4602 1862 
C 4384 2342 4224 2886 4109 3475 
L 4141 3558 
z
" transform="scale(0.015625)"/>
     <path id="NotoSansCJKtc-Bold-7b56" d="M 4320 4237 
C 4550 4058 4838 3795 4979 3622 
L 5491 4070 
C 5389 4186 5216 4333 5043 4467 
L 6157 4467 
L 6157 5050 
L 4390 5050 
L 4499 5318 
L 3795 5498 
C 3642 5037 3347 4582 2995 4288 
C 3110 4224 3283 4090 3418 3974 
L 2861 3974 
L 2861 3622 
L 2182 3622 
L 2643 4038 
C 2541 4160 2374 4320 2208 4461 
L 3123 4461 
L 3123 5050 
L 1715 5050 
L 1824 5299 
L 1146 5498 
C 947 4986 595 4480 218 4147 
C 365 4026 621 3763 730 3629 
C 954 3846 1184 4141 1382 4461 
L 1766 4461 
L 1523 4250 
C 1734 4064 2003 3808 2138 3622 
L 403 3622 
L 403 2963 
L 2861 2963 
L 2861 2656 
L 813 2656 
L 813 870 
L 1632 870 
L 1632 2003 
L 2861 2003 
L 2861 1555 
C 2310 941 1312 448 243 243 
C 403 83 621 -211 723 -403 
C 1523 -186 2278 192 2861 704 
L 2861 -576 
L 3686 -576 
L 3686 678 
C 4218 250 4947 -160 5766 -358 
C 5869 -160 6093 154 6253 320 
C 5613 429 5018 640 4525 890 
C 4877 890 5165 896 5382 992 
C 5613 1082 5677 1242 5677 1562 
L 5677 2656 
L 3686 2656 
L 3686 2963 
L 6003 2963 
L 6003 3622 
L 3686 3622 
L 3686 3962 
C 3821 4109 3955 4282 4077 4467 
L 4595 4467 
L 4320 4237 
z
M 3686 2003 
L 4890 2003 
L 4890 1562 
C 4890 1491 4858 1472 4787 1472 
C 4710 1472 4448 1466 4243 1485 
C 4326 1331 4435 1094 4486 909 
C 4166 1075 3898 1254 3686 1440 
L 3686 2003 
z
" transform="scale(0.015625)"/>
     <path id="NotoSansCJKtc-Bold-5229" d="M 3661 4659 
L 3661 1062 
L 4403 1062 
L 4403 4659 
L 3661 4659 
z
M 5178 5318 
L 5178 371 
C 5178 250 5126 211 5005 205 
C 4870 205 4454 205 4032 224 
C 4147 6 4269 -352 4301 -570 
C 4890 -570 5312 -544 5581 -422 
C 5843 -294 5939 -83 5939 365 
L 5939 5318 
L 5178 5318 
z
M 2790 5414 
C 2170 5133 1133 4890 205 4749 
C 294 4589 397 4326 429 4147 
C 774 4192 1139 4256 1504 4326 
L 1504 3533 
L 282 3533 
L 282 2822 
L 1350 2822 
C 1062 2150 595 1427 134 986 
C 256 781 448 454 525 230 
C 883 602 1222 1146 1504 1728 
L 1504 -563 
L 2253 -563 
L 2253 1651 
C 2509 1382 2771 1094 2931 896 
L 3373 1562 
C 3206 1702 2566 2240 2253 2477 
L 2253 2822 
L 3347 2822 
L 3347 3533 
L 2253 3533 
L 2253 4486 
C 2643 4582 3014 4698 3334 4826 
L 2790 5414 
z
" transform="scale(0.015625)"/>
     <path id="NotoSansCJKtc-Bold-7387" d="M 5229 4115 
C 5024 3859 4666 3514 4403 3309 
L 4966 2963 
C 5235 3155 5581 3450 5869 3744 
L 5229 4115 
z
M 435 3680 
C 774 3475 1197 3162 1389 2950 
L 1933 3405 
C 1715 3616 1280 3904 947 4090 
L 435 3680 
z
M 275 1318 
L 275 608 
L 2790 608 
L 2790 -563 
L 3610 -563 
L 3610 608 
L 6131 608 
L 6131 1318 
L 3610 1318 
L 3610 1747 
L 2790 1747 
L 2790 1318 
L 275 1318 
z
M 2618 5293 
L 2835 4928 
L 442 4928 
L 442 4230 
L 2637 4230 
C 2496 4013 2355 3846 2298 3782 
C 2195 3667 2099 3584 1997 3558 
C 2067 3398 2170 3091 2208 2963 
C 2304 3002 2445 3034 2938 3066 
C 2714 2854 2528 2694 2432 2618 
C 2202 2438 2054 2323 1888 2291 
C 1958 2118 2054 1805 2086 1677 
C 2246 1747 2496 1792 4026 1939 
C 4077 1824 4122 1715 4154 1626 
L 4749 1850 
C 4698 2003 4602 2189 4493 2381 
C 4877 2144 5299 1843 5523 1638 
L 6086 2093 
C 5792 2342 5222 2694 4806 2918 
L 4371 2573 
C 4275 2726 4173 2874 4070 3002 
L 3514 2803 
C 3584 2701 3661 2592 3731 2477 
L 3059 2432 
C 3571 2842 4083 3341 4518 3853 
L 3942 4198 
C 3814 4026 3674 3846 3526 3680 
L 2938 3661 
C 3098 3840 3251 4032 3386 4230 
L 6042 4230 
L 6042 4928 
L 3750 4928 
C 3661 5101 3526 5312 3398 5472 
L 2618 5293 
z
M 256 2266 
L 627 1651 
C 1005 1830 1459 2061 1888 2291 
L 2003 2355 
L 1856 2912 
C 1267 2669 659 2413 256 2266 
z
" transform="scale(0.015625)"/>
     <path id="NotoSansCJKtc-Bold-8def" d="M 1165 4544 
L 2010 4544 
L 2010 3725 
L 1165 3725 
L 1165 4544 
z
M 166 410 
L 301 -333 
C 1030 -160 1997 70 2906 288 
L 2829 966 
L 2074 800 
L 2074 1651 
L 2778 1651 
L 2778 1837 
C 2874 1715 2970 1574 3021 1472 
L 3168 1536 
L 3168 -557 
L 3872 -557 
L 3872 -339 
L 5082 -339 
L 5082 -538 
L 5818 -538 
L 5818 1568 
L 5830 1562 
C 5933 1754 6157 2061 6310 2208 
C 5792 2368 5350 2624 4986 2918 
C 5370 3398 5677 3974 5869 4646 
L 5382 4858 
L 5248 4832 
L 4352 4832 
C 4410 4973 4467 5114 4512 5261 
L 3782 5440 
C 3571 4736 3187 4051 2714 3610 
L 2714 5197 
L 499 5197 
L 499 3072 
L 1395 3072 
L 1395 653 
L 1075 582 
L 1075 2618 
L 454 2618 
L 454 461 
L 166 410 
z
M 3872 320 
L 3872 1171 
L 5082 1171 
L 5082 320 
L 3872 320 
z
M 4922 4179 
C 4794 3910 4640 3654 4461 3424 
C 4275 3642 4122 3866 3994 4090 
L 4045 4179 
L 4922 4179 
z
M 3706 1818 
C 3987 1984 4250 2182 4493 2400 
C 4730 2182 4998 1984 5293 1818 
L 3706 1818 
z
M 4006 2925 
C 3642 2586 3226 2310 2778 2118 
L 2778 2323 
L 2074 2323 
L 2074 3072 
L 2714 3072 
L 2714 3488 
C 2886 3360 3130 3155 3232 3040 
C 3360 3174 3488 3322 3610 3488 
C 3725 3302 3859 3110 4006 2925 
z
" transform="scale(0.015625)"/>
     <path id="NotoSansCJKtc-Bold-5f91" d="M 2278 5139 
L 2278 4454 
L 6131 4454 
L 6131 5139 
L 2278 5139 
z
M 2790 4314 
C 2662 3994 2426 3539 2195 3149 
C 2496 2707 2765 2227 2886 1888 
L 3558 2067 
C 3424 2362 3162 2790 2899 3155 
C 3091 3462 3283 3782 3462 4173 
L 2790 4314 
z
M 3994 4307 
C 3853 3994 3597 3533 3347 3142 
C 3680 2701 3974 2221 4115 1882 
L 4787 2074 
C 4640 2362 4352 2790 4070 3149 
C 4262 3456 4480 3770 4666 4154 
L 3994 4307 
z
M 5229 4307 
C 5075 3994 4794 3526 4518 3142 
C 4902 2701 5242 2221 5414 1882 
L 6080 2080 
C 5907 2374 5581 2803 5261 3155 
C 5472 3456 5702 3757 5907 4147 
L 5229 4307 
z
M 1421 5440 
C 1152 5018 621 4480 160 4154 
C 275 4019 467 3750 563 3597 
C 1094 3987 1696 4608 2099 5165 
L 1421 5440 
z
M 2010 288 
L 2010 -390 
L 6208 -390 
L 6208 288 
L 4531 288 
L 4531 1094 
L 5888 1094 
L 5888 1754 
L 2355 1754 
L 2355 1094 
L 3757 1094 
L 3757 288 
L 2010 288 
z
M 1536 4058 
C 1203 3430 640 2810 102 2406 
C 224 2240 435 1856 506 1696 
C 672 1830 838 1990 1005 2163 
L 1005 -576 
L 1722 -576 
L 1722 3027 
C 1907 3283 2067 3546 2208 3808 
L 1536 4058 
z
" transform="scale(0.015625)"/>
    </defs>
    <use xlink:href="#NotoSansCJKtc-Bold-91ce"/>
    <use xlink:href="#NotoSansCJKtc-Bold-6751" transform="translate(99.999985 0)"/>
    <use xlink:href="#NotoSansCJKtc-Bold-4e09" transform="translate(199.999969 0)"/>
    <use xlink:href="#NotoSansCJKtc-Bold-500b" transform="translate(299.999954 0)"/>
    <use xlink:href="#NotoSansCJKtc-Bold-65e5" transform="translate(399.999939 0)"/>
    <use xlink:href="#NotoSansCJKtc-Bold-9280" transform="translate(499.999924 0)"/>
    <use xlink:href="#NotoSansCJKtc-Bold-60c5" transform="translate(599.999908 0)"/>
    <use xlink:href="#NotoSansCJKtc-Bold-5883" transform="translate(699.999893 0)"/>
    <use xlink:href="#NotoSansCJKtc-Bold-7684" transform="translate(799.999878 0)"/>
    <use xlink:href="#NotoSansCJKtc-Bold-653f" transform="translate(899.999863 0)"/>
    <use xlink:href="#NotoSansCJKtc-Bold-7b56" transform="translate(999.999847 0)"/>
    <use xlink:href="#NotoSansCJKtc-Bold-5229" transform="translate(1099.999832 0)"/>
    <use xlink:href="#NotoSansCJKtc-Bold-7387" transform="translate(1199.999817 0)"/>
    <use xlink:href="#NotoSansCJKtc-Bold-8def" transform="translate(1299.999802 0)"/>
    <use xlink:href="#NotoSansCJKtc-Bold-5f91" transform="translate(1399.999786 0)"/>
   </g>
  </g>
  <g id="text_22">
   <!-- 主情境 60%、風險情境 A 30%、風險情境 B 10%；單位：% -->
   <g style="fill: #6b7076" transform="translate(46.44 46.414575) scale(0.1 -0.1)">
    <defs>
     <path id="NotoSansCJKtc-Regular-3001" d="M 3693 1504 
L 4128 1869 
C 3731 2342 3149 2918 2694 3290 
L 2278 2925 
C 2733 2554 3277 2010 3693 1504 
z
" transform="scale(0.015625)"/>
     <path id="NotoSansCJKtc-Regular-ff1b" d="M 3200 3482 
C 3456 3482 3686 3667 3686 3962 
C 3686 4256 3456 4442 3200 4442 
C 2944 4442 2714 4256 2714 3962 
C 2714 3667 2944 3482 3200 3482 
z
M 2682 -659 
C 3366 -397 3789 141 3789 883 
C 3789 1363 3590 1664 3238 1664 
C 2982 1664 2752 1504 2752 1203 
C 2752 896 2970 742 3232 742 
L 3347 755 
C 3328 256 3053 -83 2534 -320 
L 2682 -659 
z
" transform="scale(0.015625)"/>
     <path id="NotoSansCJKtc-Regular-55ae" d="M 1280 4800 
L 2502 4800 
L 2502 4198 
L 1280 4198 
L 1280 4800 
z
M 845 5126 
L 845 3878 
L 2957 3878 
L 2957 5126 
L 845 5126 
z
M 3904 4800 
L 5152 4800 
L 5152 4198 
L 3904 4198 
L 3904 4800 
z
M 3475 5126 
L 3475 3878 
L 5606 3878 
L 5606 5126 
L 3475 5126 
z
M 1485 2253 
L 2931 2253 
L 2931 1696 
L 1485 1696 
L 1485 2253 
z
M 3430 2253 
L 4966 2253 
L 4966 1696 
L 3430 1696 
L 3430 2253 
z
M 1485 3168 
L 2931 3168 
L 2931 2618 
L 1485 2618 
L 1485 3168 
z
M 3430 3168 
L 4966 3168 
L 4966 2618 
L 3430 2618 
L 3430 3168 
z
M 371 819 
L 371 390 
L 2931 390 
L 2931 -512 
L 3430 -512 
L 3430 390 
L 6048 390 
L 6048 819 
L 3430 819 
L 3430 1306 
L 5453 1306 
L 5453 3552 
L 1011 3552 
L 1011 1306 
L 2931 1306 
L 2931 819 
L 371 819 
z
" transform="scale(0.015625)"/>
     <path id="NotoSansCJKtc-Regular-4f4d" d="M 2362 4211 
L 2362 3744 
L 5850 3744 
L 5850 4211 
L 2362 4211 
z
M 2784 3258 
C 2976 2368 3168 1184 3219 512 
L 3693 653 
C 3629 1306 3430 2458 3219 3360 
L 2784 3258 
z
M 3648 5299 
C 3770 4979 3898 4557 3949 4282 
L 4429 4422 
C 4365 4698 4224 5101 4102 5421 
L 3648 5299 
z
M 2086 218 
L 2086 -243 
L 6112 -243 
L 6112 218 
L 4787 218 
C 5024 1075 5286 2336 5459 3322 
L 4954 3405 
C 4838 2445 4582 1082 4339 218 
L 2086 218 
z
M 1830 5350 
C 1472 4378 870 3418 243 2797 
C 326 2688 467 2438 518 2323 
C 736 2547 947 2810 1152 3098 
L 1152 -499 
L 1632 -499 
L 1632 3846 
C 1882 4282 2106 4749 2285 5216 
L 1830 5350 
z
" transform="scale(0.015625)"/>
     <path id="NotoSansCJKtc-Regular-ff1a" d="M 3200 3482 
C 3456 3482 3686 3667 3686 3962 
C 3686 4256 3456 4442 3200 4442 
C 2944 4442 2714 4256 2714 3962 
C 2714 3667 2944 3482 3200 3482 
z
M 3200 346 
C 3456 346 3686 538 3686 826 
C 3686 1120 3456 1312 3200 1312 
C 2944 1312 2714 1120 2714 826 
C 2714 538 2944 346 3200 346 
z
" transform="scale(0.015625)"/>
    </defs>
    <use xlink:href="#NotoSansCJKtc-Regular-4e3b"/>
    <use xlink:href="#NotoSansCJKtc-Regular-60c5" transform="translate(99.999985 0)"/>
    <use xlink:href="#NotoSansCJKtc-Regular-5883" transform="translate(199.999969 0)"/>
    <use xlink:href="#NotoSansCJKtc-Regular-20" transform="translate(299.999954 0)"/>
    <use xlink:href="#NotoSansCJKtc-Regular-36" transform="translate(322.399948 0)"/>
    <use xlink:href="#NotoSansCJKtc-Regular-30" transform="translate(377.899933 0)"/>
    <use xlink:href="#NotoSansCJKtc-Regular-25" transform="translate(433.399918 0)"/>
    <use xlink:href="#NotoSansCJKtc-Regular-3001" transform="translate(525.499908 0)"/>
    <use xlink:href="#NotoSansCJKtc-Regular-98a8" transform="translate(625.499893 0)"/>
    <use xlink:href="#NotoSansCJKtc-Regular-96aa" transform="translate(725.499878 0)"/>
    <use xlink:href="#NotoSansCJKtc-Regular-60c5" transform="translate(825.499863 0)"/>
    <use xlink:href="#NotoSansCJKtc-Regular-5883" transform="translate(925.499847 0)"/>
    <use xlink:href="#NotoSansCJKtc-Regular-20" transform="translate(1025.499832 0)"/>
    <use xlink:href="#NotoSansCJKtc-Regular-41" transform="translate(1047.899826 0)"/>
    <use xlink:href="#NotoSansCJKtc-Regular-20" transform="translate(1108.699814 0)"/>
    <use xlink:href="#NotoSansCJKtc-Regular-33" transform="translate(1131.099808 0)"/>
    <use xlink:href="#NotoSansCJKtc-Regular-30" transform="translate(1186.599792 0)"/>
    <use xlink:href="#NotoSansCJKtc-Regular-25" transform="translate(1242.099777 0)"/>
    <use xlink:href="#NotoSansCJKtc-Regular-3001" transform="translate(1334.199768 0)"/>
    <use xlink:href="#NotoSansCJKtc-Regular-98a8" transform="translate(1434.199753 0)"/>
    <use xlink:href="#NotoSansCJKtc-Regular-96aa" transform="translate(1534.199738 0)"/>
    <use xlink:href="#NotoSansCJKtc-Regular-60c5" transform="translate(1634.199722 0)"/>
    <use xlink:href="#NotoSansCJKtc-Regular-5883" transform="translate(1734.199707 0)"/>
    <use xlink:href="#NotoSansCJKtc-Regular-20" transform="translate(1834.199692 0)"/>
    <use xlink:href="#NotoSansCJKtc-Regular-42" transform="translate(1856.599686 0)"/>
    <use xlink:href="#NotoSansCJKtc-Regular-20" transform="translate(1922.299683 0)"/>
    <use xlink:href="#NotoSansCJKtc-Regular-31" transform="translate(1944.699677 0)"/>
    <use xlink:href="#NotoSansCJKtc-Regular-30" transform="translate(2000.199661 0)"/>
    <use xlink:href="#NotoSansCJKtc-Regular-25" transform="translate(2055.699646 0)"/>
    <use xlink:href="#NotoSansCJKtc-Regular-ff1b" transform="translate(2147.799637 0)"/>
    <use xlink:href="#NotoSansCJKtc-Regular-55ae" transform="translate(2247.799622 0)"/>
    <use xlink:href="#NotoSansCJKtc-Regular-4f4d" transform="translate(2347.799606 0)"/>
    <use xlink:href="#NotoSansCJKtc-Regular-ff1a" transform="translate(2447.799591 0)"/>
    <use xlink:href="#NotoSansCJKtc-Regular-25" transform="translate(2547.799576 0)"/>
   </g>
  </g>
  <g id="text_23">
   <!-- Nomura, BOJ Watch: Outcome of the BOJ's September Monetary Policy Meeting, 2026-09-18，第 4 頁 Fig. 2 -->
   <g style="fill: #9ba0a6" transform="translate(46.44 346.5664) scale(0.08 -0.08)">
    <defs>
     <path id="NotoSansCJKtc-Regular-4e" d="M 646 0 
L 1203 0 
L 1203 2464 
C 1203 2957 1158 3456 1133 3930 
L 1158 3930 
L 1664 2963 
L 3373 0 
L 3981 0 
L 3981 4691 
L 3418 4691 
L 3418 2253 
C 3418 1766 3462 1235 3501 768 
L 3469 768 
L 2963 1734 
L 1248 4691 
L 646 4691 
L 646 0 
z
" transform="scale(0.015625)"/>
     <path id="NotoSansCJKtc-Regular-6f" d="M 1939 -83 
C 2790 -83 3546 582 3546 1734 
C 3546 2893 2790 3565 1939 3565 
C 1088 3565 333 2893 333 1734 
C 333 582 1088 -83 1939 -83 
z
M 1939 403 
C 1338 403 934 934 934 1734 
C 934 2534 1338 3072 1939 3072 
C 2541 3072 2950 2534 2950 1734 
C 2950 934 2541 403 1939 403 
z
" transform="scale(0.015625)"/>
     <path id="NotoSansCJKtc-Regular-6d" d="M 589 0 
L 1178 0 
L 1178 2522 
C 1491 2880 1786 3053 2048 3053 
C 2490 3053 2694 2778 2694 2125 
L 2694 0 
L 3277 0 
L 3277 2522 
C 3603 2880 3885 3053 4154 3053 
C 4595 3053 4800 2778 4800 2125 
L 4800 0 
L 5382 0 
L 5382 2202 
C 5382 3085 5043 3565 4333 3565 
C 3904 3565 3546 3290 3181 2899 
C 3040 3309 2758 3565 2221 3565 
C 1805 3565 1446 3302 1139 2970 
L 1126 2970 
L 1069 3475 
L 589 3475 
L 589 0 
z
" transform="scale(0.015625)"/>
     <path id="NotoSansCJKtc-Regular-75" d="M 1606 -83 
C 2080 -83 2426 166 2752 544 
L 2771 544 
L 2816 0 
L 3302 0 
L 3302 3475 
L 2720 3475 
L 2720 1011 
C 2387 602 2138 422 1779 422 
C 1318 422 1126 698 1126 1344 
L 1126 3475 
L 538 3475 
L 538 1274 
C 538 384 870 -83 1606 -83 
z
" transform="scale(0.015625)"/>
     <path id="NotoSansCJKtc-Regular-72" d="M 589 0 
L 1178 0 
L 1178 2234 
C 1408 2822 1760 3040 2048 3040 
C 2195 3040 2272 3021 2387 2982 
L 2496 3488 
C 2387 3546 2278 3565 2125 3565 
C 1741 3565 1382 3283 1139 2842 
L 1126 2842 
L 1069 3475 
L 589 3475 
L 589 0 
z
" transform="scale(0.015625)"/>
     <path id="NotoSansCJKtc-Regular-61" d="M 1389 -83 
C 1818 -83 2208 141 2541 416 
L 2560 416 
L 2611 0 
L 3091 0 
L 3091 2138 
C 3091 3002 2739 3565 1888 3565 
C 1325 3565 838 3315 525 3110 
L 749 2707 
C 1024 2893 1389 3078 1792 3078 
C 2362 3078 2509 2650 2509 2202 
C 1030 2035 378 1658 378 902 
C 378 275 806 -83 1389 -83 
z
M 1555 390 
C 1210 390 941 544 941 941 
C 941 1389 1338 1677 2509 1811 
L 2509 845 
C 2170 544 1888 390 1555 390 
z
" transform="scale(0.015625)"/>
     <path id="NotoSansCJKtc-Regular-2c" d="M 480 -1216 
C 1056 -973 1414 -493 1414 122 
C 1414 550 1229 806 922 806 
C 685 806 480 653 480 397 
C 480 141 678 -13 909 -13 
L 979 -6 
C 973 -390 736 -698 339 -870 
L 480 -1216 
z
" transform="scale(0.015625)"/>
     <path id="NotoSansCJKtc-Regular-4f" d="M 2374 -83 
C 3552 -83 4378 858 4378 2362 
C 4378 3866 3552 4774 2374 4774 
C 1197 4774 371 3866 371 2362 
C 371 858 1197 -83 2374 -83 
z
M 2374 435 
C 1530 435 979 1190 979 2362 
C 979 3533 1530 4256 2374 4256 
C 3219 4256 3770 3533 3770 2362 
C 3770 1190 3219 435 2374 435 
z
" transform="scale(0.015625)"/>
     <path id="NotoSansCJKtc-Regular-4a" d="M 1517 -83 
C 2432 -83 2810 563 2810 1376 
L 2810 4691 
L 2214 4691 
L 2214 1434 
C 2214 723 1965 435 1459 435 
C 1120 435 858 589 646 966 
L 224 659 
C 499 173 922 -83 1517 -83 
z
" transform="scale(0.015625)"/>
     <path id="NotoSansCJKtc-Regular-57" d="M 1158 0 
L 1862 0 
L 2560 2829 
C 2637 3200 2726 3539 2797 3898 
L 2822 3898 
C 2899 3539 2970 3200 3053 2829 
L 3763 0 
L 4480 0 
L 5446 4691 
L 4883 4691 
L 4378 2138 
C 4294 1632 4205 1126 4122 614 
L 4083 614 
C 3968 1126 3866 1638 3750 2138 
L 3098 4691 
L 2554 4691 
L 1907 2138 
C 1792 1632 1677 1126 1574 614 
L 1549 614 
C 1453 1126 1363 1632 1267 2138 
L 774 4691 
L 166 4691 
L 1158 0 
z
" transform="scale(0.015625)"/>
     <path id="NotoSansCJKtc-Regular-74" d="M 1677 -83 
C 1894 -83 2125 -19 2323 45 
L 2208 486 
C 2093 435 1939 390 1811 390 
C 1408 390 1274 634 1274 1056 
L 1274 3002 
L 2221 3002 
L 2221 3475 
L 1274 3475 
L 1274 4454 
L 787 4454 
L 723 3475 
L 173 3443 
L 173 3002 
L 691 3002 
L 691 1075 
C 691 378 941 -83 1677 -83 
z
" transform="scale(0.015625)"/>
     <path id="NotoSansCJKtc-Regular-63" d="M 1958 -83 
C 2374 -83 2771 83 3085 352 
L 2829 749 
C 2611 557 2330 403 2010 403 
C 1370 403 934 934 934 1734 
C 934 2534 1395 3072 2029 3072 
C 2298 3072 2522 2950 2720 2771 
L 3014 3155 
C 2771 3373 2458 3565 2003 3565 
C 1107 3565 333 2893 333 1734 
C 333 582 1037 -83 1958 -83 
z
" transform="scale(0.015625)"/>
     <path id="NotoSansCJKtc-Regular-68" d="M 589 0 
L 1178 0 
L 1178 2522 
C 1523 2874 1766 3053 2125 3053 
C 2586 3053 2784 2778 2784 2125 
L 2784 0 
L 3366 0 
L 3366 2202 
C 3366 3085 3034 3565 2304 3565 
C 1830 3565 1472 3302 1152 2982 
L 1178 3699 
L 1178 5094 
L 589 5094 
L 589 0 
z
" transform="scale(0.015625)"/>
     <path id="NotoSansCJKtc-Regular-3a" d="M 890 2496 
C 1120 2496 1312 2675 1312 2944 
C 1312 3206 1120 3392 890 3392 
C 653 3392 467 3206 467 2944 
C 467 2675 653 2496 890 2496 
z
M 890 -83 
C 1120 -83 1312 96 1312 358 
C 1312 627 1120 806 890 806 
C 653 806 467 627 467 358 
C 467 96 653 -83 890 -83 
z
" transform="scale(0.015625)"/>
     <path id="NotoSansCJKtc-Regular-65" d="M 1997 -83 
C 2464 -83 2835 70 3136 269 
L 2931 659 
C 2669 486 2400 384 2061 384 
C 1402 384 947 858 909 1600 
L 3251 1600 
C 3264 1690 3277 1805 3277 1933 
C 3277 2925 2778 3565 1888 3565 
C 1094 3565 333 2867 333 1734 
C 333 589 1069 -83 1997 -83 
z
M 902 2016 
C 973 2707 1408 3098 1901 3098 
C 2445 3098 2765 2720 2765 2016 
L 902 2016 
z
" transform="scale(0.015625)"/>
     <path id="NotoSansCJKtc-Regular-66" d="M 211 3002 
L 685 3002 
L 685 0 
L 1267 0 
L 1267 3002 
L 2003 3002 
L 2003 3475 
L 1267 3475 
L 1267 4026 
C 1267 4474 1427 4710 1760 4710 
C 1882 4710 2022 4678 2150 4614 
L 2278 5069 
C 2118 5133 1914 5178 1696 5178 
C 1005 5178 685 4736 685 4032 
L 685 3475 
L 211 3443 
L 211 3002 
z
" transform="scale(0.015625)"/>
     <path id="NotoSansCJKtc-Regular-27" d="M 704 3091 
L 1069 3091 
L 1178 4282 
L 1190 4934 
L 576 4934 
L 589 4282 
L 704 3091 
z
" transform="scale(0.015625)"/>
     <path id="NotoSansCJKtc-Regular-73" d="M 1498 -83 
C 2317 -83 2758 384 2758 947 
C 2758 1606 2208 1811 1702 2003 
C 1312 2150 954 2278 954 2605 
C 954 2880 1158 3110 1600 3110 
C 1907 3110 2150 2976 2387 2803 
L 2669 3168 
C 2406 3386 2022 3565 1594 3565 
C 832 3565 397 3130 397 2579 
C 397 1984 922 1754 1408 1574 
C 1792 1434 2202 1267 2202 915 
C 2202 614 1978 371 1517 371 
C 1101 371 794 538 486 787 
L 205 397 
C 531 122 1005 -83 1498 -83 
z
" transform="scale(0.015625)"/>
     <path id="NotoSansCJKtc-Regular-53" d="M 1946 -83 
C 2925 -83 3539 506 3539 1248 
C 3539 1946 3117 2266 2573 2502 
L 1907 2790 
C 1542 2944 1126 3117 1126 3578 
C 1126 3994 1472 4256 2003 4256 
C 2438 4256 2784 4090 3072 3821 
L 3379 4198 
C 3053 4538 2560 4774 2003 4774 
C 1152 4774 525 4256 525 3533 
C 525 2848 1043 2515 1478 2330 
L 2150 2035 
C 2598 1837 2938 1683 2938 1197 
C 2938 742 2573 435 1952 435 
C 1466 435 992 666 659 1018 
L 307 608 
C 710 186 1280 -83 1946 -83 
z
" transform="scale(0.015625)"/>
     <path id="NotoSansCJKtc-Regular-70" d="M 589 -1466 
L 1178 -1466 
L 1178 -288 
L 1158 320 
C 1472 58 1805 -83 2118 -83 
C 2912 -83 3629 602 3629 1792 
C 3629 2867 3142 3565 2246 3565 
C 1843 3565 1453 3334 1139 3072 
L 1126 3072 
L 1069 3475 
L 589 3475 
L 589 -1466 
z
M 2022 410 
C 1792 410 1485 499 1178 768 
L 1178 2598 
C 1510 2906 1811 3072 2099 3072 
C 2765 3072 3021 2560 3021 1786 
C 3021 928 2598 410 2022 410 
z
" transform="scale(0.015625)"/>
     <path id="NotoSansCJKtc-Regular-62" d="M 2118 -83 
C 2912 -83 3629 602 3629 1792 
C 3629 2867 3142 3565 2246 3565 
C 1856 3565 1472 3347 1152 3078 
L 1178 3699 
L 1178 5094 
L 589 5094 
L 589 0 
L 1056 0 
L 1107 358 
L 1133 358 
C 1434 83 1798 -83 2118 -83 
z
M 2022 410 
C 1792 410 1478 499 1178 768 
L 1178 2598 
C 1504 2906 1811 3072 2099 3072 
C 2765 3072 3021 2560 3021 1786 
C 3021 928 2598 410 2022 410 
z
" transform="scale(0.015625)"/>
     <path id="NotoSansCJKtc-Regular-4d" d="M 646 0 
L 1178 0 
L 1178 2598 
C 1178 3002 1139 3571 1101 3981 
L 1126 3981 
L 1504 2912 
L 2394 474 
L 2790 474 
L 3674 2912 
L 4051 3981 
L 4077 3981 
C 4045 3571 4000 3002 4000 2598 
L 4000 0 
L 4550 0 
L 4550 4691 
L 3840 4691 
L 2944 2182 
C 2835 1862 2739 1530 2618 1203 
L 2592 1203 
C 2477 1530 2374 1862 2253 2182 
L 1357 4691 
L 646 4691 
L 646 0 
z
" transform="scale(0.015625)"/>
     <path id="NotoSansCJKtc-Regular-6e" d="M 589 0 
L 1178 0 
L 1178 2522 
C 1523 2874 1766 3053 2125 3053 
C 2586 3053 2784 2778 2784 2125 
L 2784 0 
L 3366 0 
L 3366 2202 
C 3366 3085 3034 3565 2304 3565 
C 1830 3565 1466 3302 1139 2970 
L 1126 2970 
L 1069 3475 
L 589 3475 
L 589 0 
z
" transform="scale(0.015625)"/>
     <path id="NotoSansCJKtc-Regular-79" d="M 646 -1498 
C 1338 -1498 1702 -973 1946 -294 
L 3251 3475 
L 2682 3475 
L 2054 1549 
C 1965 1235 1862 883 1773 563 
L 1741 563 
C 1619 890 1504 1242 1395 1549 
L 691 3475 
L 83 3475 
L 1478 -6 
L 1402 -269 
C 1254 -698 1011 -1018 621 -1018 
C 525 -1018 422 -986 352 -960 
L 237 -1427 
C 346 -1472 486 -1498 646 -1498 
z
" transform="scale(0.015625)"/>
     <path id="NotoSansCJKtc-Regular-50" d="M 646 0 
L 1235 0 
L 1235 1869 
L 2010 1869 
C 3040 1869 3738 2323 3738 3315 
C 3738 4339 3034 4691 1984 4691 
L 646 4691 
L 646 0 
z
M 1235 2349 
L 1235 4211 
L 1907 4211 
C 2733 4211 3149 4000 3149 3315 
C 3149 2643 2758 2349 1933 2349 
L 1235 2349 
z
" transform="scale(0.015625)"/>
     <path id="NotoSansCJKtc-Regular-6c" d="M 1203 -83 
C 1363 -83 1459 -58 1542 -32 
L 1459 416 
C 1395 403 1370 403 1338 403 
C 1248 403 1178 474 1178 653 
L 1178 5094 
L 589 5094 
L 589 691 
C 589 198 768 -83 1203 -83 
z
" transform="scale(0.015625)"/>
     <path id="NotoSansCJKtc-Regular-69" d="M 589 0 
L 1178 0 
L 1178 3475 
L 589 3475 
L 589 0 
z
M 883 4192 
C 1114 4192 1274 4346 1274 4582 
C 1274 4806 1114 4960 883 4960 
C 653 4960 499 4806 499 4582 
C 499 4346 653 4192 883 4192 
z
" transform="scale(0.015625)"/>
     <path id="NotoSansCJKtc-Regular-67" d="M 1760 -1600 
C 2835 -1600 3520 -1043 3520 -397 
C 3520 179 3110 429 2310 429 
L 1626 429 
C 1158 429 1018 589 1018 806 
C 1018 998 1114 1114 1242 1222 
C 1395 1146 1587 1101 1754 1101 
C 2470 1101 3027 1568 3027 2310 
C 3027 2611 2912 2867 2746 3027 
L 3456 3027 
L 3456 3475 
L 2246 3475 
C 2125 3526 1952 3565 1754 3565 
C 1056 3565 454 3085 454 2323 
C 454 1907 678 1568 909 1389 
L 909 1363 
C 723 1235 525 1005 525 717 
C 525 442 659 256 838 147 
L 838 115 
C 512 -83 326 -371 326 -672 
C 326 -1267 915 -1600 1760 -1600 
z
M 1754 1498 
C 1357 1498 1018 1818 1018 2323 
C 1018 2835 1350 3136 1754 3136 
C 2170 3136 2496 2835 2496 2323 
C 2496 1818 2157 1498 1754 1498 
z
M 1843 -1197 
C 1210 -1197 838 -960 838 -589 
C 838 -390 941 -179 1190 0 
C 1344 -38 1510 -51 1638 -51 
L 2240 -51 
C 2701 -51 2944 -166 2944 -493 
C 2944 -851 2515 -1197 1843 -1197 
z
" transform="scale(0.015625)"/>
     <path id="NotoSansCJKtc-Regular-2d" d="M 294 1568 
L 1933 1568 
L 1933 2016 
L 294 2016 
L 294 1568 
z
" transform="scale(0.015625)"/>
     <path id="NotoSansCJKtc-Regular-ff0c" d="M 2675 1203 
C 3347 1440 3782 1965 3782 2656 
C 3782 3104 3590 3392 3238 3392 
C 2976 3392 2752 3232 2752 2931 
C 2752 2630 2970 2477 3232 2477 
L 3341 2490 
C 3309 2048 3027 1747 2534 1542 
L 2675 1203 
z
" transform="scale(0.015625)"/>
     <path id="NotoSansCJKtc-Regular-7b2c" d="M 1075 2566 
C 1024 2106 928 1536 838 1152 
L 2547 1152 
C 2016 595 1203 109 448 -141 
C 557 -230 691 -403 762 -518 
C 1523 -218 2362 326 2925 966 
L 2925 -512 
L 3398 -512 
L 3398 1152 
L 5254 1152 
C 5190 570 5120 320 5030 230 
C 4979 186 4915 179 4800 179 
C 4685 173 4384 179 4070 211 
C 4141 90 4198 -96 4205 -230 
C 4538 -250 4851 -250 5011 -237 
C 5197 -224 5312 -186 5421 -77 
C 5587 83 5670 474 5760 1370 
C 5766 1434 5773 1562 5773 1562 
L 3398 1562 
L 3398 2157 
L 5555 2157 
L 5555 3571 
L 838 3571 
L 838 3162 
L 2925 3162 
L 2925 2566 
L 1075 2566 
z
M 1478 2157 
L 2925 2157 
L 2925 1562 
L 1389 1562 
L 1478 2157 
z
M 3398 3162 
L 5088 3162 
L 5088 2566 
L 3398 2566 
L 3398 3162 
z
M 1587 4339 
C 1805 4141 2080 3859 2208 3680 
L 2528 3949 
C 2400 4109 2157 4346 1946 4531 
L 3162 4531 
L 3162 4915 
L 1504 4915 
C 1568 5043 1632 5178 1683 5306 
L 1254 5427 
C 1043 4890 685 4371 288 4019 
C 390 3942 557 3776 634 3693 
C 858 3917 1088 4211 1286 4531 
L 1824 4531 
L 1587 4339 
z
M 4384 4301 
C 4614 4115 4902 3846 5043 3667 
L 5363 3955 
C 5222 4115 4954 4352 4730 4531 
L 6118 4531 
L 6118 4915 
L 4160 4915 
C 4224 5043 4282 5178 4333 5312 
L 3891 5421 
C 3731 4960 3437 4518 3085 4224 
C 3194 4160 3373 4013 3450 3936 
C 3622 4096 3789 4301 3936 4531 
L 4666 4531 
L 4384 4301 
z
" transform="scale(0.015625)"/>
     <path id="NotoSansCJKtc-Regular-34" d="M 2176 0 
L 2726 0 
L 2726 1293 
L 3354 1293 
L 3354 1760 
L 2726 1760 
L 2726 4691 
L 2080 4691 
L 128 1677 
L 128 1293 
L 2176 1293 
L 2176 0 
z
M 2176 1760 
L 736 1760 
L 1805 3360 
C 1939 3590 2067 3827 2182 4051 
L 2208 4051 
C 2195 3814 2176 3430 2176 3200 
L 2176 1760 
z
" transform="scale(0.015625)"/>
     <path id="NotoSansCJKtc-Regular-9801" d="M 1632 2682 
L 4864 2682 
L 4864 2099 
L 1632 2099 
L 1632 2682 
z
M 1632 1728 
L 4864 1728 
L 4864 1133 
L 1632 1133 
L 1632 1728 
z
M 1632 3635 
L 4864 3635 
L 4864 3053 
L 1632 3053 
L 1632 3635 
z
M 3674 326 
C 4422 70 5184 -269 5638 -518 
L 6093 -192 
C 5594 64 4768 397 4019 640 
L 3674 326 
z
M 2298 672 
C 1856 378 986 45 294 -141 
C 403 -237 550 -410 627 -512 
C 1312 -314 2182 26 2739 365 
L 2298 672 
z
M 518 5043 
L 518 4602 
L 2918 4602 
C 2880 4410 2835 4198 2784 4019 
L 1133 4019 
L 1133 749 
L 5376 749 
L 5376 4019 
L 3283 4019 
L 3469 4602 
L 5862 4602 
L 5862 5043 
L 518 5043 
z
" transform="scale(0.015625)"/>
     <path id="NotoSansCJKtc-Regular-46" d="M 646 0 
L 1235 0 
L 1235 2106 
L 3027 2106 
L 3027 2605 
L 1235 2605 
L 1235 4192 
L 3347 4192 
L 3347 4691 
L 646 4691 
L 646 0 
z
" transform="scale(0.015625)"/>
     <path id="NotoSansCJKtc-Regular-2e" d="M 890 -83 
C 1120 -83 1312 96 1312 358 
C 1312 627 1120 806 890 806 
C 653 806 467 627 467 358 
C 467 96 653 -83 890 -83 
z
" transform="scale(0.015625)"/>
    </defs>
    <use xlink:href="#NotoSansCJKtc-Regular-4e"/>
    <use xlink:href="#NotoSansCJKtc-Regular-6f" transform="translate(72.299988 0)"/>
    <use xlink:href="#NotoSansCJKtc-Regular-6d" transform="translate(132.899979 0)"/>
    <use xlink:href="#NotoSansCJKtc-Regular-75" transform="translate(225.499969 0)"/>
    <use xlink:href="#NotoSansCJKtc-Regular-72" transform="translate(286.199966 0)"/>
    <use xlink:href="#NotoSansCJKtc-Regular-61" transform="translate(324.999954 0)"/>
    <use xlink:href="#NotoSansCJKtc-Regular-2c" transform="translate(381.299942 0)"/>
    <use xlink:href="#NotoSansCJKtc-Regular-20" transform="translate(409.09993 0)"/>
    <use xlink:href="#NotoSansCJKtc-Regular-42" transform="translate(431.499924 0)"/>
    <use xlink:href="#NotoSansCJKtc-Regular-4f" transform="translate(497.199921 0)"/>
    <use xlink:href="#NotoSansCJKtc-Regular-4a" transform="translate(571.399902 0)"/>
    <use xlink:href="#NotoSansCJKtc-Regular-20" transform="translate(624.899887 0)"/>
    <use xlink:href="#NotoSansCJKtc-Regular-57" transform="translate(647.299881 0)"/>
    <use xlink:href="#NotoSansCJKtc-Regular-61" transform="translate(735.099869 0)"/>
    <use xlink:href="#NotoSansCJKtc-Regular-74" transform="translate(791.399857 0)"/>
    <use xlink:href="#NotoSansCJKtc-Regular-63" transform="translate(829.099854 0)"/>
    <use xlink:href="#NotoSansCJKtc-Regular-68" transform="translate(880.099838 0)"/>
    <use xlink:href="#NotoSansCJKtc-Regular-3a" transform="translate(940.799835 0)"/>
    <use xlink:href="#NotoSansCJKtc-Regular-20" transform="translate(968.599823 0)"/>
    <use xlink:href="#NotoSansCJKtc-Regular-4f" transform="translate(990.999817 0)"/>
    <use xlink:href="#NotoSansCJKtc-Regular-75" transform="translate(1065.199799 0)"/>
    <use xlink:href="#NotoSansCJKtc-Regular-74" transform="translate(1125.899796 0)"/>
    <use xlink:href="#NotoSansCJKtc-Regular-63" transform="translate(1163.599792 0)"/>
    <use xlink:href="#NotoSansCJKtc-Regular-6f" transform="translate(1214.599777 0)"/>
    <use xlink:href="#NotoSansCJKtc-Regular-6d" transform="translate(1275.199768 0)"/>
    <use xlink:href="#NotoSansCJKtc-Regular-65" transform="translate(1367.799759 0)"/>
    <use xlink:href="#NotoSansCJKtc-Regular-20" transform="translate(1423.199753 0)"/>
    <use xlink:href="#NotoSansCJKtc-Regular-6f" transform="translate(1445.599747 0)"/>
    <use xlink:href="#NotoSansCJKtc-Regular-66" transform="translate(1506.199738 0)"/>
    <use xlink:href="#NotoSansCJKtc-Regular-20" transform="translate(1538.699722 0)"/>
    <use xlink:href="#NotoSansCJKtc-Regular-74" transform="translate(1561.099716 0)"/>
    <use xlink:href="#NotoSansCJKtc-Regular-68" transform="translate(1598.799713 0)"/>
    <use xlink:href="#NotoSansCJKtc-Regular-65" transform="translate(1659.49971 0)"/>
    <use xlink:href="#NotoSansCJKtc-Regular-20" transform="translate(1714.899704 0)"/>
    <use xlink:href="#NotoSansCJKtc-Regular-42" transform="translate(1737.299698 0)"/>
    <use xlink:href="#NotoSansCJKtc-Regular-4f" transform="translate(1802.999695 0)"/>
    <use xlink:href="#NotoSansCJKtc-Regular-4a" transform="translate(1877.199677 0)"/>
    <use xlink:href="#NotoSansCJKtc-Regular-27" transform="translate(1930.699661 0)"/>
    <use xlink:href="#NotoSansCJKtc-Regular-73" transform="translate(1958.499649 0)"/>
    <use xlink:href="#NotoSansCJKtc-Regular-20" transform="translate(2005.299637 0)"/>
    <use xlink:href="#NotoSansCJKtc-Regular-53" transform="translate(2027.699631 0)"/>
    <use xlink:href="#NotoSansCJKtc-Regular-65" transform="translate(2087.299622 0)"/>
    <use xlink:href="#NotoSansCJKtc-Regular-70" transform="translate(2142.699615 0)"/>
    <use xlink:href="#NotoSansCJKtc-Regular-74" transform="translate(2204.6996 0)"/>
    <use xlink:href="#NotoSansCJKtc-Regular-65" transform="translate(2242.399597 0)"/>
    <use xlink:href="#NotoSansCJKtc-Regular-6d" transform="translate(2297.799591 0)"/>
    <use xlink:href="#NotoSansCJKtc-Regular-62" transform="translate(2390.399582 0)"/>
    <use xlink:href="#NotoSansCJKtc-Regular-65" transform="translate(2452.19957 0)"/>
    <use xlink:href="#NotoSansCJKtc-Regular-72" transform="translate(2507.599564 0)"/>
    <use xlink:href="#NotoSansCJKtc-Regular-20" transform="translate(2546.399551 0)"/>
    <use xlink:href="#NotoSansCJKtc-Regular-4d" transform="translate(2568.799545 0)"/>
    <use xlink:href="#NotoSansCJKtc-Regular-6f" transform="translate(2649.999527 0)"/>
    <use xlink:href="#NotoSansCJKtc-Regular-6e" transform="translate(2710.599518 0)"/>
    <use xlink:href="#NotoSansCJKtc-Regular-65" transform="translate(2771.599503 0)"/>
    <use xlink:href="#NotoSansCJKtc-Regular-74" transform="translate(2826.999496 0)"/>
    <use xlink:href="#NotoSansCJKtc-Regular-61" transform="translate(2864.699493 0)"/>
    <use xlink:href="#NotoSansCJKtc-Regular-72" transform="translate(2920.999481 0)"/>
    <use xlink:href="#NotoSansCJKtc-Regular-79" transform="translate(2959.799469 0)"/>
    <use xlink:href="#NotoSansCJKtc-Regular-20" transform="translate(3011.89946 0)"/>
    <use xlink:href="#NotoSansCJKtc-Regular-50" transform="translate(3034.299454 0)"/>
    <use xlink:href="#NotoSansCJKtc-Regular-6f" transform="translate(3097.599442 0)"/>
    <use xlink:href="#NotoSansCJKtc-Regular-6c" transform="translate(3158.199432 0)"/>
    <use xlink:href="#NotoSansCJKtc-Regular-69" transform="translate(3186.599426 0)"/>
    <use xlink:href="#NotoSansCJKtc-Regular-63" transform="translate(3214.099411 0)"/>
    <use xlink:href="#NotoSansCJKtc-Regular-79" transform="translate(3265.099396 0)"/>
    <use xlink:href="#NotoSansCJKtc-Regular-20" transform="translate(3317.199387 0)"/>
    <use xlink:href="#NotoSansCJKtc-Regular-4d" transform="translate(3339.59938 0)"/>
    <use xlink:href="#NotoSansCJKtc-Regular-65" transform="translate(3420.799362 0)"/>
    <use xlink:href="#NotoSansCJKtc-Regular-65" transform="translate(3476.199356 0)"/>
    <use xlink:href="#NotoSansCJKtc-Regular-74" transform="translate(3531.59935 0)"/>
    <use xlink:href="#NotoSansCJKtc-Regular-69" transform="translate(3569.299347 0)"/>
    <use xlink:href="#NotoSansCJKtc-Regular-6e" transform="translate(3596.799332 0)"/>
    <use xlink:href="#NotoSansCJKtc-Regular-67" transform="translate(3657.799316 0)"/>
    <use xlink:href="#NotoSansCJKtc-Regular-2c" transform="translate(3714.19931 0)"/>
    <use xlink:href="#NotoSansCJKtc-Regular-20" transform="translate(3741.999298 0)"/>
    <use xlink:href="#NotoSansCJKtc-Regular-32" transform="translate(3764.399292 0)"/>
    <use xlink:href="#NotoSansCJKtc-Regular-30" transform="translate(3819.899277 0)"/>
    <use xlink:href="#NotoSansCJKtc-Regular-32" transform="translate(3875.399261 0)"/>
    <use xlink:href="#NotoSansCJKtc-Regular-36" transform="translate(3930.899246 0)"/>
    <use xlink:href="#NotoSansCJKtc-Regular-2d" transform="translate(3986.399231 0)"/>
    <use xlink:href="#NotoSansCJKtc-Regular-30" transform="translate(4021.099228 0)"/>
    <use xlink:href="#NotoSansCJKtc-Regular-39" transform="translate(4076.599213 0)"/>
    <use xlink:href="#NotoSansCJKtc-Regular-2d" transform="translate(4132.099197 0)"/>
    <use xlink:href="#NotoSansCJKtc-Regular-31" transform="translate(4166.799194 0)"/>
    <use xlink:href="#NotoSansCJKtc-Regular-38" transform="translate(4222.299179 0)"/>
    <use xlink:href="#NotoSansCJKtc-Regular-ff0c" transform="translate(4277.799164 0)"/>
    <use xlink:href="#NotoSansCJKtc-Regular-7b2c" transform="translate(4377.799149 0)"/>
    <use xlink:href="#NotoSansCJKtc-Regular-20" transform="translate(4477.799133 0)"/>
    <use xlink:href="#NotoSansCJKtc-Regular-34" transform="translate(4500.199127 0)"/>
    <use xlink:href="#NotoSansCJKtc-Regular-20" transform="translate(4555.699112 0)"/>
    <use xlink:href="#NotoSansCJKtc-Regular-9801" transform="translate(4578.099106 0)"/>
    <use xlink:href="#NotoSansCJKtc-Regular-20" transform="translate(4678.099091 0)"/>
    <use xlink:href="#NotoSansCJKtc-Regular-46" transform="translate(4700.499084 0)"/>
    <use xlink:href="#NotoSansCJKtc-Regular-69" transform="translate(4755.699081 0)"/>
    <use xlink:href="#NotoSansCJKtc-Regular-67" transform="translate(4783.199066 0)"/>
    <use xlink:href="#NotoSansCJKtc-Regular-2e" transform="translate(4839.59906 0)"/>
    <use xlink:href="#NotoSansCJKtc-Regular-20" transform="translate(4867.399048 0)"/>
    <use xlink:href="#NotoSansCJKtc-Regular-32" transform="translate(4889.799042 0)"/>
   </g>
  </g>
 </g>
 <defs>
  <clipPath id="p590cffd353">
   <rect x="46.44" y="70.56" width="526.32" height="222.264"/>
  </clipPath>
 </defs>
</svg>
