<?xml version="1.0" encoding="utf-8" standalone="no"?>
<!DOCTYPE svg PUBLIC "-//W3C//DTD SVG 1.1//EN"
  "http://www.w3.org/Graphics/SVG/1.1/DTD/svg11.dtd">
<svg xmlns:xlink="http://www.w3.org/1999/xlink" width="619.2pt" height="352.8pt" viewBox="0 0 619.2 352.8" xmlns="http://www.w3.org/2000/svg" version="1.1">
 <metadata>
  <rdf:RDF xmlns:dc="http://purl.org/dc/elements/1.1/" xmlns:cc="http://creativecommons.org/ns#" xmlns:rdf="http://www.w3.org/1999/02/22-rdf-syntax-ns#">
   <cc:Work>
    <dc:type rdf:resource="http://purl.org/dc/dcmitype/StillImage"/>
    <dc:format>image/svg+xml</dc:format>
    <dc:creator>
     <cc:Agent>
      <dc:title>Matplotlib v3.10.9, https://matplotlib.org/</dc:title>
     </cc:Agent>
    </dc:creator>
   </cc:Work>
  </rdf:RDF>
 </metadata>
 <defs>
  <style type="text/css">*{stroke-linejoin: round; stroke-linecap: butt}</style>
 </defs>
 <g id="figure_1">
  <g id="patch_1">
   <path d="M 0 352.8 
L 619.2 352.8 
L 619.2 0 
L 0 0 
z
" style="fill: #ffffff"/>
  </g>
  <g id="axes_1">
   <g id="patch_2">
    <path d="M 46.44 292.824 
L 572.76 292.824 
L 572.76 63.504 
L 46.44 63.504 
z
" style="fill: #ffffff"/>
   </g>
   <g id="patch_3">
    <path d="M 70.363636 292.824 
L 270.654545 292.824 
L 270.654545 95.134345 
L 70.363636 95.134345 
z
" clip-path="url(#p38f1083c0e)" style="fill: #d70c18"/>
   </g>
   <g id="patch_4">
    <path d="M 348.545455 292.824 
L 548.836364 292.824 
L 548.836364 226.518153 
L 348.545455 226.518153 
z
" clip-path="url(#p38f1083c0e)" style="fill: #d70c18"/>
   </g>
   <g id="matplotlib.axis_1">
    <g id="xtick_1">
     <g id="line2d_1"/>
     <g id="text_1">
      <!-- 未含逆週期因子 -->
      <g style="fill: #6b7076" transform="translate(139.009091 303.487437) scale(0.09 -0.09)">
       <defs>
        <path id="NotoSansCJKtc-Regular-672a" d="M 2938 5370 
L 2938 4326 
L 851 4326 
L 851 3853 
L 2938 3853 
L 2938 2746 
L 397 2746 
L 397 2272 
L 2662 2272 
C 2086 1446 1114 646 218 250 
C 326 154 486 -32 570 -154 
C 1414 282 2317 1043 2938 1894 
L 2938 -512 
L 3443 -512 
L 3443 1920 
C 4070 1062 4979 269 5830 -160 
C 5914 -32 6074 160 6182 256 
C 5286 646 4307 1446 3718 2272 
L 6029 2272 
L 6029 2746 
L 3443 2746 
L 3443 3853 
L 5594 3853 
L 5594 4326 
L 3443 4326 
L 3443 5370 
L 2938 5370 
z
" transform="scale(0.015625)"/>
        <path id="NotoSansCJKtc-Regular-542b" d="M 3206 5402 
C 2554 4614 1344 3917 237 3539 
C 358 3424 493 3251 570 3123 
C 1069 3315 1581 3571 2061 3866 
L 2061 3539 
L 4230 3539 
L 4230 3936 
C 4762 3610 5344 3328 5869 3155 
C 5939 3283 6093 3475 6202 3571 
C 5248 3840 4115 4416 3488 4998 
L 3635 5165 
L 3206 5402 
z
M 4211 3949 
L 2189 3949 
C 2554 4186 2899 4442 3200 4717 
C 3482 4448 3834 4186 4211 3949 
z
M 1312 1734 
L 1312 -518 
L 1786 -518 
L 1786 -269 
L 4730 -269 
L 4730 -518 
L 5216 -518 
L 5216 1734 
L 4384 1734 
C 4640 2144 4915 2605 5120 2995 
L 4762 3130 
L 4672 3104 
L 1101 3104 
L 1101 2675 
L 4390 2675 
C 4218 2381 4013 2022 3814 1734 
L 1312 1734 
z
M 1786 154 
L 1786 1312 
L 4730 1312 
L 4730 154 
L 1786 154 
z
" transform="scale(0.015625)"/>
        <path id="NotoSansCJKtc-Regular-9006" d="M 531 5165 
C 794 4845 1126 4403 1286 4128 
L 1664 4378 
C 1504 4646 1178 5056 896 5376 
L 531 5165 
z
M 2400 3546 
L 2400 1766 
L 3718 1766 
C 3603 1293 3315 832 2611 550 
C 2714 467 2842 301 2906 198 
C 3731 576 4064 1165 4186 1766 
L 5696 1766 
L 5696 3546 
L 5235 3546 
L 5235 2208 
L 4243 2208 
L 4250 2490 
L 4250 3904 
L 6022 3904 
L 6022 4339 
L 4902 4339 
C 5094 4614 5312 4960 5498 5274 
L 4998 5414 
C 4851 5088 4595 4640 4384 4339 
L 3168 4339 
L 3520 4525 
C 3430 4774 3181 5146 2944 5414 
L 2554 5229 
C 2784 4954 3014 4595 3104 4339 
L 2022 4339 
L 2022 3904 
L 3789 3904 
L 3789 2496 
L 3782 2208 
L 2848 2208 
L 2848 3546 
L 2400 3546 
z
M 390 1818 
C 442 1869 608 1914 768 1914 
L 1325 1914 
C 1146 928 742 218 198 -192 
C 294 -256 461 -422 525 -518 
C 826 -282 1094 51 1306 480 
C 1811 -275 2624 -410 3942 -410 
C 4646 -410 5459 -397 6061 -358 
C 6086 -230 6144 -6 6221 96 
C 5562 32 4621 6 3949 6 
C 2714 13 1888 115 1478 883 
C 1626 1274 1741 1722 1811 2227 
L 1594 2310 
L 1510 2304 
L 896 2304 
C 1235 2746 1683 3418 1933 3789 
L 1619 3930 
L 1542 3898 
L 294 3898 
L 294 3494 
L 1254 3494 
C 1005 3098 653 2586 518 2445 
C 410 2323 307 2278 211 2253 
C 269 2157 358 1933 390 1818 
z
" transform="scale(0.015625)"/>
        <path id="NotoSansCJKtc-Regular-9031" d="M 512 5152 
C 781 4838 1114 4397 1280 4128 
L 1658 4371 
C 1498 4634 1158 5037 883 5357 
L 512 5152 
z
M 3731 4710 
L 3731 4166 
L 2694 4166 
L 2694 4710 
L 3731 4710 
z
M 4147 4710 
L 5312 4710 
L 5312 4166 
L 4147 4166 
L 4147 4710 
z
M 2253 5114 
L 2253 3456 
C 2253 2643 2221 1517 1856 704 
C 1965 659 2157 538 2246 467 
C 2560 1152 2656 2086 2688 2880 
L 5312 2880 
L 5312 941 
C 5312 851 5274 819 5184 819 
C 5101 819 4806 813 4486 826 
C 4544 710 4608 531 4627 416 
C 5088 416 5363 416 5530 493 
C 5696 563 5754 685 5754 941 
L 5754 5114 
L 2253 5114 
z
M 3731 3814 
L 3731 3232 
L 2694 3232 
L 2694 3456 
L 2694 3814 
L 3731 3814 
z
M 4147 3814 
L 5312 3814 
L 5312 3232 
L 4147 3232 
L 4147 3814 
z
M 390 1818 
C 442 1869 608 1914 762 1914 
L 1318 1914 
C 1139 922 730 205 186 -198 
C 282 -262 442 -422 506 -525 
C 813 -294 1075 32 1286 454 
C 1792 -282 2605 -416 3930 -416 
C 4640 -416 5453 -403 6054 -365 
C 6080 -230 6144 -6 6221 102 
C 5555 38 4614 6 3930 6 
C 2707 13 1882 115 1466 858 
C 1613 1248 1728 1709 1805 2227 
L 1568 2310 
L 1485 2304 
L 896 2304 
C 1229 2746 1664 3418 1907 3795 
L 1587 3930 
L 1523 3898 
L 301 3898 
L 301 3494 
L 1235 3494 
C 986 3098 646 2586 512 2445 
C 410 2323 307 2278 211 2246 
C 269 2157 358 1933 390 1818 
z
M 3085 2477 
L 3085 858 
L 3430 858 
L 3430 1075 
L 4813 1075 
L 4813 2477 
L 3085 2477 
z
M 3430 1421 
L 3430 2138 
L 4448 2138 
L 4448 1421 
L 3430 1421 
z
" transform="scale(0.015625)"/>
        <path id="NotoSansCJKtc-Regular-671f" d="M 1139 915 
C 947 486 608 58 250 -230 
C 365 -301 557 -435 646 -512 
C 992 -192 1363 301 1594 787 
L 1139 915 
z
M 2054 717 
C 2304 416 2598 -6 2714 -269 
L 3110 -38 
C 2976 224 2682 621 2426 915 
L 2054 717 
z
M 5472 4621 
L 5472 3590 
L 4160 3590 
L 4160 4621 
L 5472 4621 
z
M 3712 5056 
L 3712 2733 
C 3712 1811 3661 589 3123 -262 
C 3232 -314 3430 -454 3507 -538 
C 3891 70 4058 890 4122 1664 
L 5472 1664 
L 5472 109 
C 5472 6 5434 -19 5344 -26 
C 5248 -32 4922 -32 4582 -19 
C 4646 -147 4717 -358 4736 -486 
C 5203 -486 5510 -480 5690 -397 
C 5875 -320 5933 -173 5933 102 
L 5933 5056 
L 3712 5056 
z
M 5472 3162 
L 5472 2099 
L 4147 2099 
C 4160 2323 4160 2534 4160 2733 
L 4160 3162 
L 5472 3162 
z
M 2477 5299 
L 2477 4525 
L 1312 4525 
L 1312 5299 
L 877 5299 
L 877 4525 
L 333 4525 
L 333 4096 
L 877 4096 
L 877 1478 
L 243 1478 
L 243 1050 
L 3398 1050 
L 3398 1478 
L 2925 1478 
L 2925 4096 
L 3398 4096 
L 3398 4525 
L 2925 4525 
L 2925 5299 
L 2477 5299 
z
M 1312 4096 
L 2477 4096 
L 2477 3526 
L 1312 3526 
L 1312 4096 
z
M 1312 3142 
L 2477 3142 
L 2477 2515 
L 1312 2515 
L 1312 3142 
z
M 1312 2125 
L 2477 2125 
L 2477 1478 
L 1312 1478 
L 1312 2125 
z
" transform="scale(0.015625)"/>
        <path id="NotoSansCJKtc-Regular-56e0" d="M 3027 4403 
C 3014 4038 3002 3686 2963 3360 
L 1357 3360 
L 1357 2918 
L 2906 2918 
C 2752 1978 2368 1235 1363 800 
C 1466 723 1606 544 1664 422 
C 2515 819 2963 1414 3206 2163 
C 3782 1613 4390 934 4698 486 
L 5043 774 
C 4691 1274 3974 2035 3315 2592 
L 3379 2918 
L 5043 2918 
L 5043 3360 
L 3430 3360 
C 3462 3693 3482 4038 3494 4403 
L 3027 4403 
z
M 525 5114 
L 525 -506 
L 979 -506 
L 979 -192 
L 5421 -192 
L 5421 -506 
L 5888 -506 
L 5888 5114 
L 525 5114 
z
M 979 218 
L 979 4678 
L 5421 4678 
L 5421 218 
L 979 218 
z
" transform="scale(0.015625)"/>
        <path id="NotoSansCJKtc-Regular-5b50" d="M 2976 3456 
L 2976 2528 
L 326 2528 
L 326 2048 
L 2976 2048 
L 2976 128 
C 2976 13 2931 -19 2803 -26 
C 2662 -32 2189 -38 1670 -13 
C 1747 -154 1837 -371 1875 -512 
C 2490 -512 2906 -499 3142 -422 
C 3392 -346 3475 -198 3475 122 
L 3475 2048 
L 6099 2048 
L 6099 2528 
L 3475 2528 
L 3475 3206 
C 4205 3584 5030 4160 5587 4698 
L 5222 4973 
L 5114 4941 
L 966 4941 
L 966 4467 
L 4582 4467 
C 4128 4096 3507 3706 2976 3456 
z
" transform="scale(0.015625)"/>
       </defs>
       <use xlink:href="#NotoSansCJKtc-Regular-672a"/>
       <use xlink:href="#NotoSansCJKtc-Regular-542b" transform="translate(99.999985 0)"/>
       <use xlink:href="#NotoSansCJKtc-Regular-9006" transform="translate(199.999969 0)"/>
       <use xlink:href="#NotoSansCJKtc-Regular-9031" transform="translate(299.999954 0)"/>
       <use xlink:href="#NotoSansCJKtc-Regular-671f" transform="translate(399.999939 0)"/>
       <use xlink:href="#NotoSansCJKtc-Regular-56e0" transform="translate(499.999924 0)"/>
       <use xlink:href="#NotoSansCJKtc-Regular-5b50" transform="translate(599.999908 0)"/>
      </g>
     </g>
    </g>
    <g id="xtick_2">
     <g id="line2d_2"/>
     <g id="text_2">
      <!-- 含逆週期因子 -->
      <g style="fill: #6b7076" transform="translate(421.690909 303.487437) scale(0.09 -0.09)">
       <use xlink:href="#NotoSansCJKtc-Regular-542b"/>
       <use xlink:href="#NotoSansCJKtc-Regular-9006" transform="translate(99.999985 0)"/>
       <use xlink:href="#NotoSansCJKtc-Regular-9031" transform="translate(199.999969 0)"/>
       <use xlink:href="#NotoSansCJKtc-Regular-671f" transform="translate(299.999954 0)"/>
       <use xlink:href="#NotoSansCJKtc-Regular-56e0" transform="translate(399.999939 0)"/>
       <use xlink:href="#NotoSansCJKtc-Regular-5b50" transform="translate(499.999924 0)"/>
      </g>
     </g>
    </g>
   </g>
   <g id="matplotlib.axis_2">
    <g id="ytick_1">
     <g id="line2d_3"/>
     <g id="text_3">
      <!-- 0 -->
      <g style="fill: #6b7076" transform="translate(37.945 296.405719) scale(0.09 -0.09)">
       <defs>
        <path id="NotoSansCJKtc-Regular-30" d="M 1779 -83 
C 2669 -83 3238 723 3238 2362 
C 3238 3987 2669 4774 1779 4774 
C 883 4774 320 3987 320 2362 
C 320 723 883 -83 1779 -83 
z
M 1779 390 
C 1248 390 883 986 883 2362 
C 883 3731 1248 4314 1779 4314 
C 2310 4314 2675 3731 2675 2362 
C 2675 986 2310 390 1779 390 
z
" transform="scale(0.015625)"/>
       </defs>
       <use xlink:href="#NotoSansCJKtc-Regular-30"/>
      </g>
     </g>
    </g>
    <g id="ytick_2">
     <g id="line2d_4"/>
     <g id="text_4">
      <!-- 50 -->
      <g style="fill: #6b7076" transform="translate(32.95 265.708567) scale(0.09 -0.09)">
       <defs>
        <path id="NotoSansCJKtc-Regular-35" d="M 1677 -83 
C 2464 -83 3213 499 3213 1523 
C 3213 2560 2573 3021 1798 3021 
C 1517 3021 1306 2950 1094 2835 
L 1216 4192 
L 2982 4192 
L 2982 4691 
L 704 4691 
L 550 2502 
L 864 2304 
C 1133 2483 1331 2579 1645 2579 
C 2234 2579 2618 2182 2618 1510 
C 2618 826 2176 403 1619 403 
C 1075 403 730 653 467 922 
L 173 538 
C 493 224 941 -83 1677 -83 
z
" transform="scale(0.015625)"/>
       </defs>
       <use xlink:href="#NotoSansCJKtc-Regular-35"/>
       <use xlink:href="#NotoSansCJKtc-Regular-30" transform="translate(55.499985 0)"/>
      </g>
     </g>
    </g>
    <g id="ytick_3">
     <g id="line2d_5"/>
     <g id="text_5">
      <!-- 100 -->
      <g style="fill: #6b7076" transform="translate(27.955 235.011416) scale(0.09 -0.09)">
       <defs>
        <path id="NotoSansCJKtc-Regular-31" d="M 563 0 
L 3136 0 
L 3136 486 
L 2195 486 
L 2195 4691 
L 1747 4691 
C 1491 4544 1190 4435 774 4358 
L 774 3987 
L 1613 3987 
L 1613 486 
L 563 486 
L 563 0 
z
" transform="scale(0.015625)"/>
       </defs>
       <use xlink:href="#NotoSansCJKtc-Regular-31"/>
       <use xlink:href="#NotoSansCJKtc-Regular-30" transform="translate(55.499985 0)"/>
       <use xlink:href="#NotoSansCJKtc-Regular-30" transform="translate(110.999969 0)"/>
      </g>
     </g>
    </g>
    <g id="ytick_4">
     <g id="line2d_6"/>
     <g id="text_6">
      <!-- 150 -->
      <g style="fill: #6b7076" transform="translate(27.955 204.314264) scale(0.09 -0.09)">
       <use xlink:href="#NotoSansCJKtc-Regular-31"/>
       <use xlink:href="#NotoSansCJKtc-Regular-35" transform="translate(55.499985 0)"/>
       <use xlink:href="#NotoSansCJKtc-Regular-30" transform="translate(110.999969 0)"/>
      </g>
     </g>
    </g>
    <g id="ytick_5">
     <g id="line2d_7"/>
     <g id="text_7">
      <!-- 200 -->
      <g style="fill: #6b7076" transform="translate(27.955 173.617113) scale(0.09 -0.09)">
       <defs>
        <path id="NotoSansCJKtc-Regular-32" d="M 282 0 
L 3232 0 
L 3232 506 
L 1933 506 
C 1696 506 1408 480 1165 461 
C 2266 1504 3008 2458 3008 3398 
C 3008 4230 2477 4774 1638 4774 
C 1043 4774 634 4506 256 4090 
L 595 3757 
C 858 4070 1184 4301 1568 4301 
C 2150 4301 2432 3910 2432 3373 
C 2432 2566 1754 1632 282 346 
L 282 0 
z
" transform="scale(0.015625)"/>
       </defs>
       <use xlink:href="#NotoSansCJKtc-Regular-32"/>
       <use xlink:href="#NotoSansCJKtc-Regular-30" transform="translate(55.499985 0)"/>
       <use xlink:href="#NotoSansCJKtc-Regular-30" transform="translate(110.999969 0)"/>
      </g>
     </g>
    </g>
    <g id="ytick_6">
     <g id="line2d_8"/>
     <g id="text_8">
      <!-- 250 -->
      <g style="fill: #6b7076" transform="translate(27.955 142.919962) scale(0.09 -0.09)">
       <use xlink:href="#NotoSansCJKtc-Regular-32"/>
       <use xlink:href="#NotoSansCJKtc-Regular-35" transform="translate(55.499985 0)"/>
       <use xlink:href="#NotoSansCJKtc-Regular-30" transform="translate(110.999969 0)"/>
      </g>
     </g>
    </g>
    <g id="ytick_7">
     <g id="line2d_9"/>
     <g id="text_9">
      <!-- 300 -->
      <g style="fill: #6b7076" transform="translate(27.955 112.22281) scale(0.09 -0.09)">
       <defs>
        <path id="NotoSansCJKtc-Regular-33" d="M 1683 -83 
C 2522 -83 3194 416 3194 1254 
C 3194 1901 2752 2310 2202 2445 
L 2202 2477 
C 2701 2650 3034 3034 3034 3603 
C 3034 4346 2458 4774 1664 4774 
C 1126 4774 710 4538 358 4218 
L 672 3846 
C 941 4115 1267 4301 1645 4301 
C 2138 4301 2438 4006 2438 3558 
C 2438 3053 2112 2662 1139 2662 
L 1139 2214 
C 2227 2214 2598 1843 2598 1274 
C 2598 736 2208 403 1645 403 
C 1114 403 762 659 486 941 
L 186 563 
C 493 224 954 -83 1683 -83 
z
" transform="scale(0.015625)"/>
       </defs>
       <use xlink:href="#NotoSansCJKtc-Regular-33"/>
       <use xlink:href="#NotoSansCJKtc-Regular-30" transform="translate(55.499985 0)"/>
       <use xlink:href="#NotoSansCJKtc-Regular-30" transform="translate(110.999969 0)"/>
      </g>
     </g>
    </g>
    <g id="ytick_8">
     <g id="line2d_10"/>
     <g id="text_10">
      <!-- 350 -->
      <g style="fill: #6b7076" transform="translate(27.955 81.525659) scale(0.09 -0.09)">
       <use xlink:href="#NotoSansCJKtc-Regular-33"/>
       <use xlink:href="#NotoSansCJKtc-Regular-35" transform="translate(55.499985 0)"/>
       <use xlink:href="#NotoSansCJKtc-Regular-30" transform="translate(110.999969 0)"/>
      </g>
     </g>
    </g>
    <g id="text_11">
     <!-- 低於前次中間價（點，pips） -->
     <g style="fill: #6b7076" transform="translate(21.893437 236.587359) rotate(-90) scale(0.09 -0.09)">
      <defs>
       <path id="NotoSansCJKtc-Regular-4f4e" d="M 3002 51 
L 3002 -358 
L 4717 -358 
L 4717 51 
L 3002 51 
z
M 1696 5350 
C 1338 4378 742 3418 109 2797 
C 192 2688 333 2438 378 2323 
C 602 2554 819 2816 1024 3110 
L 1024 -499 
L 1485 -499 
L 1485 3827 
C 1741 4269 1965 4742 2150 5216 
L 1696 5350 
z
M 2317 13 
C 2445 96 2643 166 4058 570 
C 4045 666 4038 851 4051 973 
L 2867 672 
L 2867 2470 
L 4358 2470 
C 4550 736 4909 -454 5587 -467 
C 5830 -467 6048 -186 6170 781 
C 6086 813 5907 922 5830 1011 
C 5786 410 5702 70 5581 77 
C 5235 90 4960 1062 4800 2470 
L 6029 2470 
L 6029 2918 
L 4755 2918 
C 4704 3475 4666 4090 4646 4723 
C 5069 4819 5466 4928 5798 5050 
L 5414 5408 
C 4723 5139 3494 4883 2413 4717 
L 2413 819 
C 2413 570 2246 454 2125 410 
C 2202 314 2285 122 2317 13 
z
M 4314 2918 
L 2867 2918 
L 2867 4384 
C 3309 4454 3770 4538 4211 4627 
C 4237 4026 4269 3450 4314 2918 
z
" transform="scale(0.015625)"/>
       <path id="NotoSansCJKtc-Regular-65bc" d="M 3757 2592 
C 4141 2323 4627 1946 4870 1696 
L 5197 2061 
C 4947 2298 4454 2656 4070 2906 
L 3757 2592 
z
M 3366 768 
C 3968 454 4742 -26 5114 -371 
L 5440 51 
C 5050 378 4262 838 3674 1133 
L 3366 768 
z
M 320 4320 
L 320 3872 
L 966 3872 
C 941 2125 890 691 198 -141 
C 320 -218 480 -371 557 -486 
C 1126 211 1318 1261 1395 2541 
L 2221 2541 
C 2150 877 2080 262 1958 109 
C 1907 45 1856 26 1773 32 
C 1683 32 1498 32 1280 51 
C 1344 -64 1395 -256 1402 -390 
C 1632 -403 1856 -403 1990 -384 
C 2150 -365 2259 -320 2355 -179 
C 2541 51 2611 742 2682 2771 
C 2688 2829 2688 2982 2688 2982 
L 1414 2982 
L 1434 3872 
L 2925 3872 
L 2925 4320 
L 320 4320 
z
M 1088 5235 
C 1299 4954 1530 4576 1613 4320 
L 2061 4512 
C 1965 4755 1728 5126 1510 5402 
L 1088 5235 
z
M 4314 5408 
C 4032 4422 3456 3584 2707 3110 
C 2829 3021 2970 2861 3046 2733 
C 3642 3142 4102 3738 4442 4442 
C 4806 3770 5338 3130 5869 2784 
C 5952 2906 6106 3078 6221 3174 
C 5619 3507 4979 4237 4646 4928 
L 4762 5274 
L 4314 5408 
z
" transform="scale(0.015625)"/>
       <path id="NotoSansCJKtc-Regular-524d" d="M 3866 3290 
L 3866 666 
L 4314 666 
L 4314 3290 
L 3866 3290 
z
M 5165 3482 
L 5165 90 
C 5165 -6 5133 -32 5030 -32 
C 4922 -38 4576 -38 4186 -26 
C 4256 -154 4333 -358 4358 -486 
C 4851 -493 5178 -480 5370 -403 
C 5568 -326 5638 -192 5638 83 
L 5638 3482 
L 5165 3482 
z
M 4627 5408 
C 4486 5094 4243 4672 4026 4365 
L 2106 4365 
L 2419 4480 
C 2298 4736 2022 5114 1779 5382 
L 1331 5222 
C 1562 4960 1798 4614 1920 4365 
L 339 4365 
L 339 3923 
L 6061 3923 
L 6061 4365 
L 4570 4365 
C 4755 4627 4960 4947 5139 5242 
L 4627 5408 
z
M 2618 1926 
L 2618 1280 
L 1190 1280 
C 1203 1466 1210 1651 1210 1818 
L 1210 1926 
L 2618 1926 
z
M 2618 2304 
L 1210 2304 
L 1210 2957 
L 2618 2957 
L 2618 2304 
z
M 768 3347 
L 768 1824 
C 768 1184 723 346 294 -250 
C 397 -307 582 -448 659 -525 
C 947 -128 1088 390 1152 902 
L 2618 902 
L 2618 45 
C 2618 -38 2592 -64 2502 -64 
C 2419 -70 2125 -70 1798 -58 
C 1862 -179 1933 -365 1965 -486 
C 2394 -486 2682 -480 2854 -403 
C 3034 -333 3085 -205 3085 38 
L 3085 3347 
L 768 3347 
z
" transform="scale(0.015625)"/>
       <path id="NotoSansCJKtc-Regular-6b21" d="M 454 4371 
L 454 3904 
L 2144 3904 
L 2144 4371 
L 454 4371 
z
M 320 1728 
L 320 1254 
L 2342 1254 
L 2342 1728 
L 320 1728 
z
M 2918 5376 
C 2720 4352 2368 3354 1875 2726 
C 2010 2669 2246 2534 2349 2451 
C 2605 2816 2829 3283 3021 3802 
L 5357 3802 
C 5229 3360 5037 2874 4883 2573 
C 4998 2522 5190 2426 5293 2368 
C 5517 2810 5798 3488 5965 4115 
L 5613 4307 
L 5517 4282 
L 3187 4282 
C 3283 4602 3366 4941 3437 5280 
L 2918 5376 
z
M 3558 3546 
L 3558 3046 
C 3558 2118 3411 787 1555 -154 
C 1670 -237 1843 -416 1920 -531 
C 3155 109 3686 934 3910 1728 
C 4282 685 4877 -77 5843 -474 
C 5914 -339 6061 -147 6170 -51 
C 4992 358 4352 1389 4058 2746 
L 4064 3034 
L 4064 3546 
L 3558 3546 
z
" transform="scale(0.015625)"/>
       <path id="NotoSansCJKtc-Regular-4e2d" d="M 2931 5376 
L 2931 4230 
L 614 4230 
L 614 1190 
L 1094 1190 
L 1094 1587 
L 2931 1587 
L 2931 -506 
L 3437 -506 
L 3437 1587 
L 5280 1587 
L 5280 1222 
L 5773 1222 
L 5773 4230 
L 3437 4230 
L 3437 5376 
L 2931 5376 
z
M 1094 2061 
L 1094 3763 
L 2931 3763 
L 2931 2061 
L 1094 2061 
z
M 5280 2061 
L 3437 2061 
L 3437 3763 
L 5280 3763 
L 5280 2061 
z
" transform="scale(0.015625)"/>
       <path id="NotoSansCJKtc-Regular-9593" d="M 3936 1082 
L 3936 461 
L 2432 461 
L 2432 1082 
L 3936 1082 
z
M 3936 1453 
L 2432 1453 
L 2432 2042 
L 3936 2042 
L 3936 1453 
z
M 1997 2419 
L 1997 -243 
L 2432 -243 
L 2432 83 
L 4384 83 
L 4384 2419 
L 1997 2419 
z
M 2451 3840 
L 2451 3270 
L 1056 3270 
L 1056 3840 
L 2451 3840 
z
M 2451 4192 
L 1056 4192 
L 1056 4730 
L 2451 4730 
L 2451 4192 
z
M 5376 3840 
L 5376 3264 
L 3936 3264 
L 3936 3840 
L 5376 3840 
z
M 5376 4192 
L 3936 4192 
L 3936 4730 
L 5376 4730 
L 5376 4192 
z
M 5619 5101 
L 3482 5101 
L 3482 2893 
L 5376 2893 
L 5376 128 
C 5376 13 5338 -19 5229 -26 
C 5114 -26 4723 -32 4333 -19 
C 4403 -154 4474 -378 4499 -512 
C 5030 -512 5376 -506 5581 -422 
C 5792 -339 5862 -186 5862 122 
L 5862 5101 
L 5619 5101 
z
M 576 5101 
L 576 -518 
L 1056 -518 
L 1056 2906 
L 2899 2906 
L 2899 5101 
L 576 5101 
z
" transform="scale(0.015625)"/>
       <path id="NotoSansCJKtc-Regular-50f9" d="M 2714 1779 
L 5344 1779 
L 5344 1408 
L 2714 1408 
L 2714 1779 
z
M 2714 1107 
L 5344 1107 
L 5344 736 
L 2714 736 
L 2714 1107 
z
M 2714 2438 
L 5344 2438 
L 5344 2080 
L 2714 2080 
L 2714 2438 
z
M 2266 2746 
L 2266 429 
L 5811 429 
L 5811 2746 
L 2266 2746 
z
M 4346 109 
C 4896 -83 5459 -333 5792 -531 
L 6202 -250 
C 5830 -51 5210 192 4659 378 
L 4346 109 
z
M 3290 390 
C 2957 166 2336 -64 1779 -198 
C 1869 -275 1984 -422 2042 -518 
C 2611 -378 3245 -134 3635 141 
L 3290 390 
z
M 2131 4307 
L 2131 3053 
L 5888 3053 
L 5888 4307 
L 4742 4307 
L 4742 4685 
L 6086 4685 
L 6086 5056 
L 1978 5056 
L 1978 4685 
L 3238 4685 
L 3238 4307 
L 2131 4307 
z
M 3629 4685 
L 4339 4685 
L 4339 4307 
L 3629 4307 
L 3629 4685 
z
M 2554 3987 
L 3238 3987 
L 3238 3373 
L 2554 3373 
L 2554 3987 
z
M 3629 3987 
L 4339 3987 
L 4339 3373 
L 3629 3373 
L 3629 3987 
z
M 4742 3987 
L 5446 3987 
L 5446 3373 
L 4742 3373 
L 4742 3987 
z
M 1491 5344 
C 1184 4352 672 3366 115 2726 
C 198 2605 320 2355 365 2240 
C 576 2490 781 2778 973 3098 
L 973 -512 
L 1434 -512 
L 1434 3962 
C 1626 4365 1798 4794 1933 5222 
L 1491 5344 
z
" transform="scale(0.015625)"/>
       <path id="NotoSansCJKtc-Regular-ff08" d="M 4448 2432 
C 4448 1184 4954 166 5722 -614 
L 6106 -416 
C 5370 346 4915 1293 4915 2432 
C 4915 3571 5370 4518 6106 5280 
L 5722 5478 
C 4954 4698 4448 3680 4448 2432 
z
" transform="scale(0.015625)"/>
       <path id="NotoSansCJKtc-Regular-9ede" d="M 966 4474 
C 1069 4166 1152 3757 1165 3494 
L 1421 3565 
C 1402 3821 1312 4230 1203 4538 
L 966 4474 
z
M 1197 781 
C 1267 422 1299 -38 1286 -339 
L 1626 -301 
C 1632 0 1594 461 1523 813 
L 1197 781 
z
M 1856 781 
C 1990 454 2106 26 2138 -262 
L 2458 -186 
C 2426 90 2298 518 2163 838 
L 1856 781 
z
M 2515 794 
C 2694 480 2867 58 2931 -218 
L 3251 -102 
C 3187 179 3014 589 2822 902 
L 2515 794 
z
M 627 902 
C 557 512 416 13 218 -288 
L 563 -435 
C 762 -128 890 378 960 781 
L 627 902 
z
M 2272 4557 
C 2214 4262 2086 3808 1997 3533 
L 2202 3456 
C 2317 3706 2445 4122 2554 4454 
L 2272 4557 
z
M 4314 5363 
L 4314 2330 
L 3379 2330 
L 3379 -506 
L 3827 -506 
L 3827 -211 
L 5440 -211 
L 5440 -480 
L 5901 -480 
L 5901 2330 
L 4781 2330 
L 4781 3526 
L 6150 3526 
L 6150 3974 
L 4781 3974 
L 4781 5363 
L 4314 5363 
z
M 3827 237 
L 3827 1894 
L 5440 1894 
L 5440 237 
L 3827 237 
z
M 877 4794 
L 1568 4794 
L 1568 3245 
L 877 3245 
L 877 4794 
z
M 1894 4794 
L 2637 4794 
L 2637 3245 
L 1894 3245 
L 1894 4794 
z
M 333 1555 
L 333 1178 
L 3149 1178 
L 3149 1555 
L 1946 1555 
L 1946 2067 
L 3072 2067 
L 3072 2451 
L 1946 2451 
L 1946 2893 
L 3027 2893 
L 3027 5146 
L 493 5146 
L 493 2893 
L 1517 2893 
L 1517 2451 
L 448 2451 
L 448 2067 
L 1517 2067 
L 1517 1555 
L 333 1555 
z
" transform="scale(0.015625)"/>
       <path id="NotoSansCJKtc-Regular-ff0c" d="M 2675 1203 
C 3347 1440 3782 1965 3782 2656 
C 3782 3104 3590 3392 3238 3392 
C 2976 3392 2752 3232 2752 2931 
C 2752 2630 2970 2477 3232 2477 
L 3341 2490 
C 3309 2048 3027 1747 2534 1542 
L 2675 1203 
z
" transform="scale(0.015625)"/>
       <path id="NotoSansCJKtc-Regular-70" d="M 589 -1466 
L 1178 -1466 
L 1178 -288 
L 1158 320 
C 1472 58 1805 -83 2118 -83 
C 2912 -83 3629 602 3629 1792 
C 3629 2867 3142 3565 2246 3565 
C 1843 3565 1453 3334 1139 3072 
L 1126 3072 
L 1069 3475 
L 589 3475 
L 589 -1466 
z
M 2022 410 
C 1792 410 1485 499 1178 768 
L 1178 2598 
C 1510 2906 1811 3072 2099 3072 
C 2765 3072 3021 2560 3021 1786 
C 3021 928 2598 410 2022 410 
z
" transform="scale(0.015625)"/>
       <path id="NotoSansCJKtc-Regular-69" d="M 589 0 
L 1178 0 
L 1178 3475 
L 589 3475 
L 589 0 
z
M 883 4192 
C 1114 4192 1274 4346 1274 4582 
C 1274 4806 1114 4960 883 4960 
C 653 4960 499 4806 499 4582 
C 499 4346 653 4192 883 4192 
z
" transform="scale(0.015625)"/>
       <path id="NotoSansCJKtc-Regular-73" d="M 1498 -83 
C 2317 -83 2758 384 2758 947 
C 2758 1606 2208 1811 1702 2003 
C 1312 2150 954 2278 954 2605 
C 954 2880 1158 3110 1600 3110 
C 1907 3110 2150 2976 2387 2803 
L 2669 3168 
C 2406 3386 2022 3565 1594 3565 
C 832 3565 397 3130 397 2579 
C 397 1984 922 1754 1408 1574 
C 1792 1434 2202 1267 2202 915 
C 2202 614 1978 371 1517 371 
C 1101 371 794 538 486 787 
L 205 397 
C 531 122 1005 -83 1498 -83 
z
" transform="scale(0.015625)"/>
       <path id="NotoSansCJKtc-Regular-ff09" d="M 1952 2432 
C 1952 3680 1446 4698 678 5478 
L 294 5280 
C 1030 4518 1485 3571 1485 2432 
C 1485 1293 1030 346 294 -416 
L 678 -614 
C 1446 166 1952 1184 1952 2432 
z
" transform="scale(0.015625)"/>
      </defs>
      <use xlink:href="#NotoSansCJKtc-Regular-4f4e"/>
      <use xlink:href="#NotoSansCJKtc-Regular-65bc" transform="translate(99.999985 0)"/>
      <use xlink:href="#NotoSansCJKtc-Regular-524d" transform="translate(199.999969 0)"/>
      <use xlink:href="#NotoSansCJKtc-Regular-6b21" transform="translate(299.999954 0)"/>
      <use xlink:href="#NotoSansCJKtc-Regular-4e2d" transform="translate(399.999939 0)"/>
      <use xlink:href="#NotoSansCJKtc-Regular-9593" transform="translate(499.999924 0)"/>
      <use xlink:href="#NotoSansCJKtc-Regular-50f9" transform="translate(599.999908 0)"/>
      <use xlink:href="#NotoSansCJKtc-Regular-ff08" transform="translate(699.999893 0)"/>
      <use xlink:href="#NotoSansCJKtc-Regular-9ede" transform="translate(799.999878 0)"/>
      <use xlink:href="#NotoSansCJKtc-Regular-ff0c" transform="translate(899.999863 0)"/>
      <use xlink:href="#NotoSansCJKtc-Regular-70" transform="translate(999.999847 0)"/>
      <use xlink:href="#NotoSansCJKtc-Regular-69" transform="translate(1061.999832 0)"/>
      <use xlink:href="#NotoSansCJKtc-Regular-70" transform="translate(1089.499817 0)"/>
      <use xlink:href="#NotoSansCJKtc-Regular-73" transform="translate(1151.499802 0)"/>
      <use xlink:href="#NotoSansCJKtc-Regular-ff09" transform="translate(1198.299789 0)"/>
     </g>
    </g>
   </g>
   <g id="line2d_11">
    <path d="M 46.44 292.824 
L 572.76 292.824 
" clip-path="url(#p38f1083c0e)" style="fill: none; stroke: #c9c5c0; stroke-width: 0.9; stroke-linecap: square"/>
   </g>
   <g id="patch_5">
    <path d="M 46.44 292.824 
L 572.76 292.824 
" style="fill: none; stroke: #c9c5c0; stroke-width: 0.9; stroke-linejoin: miter; stroke-linecap: square"/>
   </g>
  </g>
  <g id="text_12">
   <!-- 逆週期因子把 322 點的隔夜訊號壓成 108 點 -->
   <g style="fill: #14161a" transform="translate(46.44 27.446547) scale(0.145 -0.145)">
    <defs>
     <path id="NotoSansCJKtc-Bold-9006" d="M 422 5094 
C 698 4774 1043 4326 1197 4058 
L 1798 4467 
C 1626 4730 1293 5133 1005 5440 
L 422 5094 
z
M 2362 3552 
L 2362 1670 
L 3533 1670 
C 3392 1312 3104 986 2547 787 
C 2707 653 2931 390 3021 230 
C 3776 570 4147 1094 4307 1670 
L 5792 1670 
L 5792 3565 
L 5050 3565 
L 5050 2349 
L 4410 2349 
L 4416 2522 
L 4416 3834 
L 6061 3834 
L 6061 4499 
L 5158 4499 
C 5318 4730 5491 5005 5645 5280 
L 4838 5478 
C 4730 5178 4531 4787 4352 4499 
L 3264 4499 
L 3654 4698 
C 3558 4922 3315 5254 3104 5491 
L 2490 5190 
C 2656 4986 2835 4710 2944 4499 
L 2022 4499 
L 2022 3834 
L 3667 3834 
L 3667 2522 
L 3661 2349 
L 3072 2349 
L 3072 3552 
L 2362 3552 
z
M 390 1696 
C 448 1754 634 1792 781 1792 
L 1178 1792 
C 998 928 653 288 134 -83 
C 282 -186 531 -442 634 -589 
C 922 -365 1171 -51 1376 346 
C 1869 -339 2618 -467 3814 -467 
C 4563 -467 5382 -448 6048 -410 
C 6086 -198 6182 147 6291 301 
C 5568 230 4512 192 3827 192 
C 2739 198 2016 288 1645 998 
C 1766 1376 1856 1798 1920 2278 
L 1600 2406 
L 1485 2387 
L 1107 2387 
C 1421 2822 1792 3424 2022 3782 
L 1555 3968 
L 1485 3942 
L 269 3942 
L 269 3334 
L 1037 3334 
C 819 2995 576 2630 467 2515 
C 352 2394 250 2342 147 2317 
C 218 2176 352 1856 390 1696 
z
" transform="scale(0.015625)"/>
     <path id="NotoSansCJKtc-Bold-9031" d="M 429 5088 
C 685 4768 1018 4320 1171 4051 
L 1773 4435 
C 1606 4698 1280 5101 1011 5408 
L 429 5088 
z
M 3674 4602 
L 3674 4237 
L 2886 4237 
L 2886 4602 
L 3674 4602 
z
M 4301 4602 
L 5171 4602 
L 5171 4237 
L 4301 4237 
L 4301 4602 
z
M 3123 2496 
L 3123 845 
L 3642 845 
L 3642 1024 
L 4512 1024 
C 4589 845 4659 608 4678 442 
C 5107 442 5402 454 5606 563 
C 5811 672 5875 851 5875 1184 
L 5875 5222 
L 2189 5222 
L 2189 3565 
C 2189 2771 2170 1658 1862 870 
C 2035 806 2355 627 2490 518 
C 2746 1146 2842 2029 2874 2803 
L 5171 2803 
L 5171 1190 
C 5171 1107 5146 1075 5062 1075 
L 4832 1075 
L 4832 2496 
L 3123 2496 
z
M 3674 3718 
L 3674 3315 
L 2886 3315 
L 2886 3565 
L 2886 3718 
L 3674 3718 
z
M 4301 3718 
L 5171 3718 
L 5171 3315 
L 4301 3315 
L 4301 3718 
z
M 390 1696 
C 448 1754 634 1792 768 1792 
L 1158 1792 
C 979 934 614 301 96 -64 
C 243 -166 493 -429 595 -576 
C 890 -352 1146 -38 1350 358 
C 1843 -339 2598 -467 3808 -467 
C 4557 -467 5376 -454 6048 -410 
C 6086 -205 6182 147 6291 301 
C 5562 230 4506 192 3821 192 
C 2726 198 1990 288 1626 1018 
C 1747 1389 1843 1811 1901 2278 
L 1536 2406 
L 1421 2387 
L 1101 2387 
C 1402 2822 1773 3430 1990 3789 
L 1523 3968 
L 1453 3942 
L 275 3942 
L 275 3334 
L 1011 3334 
C 800 2995 563 2630 461 2515 
C 352 2387 250 2342 147 2310 
C 218 2176 352 1856 390 1696 
z
M 3642 1530 
L 3642 1997 
L 4294 1997 
L 4294 1530 
L 3642 1530 
z
" transform="scale(0.015625)"/>
     <path id="NotoSansCJKtc-Bold-671f" d="M 986 909 
C 806 525 480 122 141 -134 
C 314 -237 614 -454 755 -589 
C 1101 -275 1478 224 1715 698 
L 986 909 
z
M 5261 4454 
L 5261 3706 
L 4339 3706 
L 4339 4454 
L 5261 4454 
z
M 1939 621 
C 2189 320 2502 -96 2630 -352 
L 3155 -51 
L 3098 -154 
C 3264 -224 3584 -454 3706 -589 
C 4051 -13 4211 787 4288 1555 
L 5261 1555 
L 5261 282 
C 5261 186 5222 154 5133 154 
C 5037 154 4723 147 4454 166 
C 4550 -26 4646 -365 4672 -563 
C 5152 -570 5478 -550 5702 -429 
C 5926 -307 5997 -102 5997 275 
L 5997 5152 
L 3616 5152 
L 3616 2797 
C 3616 1958 3584 877 3213 70 
C 3046 326 2758 678 2522 941 
L 1939 621 
z
M 5261 3027 
L 5261 2240 
L 4326 2240 
L 4339 2797 
L 4339 3027 
L 5261 3027 
z
M 2259 5363 
L 2259 4685 
L 1459 4685 
L 1459 5363 
L 768 5363 
L 768 4685 
L 269 4685 
L 269 4013 
L 768 4013 
L 768 1626 
L 192 1626 
L 192 954 
L 3360 954 
L 3360 1626 
L 2963 1626 
L 2963 4013 
L 3405 4013 
L 3405 4685 
L 2963 4685 
L 2963 5363 
L 2259 5363 
z
M 1459 4013 
L 2259 4013 
L 2259 3635 
L 1459 3635 
L 1459 4013 
z
M 1459 3053 
L 2259 3053 
L 2259 2643 
L 1459 2643 
L 1459 3053 
z
M 1459 2054 
L 2259 2054 
L 2259 1626 
L 1459 1626 
L 1459 2054 
z
" transform="scale(0.015625)"/>
     <path id="NotoSansCJKtc-Bold-56e0" d="M 2867 4301 
C 2861 4000 2854 3718 2835 3456 
L 1472 3456 
L 1472 2771 
L 2758 2771 
C 2618 2003 2278 1446 1414 1082 
C 1581 941 1792 653 1875 461 
C 2598 787 3014 1248 3258 1824 
C 3731 1395 4192 902 4442 557 
L 4979 1024 
C 4659 1446 4038 2042 3462 2496 
L 3507 2771 
L 4928 2771 
L 4928 3456 
L 3578 3456 
C 3597 3725 3610 4006 3616 4301 
L 2867 4301 
z
M 461 5222 
L 461 -570 
L 1171 -570 
L 1171 -288 
L 5222 -288 
L 5222 -570 
L 5965 -570 
L 5965 5222 
L 461 5222 
z
M 1171 346 
L 1171 4531 
L 5222 4531 
L 5222 346 
L 1171 346 
z
" transform="scale(0.015625)"/>
     <path id="NotoSansCJKtc-Bold-5b50" d="M 2835 3552 
L 2835 2662 
L 288 2662 
L 288 1888 
L 2835 1888 
L 2835 358 
C 2835 250 2790 218 2650 211 
C 2509 205 2010 205 1562 230 
C 1690 13 1843 -339 1888 -563 
C 2477 -570 2918 -550 3232 -429 
C 3539 -307 3635 -90 3635 339 
L 3635 1888 
L 6131 1888 
L 6131 2662 
L 3635 2662 
L 3635 3149 
C 4371 3552 5146 4128 5696 4659 
L 5107 5114 
L 4934 5069 
L 928 5069 
L 928 4314 
L 4083 4314 
C 3706 4032 3245 3744 2835 3552 
z
" transform="scale(0.015625)"/>
     <path id="NotoSansCJKtc-Bold-628a" d="M 3347 4384 
L 3891 4384 
L 3891 2675 
L 3347 2675 
L 3347 4384 
z
M 2554 5139 
L 2554 762 
C 2554 -198 2829 -435 3718 -435 
C 3930 -435 4896 -435 5120 -435 
C 5920 -435 6170 -83 6272 883 
C 6048 934 5715 1069 5530 1190 
C 5472 474 5408 307 5043 307 
C 4845 307 3994 307 3808 307 
C 3405 307 3347 365 3347 755 
L 3347 1946 
L 5158 1946 
L 5158 1549 
L 5971 1549 
L 5971 5139 
L 2554 5139 
z
M 5158 2675 
L 4602 2675 
L 4602 4384 
L 5158 4384 
L 5158 2675 
z
M 941 5440 
L 941 4230 
L 256 4230 
L 256 3520 
L 941 3520 
L 941 2355 
L 147 2170 
L 333 1434 
L 941 1594 
L 941 237 
C 941 160 915 134 838 134 
C 768 128 550 128 346 141 
C 435 -58 531 -371 550 -563 
C 954 -563 1229 -538 1434 -422 
C 1632 -307 1696 -115 1696 243 
L 1696 1798 
L 2419 1990 
L 2323 2701 
L 1696 2541 
L 1696 3520 
L 2285 3520 
L 2285 4230 
L 1696 4230 
L 1696 5440 
L 941 5440 
z
" transform="scale(0.015625)"/>
     <path id="NotoSansCJKtc-Bold-20" transform="scale(0.015625)"/>
     <path id="NotoSansCJKtc-Bold-33" d="M 1747 -90 
C 2656 -90 3418 410 3418 1280 
C 3418 1907 3008 2304 2477 2451 
L 2477 2483 
C 2976 2682 3264 3053 3264 3565 
C 3264 4378 2643 4826 1728 4826 
C 1171 4826 717 4602 307 4250 
L 794 3667 
C 1069 3930 1344 4083 1683 4083 
C 2086 4083 2317 3866 2317 3494 
C 2317 3066 2035 2771 1171 2771 
L 1171 2093 
C 2195 2093 2470 1805 2470 1338 
C 2470 915 2144 678 1664 678 
C 1229 678 890 890 608 1165 
L 166 570 
C 499 192 1005 -90 1747 -90 
z
" transform="scale(0.015625)"/>
     <path id="NotoSansCJKtc-Bold-32" d="M 275 0 
L 3450 0 
L 3450 794 
L 2426 794 
C 2202 794 1888 768 1645 736 
C 2509 1587 3226 2509 3226 3366 
C 3226 4250 2630 4826 1734 4826 
C 1088 4826 666 4576 224 4102 
L 749 3597 
C 986 3859 1267 4083 1613 4083 
C 2067 4083 2323 3789 2323 3322 
C 2323 2586 1568 1696 275 544 
L 275 0 
z
" transform="scale(0.015625)"/>
     <path id="NotoSansCJKtc-Bold-9ede" d="M 1178 717 
C 1229 358 1261 -102 1242 -410 
L 1734 -352 
C 1741 -51 1715 410 1651 768 
L 1178 717 
z
M 1830 730 
C 1946 390 2054 -58 2074 -346 
L 2554 -250 
C 2522 38 2406 480 2285 813 
L 1830 730 
z
M 557 909 
C 486 525 333 45 154 -256 
L 685 -474 
C 858 -166 986 326 1069 717 
L 557 909 
z
M 2470 742 
C 2656 416 2829 -19 2893 -301 
L 3366 -115 
L 3366 -570 
L 4058 -570 
L 4058 -320 
L 5248 -320 
L 5248 -544 
L 5984 -544 
L 5984 2413 
L 4960 2413 
L 4960 3398 
L 6202 3398 
L 6202 4109 
L 4960 4109 
L 4960 5427 
L 4218 5427 
L 4218 2413 
L 3366 2413 
L 3366 -64 
C 3290 218 3110 614 2931 909 
L 2470 742 
z
M 4058 378 
L 4058 1715 
L 5248 1715 
L 5248 378 
L 4058 378 
z
M 992 4730 
L 1530 4730 
L 1530 3328 
L 992 3328 
L 992 4416 
C 1082 4128 1152 3763 1165 3520 
L 1504 3629 
C 1485 3872 1402 4256 1299 4544 
L 992 4461 
L 992 4730 
z
M 2547 4237 
L 2547 3328 
L 1990 3328 
L 1990 3610 
L 2266 3507 
C 2349 3693 2445 3974 2547 4237 
z
M 2234 4550 
C 2189 4294 2086 3910 1990 3648 
L 1990 4730 
L 2547 4730 
L 2547 4448 
L 2234 4550 
z
M 307 1638 
L 307 1056 
L 3219 1056 
L 3219 1638 
L 2099 1638 
L 2099 1958 
L 3130 1958 
L 3130 2541 
L 2099 2541 
L 2099 2816 
L 3142 2816 
L 3142 5242 
L 422 5242 
L 422 2816 
L 1421 2816 
L 1421 2541 
L 435 2541 
L 435 1958 
L 1421 1958 
L 1421 1638 
L 307 1638 
z
" transform="scale(0.015625)"/>
     <path id="NotoSansCJKtc-Bold-7684" d="M 3430 2598 
C 3744 2131 4141 1498 4320 1107 
L 4973 1504 
C 4774 1882 4346 2496 4032 2938 
L 3430 2598 
z
M 3744 5434 
C 3558 4672 3251 3898 2880 3347 
L 2880 4397 
L 1888 4397 
C 1997 4666 2112 4998 2214 5318 
L 1382 5440 
C 1357 5133 1280 4717 1197 4397 
L 467 4397 
L 467 -384 
L 1165 -384 
L 1165 90 
L 2880 90 
L 2880 3098 
C 3053 2989 3270 2829 3379 2726 
C 3578 3002 3770 3354 3942 3744 
L 5318 3744 
C 5254 1478 5171 512 4973 307 
C 4896 218 4826 198 4698 198 
C 4531 198 4147 198 3738 237 
C 3872 26 3974 -301 3987 -512 
C 4365 -525 4755 -531 4998 -499 
C 5261 -454 5440 -384 5613 -141 
C 5882 198 5952 1222 6035 4102 
C 6042 4192 6042 4448 6042 4448 
L 4230 4448 
C 4326 4717 4416 4992 4486 5261 
L 3744 5434 
z
M 1165 3731 
L 2189 3731 
L 2189 2688 
L 1165 2688 
L 1165 3731 
z
M 1165 762 
L 1165 2022 
L 2189 2022 
L 2189 762 
L 1165 762 
z
" transform="scale(0.015625)"/>
     <path id="NotoSansCJKtc-Bold-9694" d="M 3405 3808 
L 5120 3808 
L 5120 3437 
L 3405 3437 
L 3405 3808 
z
M 2765 4320 
L 2765 2918 
L 5805 2918 
L 5805 4320 
L 2765 4320 
z
M 2490 5197 
L 2490 4550 
L 6118 4550 
L 6118 5197 
L 2490 5197 
z
M 416 5184 
L 416 -557 
L 1075 -557 
L 1075 4499 
L 1581 4499 
C 1478 4083 1344 3558 1216 3168 
C 1587 2714 1664 2298 1664 1997 
C 1664 1811 1632 1664 1555 1606 
C 1504 1574 1446 1562 1376 1562 
C 1306 1549 1210 1555 1101 1568 
C 1203 1376 1267 1088 1267 902 
C 1421 902 1568 902 1683 922 
C 1824 941 1946 986 2048 1062 
C 2253 1216 2336 1491 2336 1907 
C 2336 2285 2259 2739 1869 3251 
C 2054 3744 2259 4390 2426 4928 
L 1926 5210 
L 1818 5184 
L 416 5184 
z
M 4710 2061 
C 4627 1805 4474 1453 4333 1190 
L 3898 1190 
L 4275 1357 
C 4192 1542 4006 1850 3866 2074 
L 3405 1888 
C 3533 1677 3686 1382 3776 1190 
L 3366 1190 
L 3366 691 
L 3962 691 
L 3962 -422 
L 4589 -422 
L 4589 691 
L 5184 691 
L 5184 1190 
L 4858 1190 
L 5235 1856 
L 4710 2061 
z
M 2528 2694 
L 2528 -576 
L 3181 -576 
L 3181 2131 
L 5350 2131 
L 5350 122 
C 5350 58 5331 45 5274 45 
C 5216 38 5043 38 4877 45 
C 4954 -128 5030 -390 5043 -576 
C 5376 -576 5613 -563 5792 -467 
C 5978 -358 6016 -179 6016 109 
L 6016 2694 
L 2528 2694 
z
" transform="scale(0.015625)"/>
     <path id="NotoSansCJKtc-Bold-591c" d="M 3578 2400 
C 3795 2214 4064 1946 4179 1766 
L 4659 2170 
C 4531 2349 4250 2598 4032 2765 
L 3578 2400 
z
M 3680 2854 
L 5050 2854 
C 4838 2240 4518 1728 4122 1306 
C 3802 1619 3546 1978 3347 2362 
C 3462 2522 3578 2688 3680 2854 
z
M 2643 5254 
C 2714 5120 2797 4960 2867 4806 
L 346 4806 
L 346 4090 
L 1670 4090 
C 1318 3251 730 2451 90 1952 
C 256 1818 538 1510 653 1357 
C 813 1498 973 1658 1126 1837 
L 1126 -570 
L 1882 -570 
L 1882 2848 
C 2099 3194 2291 3552 2445 3917 
L 1882 4090 
L 3462 4090 
C 3187 3360 2624 2496 1958 1990 
C 2118 1869 2362 1619 2490 1459 
C 2630 1568 2765 1696 2893 1830 
C 3091 1466 3322 1133 3590 832 
C 3136 493 2618 237 2048 58 
C 2202 -70 2438 -390 2528 -576 
C 3104 -371 3648 -77 4122 307 
C 4582 -77 5120 -378 5734 -582 
C 5850 -378 6080 -58 6246 102 
C 5658 256 5126 512 4678 832 
C 5261 1472 5709 2298 5965 3328 
L 5478 3552 
L 5350 3520 
L 4058 3520 
C 4128 3661 4192 3808 4256 3949 
L 3725 4090 
L 6067 4090 
L 6067 4806 
L 3744 4806 
C 3642 5018 3488 5293 3366 5498 
L 2643 5254 
z
" transform="scale(0.015625)"/>
     <path id="NotoSansCJKtc-Bold-8a0a" d="M 499 3482 
L 499 2906 
L 2368 2906 
L 2368 3482 
L 499 3482 
z
M 499 2618 
L 499 2035 
L 2387 2035 
L 2387 2618 
L 499 2618 
z
M 890 5184 
C 1018 4941 1178 4614 1261 4378 
L 243 4378 
L 243 3770 
L 2598 3770 
L 2598 4378 
L 1472 4378 
L 1862 4608 
C 1773 4845 1594 5197 1427 5466 
L 890 5184 
z
M 506 1728 
L 506 -486 
L 1094 -486 
L 1094 -218 
L 2387 -218 
L 2387 1728 
L 506 1728 
z
M 1094 1120 
L 1779 1120 
L 1779 397 
L 1094 397 
L 1094 1120 
z
M 2682 5107 
L 2682 4378 
L 3315 4378 
L 3315 2682 
L 2598 2682 
L 2598 1965 
L 3315 1965 
L 3315 -570 
L 4032 -570 
L 4032 1965 
L 4653 1965 
L 4653 2682 
L 4032 2682 
L 4032 4378 
L 4813 4378 
C 4806 1984 4813 -243 5427 -499 
C 5818 -666 6150 -467 6246 474 
C 6138 589 5952 890 5850 1094 
C 5824 678 5792 262 5760 269 
C 5523 352 5517 2995 5581 5107 
L 2682 5107 
z
" transform="scale(0.015625)"/>
     <path id="NotoSansCJKtc-Bold-865f" d="M 1037 4659 
L 1882 4659 
L 1882 3904 
L 1037 3904 
L 1037 4659 
z
M 493 5197 
L 493 3366 
L 2458 3366 
L 2458 5197 
L 493 5197 
z
M 3770 1747 
C 3744 902 3667 282 3098 -90 
C 3245 -198 3430 -435 3507 -595 
C 4230 -109 4365 685 4403 1747 
L 3770 1747 
z
M 4736 1747 
L 4736 269 
C 4736 -102 4755 -205 4870 -320 
C 4973 -422 5133 -467 5293 -467 
C 5382 -467 5542 -467 5645 -467 
C 5766 -467 5907 -435 5990 -378 
C 6093 -307 6157 -224 6208 -83 
C 6240 38 6272 352 6285 659 
C 6118 710 5882 838 5766 954 
C 5773 685 5760 454 5747 352 
C 5734 294 5715 256 5696 230 
C 5677 211 5632 205 5594 205 
C 5555 205 5504 205 5478 205 
C 5440 205 5402 218 5389 237 
C 5370 256 5363 294 5363 326 
L 5363 1747 
L 4736 1747 
z
M 192 3008 
L 192 2349 
L 678 2349 
C 608 1984 525 1606 442 1325 
L 1690 1325 
C 1638 589 1574 275 1491 179 
C 1434 122 1376 109 1286 109 
C 1184 109 960 115 736 134 
C 838 -32 902 -294 915 -486 
C 1184 -499 1446 -499 1600 -480 
C 1786 -454 1914 -403 2035 -256 
C 2208 -64 2285 448 2355 1651 
C 2362 1741 2368 1914 2368 1914 
L 1235 1914 
L 1318 2349 
L 2586 2349 
L 2586 3008 
L 192 3008 
z
M 4038 5440 
L 4038 4205 
L 2790 4205 
L 2790 2547 
C 2790 1728 2746 614 2259 -173 
C 2419 -243 2714 -454 2829 -570 
C 3366 288 3450 1626 3450 2541 
L 3450 3597 
L 4064 3597 
L 4064 3219 
L 3552 3174 
L 3616 2662 
L 4064 2707 
C 4070 2202 4186 1958 4723 1958 
C 4845 1958 5261 1958 5402 1958 
C 5562 1958 5766 1965 5869 2003 
C 5843 2176 5830 2362 5818 2547 
C 5722 2515 5491 2502 5370 2502 
C 5267 2502 4947 2502 4851 2502 
C 4717 2502 4704 2573 4704 2733 
L 4704 2765 
L 5363 2829 
L 5306 3328 
L 4704 3277 
L 4704 3597 
L 5542 3597 
L 5459 3014 
L 6016 2880 
C 6106 3200 6195 3699 6266 4122 
L 5792 4224 
L 5690 4205 
L 4762 4205 
L 4762 4486 
L 5990 4486 
L 5990 5088 
L 4762 5088 
L 4762 5440 
L 4038 5440 
z
" transform="scale(0.015625)"/>
     <path id="NotoSansCJKtc-Bold-58d3" d="M 2048 3763 
L 2950 3763 
L 2950 3603 
L 2048 3603 
L 2048 3763 
z
M 2048 4198 
L 2950 4198 
L 2950 4038 
L 2048 4038 
L 2048 4198 
z
M 1523 4486 
L 1523 3309 
L 3501 3309 
L 3501 4486 
L 1523 4486 
z
M 1402 3149 
L 1402 2445 
C 1402 2170 1389 1856 1184 1594 
C 1222 2080 1235 2547 1235 2944 
L 1235 4659 
L 6048 4659 
L 6048 5210 
L 563 5210 
L 563 2944 
C 563 2016 538 749 141 -115 
C 314 -179 621 -352 749 -461 
C 998 96 1126 838 1184 1562 
C 1331 1504 1594 1350 1702 1274 
C 1837 1440 1907 1658 1939 1888 
L 2042 1638 
L 3027 1952 
L 3027 1766 
C 3027 1702 3002 1690 2931 1683 
C 2880 1683 2656 1683 2458 1690 
C 2515 1581 2586 1427 2618 1306 
C 2963 1306 3219 1306 3392 1363 
C 3520 1414 3578 1478 3597 1613 
C 3712 1517 3827 1395 3904 1299 
C 4410 1613 4685 1997 4838 2400 
C 5037 1926 5318 1536 5715 1306 
C 5805 1478 5997 1709 6138 1837 
C 5651 2067 5331 2547 5152 3110 
L 5965 3110 
L 5965 3706 
L 5005 3706 
L 5005 4538 
L 4448 4538 
L 4448 3706 
L 3706 3706 
L 3706 3110 
L 4422 3110 
C 4358 2662 4166 2195 3610 1811 
L 3610 3149 
L 1402 3149 
z
M 5088 4301 
C 5261 4122 5466 3866 5549 3706 
L 5984 3981 
C 5894 4141 5683 4384 5498 4550 
L 5088 4301 
z
M 3283 1293 
L 3283 1030 
L 1549 1030 
L 1549 480 
L 3283 480 
L 3283 141 
L 1120 141 
L 1120 -397 
L 6093 -397 
L 6093 141 
L 4026 141 
L 4026 480 
L 5709 480 
L 5709 1030 
L 4026 1030 
L 4026 1293 
L 3283 1293 
z
M 2035 2470 
C 2246 2413 2515 2330 2701 2259 
L 1965 2054 
C 1978 2182 1978 2310 1978 2426 
L 1978 2765 
L 3027 2765 
L 3027 2349 
L 2829 2291 
L 2957 2534 
C 2784 2605 2451 2694 2208 2746 
L 2035 2470 
z
" transform="scale(0.015625)"/>
     <path id="NotoSansCJKtc-Bold-6210" d="M 3290 5427 
C 3290 5114 3302 4794 3315 4480 
L 691 4480 
L 691 2598 
C 691 1766 653 640 160 -128 
C 333 -218 678 -499 813 -653 
C 1344 134 1478 1389 1498 2330 
L 2336 2330 
C 2323 1523 2298 1210 2227 1120 
C 2182 1062 2118 1043 2035 1043 
C 1926 1043 1715 1050 1485 1069 
C 1594 877 1677 576 1690 352 
C 1990 346 2266 352 2438 378 
C 2624 410 2758 467 2886 627 
C 3034 819 3066 1395 3091 2746 
C 3091 2835 3091 3027 3091 3027 
L 1498 3027 
L 1498 3725 
L 3360 3725 
C 3443 2758 3584 1856 3808 1126 
C 3437 704 2995 352 2496 83 
C 2662 -64 2944 -384 3053 -550 
C 3450 -307 3808 -19 4134 320 
C 4416 -205 4781 -525 5229 -525 
C 5824 -525 6080 -243 6202 954 
C 5997 1030 5722 1210 5549 1382 
C 5517 576 5440 256 5293 256 
C 5082 256 4877 525 4698 986 
C 5165 1619 5536 2362 5805 3200 
L 5030 3386 
C 4877 2867 4672 2387 4416 1958 
C 4301 2477 4211 3078 4154 3725 
L 6144 3725 
L 6144 4480 
L 5478 4480 
L 5792 4806 
C 5555 5024 5088 5312 4736 5498 
L 4269 5037 
C 4531 4883 4858 4666 5088 4480 
L 4109 4480 
C 4096 4794 4090 5107 4096 5427 
L 3290 5427 
z
" transform="scale(0.015625)"/>
     <path id="NotoSansCJKtc-Bold-31" d="M 525 0 
L 3373 0 
L 3373 768 
L 2483 768 
L 2483 4742 
L 1786 4742 
C 1485 4550 1165 4429 685 4346 
L 685 3757 
L 1549 3757 
L 1549 768 
L 525 768 
L 525 0 
z
" transform="scale(0.015625)"/>
     <path id="NotoSansCJKtc-Bold-30" d="M 1888 -90 
C 2854 -90 3494 755 3494 2394 
C 3494 4019 2854 4826 1888 4826 
C 922 4826 282 4026 282 2394 
C 282 755 922 -90 1888 -90 
z
M 1888 646 
C 1478 646 1171 1056 1171 2394 
C 1171 3712 1478 4102 1888 4102 
C 2298 4102 2598 3712 2598 2394 
C 2598 1056 2298 646 1888 646 
z
" transform="scale(0.015625)"/>
     <path id="NotoSansCJKtc-Bold-38" d="M 1888 -90 
C 2842 -90 3482 461 3482 1178 
C 3482 1824 3123 2208 2682 2445 
L 2682 2477 
C 2989 2701 3290 3091 3290 3558 
C 3290 4314 2752 4819 1914 4819 
C 1088 4819 486 4333 486 3565 
C 486 3066 749 2707 1114 2445 
L 1114 2413 
C 672 2182 301 1786 301 1178 
C 301 435 973 -90 1888 -90 
z
M 2182 2707 
C 1690 2906 1318 3123 1318 3565 
C 1318 3949 1574 4160 1894 4160 
C 2291 4160 2522 3885 2522 3501 
C 2522 3219 2413 2944 2182 2707 
z
M 1907 576 
C 1466 576 1114 851 1114 1280 
C 1114 1638 1293 1952 1549 2163 
C 2163 1901 2605 1702 2605 1210 
C 2605 800 2310 576 1907 576 
z
" transform="scale(0.015625)"/>
    </defs>
    <use xlink:href="#NotoSansCJKtc-Bold-9006"/>
    <use xlink:href="#NotoSansCJKtc-Bold-9031" transform="translate(99.999985 0)"/>
    <use xlink:href="#NotoSansCJKtc-Bold-671f" transform="translate(199.999969 0)"/>
    <use xlink:href="#NotoSansCJKtc-Bold-56e0" transform="translate(299.999954 0)"/>
    <use xlink:href="#NotoSansCJKtc-Bold-5b50" transform="translate(399.999939 0)"/>
    <use xlink:href="#NotoSansCJKtc-Bold-628a" transform="translate(499.999924 0)"/>
    <use xlink:href="#NotoSansCJKtc-Bold-20" transform="translate(599.999908 0)"/>
    <use xlink:href="#NotoSansCJKtc-Bold-33" transform="translate(622.699905 0)"/>
    <use xlink:href="#NotoSansCJKtc-Bold-32" transform="translate(681.69989 0)"/>
    <use xlink:href="#NotoSansCJKtc-Bold-32" transform="translate(740.699875 0)"/>
    <use xlink:href="#NotoSansCJKtc-Bold-20" transform="translate(799.69986 0)"/>
    <use xlink:href="#NotoSansCJKtc-Bold-9ede" transform="translate(822.399857 0)"/>
    <use xlink:href="#NotoSansCJKtc-Bold-7684" transform="translate(922.399841 0)"/>
    <use xlink:href="#NotoSansCJKtc-Bold-9694" transform="translate(1022.399826 0)"/>
    <use xlink:href="#NotoSansCJKtc-Bold-591c" transform="translate(1122.399811 0)"/>
    <use xlink:href="#NotoSansCJKtc-Bold-8a0a" transform="translate(1222.399796 0)"/>
    <use xlink:href="#NotoSansCJKtc-Bold-865f" transform="translate(1322.39978 0)"/>
    <use xlink:href="#NotoSansCJKtc-Bold-58d3" transform="translate(1422.399765 0)"/>
    <use xlink:href="#NotoSansCJKtc-Bold-6210" transform="translate(1522.39975 0)"/>
    <use xlink:href="#NotoSansCJKtc-Bold-20" transform="translate(1622.399734 0)"/>
    <use xlink:href="#NotoSansCJKtc-Bold-31" transform="translate(1645.099731 0)"/>
    <use xlink:href="#NotoSansCJKtc-Bold-30" transform="translate(1704.099716 0)"/>
    <use xlink:href="#NotoSansCJKtc-Bold-38" transform="translate(1763.099701 0)"/>
    <use xlink:href="#NotoSansCJKtc-Bold-20" transform="translate(1822.099686 0)"/>
    <use xlink:href="#NotoSansCJKtc-Bold-9ede" transform="translate(1844.799683 0)"/>
   </g>
  </g>
  <g id="text_13">
   <!-- 模型預測 6.7258 與含逆週期因子的 6.7472，對照前次中間價 6.7580 -->
   <g style="fill: #6b7076" transform="translate(46.44 46.414575) scale(0.1 -0.1)">
    <defs>
     <path id="NotoSansCJKtc-Regular-6a21" d="M 3040 2669 
L 5267 2669 
L 5267 2208 
L 3040 2208 
L 3040 2669 
z
M 3040 3469 
L 5267 3469 
L 5267 3021 
L 3040 3021 
L 3040 3469 
z
M 4154 563 
C 4723 250 5478 -205 5850 -486 
L 6150 -134 
C 5760 134 4998 576 4442 870 
L 4154 563 
z
M 2592 3834 
L 2592 1850 
L 3891 1850 
C 3872 1658 3840 1485 3802 1318 
L 2176 1318 
L 2176 909 
L 3661 909 
C 3418 416 2957 77 2016 -128 
C 2106 -224 2227 -403 2272 -518 
C 3392 -243 3910 224 4160 909 
L 6035 909 
L 6035 1318 
L 4282 1318 
C 4314 1485 4346 1664 4365 1850 
L 5728 1850 
L 5728 3834 
L 2592 3834 
z
M 3091 5376 
L 3091 4845 
L 2298 4845 
L 2298 4448 
L 3091 4448 
L 3091 3987 
L 3526 3987 
L 3526 4448 
L 4051 4448 
L 4051 4845 
L 3526 4845 
L 3526 5376 
L 3091 5376 
z
M 4269 4858 
L 4269 4454 
L 4813 4454 
L 4813 3987 
L 5248 3987 
L 5248 4454 
L 6118 4454 
L 6118 4858 
L 5248 4858 
L 5248 5376 
L 4813 5376 
L 4813 4858 
L 4269 4858 
z
M 1190 5376 
L 1190 4141 
L 365 4141 
L 365 3693 
L 1152 3693 
C 966 2842 589 1830 211 1293 
C 301 1178 416 966 467 826 
C 730 1242 992 1901 1190 2586 
L 1190 -506 
L 1632 -506 
L 1632 2784 
C 1798 2451 1978 2061 2061 1850 
L 2362 2189 
C 2253 2387 1805 3174 1632 3437 
L 1632 3693 
L 2355 3693 
L 2355 4141 
L 1632 4141 
L 1632 5376 
L 1190 5376 
z
" transform="scale(0.015625)"/>
     <path id="NotoSansCJKtc-Regular-578b" d="M 4064 5011 
L 4064 2867 
L 4506 2867 
L 4506 5011 
L 4064 5011 
z
M 5261 5338 
L 5261 2477 
C 5261 2394 5235 2368 5133 2362 
C 5037 2355 4717 2355 4352 2368 
C 4422 2240 4486 2054 4512 1926 
C 4966 1926 5280 1933 5472 2010 
C 5664 2080 5715 2202 5715 2470 
L 5715 5338 
L 5261 5338 
z
M 2483 4691 
L 2483 3808 
L 1690 3808 
L 1690 3846 
L 1690 4691 
L 2483 4691 
z
M 429 3808 
L 429 3379 
L 1210 3379 
C 1139 2950 928 2515 378 2176 
C 467 2112 627 1933 691 1843 
C 1344 2246 1587 2822 1658 3379 
L 2483 3379 
L 2483 2003 
L 2938 2003 
L 2938 3379 
L 3667 3379 
L 3667 3808 
L 2938 3808 
L 2938 4691 
L 3533 4691 
L 3533 5114 
L 640 5114 
L 640 4691 
L 1248 4691 
L 1248 3853 
L 1248 3808 
L 429 3808 
z
M 2989 2125 
L 2989 1414 
L 966 1414 
L 966 973 
L 2989 973 
L 2989 160 
L 301 160 
L 301 -288 
L 6093 -288 
L 6093 160 
L 3482 160 
L 3482 973 
L 5427 973 
L 5427 1414 
L 3482 1414 
L 3482 2125 
L 2989 2125 
z
" transform="scale(0.015625)"/>
     <path id="NotoSansCJKtc-Regular-9810" d="M 3552 2701 
L 5427 2701 
L 5427 2074 
L 3552 2074 
L 3552 2701 
z
M 3552 1715 
L 5427 1715 
L 5427 1082 
L 3552 1082 
L 3552 1715 
z
M 3552 3674 
L 5427 3674 
L 5427 3059 
L 3552 3059 
L 3552 3674 
z
M 3744 595 
C 3469 307 2886 -26 2374 -211 
C 2477 -288 2624 -442 2701 -531 
C 3213 -339 3814 6 4160 346 
L 3744 595 
z
M 4736 314 
C 5126 70 5619 -294 5856 -531 
L 6240 -256 
C 5984 -13 5485 333 5094 563 
L 4736 314 
z
M 563 3949 
C 1011 3706 1542 3341 1875 3034 
L 243 3034 
L 243 2598 
L 1299 2598 
L 1299 64 
C 1299 -19 1274 -38 1178 -45 
C 1088 -45 794 -45 461 -38 
C 531 -173 595 -365 614 -499 
C 1056 -499 1344 -493 1523 -416 
C 1709 -339 1760 -205 1760 51 
L 1760 2598 
L 2438 2598 
C 2330 2253 2202 1901 2086 1664 
L 2451 1568 
C 2624 1914 2822 2477 2989 2970 
L 2688 3053 
L 2618 3034 
L 2157 3034 
L 2310 3232 
C 2182 3360 2010 3507 1805 3654 
C 2163 3994 2547 4454 2810 4883 
L 2509 5094 
L 2419 5069 
L 378 5069 
L 378 4640 
L 2106 4640 
C 1920 4378 1690 4096 1466 3885 
C 1248 4026 1024 4154 819 4262 
L 563 3949 
z
M 3104 4051 
L 3104 710 
L 5888 710 
L 5888 4051 
L 4550 4051 
L 4736 4659 
L 6106 4659 
L 6106 5075 
L 2854 5075 
L 2854 4659 
L 4198 4659 
C 4166 4461 4122 4243 4077 4051 
L 3104 4051 
z
" transform="scale(0.015625)"/>
     <path id="NotoSansCJKtc-Regular-6e2c" d="M 2413 3475 
L 3437 3475 
L 3437 2682 
L 2413 2682 
L 2413 3475 
z
M 2413 2278 
L 3437 2278 
L 3437 1478 
L 2413 1478 
L 2413 2278 
z
M 2413 4666 
L 3437 4666 
L 3437 3878 
L 2413 3878 
L 2413 4666 
z
M 2003 5088 
L 2003 1056 
L 3866 1056 
L 3866 5088 
L 2003 5088 
z
M 3136 742 
C 3392 422 3712 -13 3846 -288 
L 4230 -45 
C 4083 218 3763 640 3494 941 
L 3136 742 
z
M 2266 922 
C 2074 480 1741 32 1408 -262 
C 1510 -326 1702 -461 1786 -531 
C 2131 -205 2490 307 2714 800 
L 2266 922 
z
M 5466 5376 
L 5466 90 
C 5466 -19 5421 -51 5318 -58 
C 5216 -58 4877 -64 4493 -51 
C 4557 -186 4621 -390 4640 -512 
C 5165 -512 5472 -499 5651 -416 
C 5830 -346 5907 -211 5907 90 
L 5907 5376 
L 5466 5376 
z
M 4352 4717 
L 4352 1050 
L 4774 1050 
L 4774 4717 
L 4352 4717 
z
M 518 4966 
C 883 4787 1318 4486 1530 4275 
L 1818 4659 
C 1594 4870 1158 5139 794 5306 
L 518 4966 
z
M 243 3238 
C 621 3078 1069 2810 1293 2605 
L 1568 2995 
C 1344 3200 890 3443 506 3590 
L 243 3238 
z
M 371 -173 
L 806 -429 
C 1082 160 1408 947 1645 1619 
L 1261 1869 
C 998 1152 634 320 371 -173 
z
" transform="scale(0.015625)"/>
     <path id="NotoSansCJKtc-Regular-20" transform="scale(0.015625)"/>
     <path id="NotoSansCJKtc-Regular-36" d="M 1926 -83 
C 2656 -83 3277 531 3277 1440 
C 3277 2426 2765 2912 1971 2912 
C 1606 2912 1197 2701 909 2349 
C 934 3802 1466 4294 2118 4294 
C 2400 4294 2682 4154 2861 3936 
L 3194 4294 
C 2931 4576 2579 4774 2093 4774 
C 1184 4774 358 4077 358 2240 
C 358 691 1030 -83 1926 -83 
z
M 922 1882 
C 1229 2317 1587 2477 1875 2477 
C 2445 2477 2720 2074 2720 1440 
C 2720 800 2374 378 1926 378 
C 1338 378 986 909 922 1882 
z
" transform="scale(0.015625)"/>
     <path id="NotoSansCJKtc-Regular-2e" d="M 890 -83 
C 1120 -83 1312 96 1312 358 
C 1312 627 1120 806 890 806 
C 653 806 467 627 467 358 
C 467 96 653 -83 890 -83 
z
" transform="scale(0.015625)"/>
     <path id="NotoSansCJKtc-Regular-37" d="M 1267 0 
L 1875 0 
C 1952 1837 2150 2931 3251 4339 
L 3251 4691 
L 314 4691 
L 314 4192 
L 2592 4192 
C 1670 2912 1350 1779 1267 0 
z
" transform="scale(0.015625)"/>
     <path id="NotoSansCJKtc-Regular-38" d="M 1792 -83 
C 2669 -83 3258 448 3258 1126 
C 3258 1773 2880 2125 2470 2362 
L 2470 2394 
C 2746 2611 3091 3034 3091 3526 
C 3091 4250 2605 4762 1805 4762 
C 1075 4762 518 4282 518 3571 
C 518 3078 813 2726 1152 2490 
L 1152 2464 
C 723 2234 294 1792 294 1165 
C 294 442 922 -83 1792 -83 
z
M 2112 2547 
C 1555 2765 1050 3014 1050 3571 
C 1050 4026 1363 4326 1798 4326 
C 2298 4326 2592 3962 2592 3494 
C 2592 3149 2426 2829 2112 2547 
z
M 1798 352 
C 1235 352 813 717 813 1216 
C 813 1664 1082 2035 1459 2278 
C 2125 2010 2701 1779 2701 1146 
C 2701 678 2342 352 1798 352 
z
" transform="scale(0.015625)"/>
     <path id="NotoSansCJKtc-Regular-8207" d="M 3821 589 
C 4486 256 5203 -173 5638 -480 
L 5952 -122 
C 5504 192 4762 602 4083 915 
L 3821 589 
z
M 2176 896 
C 1773 544 992 115 384 -141 
C 474 -237 602 -403 666 -499 
C 1286 -224 2067 205 2586 602 
L 2176 896 
z
M 2707 2976 
C 2650 2579 2554 2195 2355 1914 
C 2451 1869 2618 1766 2688 1709 
C 2880 2010 3021 2464 3085 2912 
L 2707 2976 
z
M 826 4851 
L 947 1446 
L 301 1446 
L 301 998 
L 6112 998 
L 6112 1446 
L 5491 1446 
C 5549 2400 5581 3923 5587 5056 
L 4218 5056 
L 4218 4634 
L 5146 4634 
L 5133 3821 
L 4275 3821 
L 4275 3411 
L 5120 3411 
L 5094 2618 
L 4243 2618 
L 4243 2208 
L 5075 2208 
L 5037 1446 
L 1382 1446 
L 1357 2240 
L 2182 2240 
L 2182 2650 
L 1338 2650 
L 1312 3430 
L 2163 3430 
L 2163 3840 
L 1299 3840 
L 1274 4602 
C 1600 4698 1952 4819 2253 4947 
L 2016 5344 
C 1709 5184 1222 4986 826 4851 
z
M 2502 5331 
L 2502 3251 
L 3526 3251 
L 3526 1939 
C 3526 1882 3514 1856 3450 1856 
C 3379 1850 3187 1850 2963 1862 
C 3014 1766 3059 1632 3085 1530 
C 3398 1530 3622 1530 3763 1594 
C 3904 1651 3942 1741 3942 1939 
L 3942 3635 
L 3770 3635 
L 2925 3642 
L 2925 4326 
L 3981 4326 
L 3981 4742 
L 2925 4742 
L 2925 5331 
L 2502 5331 
z
" transform="scale(0.015625)"/>
     <path id="NotoSansCJKtc-Regular-7684" d="M 3533 2707 
C 3885 2240 4320 1600 4512 1210 
L 4922 1466 
C 4710 1843 4269 2464 3904 2918 
L 3533 2707 
z
M 1536 5389 
C 1485 5082 1376 4659 1274 4346 
L 557 4346 
L 557 -346 
L 998 -346 
L 998 160 
L 2784 160 
L 2784 4346 
L 1715 4346 
C 1824 4621 1946 4979 2054 5299 
L 1536 5389 
z
M 998 3917 
L 2342 3917 
L 2342 2566 
L 998 2566 
L 998 3917 
z
M 998 595 
L 998 2144 
L 2342 2144 
L 2342 595 
L 998 595 
z
M 3827 5402 
C 3622 4518 3277 3635 2835 3066 
C 2950 3002 3149 2867 3238 2790 
C 3456 3098 3661 3488 3840 3923 
L 5478 3923 
C 5402 1357 5299 371 5094 154 
C 5018 64 4947 45 4819 45 
C 4672 45 4288 51 3866 83 
C 3955 -38 4013 -243 4026 -378 
C 4384 -397 4762 -410 4979 -390 
C 5210 -365 5350 -314 5498 -122 
C 5754 192 5843 1184 5939 4122 
C 5946 4186 5946 4365 5946 4365 
L 4013 4365 
C 4115 4666 4211 4986 4288 5299 
L 3827 5402 
z
" transform="scale(0.015625)"/>
     <path id="NotoSansCJKtc-Regular-34" d="M 2176 0 
L 2726 0 
L 2726 1293 
L 3354 1293 
L 3354 1760 
L 2726 1760 
L 2726 4691 
L 2080 4691 
L 128 1677 
L 128 1293 
L 2176 1293 
L 2176 0 
z
M 2176 1760 
L 736 1760 
L 1805 3360 
C 1939 3590 2067 3827 2182 4051 
L 2208 4051 
C 2195 3814 2176 3430 2176 3200 
L 2176 1760 
z
" transform="scale(0.015625)"/>
     <path id="NotoSansCJKtc-Regular-5c0d" d="M 3667 2554 
C 3930 2086 4166 1472 4230 1082 
L 4666 1242 
C 4602 1632 4346 2234 4077 2694 
L 3667 2554 
z
M 851 3386 
C 1043 3155 1261 2842 1338 2630 
L 1696 2835 
C 1613 3046 1395 3347 1197 3565 
L 851 3386 
z
M 3142 5165 
C 3002 4922 2752 4563 2554 4333 
L 2554 5370 
L 2157 5370 
L 2157 3994 
L 1670 3994 
L 1670 5370 
L 1274 5370 
L 1274 4371 
C 1158 4602 915 4928 685 5171 
L 378 4973 
C 614 4717 864 4352 973 4115 
L 1274 4320 
L 1274 3994 
L 294 3994 
L 294 3584 
L 3494 3584 
L 3494 3206 
L 5018 3206 
L 5018 83 
C 5018 -26 4979 -58 4864 -58 
C 4768 -64 4422 -70 4032 -58 
C 4102 -186 4179 -390 4205 -512 
C 4730 -512 5030 -499 5222 -422 
C 5408 -346 5485 -205 5485 90 
L 5485 3206 
L 6106 3206 
L 6106 3654 
L 5485 3654 
L 5485 5357 
L 5018 5357 
L 5018 3654 
L 3526 3654 
L 3526 3994 
L 2554 3994 
L 2554 4262 
L 2816 4102 
C 3034 4320 3296 4653 3526 4954 
L 3142 5165 
z
M 2605 3546 
C 2502 3277 2317 2886 2163 2618 
L 506 2618 
L 506 2208 
L 1690 2208 
L 1690 1555 
L 672 1555 
L 672 1152 
L 1690 1152 
L 1690 390 
L 294 224 
L 358 -230 
C 1184 -122 2387 45 3514 205 
L 3501 627 
L 2138 448 
L 2138 1152 
L 3194 1152 
L 3194 1555 
L 2138 1555 
L 2138 2208 
L 3328 2208 
L 3328 2618 
L 2611 2618 
C 2746 2848 2893 3130 3027 3392 
L 2605 3546 
z
" transform="scale(0.015625)"/>
     <path id="NotoSansCJKtc-Regular-7167" d="M 3379 2605 
L 5254 2605 
L 5254 1632 
L 3379 1632 
L 3379 2605 
z
M 2931 3008 
L 2931 1229 
L 5728 1229 
L 5728 3008 
L 2931 3008 
z
M 2176 800 
C 2253 378 2304 -160 2310 -486 
L 2778 -416 
C 2771 -96 2701 435 2618 845 
L 2176 800 
z
M 3546 819 
C 3712 403 3872 -147 3936 -474 
L 4410 -371 
C 4346 -32 4166 499 3994 902 
L 3546 819 
z
M 4851 851 
C 5158 429 5510 -160 5664 -525 
L 6118 -320 
C 5958 45 5594 614 5286 1030 
L 4851 851 
z
M 1114 986 
C 902 512 563 -19 275 -339 
L 736 -544 
C 1030 -179 1350 378 1574 851 
L 1114 986 
z
M 1050 4672 
L 2010 4672 
L 2010 3546 
L 1050 3546 
L 1050 4672 
z
M 1050 1869 
L 1050 3123 
L 2010 3123 
L 2010 1869 
L 1050 1869 
z
M 595 5101 
L 595 1107 
L 1050 1107 
L 1050 1434 
L 2458 1434 
L 2458 5101 
L 595 5101 
z
M 2739 5114 
L 2739 4685 
L 3808 4685 
C 3680 4090 3379 3680 2534 3450 
C 2630 3373 2752 3200 2803 3091 
C 3776 3392 4141 3910 4282 4685 
L 5427 4685 
C 5382 4077 5338 3827 5254 3744 
C 5210 3699 5152 3693 5062 3693 
C 4960 3693 4698 3693 4416 3718 
C 4486 3610 4531 3443 4538 3322 
C 4832 3302 5120 3309 5267 3315 
C 5434 3328 5542 3366 5645 3469 
C 5779 3616 5843 3994 5901 4928 
C 5907 4992 5914 5114 5914 5114 
L 2739 5114 
z
" transform="scale(0.015625)"/>
    </defs>
    <use xlink:href="#NotoSansCJKtc-Regular-6a21"/>
    <use xlink:href="#NotoSansCJKtc-Regular-578b" transform="translate(99.999985 0)"/>
    <use xlink:href="#NotoSansCJKtc-Regular-9810" transform="translate(199.999969 0)"/>
    <use xlink:href="#NotoSansCJKtc-Regular-6e2c" transform="translate(299.999954 0)"/>
    <use xlink:href="#NotoSansCJKtc-Regular-20" transform="translate(399.999939 0)"/>
    <use xlink:href="#NotoSansCJKtc-Regular-36" transform="translate(422.399933 0)"/>
    <use xlink:href="#NotoSansCJKtc-Regular-2e" transform="translate(477.899918 0)"/>
    <use xlink:href="#NotoSansCJKtc-Regular-37" transform="translate(505.699905 0)"/>
    <use xlink:href="#NotoSansCJKtc-Regular-32" transform="translate(561.19989 0)"/>
    <use xlink:href="#NotoSansCJKtc-Regular-35" transform="translate(616.699875 0)"/>
    <use xlink:href="#NotoSansCJKtc-Regular-38" transform="translate(672.19986 0)"/>
    <use xlink:href="#NotoSansCJKtc-Regular-20" transform="translate(727.699844 0)"/>
    <use xlink:href="#NotoSansCJKtc-Regular-8207" transform="translate(750.099838 0)"/>
    <use xlink:href="#NotoSansCJKtc-Regular-542b" transform="translate(850.099823 0)"/>
    <use xlink:href="#NotoSansCJKtc-Regular-9006" transform="translate(950.099808 0)"/>
    <use xlink:href="#NotoSansCJKtc-Regular-9031" transform="translate(1050.099792 0)"/>
    <use xlink:href="#NotoSansCJKtc-Regular-671f" transform="translate(1150.099777 0)"/>
    <use xlink:href="#NotoSansCJKtc-Regular-56e0" transform="translate(1250.099762 0)"/>
    <use xlink:href="#NotoSansCJKtc-Regular-5b50" transform="translate(1350.099747 0)"/>
    <use xlink:href="#NotoSansCJKtc-Regular-7684" transform="translate(1450.099731 0)"/>
    <use xlink:href="#NotoSansCJKtc-Regular-20" transform="translate(1550.099716 0)"/>
    <use xlink:href="#NotoSansCJKtc-Regular-36" transform="translate(1572.49971 0)"/>
    <use xlink:href="#NotoSansCJKtc-Regular-2e" transform="translate(1627.999695 0)"/>
    <use xlink:href="#NotoSansCJKtc-Regular-37" transform="translate(1655.799683 0)"/>
    <use xlink:href="#NotoSansCJKtc-Regular-34" transform="translate(1711.299667 0)"/>
    <use xlink:href="#NotoSansCJKtc-Regular-37" transform="translate(1766.799652 0)"/>
    <use xlink:href="#NotoSansCJKtc-Regular-32" transform="translate(1822.299637 0)"/>
    <use xlink:href="#NotoSansCJKtc-Regular-ff0c" transform="translate(1877.799622 0)"/>
    <use xlink:href="#NotoSansCJKtc-Regular-5c0d" transform="translate(1977.799606 0)"/>
    <use xlink:href="#NotoSansCJKtc-Regular-7167" transform="translate(2077.799591 0)"/>
    <use xlink:href="#NotoSansCJKtc-Regular-524d" transform="translate(2177.799576 0)"/>
    <use xlink:href="#NotoSansCJKtc-Regular-6b21" transform="translate(2277.799561 0)"/>
    <use xlink:href="#NotoSansCJKtc-Regular-4e2d" transform="translate(2377.799545 0)"/>
    <use xlink:href="#NotoSansCJKtc-Regular-9593" transform="translate(2477.79953 0)"/>
    <use xlink:href="#NotoSansCJKtc-Regular-50f9" transform="translate(2577.799515 0)"/>
    <use xlink:href="#NotoSansCJKtc-Regular-20" transform="translate(2677.7995 0)"/>
    <use xlink:href="#NotoSansCJKtc-Regular-36" transform="translate(2700.199493 0)"/>
    <use xlink:href="#NotoSansCJKtc-Regular-2e" transform="translate(2755.699478 0)"/>
    <use xlink:href="#NotoSansCJKtc-Regular-37" transform="translate(2783.499466 0)"/>
    <use xlink:href="#NotoSansCJKtc-Regular-35" transform="translate(2838.999451 0)"/>
    <use xlink:href="#NotoSansCJKtc-Regular-38" transform="translate(2894.499435 0)"/>
    <use xlink:href="#NotoSansCJKtc-Regular-30" transform="translate(2949.99942 0)"/>
   </g>
  </g>
  <g id="text_14">
   <!-- Nomura《USD/CNY fix model: Projection: 6.7258》，2026-09-18，第 1 頁 -->
   <g style="fill: #9ba0a6" transform="translate(46.44 338.51575) scale(0.08 -0.08)">
    <defs>
     <path id="NotoSansCJKtc-Regular-4e" d="M 646 0 
L 1203 0 
L 1203 2464 
C 1203 2957 1158 3456 1133 3930 
L 1158 3930 
L 1664 2963 
L 3373 0 
L 3981 0 
L 3981 4691 
L 3418 4691 
L 3418 2253 
C 3418 1766 3462 1235 3501 768 
L 3469 768 
L 2963 1734 
L 1248 4691 
L 646 4691 
L 646 0 
z
" transform="scale(0.015625)"/>
     <path id="NotoSansCJKtc-Regular-6f" d="M 1939 -83 
C 2790 -83 3546 582 3546 1734 
C 3546 2893 2790 3565 1939 3565 
C 1088 3565 333 2893 333 1734 
C 333 582 1088 -83 1939 -83 
z
M 1939 403 
C 1338 403 934 934 934 1734 
C 934 2534 1338 3072 1939 3072 
C 2541 3072 2950 2534 2950 1734 
C 2950 934 2541 403 1939 403 
z
" transform="scale(0.015625)"/>
     <path id="NotoSansCJKtc-Regular-6d" d="M 589 0 
L 1178 0 
L 1178 2522 
C 1491 2880 1786 3053 2048 3053 
C 2490 3053 2694 2778 2694 2125 
L 2694 0 
L 3277 0 
L 3277 2522 
C 3603 2880 3885 3053 4154 3053 
C 4595 3053 4800 2778 4800 2125 
L 4800 0 
L 5382 0 
L 5382 2202 
C 5382 3085 5043 3565 4333 3565 
C 3904 3565 3546 3290 3181 2899 
C 3040 3309 2758 3565 2221 3565 
C 1805 3565 1446 3302 1139 2970 
L 1126 2970 
L 1069 3475 
L 589 3475 
L 589 0 
z
" transform="scale(0.015625)"/>
     <path id="NotoSansCJKtc-Regular-75" d="M 1606 -83 
C 2080 -83 2426 166 2752 544 
L 2771 544 
L 2816 0 
L 3302 0 
L 3302 3475 
L 2720 3475 
L 2720 1011 
C 2387 602 2138 422 1779 422 
C 1318 422 1126 698 1126 1344 
L 1126 3475 
L 538 3475 
L 538 1274 
C 538 384 870 -83 1606 -83 
z
" transform="scale(0.015625)"/>
     <path id="NotoSansCJKtc-Regular-72" d="M 589 0 
L 1178 0 
L 1178 2234 
C 1408 2822 1760 3040 2048 3040 
C 2195 3040 2272 3021 2387 2982 
L 2496 3488 
C 2387 3546 2278 3565 2125 3565 
C 1741 3565 1382 3283 1139 2842 
L 1126 2842 
L 1069 3475 
L 589 3475 
L 589 0 
z
" transform="scale(0.015625)"/>
     <path id="NotoSansCJKtc-Regular-61" d="M 1389 -83 
C 1818 -83 2208 141 2541 416 
L 2560 416 
L 2611 0 
L 3091 0 
L 3091 2138 
C 3091 3002 2739 3565 1888 3565 
C 1325 3565 838 3315 525 3110 
L 749 2707 
C 1024 2893 1389 3078 1792 3078 
C 2362 3078 2509 2650 2509 2202 
C 1030 2035 378 1658 378 902 
C 378 275 806 -83 1389 -83 
z
M 1555 390 
C 1210 390 941 544 941 941 
C 941 1389 1338 1677 2509 1811 
L 2509 845 
C 2170 544 1888 390 1555 390 
z
" transform="scale(0.015625)"/>
     <path id="NotoSansCJKtc-Regular-300a" d="M 5158 -435 
L 3776 2432 
L 5158 5299 
L 4806 5414 
L 3386 2432 
L 4806 -550 
L 5158 -435 
z
M 6163 -435 
L 4787 2432 
L 6163 5299 
L 5818 5414 
L 4397 2432 
L 5818 -550 
L 6163 -435 
z
" transform="scale(0.015625)"/>
     <path id="NotoSansCJKtc-Regular-55" d="M 2310 -83 
C 3264 -83 3994 429 3994 1933 
L 3994 4691 
L 3424 4691 
L 3424 1920 
C 3424 794 2931 435 2310 435 
C 1696 435 1216 794 1216 1920 
L 1216 4691 
L 627 4691 
L 627 1933 
C 627 429 1350 -83 2310 -83 
z
" transform="scale(0.015625)"/>
     <path id="NotoSansCJKtc-Regular-53" d="M 1946 -83 
C 2925 -83 3539 506 3539 1248 
C 3539 1946 3117 2266 2573 2502 
L 1907 2790 
C 1542 2944 1126 3117 1126 3578 
C 1126 3994 1472 4256 2003 4256 
C 2438 4256 2784 4090 3072 3821 
L 3379 4198 
C 3053 4538 2560 4774 2003 4774 
C 1152 4774 525 4256 525 3533 
C 525 2848 1043 2515 1478 2330 
L 2150 2035 
C 2598 1837 2938 1683 2938 1197 
C 2938 742 2573 435 1952 435 
C 1466 435 992 666 659 1018 
L 307 608 
C 710 186 1280 -83 1946 -83 
z
" transform="scale(0.015625)"/>
     <path id="NotoSansCJKtc-Regular-44" d="M 646 0 
L 1843 0 
C 3258 0 4026 877 4026 2362 
C 4026 3859 3258 4691 1818 4691 
L 646 4691 
L 646 0 
z
M 1235 486 
L 1235 4211 
L 1766 4211 
C 2874 4211 3418 3552 3418 2362 
C 3418 1178 2874 486 1766 486 
L 1235 486 
z
" transform="scale(0.015625)"/>
     <path id="NotoSansCJKtc-Regular-2f" d="M 70 -1146 
L 499 -1146 
L 2413 5082 
L 1990 5082 
L 70 -1146 
z
" transform="scale(0.015625)"/>
     <path id="NotoSansCJKtc-Regular-43" d="M 2413 -83 
C 3021 -83 3482 160 3853 589 
L 3526 966 
C 3226 634 2886 435 2438 435 
C 1542 435 979 1178 979 2362 
C 979 3533 1574 4256 2458 4256 
C 2861 4256 3168 4077 3418 3814 
L 3738 4198 
C 3469 4499 3021 4774 2451 4774 
C 1261 4774 371 3859 371 2342 
C 371 819 1242 -83 2413 -83 
z
" transform="scale(0.015625)"/>
     <path id="NotoSansCJKtc-Regular-59" d="M 1402 0 
L 1990 0 
L 1990 1818 
L 3405 4691 
L 2790 4691 
L 2189 3366 
C 2042 3021 1882 2688 1715 2336 
L 1690 2336 
C 1523 2688 1382 3021 1229 3366 
L 621 4691 
L -6 4691 
L 1402 1818 
L 1402 0 
z
" transform="scale(0.015625)"/>
     <path id="NotoSansCJKtc-Regular-66" d="M 211 3002 
L 685 3002 
L 685 0 
L 1267 0 
L 1267 3002 
L 2003 3002 
L 2003 3475 
L 1267 3475 
L 1267 4026 
C 1267 4474 1427 4710 1760 4710 
C 1882 4710 2022 4678 2150 4614 
L 2278 5069 
C 2118 5133 1914 5178 1696 5178 
C 1005 5178 685 4736 685 4032 
L 685 3475 
L 211 3443 
L 211 3002 
z
" transform="scale(0.015625)"/>
     <path id="NotoSansCJKtc-Regular-78" d="M 96 0 
L 710 0 
L 1178 813 
C 1299 1024 1408 1235 1530 1434 
L 1562 1434 
C 1696 1235 1824 1024 1939 813 
L 2451 0 
L 3091 0 
L 1946 1754 
L 3002 3475 
L 2394 3475 
L 1965 2714 
C 1856 2515 1760 2330 1658 2131 
L 1626 2131 
C 1510 2330 1389 2515 1286 2714 
L 819 3475 
L 186 3475 
L 1242 1811 
L 96 0 
z
" transform="scale(0.015625)"/>
     <path id="NotoSansCJKtc-Regular-64" d="M 1773 -83 
C 2189 -83 2560 141 2829 410 
L 2848 410 
L 2899 0 
L 3379 0 
L 3379 5094 
L 2790 5094 
L 2790 3757 
L 2822 3162 
C 2515 3411 2253 3565 1843 3565 
C 1050 3565 339 2861 339 1734 
C 339 576 902 -83 1773 -83 
z
M 1901 410 
C 1293 410 941 902 941 1741 
C 941 2534 1389 3072 1946 3072 
C 2234 3072 2502 2970 2790 2707 
L 2790 883 
C 2502 563 2221 410 1901 410 
z
" transform="scale(0.015625)"/>
     <path id="NotoSansCJKtc-Regular-65" d="M 1997 -83 
C 2464 -83 2835 70 3136 269 
L 2931 659 
C 2669 486 2400 384 2061 384 
C 1402 384 947 858 909 1600 
L 3251 1600 
C 3264 1690 3277 1805 3277 1933 
C 3277 2925 2778 3565 1888 3565 
C 1094 3565 333 2867 333 1734 
C 333 589 1069 -83 1997 -83 
z
M 902 2016 
C 973 2707 1408 3098 1901 3098 
C 2445 3098 2765 2720 2765 2016 
L 902 2016 
z
" transform="scale(0.015625)"/>
     <path id="NotoSansCJKtc-Regular-6c" d="M 1203 -83 
C 1363 -83 1459 -58 1542 -32 
L 1459 416 
C 1395 403 1370 403 1338 403 
C 1248 403 1178 474 1178 653 
L 1178 5094 
L 589 5094 
L 589 691 
C 589 198 768 -83 1203 -83 
z
" transform="scale(0.015625)"/>
     <path id="NotoSansCJKtc-Regular-3a" d="M 890 2496 
C 1120 2496 1312 2675 1312 2944 
C 1312 3206 1120 3392 890 3392 
C 653 3392 467 3206 467 2944 
C 467 2675 653 2496 890 2496 
z
M 890 -83 
C 1120 -83 1312 96 1312 358 
C 1312 627 1120 806 890 806 
C 653 806 467 627 467 358 
C 467 96 653 -83 890 -83 
z
" transform="scale(0.015625)"/>
     <path id="NotoSansCJKtc-Regular-50" d="M 646 0 
L 1235 0 
L 1235 1869 
L 2010 1869 
C 3040 1869 3738 2323 3738 3315 
C 3738 4339 3034 4691 1984 4691 
L 646 4691 
L 646 0 
z
M 1235 2349 
L 1235 4211 
L 1907 4211 
C 2733 4211 3149 4000 3149 3315 
C 3149 2643 2758 2349 1933 2349 
L 1235 2349 
z
" transform="scale(0.015625)"/>
     <path id="NotoSansCJKtc-Regular-6a" d="M 224 -1549 
C 915 -1549 1178 -1107 1178 -397 
L 1178 3475 
L 595 3475 
L 595 -397 
C 595 -819 512 -1082 166 -1082 
C 45 -1082 -77 -1050 -166 -1018 
L -282 -1459 
C -160 -1510 19 -1549 224 -1549 
z
M 883 4192 
C 1107 4192 1274 4346 1274 4582 
C 1274 4806 1107 4960 883 4960 
C 653 4960 493 4806 493 4582 
C 493 4346 653 4192 883 4192 
z
" transform="scale(0.015625)"/>
     <path id="NotoSansCJKtc-Regular-63" d="M 1958 -83 
C 2374 -83 2771 83 3085 352 
L 2829 749 
C 2611 557 2330 403 2010 403 
C 1370 403 934 934 934 1734 
C 934 2534 1395 3072 2029 3072 
C 2298 3072 2522 2950 2720 2771 
L 3014 3155 
C 2771 3373 2458 3565 2003 3565 
C 1107 3565 333 2893 333 1734 
C 333 582 1037 -83 1958 -83 
z
" transform="scale(0.015625)"/>
     <path id="NotoSansCJKtc-Regular-74" d="M 1677 -83 
C 1894 -83 2125 -19 2323 45 
L 2208 486 
C 2093 435 1939 390 1811 390 
C 1408 390 1274 634 1274 1056 
L 1274 3002 
L 2221 3002 
L 2221 3475 
L 1274 3475 
L 1274 4454 
L 787 4454 
L 723 3475 
L 173 3443 
L 173 3002 
L 691 3002 
L 691 1075 
C 691 378 941 -83 1677 -83 
z
" transform="scale(0.015625)"/>
     <path id="NotoSansCJKtc-Regular-6e" d="M 589 0 
L 1178 0 
L 1178 2522 
C 1523 2874 1766 3053 2125 3053 
C 2586 3053 2784 2778 2784 2125 
L 2784 0 
L 3366 0 
L 3366 2202 
C 3366 3085 3034 3565 2304 3565 
C 1830 3565 1466 3302 1139 2970 
L 1126 2970 
L 1069 3475 
L 589 3475 
L 589 0 
z
" transform="scale(0.015625)"/>
     <path id="NotoSansCJKtc-Regular-300b" d="M 1242 -435 
L 1587 -550 
L 3008 2432 
L 1587 5414 
L 1242 5299 
L 2618 2432 
L 1242 -435 
z
M 230 -435 
L 576 -550 
L 1997 2432 
L 576 5414 
L 230 5299 
L 1606 2432 
L 230 -435 
z
" transform="scale(0.015625)"/>
     <path id="NotoSansCJKtc-Regular-2d" d="M 294 1568 
L 1933 1568 
L 1933 2016 
L 294 2016 
L 294 1568 
z
" transform="scale(0.015625)"/>
     <path id="NotoSansCJKtc-Regular-39" d="M 1504 -83 
C 2381 -83 3206 646 3206 2547 
C 3206 4038 2528 4774 1626 4774 
C 896 4774 282 4166 282 3251 
C 282 2285 794 1779 1574 1779 
C 1965 1779 2368 2003 2656 2349 
C 2611 896 2086 403 1485 403 
C 1178 403 896 538 691 762 
L 371 397 
C 634 122 992 -83 1504 -83 
z
M 2650 2842 
C 2336 2394 1984 2214 1670 2214 
C 1114 2214 832 2624 832 3251 
C 832 3898 1178 4320 1632 4320 
C 2227 4320 2586 3808 2650 2842 
z
" transform="scale(0.015625)"/>
     <path id="NotoSansCJKtc-Regular-7b2c" d="M 1075 2566 
C 1024 2106 928 1536 838 1152 
L 2547 1152 
C 2016 595 1203 109 448 -141 
C 557 -230 691 -403 762 -518 
C 1523 -218 2362 326 2925 966 
L 2925 -512 
L 3398 -512 
L 3398 1152 
L 5254 1152 
C 5190 570 5120 320 5030 230 
C 4979 186 4915 179 4800 179 
C 4685 173 4384 179 4070 211 
C 4141 90 4198 -96 4205 -230 
C 4538 -250 4851 -250 5011 -237 
C 5197 -224 5312 -186 5421 -77 
C 5587 83 5670 474 5760 1370 
C 5766 1434 5773 1562 5773 1562 
L 3398 1562 
L 3398 2157 
L 5555 2157 
L 5555 3571 
L 838 3571 
L 838 3162 
L 2925 3162 
L 2925 2566 
L 1075 2566 
z
M 1478 2157 
L 2925 2157 
L 2925 1562 
L 1389 1562 
L 1478 2157 
z
M 3398 3162 
L 5088 3162 
L 5088 2566 
L 3398 2566 
L 3398 3162 
z
M 1587 4339 
C 1805 4141 2080 3859 2208 3680 
L 2528 3949 
C 2400 4109 2157 4346 1946 4531 
L 3162 4531 
L 3162 4915 
L 1504 4915 
C 1568 5043 1632 5178 1683 5306 
L 1254 5427 
C 1043 4890 685 4371 288 4019 
C 390 3942 557 3776 634 3693 
C 858 3917 1088 4211 1286 4531 
L 1824 4531 
L 1587 4339 
z
M 4384 4301 
C 4614 4115 4902 3846 5043 3667 
L 5363 3955 
C 5222 4115 4954 4352 4730 4531 
L 6118 4531 
L 6118 4915 
L 4160 4915 
C 4224 5043 4282 5178 4333 5312 
L 3891 5421 
C 3731 4960 3437 4518 3085 4224 
C 3194 4160 3373 4013 3450 3936 
C 3622 4096 3789 4301 3936 4531 
L 4666 4531 
L 4384 4301 
z
" transform="scale(0.015625)"/>
     <path id="NotoSansCJKtc-Regular-9801" d="M 1632 2682 
L 4864 2682 
L 4864 2099 
L 1632 2099 
L 1632 2682 
z
M 1632 1728 
L 4864 1728 
L 4864 1133 
L 1632 1133 
L 1632 1728 
z
M 1632 3635 
L 4864 3635 
L 4864 3053 
L 1632 3053 
L 1632 3635 
z
M 3674 326 
C 4422 70 5184 -269 5638 -518 
L 6093 -192 
C 5594 64 4768 397 4019 640 
L 3674 326 
z
M 2298 672 
C 1856 378 986 45 294 -141 
C 403 -237 550 -410 627 -512 
C 1312 -314 2182 26 2739 365 
L 2298 672 
z
M 518 5043 
L 518 4602 
L 2918 4602 
C 2880 4410 2835 4198 2784 4019 
L 1133 4019 
L 1133 749 
L 5376 749 
L 5376 4019 
L 3283 4019 
L 3469 4602 
L 5862 4602 
L 5862 5043 
L 518 5043 
z
" transform="scale(0.015625)"/>
    </defs>
    <use xlink:href="#NotoSansCJKtc-Regular-4e"/>
    <use xlink:href="#NotoSansCJKtc-Regular-6f" transform="translate(72.299988 0)"/>
    <use xlink:href="#NotoSansCJKtc-Regular-6d" transform="translate(132.899979 0)"/>
    <use xlink:href="#NotoSansCJKtc-Regular-75" transform="translate(225.499969 0)"/>
    <use xlink:href="#NotoSansCJKtc-Regular-72" transform="translate(286.199966 0)"/>
    <use xlink:href="#NotoSansCJKtc-Regular-61" transform="translate(324.999954 0)"/>
    <use xlink:href="#NotoSansCJKtc-Regular-300a" transform="translate(381.299942 0)"/>
    <use xlink:href="#NotoSansCJKtc-Regular-55" transform="translate(481.299927 0)"/>
    <use xlink:href="#NotoSansCJKtc-Regular-53" transform="translate(553.399918 0)"/>
    <use xlink:href="#NotoSansCJKtc-Regular-44" transform="translate(612.999908 0)"/>
    <use xlink:href="#NotoSansCJKtc-Regular-2f" transform="translate(681.799896 0)"/>
    <use xlink:href="#NotoSansCJKtc-Regular-43" transform="translate(720.999893 0)"/>
    <use xlink:href="#NotoSansCJKtc-Regular-4e" transform="translate(784.799881 0)"/>
    <use xlink:href="#NotoSansCJKtc-Regular-59" transform="translate(857.099869 0)"/>
    <use xlink:href="#NotoSansCJKtc-Regular-20" transform="translate(910.19986 0)"/>
    <use xlink:href="#NotoSansCJKtc-Regular-66" transform="translate(932.599854 0)"/>
    <use xlink:href="#NotoSansCJKtc-Regular-69" transform="translate(965.099838 0)"/>
    <use xlink:href="#NotoSansCJKtc-Regular-78" transform="translate(992.599823 0)"/>
    <use xlink:href="#NotoSansCJKtc-Regular-20" transform="translate(1042.399811 0)"/>
    <use xlink:href="#NotoSansCJKtc-Regular-6d" transform="translate(1064.799805 0)"/>
    <use xlink:href="#NotoSansCJKtc-Regular-6f" transform="translate(1157.399796 0)"/>
    <use xlink:href="#NotoSansCJKtc-Regular-64" transform="translate(1217.999786 0)"/>
    <use xlink:href="#NotoSansCJKtc-Regular-65" transform="translate(1279.999771 0)"/>
    <use xlink:href="#NotoSansCJKtc-Regular-6c" transform="translate(1335.399765 0)"/>
    <use xlink:href="#NotoSansCJKtc-Regular-3a" transform="translate(1363.799759 0)"/>
    <use xlink:href="#NotoSansCJKtc-Regular-20" transform="translate(1391.599747 0)"/>
    <use xlink:href="#NotoSansCJKtc-Regular-50" transform="translate(1413.999741 0)"/>
    <use xlink:href="#NotoSansCJKtc-Regular-72" transform="translate(1477.299728 0)"/>
    <use xlink:href="#NotoSansCJKtc-Regular-6f" transform="translate(1516.099716 0)"/>
    <use xlink:href="#NotoSansCJKtc-Regular-6a" transform="translate(1576.699707 0)"/>
    <use xlink:href="#NotoSansCJKtc-Regular-65" transform="translate(1604.199692 0)"/>
    <use xlink:href="#NotoSansCJKtc-Regular-63" transform="translate(1659.599686 0)"/>
    <use xlink:href="#NotoSansCJKtc-Regular-74" transform="translate(1710.59967 0)"/>
    <use xlink:href="#NotoSansCJKtc-Regular-69" transform="translate(1748.299667 0)"/>
    <use xlink:href="#NotoSansCJKtc-Regular-6f" transform="translate(1775.799652 0)"/>
    <use xlink:href="#NotoSansCJKtc-Regular-6e" transform="translate(1836.399643 0)"/>
    <use xlink:href="#NotoSansCJKtc-Regular-3a" transform="translate(1897.399628 0)"/>
    <use xlink:href="#NotoSansCJKtc-Regular-20" transform="translate(1925.199615 0)"/>
    <use xlink:href="#NotoSansCJKtc-Regular-36" transform="translate(1947.599609 0)"/>
    <use xlink:href="#NotoSansCJKtc-Regular-2e" transform="translate(2003.099594 0)"/>
    <use xlink:href="#NotoSansCJKtc-Regular-37" transform="translate(2030.899582 0)"/>
    <use xlink:href="#NotoSansCJKtc-Regular-32" transform="translate(2086.399567 0)"/>
    <use xlink:href="#NotoSansCJKtc-Regular-35" transform="translate(2141.899551 0)"/>
    <use xlink:href="#NotoSansCJKtc-Regular-38" transform="translate(2197.399536 0)"/>
    <use xlink:href="#NotoSansCJKtc-Regular-300b" transform="translate(2252.899521 0)"/>
    <use xlink:href="#NotoSansCJKtc-Regular-ff0c" transform="translate(2352.899506 0)"/>
    <use xlink:href="#NotoSansCJKtc-Regular-32" transform="translate(2452.89949 0)"/>
    <use xlink:href="#NotoSansCJKtc-Regular-30" transform="translate(2508.399475 0)"/>
    <use xlink:href="#NotoSansCJKtc-Regular-32" transform="translate(2563.89946 0)"/>
    <use xlink:href="#NotoSansCJKtc-Regular-36" transform="translate(2619.399445 0)"/>
    <use xlink:href="#NotoSansCJKtc-Regular-2d" transform="translate(2674.899429 0)"/>
    <use xlink:href="#NotoSansCJKtc-Regular-30" transform="translate(2709.599426 0)"/>
    <use xlink:href="#NotoSansCJKtc-Regular-39" transform="translate(2765.099411 0)"/>
    <use xlink:href="#NotoSansCJKtc-Regular-2d" transform="translate(2820.599396 0)"/>
    <use xlink:href="#NotoSansCJKtc-Regular-31" transform="translate(2855.299393 0)"/>
    <use xlink:href="#NotoSansCJKtc-Regular-38" transform="translate(2910.799377 0)"/>
    <use xlink:href="#NotoSansCJKtc-Regular-ff0c" transform="translate(2966.299362 0)"/>
    <use xlink:href="#NotoSansCJKtc-Regular-7b2c" transform="translate(3066.299347 0)"/>
    <use xlink:href="#NotoSansCJKtc-Regular-20" transform="translate(3166.299332 0)"/>
    <use xlink:href="#NotoSansCJKtc-Regular-31" transform="translate(3188.699326 0)"/>
    <use xlink:href="#NotoSansCJKtc-Regular-20" transform="translate(3244.19931 0)"/>
    <use xlink:href="#NotoSansCJKtc-Regular-9801" transform="translate(3266.599304 0)"/>
   </g>
  </g>
  <g id="text_15">
   <!-- 依報告內文數字重製 -->
   <g style="fill: #9ba0a6" transform="translate(500.76 338.6195) scale(0.08 -0.08)">
    <defs>
     <path id="NotoSansCJKtc-Regular-4f9d" d="M 3494 5210 
C 3674 4890 3866 4454 3942 4192 
L 4397 4365 
C 4314 4621 4109 5037 3923 5350 
L 3494 5210 
z
M 2566 -531 
C 2701 -429 2899 -333 4320 186 
C 4288 288 4256 480 4243 602 
L 3098 198 
L 3098 2502 
C 3315 2733 3520 2976 3706 3226 
C 4115 1690 4819 346 5862 -333 
C 5946 -205 6106 -26 6214 64 
C 5619 410 5126 998 4742 1722 
C 5171 2010 5696 2413 6099 2771 
L 5741 3104 
C 5446 2790 4973 2374 4570 2074 
C 4339 2579 4154 3130 4019 3699 
L 4038 3725 
L 6042 3725 
L 6042 4179 
L 1901 4179 
L 1901 3725 
L 3488 3725 
C 2989 2957 2259 2266 1517 1818 
C 1619 1728 1786 1530 1856 1427 
C 2112 1606 2374 1811 2630 2042 
L 2630 384 
C 2630 90 2432 -90 2310 -166 
C 2394 -250 2522 -429 2566 -531 
z
M 1702 5370 
C 1363 4397 806 3443 205 2816 
C 294 2701 435 2451 480 2342 
C 666 2541 851 2771 1024 3027 
L 1024 -518 
L 1485 -518 
L 1485 3763 
C 1747 4230 1978 4730 2163 5229 
L 1702 5370 
z
" transform="scale(0.015625)"/>
     <path id="NotoSansCJKtc-Regular-5831" d="M 3776 2509 
L 3827 2509 
C 4026 1856 4294 1242 4640 730 
C 4397 397 4109 102 3776 -122 
L 3776 2509 
z
M 3328 5082 
L 3328 -499 
L 3776 -499 
L 3776 -294 
C 3853 -365 3936 -454 3987 -525 
C 4346 -294 4659 6 4928 346 
C 5203 13 5523 -269 5882 -474 
C 5958 -346 6106 -173 6214 -77 
C 5830 109 5491 390 5197 736 
C 5574 1344 5837 2061 5978 2816 
L 5677 2925 
L 5594 2906 
L 3776 2906 
L 3776 4646 
L 5376 4646 
L 5376 3846 
C 5376 3776 5357 3757 5248 3750 
C 5152 3744 4819 3744 4416 3757 
C 4480 3629 4544 3462 4563 3334 
C 5062 3334 5382 3334 5581 3405 
C 5779 3475 5824 3610 5824 3846 
L 5824 5082 
L 3328 5082 
z
M 4237 2509 
L 5453 2509 
C 5338 2029 5152 1555 4902 1126 
C 4621 1536 4397 2010 4237 2509 
z
M 1504 5370 
L 1504 4717 
L 493 4717 
L 493 4307 
L 1504 4307 
L 1504 3661 
L 301 3661 
L 301 3245 
L 3085 3245 
L 3085 3661 
L 1952 3661 
L 1952 4307 
L 2925 4307 
L 2925 4717 
L 1952 4717 
L 1952 5370 
L 1504 5370 
z
M 736 3110 
C 864 2867 992 2547 1037 2336 
L 442 2336 
L 442 1920 
L 1504 1920 
L 1504 1216 
L 301 1216 
L 301 800 
L 1504 800 
L 1504 -486 
L 1952 -486 
L 1952 800 
L 3098 800 
L 3098 1216 
L 1952 1216 
L 1952 1920 
L 2970 1920 
L 2970 2336 
L 2330 2336 
C 2470 2579 2618 2861 2758 3130 
L 2342 3245 
C 2240 2982 2061 2611 1901 2336 
L 1101 2336 
L 1421 2445 
C 1376 2656 1235 2976 1088 3219 
L 736 3110 
z
" transform="scale(0.015625)"/>
     <path id="NotoSansCJKtc-Regular-544a" d="M 1587 5325 
C 1344 4595 934 3866 467 3405 
C 582 3347 806 3219 902 3142 
C 1114 3379 1318 3680 1510 4013 
L 3091 4013 
L 3091 3002 
L 390 3002 
L 390 2554 
L 6029 2554 
L 6029 3002 
L 3590 3002 
L 3590 4013 
L 5555 4013 
L 5555 4454 
L 3590 4454 
L 3590 5376 
L 3091 5376 
L 3091 4454 
L 1747 4454 
C 1869 4698 1978 4947 2067 5203 
L 1587 5325 
z
M 1184 1914 
L 1184 -570 
L 1664 -570 
L 1664 -205 
L 4787 -205 
L 4787 -557 
L 5286 -557 
L 5286 1914 
L 1184 1914 
z
M 1664 243 
L 1664 1472 
L 4787 1472 
L 4787 243 
L 1664 243 
z
" transform="scale(0.015625)"/>
     <path id="NotoSansCJKtc-Regular-5167" d="M 1824 5088 
L 1824 4659 
L 2976 4659 
C 2995 4410 3021 4173 3053 3942 
L 704 3942 
L 704 -512 
L 1184 -512 
L 1184 3469 
L 2854 3469 
C 2630 2458 2112 1773 1242 1344 
C 1344 1261 1504 1075 1568 966 
C 2426 1408 2950 2118 3226 3098 
C 3501 2138 4000 1421 4838 998 
C 4915 1126 5075 1318 5184 1414 
C 4339 1779 3859 2483 3610 3469 
L 5254 3469 
L 5254 115 
C 5254 19 5222 -19 5107 -19 
C 4986 -26 4576 -32 4154 -13 
C 4230 -154 4307 -371 4326 -506 
C 4864 -506 5235 -506 5459 -422 
C 5670 -346 5734 -192 5734 115 
L 5734 3942 
L 3507 3942 
C 3450 4294 3411 4678 3392 5088 
L 1824 5088 
z
" transform="scale(0.015625)"/>
     <path id="NotoSansCJKtc-Regular-6587" d="M 2707 5267 
C 2899 4954 3104 4525 3181 4262 
L 3712 4435 
C 3622 4698 3398 5114 3206 5421 
L 2707 5267 
z
M 320 4250 
L 320 3776 
L 1318 3776 
C 1696 2803 2202 1965 2861 1280 
C 2157 691 1293 256 230 -45 
C 326 -160 480 -384 531 -499 
C 1600 -154 2490 307 3213 934 
C 3936 294 4806 -179 5856 -467 
C 5939 -333 6080 -128 6189 -26 
C 5165 230 4294 685 3584 1286 
C 4230 1946 4723 2765 5094 3776 
L 6106 3776 
L 6106 4250 
L 320 4250 
z
M 3226 1619 
C 2624 2227 2150 2957 1818 3776 
L 4550 3776 
C 4230 2912 3789 2202 3226 1619 
z
" transform="scale(0.015625)"/>
     <path id="NotoSansCJKtc-Regular-6578" d="M 4339 3680 
L 5222 3680 
C 5139 2918 5005 2266 4781 1715 
C 4563 2278 4416 2918 4314 3603 
L 4339 3680 
z
M 282 1466 
L 282 1114 
L 1107 1114 
C 979 902 845 710 723 550 
C 1018 474 1331 365 1645 250 
C 1306 83 851 -64 237 -186 
C 314 -262 410 -416 448 -506 
C 1190 -352 1715 -154 2086 64 
C 2406 -70 2694 -218 2906 -339 
L 3059 -198 
C 3142 -288 3245 -442 3283 -518 
C 3923 -186 4397 243 4755 781 
C 5043 243 5414 -192 5888 -486 
C 5952 -365 6099 -192 6202 -109 
C 5690 166 5299 627 5005 1210 
C 5338 1875 5536 2688 5658 3680 
L 6150 3680 
L 6150 4109 
L 4467 4109 
C 4576 4493 4672 4896 4749 5299 
L 4333 5376 
C 4147 4339 3846 3290 3424 2592 
L 3424 2925 
L 2163 2925 
L 2163 3200 
L 3290 3200 
L 3290 3930 
L 3654 3930 
L 3654 4294 
L 3290 4294 
L 3290 4960 
L 2163 4960 
L 2163 5376 
L 1779 5376 
L 1779 4960 
L 717 4960 
L 717 4294 
L 282 4294 
L 282 3930 
L 717 3930 
L 717 3200 
L 1779 3200 
L 1779 2925 
L 570 2925 
L 570 1875 
L 1523 1875 
C 1459 1741 1389 1606 1312 1466 
L 282 1466 
z
M 2566 1728 
L 2566 1510 
L 2566 1466 
L 1760 1466 
C 1830 1600 1901 1741 1965 1875 
L 3424 1875 
L 3424 2470 
C 3520 2394 3654 2272 3712 2208 
C 3840 2419 3955 2662 4064 2931 
C 4186 2304 4339 1728 4550 1229 
C 4237 678 3802 250 3206 -64 
L 3219 -51 
C 3014 64 2739 192 2445 320 
C 2739 576 2867 851 2918 1114 
L 3603 1114 
L 3603 1466 
L 2957 1466 
L 2957 1504 
L 2957 1728 
L 2566 1728 
z
M 1101 4627 
L 1779 4627 
L 1779 4275 
L 1101 4275 
L 1101 4627 
z
M 1779 3539 
L 1101 3539 
L 1101 3949 
L 1779 3949 
L 1779 3539 
z
M 2163 4627 
L 2899 4627 
L 2899 4275 
L 2163 4275 
L 2163 4627 
z
M 2163 3539 
L 2163 3949 
L 2899 3949 
L 2899 3539 
L 2163 3539 
z
M 986 2618 
L 1779 2618 
L 1779 2189 
L 986 2189 
L 986 2618 
z
M 2163 2618 
L 2995 2618 
L 2995 2189 
L 2163 2189 
L 2163 2618 
z
M 1318 730 
L 1555 1114 
L 2515 1114 
C 2451 909 2317 691 2035 486 
C 1798 576 1555 659 1318 730 
z
" transform="scale(0.015625)"/>
     <path id="NotoSansCJKtc-Regular-5b57" d="M 2944 2323 
L 2944 1920 
L 442 1920 
L 442 1459 
L 2944 1459 
L 2944 90 
C 2944 0 2912 -32 2797 -38 
C 2682 -38 2266 -38 1837 -26 
C 1920 -154 2010 -371 2042 -506 
C 2586 -506 2925 -499 3149 -429 
C 3379 -346 3450 -205 3450 77 
L 3450 1459 
L 5952 1459 
L 5952 1920 
L 3450 1920 
L 3450 2157 
C 4013 2458 4589 2893 4986 3302 
L 4659 3552 
L 4550 3526 
L 1491 3526 
L 1491 3072 
L 4064 3072 
C 3738 2790 3322 2509 2944 2323 
z
M 2714 5274 
C 2835 5107 2957 4896 3040 4710 
L 512 4710 
L 512 3386 
L 986 3386 
L 986 4250 
L 5395 4250 
L 5395 3386 
L 5888 3386 
L 5888 4710 
L 3603 4710 
C 3514 4922 3347 5210 3181 5421 
L 2714 5274 
z
" transform="scale(0.015625)"/>
     <path id="NotoSansCJKtc-Regular-91cd" d="M 1018 3456 
L 1018 1466 
L 2938 1466 
L 2938 1024 
L 813 1024 
L 813 640 
L 2938 640 
L 2938 83 
L 333 83 
L 333 -307 
L 6074 -307 
L 6074 83 
L 3418 83 
L 3418 640 
L 5670 640 
L 5670 1024 
L 3418 1024 
L 3418 1466 
L 5427 1466 
L 5427 3456 
L 3418 3456 
L 3418 3846 
L 6042 3846 
L 6042 4243 
L 3418 4243 
L 3418 4736 
C 4166 4794 4870 4870 5421 4966 
L 5165 5338 
C 4154 5158 2342 5037 851 4998 
C 896 4902 947 4730 954 4621 
C 1581 4634 2266 4659 2938 4698 
L 2938 4243 
L 371 4243 
L 371 3846 
L 2938 3846 
L 2938 3456 
L 1018 3456 
z
M 1485 2304 
L 2938 2304 
L 2938 1818 
L 1485 1818 
L 1485 2304 
z
M 3418 2304 
L 4941 2304 
L 4941 1818 
L 3418 1818 
L 3418 2304 
z
M 1485 3110 
L 2938 3110 
L 2938 2630 
L 1485 2630 
L 1485 3110 
z
M 3418 3110 
L 4941 3110 
L 4941 2630 
L 3418 2630 
L 3418 3110 
z
" transform="scale(0.015625)"/>
     <path id="NotoSansCJKtc-Regular-88fd" d="M 4058 5050 
L 4058 2944 
L 4493 2944 
L 4493 5050 
L 4058 5050 
z
M 5274 5312 
L 5274 2662 
C 5274 2586 5242 2560 5152 2560 
C 5056 2554 4749 2547 4397 2560 
C 4461 2445 4525 2278 4550 2163 
C 4998 2163 5293 2163 5478 2234 
C 5658 2298 5709 2413 5709 2656 
L 5709 5312 
L 5274 5312 
z
M 2874 2285 
C 2938 2163 3014 2016 3072 1882 
L 352 1882 
L 352 1485 
L 2598 1485 
C 1978 1107 1056 800 243 659 
C 339 570 461 403 518 294 
C 877 371 1254 486 1626 621 
L 1626 333 
C 1626 38 1453 -90 1357 -154 
C 1408 -230 1491 -390 1523 -493 
L 1523 -518 
C 1645 -442 1843 -384 3539 13 
C 3533 102 3546 262 3558 378 
L 2074 58 
L 2074 800 
C 2502 992 2899 1210 3206 1453 
C 3699 454 4582 -173 5862 -429 
C 5926 -307 6042 -134 6138 -38 
C 5523 58 4992 250 4563 525 
C 4954 704 5389 941 5734 1178 
L 5382 1434 
C 5101 1222 4640 954 4250 762 
C 4000 966 3802 1210 3648 1485 
L 6054 1485 
L 6054 1882 
L 3597 1882 
C 3533 2042 3424 2246 3322 2406 
L 2874 2285 
z
M 934 5357 
C 819 5005 646 4640 422 4378 
C 518 4339 685 4250 768 4192 
C 851 4301 934 4435 1011 4582 
L 1779 4582 
L 1779 4186 
L 326 4186 
L 326 3840 
L 1779 3840 
L 1779 3501 
L 659 3501 
L 659 2298 
L 1043 2298 
L 1043 3174 
L 1779 3174 
L 1779 2125 
L 2202 2125 
L 2202 3174 
L 2989 3174 
L 2989 2714 
C 2989 2662 2976 2643 2918 2643 
C 2867 2637 2701 2637 2490 2643 
C 2534 2554 2598 2432 2618 2336 
C 2906 2336 3098 2336 3226 2394 
C 3366 2445 3392 2534 3392 2714 
L 3392 3501 
L 2202 3501 
L 2202 3840 
L 3558 3840 
L 3558 4186 
L 2202 4186 
L 2202 4582 
L 3334 4582 
L 3334 4922 
L 2202 4922 
L 2202 5376 
L 1779 5376 
L 1779 4922 
L 1178 4922 
C 1229 5037 1274 5152 1312 5267 
L 934 5357 
z
" transform="scale(0.015625)"/>
    </defs>
    <use xlink:href="#NotoSansCJKtc-Regular-4f9d"/>
    <use xlink:href="#NotoSansCJKtc-Regular-5831" transform="translate(99.999985 0)"/>
    <use xlink:href="#NotoSansCJKtc-Regular-544a" transform="translate(199.999969 0)"/>
    <use xlink:href="#NotoSansCJKtc-Regular-5167" transform="translate(299.999954 0)"/>
    <use xlink:href="#NotoSansCJKtc-Regular-6587" transform="translate(399.999939 0)"/>
    <use xlink:href="#NotoSansCJKtc-Regular-6578" transform="translate(499.999924 0)"/>
    <use xlink:href="#NotoSansCJKtc-Regular-5b57" transform="translate(599.999908 0)"/>
    <use xlink:href="#NotoSansCJKtc-Regular-91cd" transform="translate(699.999893 0)"/>
    <use xlink:href="#NotoSansCJKtc-Regular-88fd" transform="translate(799.999878 0)"/>
   </g>
  </g>
 </g>
 <defs>
  <clipPath id="p38f1083c0e">
   <rect x="46.44" y="63.504" width="526.32" height="229.32"/>
  </clipPath>
 </defs>
</svg>
