<?xml version="1.0" encoding="utf-8" standalone="no"?>
<!DOCTYPE svg PUBLIC "-//W3C//DTD SVG 1.1//EN"
  "http://www.w3.org/Graphics/SVG/1.1/DTD/svg11.dtd">
<svg xmlns:xlink="http://www.w3.org/1999/xlink" width="619.2pt" height="352.8pt" viewBox="0 0 619.2 352.8" xmlns="http://www.w3.org/2000/svg" version="1.1">
 <metadata>
  <rdf:RDF xmlns:dc="http://purl.org/dc/elements/1.1/" xmlns:cc="http://creativecommons.org/ns#" xmlns:rdf="http://www.w3.org/1999/02/22-rdf-syntax-ns#">
   <cc:Work>
    <dc:type rdf:resource="http://purl.org/dc/dcmitype/StillImage"/>
    <dc:format>image/svg+xml</dc:format>
    <dc:creator>
     <cc:Agent>
      <dc:title>Matplotlib v3.10.9, https://matplotlib.org/</dc:title>
     </cc:Agent>
    </dc:creator>
   </cc:Work>
  </rdf:RDF>
 </metadata>
 <defs>
  <style type="text/css">*{stroke-linejoin: round; stroke-linecap: butt}</style>
 </defs>
 <g id="figure_1">
  <g id="patch_1">
   <path d="M 0 352.8 
L 619.2 352.8 
L 619.2 0 
L 0 0 
z
" style="fill: #ffffff"/>
  </g>
  <g id="axes_1">
   <g id="patch_2">
    <path d="M 46.44 292.824 
L 572.76 292.824 
L 572.76 63.504 
L 46.44 63.504 
z
" style="fill: #ffffff"/>
   </g>
   <g id="patch_3">
    <path d="M 70.363636 292.824 
L 162.971261 292.824 
L 162.971261 95.134345 
L 70.363636 95.134345 
z
" clip-path="url(#p38f1083c0e)" style="fill: #d70c18"/>
   </g>
   <g id="patch_4">
    <path d="M 198.985337 292.824 
L 291.592962 292.824 
L 291.592962 132.789517 
L 198.985337 132.789517 
z
" clip-path="url(#p38f1083c0e)" style="fill: #d70c18"/>
   </g>
   <g id="patch_5">
    <path d="M 327.607038 292.824 
L 420.214663 292.824 
L 420.214663 273.996414 
L 327.607038 273.996414 
z
" clip-path="url(#p38f1083c0e)" style="fill: #d70c18"/>
   </g>
   <g id="patch_6">
    <path d="M 456.228739 292.824 
L 548.836364 292.824 
L 548.836364 179.858483 
L 456.228739 179.858483 
z
" clip-path="url(#p38f1083c0e)" style="fill: #d70c18"/>
   </g>
   <g id="matplotlib.axis_1">
    <g id="xtick_1">
     <g id="line2d_1"/>
     <g id="text_1">
      <!-- 光學系統 -->
      <g style="fill: #6b7076" transform="translate(98.667449 303.487437) scale(0.09 -0.09)">
       <defs>
        <path id="NotoSansCJKtc-Regular-5149" d="M 883 4902 
C 1210 4397 1530 3725 1638 3302 
L 2106 3482 
C 1984 3917 1645 4570 1318 5062 
L 883 4902 
z
M 5088 5133 
C 4909 4627 4557 3917 4282 3482 
L 4691 3322 
C 4973 3738 5318 4397 5587 4954 
L 5088 5133 
z
M 2938 5376 
L 2938 2931 
L 352 2931 
L 352 2477 
L 2061 2477 
C 1958 1261 1715 352 218 -102 
C 326 -198 467 -390 518 -512 
C 2131 19 2451 1069 2566 2477 
L 3757 2477 
L 3757 205 
C 3757 -346 3910 -499 4486 -499 
C 4602 -499 5286 -499 5414 -499 
C 5958 -499 6086 -224 6144 826 
C 6010 864 5805 947 5696 1030 
C 5670 109 5632 -45 5376 -45 
C 5222 -45 4659 -45 4538 -45 
C 4288 -45 4237 -6 4237 205 
L 4237 2477 
L 6067 2477 
L 6067 2931 
L 3424 2931 
L 3424 5376 
L 2938 5376 
z
" transform="scale(0.015625)"/>
        <path id="NotoSansCJKtc-Regular-5b78" d="M 3027 1427 
L 3027 1152 
L 339 1152 
L 339 742 
L 3027 742 
L 3027 13 
C 3027 -70 3002 -96 2899 -96 
C 2797 -102 2432 -102 2035 -90 
C 2099 -211 2176 -371 2202 -493 
C 2714 -493 3034 -499 3238 -435 
C 3443 -365 3494 -250 3494 0 
L 3494 742 
L 6067 742 
L 6067 1152 
L 3494 1152 
L 3494 1261 
C 4006 1466 4550 1754 4941 2054 
L 4659 2304 
L 4557 2278 
L 1530 2278 
L 1530 1914 
L 4045 1914 
C 3738 1728 3360 1549 3027 1427 
z
M 864 5005 
L 992 3085 
L 480 3085 
L 480 1914 
L 941 1914 
L 941 2714 
L 5466 2714 
L 5466 1914 
L 5946 1914 
L 5946 3085 
L 5440 3085 
C 5498 3654 5555 4486 5587 5133 
L 4090 5133 
L 4090 4800 
L 5114 4800 
L 5094 4454 
L 4122 4454 
L 4122 4122 
L 5069 4122 
L 5043 3770 
L 4090 3770 
L 4090 3443 
L 5018 3443 
L 4979 3085 
L 1440 3085 
L 1421 3443 
L 2317 3443 
L 2317 3770 
L 1402 3770 
L 1376 4122 
L 2285 4122 
L 2285 4454 
L 1357 4454 
L 1338 4781 
C 1670 4838 2048 4915 2330 5024 
L 2112 5318 
C 1786 5222 1235 5069 864 5005 
z
M 2470 3955 
C 2624 3878 2784 3789 2938 3693 
C 2746 3558 2534 3437 2330 3341 
C 2406 3283 2541 3149 2598 3085 
C 2810 3200 3027 3341 3232 3507 
C 3418 3373 3584 3245 3699 3136 
L 3955 3373 
C 3840 3482 3674 3603 3488 3725 
C 3635 3859 3763 3994 3866 4134 
L 3526 4237 
C 3437 4122 3328 4006 3206 3904 
C 3040 4000 2867 4090 2714 4160 
L 2470 3955 
z
M 2490 5024 
C 2637 4960 2790 4877 2944 4794 
C 2765 4666 2566 4550 2374 4454 
C 2458 4403 2592 4282 2650 4224 
C 2842 4326 3046 4461 3238 4614 
C 3418 4499 3578 4384 3686 4282 
L 3936 4518 
C 3821 4614 3667 4723 3494 4832 
C 3629 4954 3750 5088 3846 5222 
L 3507 5318 
C 3424 5210 3322 5101 3206 4998 
C 3046 5088 2880 5171 2733 5242 
L 2490 5024 
z
" transform="scale(0.015625)"/>
        <path id="NotoSansCJKtc-Regular-7cfb" d="M 1830 1286 
C 1504 832 966 365 461 58 
C 582 -13 781 -166 877 -256 
C 1363 83 1933 608 2317 1114 
L 1830 1286 
z
M 4083 1094 
C 4595 704 5222 147 5530 -205 
L 5939 83 
C 5613 435 4973 966 4461 1344 
L 4083 1094 
z
M 4250 2790 
C 4448 2605 4659 2381 4858 2157 
L 2106 1971 
C 3002 2381 3917 2886 4794 3501 
L 4429 3821 
C 4192 3648 3949 3475 3693 3315 
L 2106 3232 
C 2573 3482 3034 3782 3475 4122 
L 3066 4384 
C 3763 4563 4410 4768 4922 4992 
L 4570 5376 
C 3648 4941 1997 4538 550 4275 
C 602 4166 672 3994 691 3872 
C 1453 4006 2272 4179 3034 4371 
C 2490 3898 1779 3482 1555 3366 
C 1344 3251 1178 3187 1037 3168 
C 1088 3040 1152 2803 1171 2707 
C 1312 2765 1530 2790 2989 2880 
C 2362 2515 1811 2246 1562 2138 
C 1171 1952 890 1850 685 1824 
C 736 1696 806 1466 826 1363 
C 1011 1434 1261 1472 3014 1606 
L 3014 77 
C 3014 6 2995 -19 2886 -26 
C 2784 -32 2432 -32 2048 -19 
C 2125 -154 2208 -352 2234 -493 
C 2701 -493 3027 -486 3232 -410 
C 3450 -333 3501 -198 3501 70 
L 3501 1638 
L 5203 1766 
C 5338 1600 5459 1453 5542 1325 
L 5952 1574 
C 5683 1952 5126 2547 4646 2989 
L 4250 2790 
z
" transform="scale(0.015625)"/>
        <path id="NotoSansCJKtc-Regular-7d71" d="M 1203 1210 
C 1274 781 1344 218 1357 -154 
L 1734 -64 
C 1715 307 1638 858 1562 1293 
L 1203 1210 
z
M 512 1261 
C 448 742 358 166 205 -224 
C 301 -256 493 -320 582 -365 
C 710 26 832 634 902 1190 
L 512 1261 
z
M 1907 1344 
C 2042 973 2195 486 2253 173 
L 2611 294 
C 2547 608 2394 1082 2246 1453 
L 1907 1344 
z
M 2784 2221 
C 2880 2266 2995 2291 3424 2349 
C 3379 1018 3219 269 2214 -166 
C 2323 -250 2458 -416 2509 -538 
C 3635 -13 3834 883 3878 2406 
L 4486 2477 
L 4486 224 
C 4486 -256 4595 -403 5043 -403 
C 5133 -403 5504 -403 5600 -403 
C 5997 -403 6112 -166 6150 691 
C 6022 723 5837 800 5728 883 
C 5715 147 5696 32 5555 32 
C 5472 32 5171 32 5107 32 
C 4966 32 4947 58 4947 230 
L 4947 2534 
L 5440 2586 
C 5530 2406 5613 2234 5670 2099 
L 6099 2310 
C 5920 2714 5523 3366 5190 3859 
L 4800 3686 
C 4941 3469 5088 3226 5229 2976 
L 3341 2790 
C 3616 3174 3898 3629 4160 4115 
L 6054 4115 
L 6054 4563 
L 4397 4563 
C 4506 4781 4608 5005 4710 5229 
L 4186 5376 
C 4083 5101 3968 4826 3840 4563 
L 2662 4563 
L 2662 4115 
L 3616 4115 
C 3386 3667 3168 3315 3066 3174 
C 2886 2912 2752 2733 2624 2701 
C 2682 2566 2758 2330 2784 2221 
z
M 403 1536 
C 525 1600 717 1651 2131 1888 
C 2170 1766 2195 1658 2214 1562 
L 2586 1709 
C 2515 2042 2323 2573 2131 2982 
L 1779 2861 
C 1869 2675 1952 2458 2022 2246 
L 979 2093 
C 1510 2694 2022 3456 2445 4211 
L 2035 4454 
C 1882 4141 1702 3821 1523 3533 
L 845 3475 
C 1216 3968 1587 4595 1875 5216 
L 1434 5402 
C 1158 4704 710 3968 563 3782 
C 429 3584 320 3456 211 3430 
C 262 3302 333 3078 358 2982 
C 448 3021 582 3053 1261 3136 
C 1030 2790 832 2528 730 2419 
C 531 2176 390 2016 250 1984 
C 307 1862 378 1632 403 1536 
z
" transform="scale(0.015625)"/>
       </defs>
       <use xlink:href="#NotoSansCJKtc-Regular-5149"/>
       <use xlink:href="#NotoSansCJKtc-Regular-5b78" transform="translate(99.999985 0)"/>
       <use xlink:href="#NotoSansCJKtc-Regular-7cfb" transform="translate(199.999969 0)"/>
       <use xlink:href="#NotoSansCJKtc-Regular-7d71" transform="translate(299.999954 0)"/>
      </g>
     </g>
    </g>
    <g id="xtick_2">
     <g id="line2d_2"/>
     <g id="text_2">
      <!-- 互連 -->
      <g style="fill: #6b7076" transform="translate(236.28915 303.487437) scale(0.09 -0.09)">
       <defs>
        <path id="NotoSansCJKtc-Regular-4e92" d="M 339 186 
L 339 -275 
L 6086 -275 
L 6086 186 
L 4518 186 
C 4685 1248 4864 2618 4947 3488 
L 4589 3533 
L 4499 3507 
L 2259 3507 
L 2451 4544 
L 5894 4544 
L 5894 5011 
L 544 5011 
L 544 4544 
L 1933 4544 
C 1760 3475 1478 2061 1254 1222 
L 4179 1222 
L 4019 186 
L 339 186 
z
M 2176 3059 
L 4410 3059 
C 4365 2669 4307 2176 4237 1670 
L 1888 1670 
C 1984 2080 2080 2560 2176 3059 
z
" transform="scale(0.015625)"/>
        <path id="NotoSansCJKtc-Regular-9023" d="M 531 5165 
C 794 4845 1126 4403 1286 4128 
L 1664 4378 
C 1504 4646 1178 5056 896 5376 
L 531 5165 
z
M 2240 3923 
L 2240 1843 
L 3674 1843 
L 3674 1370 
L 1933 1370 
L 1933 966 
L 3674 966 
L 3674 205 
L 4141 205 
L 4141 966 
L 6048 966 
L 6048 1370 
L 4141 1370 
L 4141 1843 
L 5626 1843 
L 5626 3923 
L 4141 3923 
L 4141 4397 
L 5958 4397 
L 5958 4800 
L 4141 4800 
L 4141 5376 
L 3674 5376 
L 3674 4800 
L 1939 4800 
L 1939 4397 
L 3674 4397 
L 3674 3923 
L 2240 3923 
z
M 2688 2720 
L 3674 2720 
L 3674 2208 
L 2688 2208 
L 2688 2720 
z
M 4141 2720 
L 5165 2720 
L 5165 2208 
L 4141 2208 
L 4141 2720 
z
M 2688 3571 
L 3674 3571 
L 3674 3066 
L 2688 3066 
L 2688 3571 
z
M 4141 3571 
L 5165 3571 
L 5165 3066 
L 4141 3066 
L 4141 3571 
z
M 390 1824 
C 442 1869 608 1914 768 1914 
L 1389 1914 
C 1190 915 768 211 192 -192 
C 288 -256 448 -422 518 -518 
C 826 -288 1101 32 1325 448 
C 1830 -282 2643 -410 3942 -410 
C 4646 -410 5459 -397 6061 -358 
C 6086 -230 6144 -6 6221 96 
C 5562 32 4621 6 3949 6 
C 2739 13 1926 109 1510 832 
C 1670 1229 1798 1696 1875 2227 
L 1658 2310 
L 1574 2304 
L 902 2304 
C 1248 2739 1715 3411 1971 3789 
L 1651 3936 
L 1568 3898 
L 294 3898 
L 294 3494 
L 1280 3494 
C 1018 3104 659 2592 518 2451 
C 410 2330 307 2285 211 2259 
C 262 2163 358 1939 390 1824 
z
" transform="scale(0.015625)"/>
       </defs>
       <use xlink:href="#NotoSansCJKtc-Regular-4e92"/>
       <use xlink:href="#NotoSansCJKtc-Regular-9023" transform="translate(99.999985 0)"/>
      </g>
     </g>
    </g>
    <g id="xtick_3">
     <g id="line2d_3"/>
     <g id="text_3">
      <!-- 全球服務 -->
      <g style="fill: #6b7076" transform="translate(355.91085 303.487437) scale(0.09 -0.09)">
       <defs>
        <path id="NotoSansCJKtc-Regular-5168" d="M 486 102 
L 486 -333 
L 5946 -333 
L 5946 102 
L 3430 102 
L 3430 1178 
L 5261 1178 
L 5261 1600 
L 3430 1600 
L 3430 2586 
L 5005 2586 
L 5005 3014 
L 1408 3014 
L 1408 2586 
L 2931 2586 
L 2931 1600 
L 1126 1600 
L 1126 1178 
L 2931 1178 
L 2931 102 
L 486 102 
z
M 1491 5203 
L 1491 4749 
L 2630 4749 
C 1990 4045 1043 3322 237 2938 
C 352 2842 474 2675 544 2554 
C 1446 3034 2534 3930 3194 4749 
C 3859 3891 4877 3059 5850 2598 
C 5926 2726 6080 2918 6182 3021 
C 5158 3443 4051 4314 3456 5203 
L 1491 5203 
z
" transform="scale(0.015625)"/>
        <path id="NotoSansCJKtc-Regular-7403" d="M 2509 3245 
C 2790 2867 3078 2355 3187 2035 
L 3590 2227 
C 3469 2554 3168 3046 2880 3411 
L 2509 3245 
z
M 4755 5056 
C 5037 4851 5363 4557 5517 4346 
L 5805 4634 
C 5651 4832 5312 5114 5037 5306 
L 4755 5056 
z
M 5626 3450 
C 5414 3091 5069 2611 4762 2240 
C 4627 2624 4531 3066 4448 3584 
L 4448 3821 
L 6131 3821 
L 6131 4262 
L 4448 4262 
L 4448 5370 
L 3981 5370 
L 3981 4262 
L 2413 4262 
L 2413 3821 
L 3981 3821 
L 3981 2138 
C 3322 1536 2605 909 2163 544 
L 2464 134 
C 2906 538 3456 1069 3981 1600 
L 3981 83 
C 3981 -26 3942 -58 3840 -58 
C 3744 -64 3418 -64 3040 -51 
C 3110 -186 3187 -390 3213 -518 
C 3718 -518 4013 -499 4192 -416 
C 4371 -339 4448 -205 4448 90 
L 4448 1882 
C 4755 1075 5210 486 5933 -51 
C 5997 77 6125 230 6240 314 
C 5626 742 5216 1216 4922 1843 
C 5274 2202 5709 2765 6042 3226 
L 5626 3450 
z
M 218 621 
L 326 160 
C 902 346 1664 589 2381 819 
L 2310 1254 
L 1517 1005 
L 1517 2643 
L 2157 2643 
L 2157 3091 
L 1517 3091 
L 1517 4493 
L 2259 4493 
L 2259 4941 
L 294 4941 
L 294 4493 
L 1062 4493 
L 1062 3091 
L 346 3091 
L 346 2643 
L 1062 2643 
L 1062 870 
L 218 621 
z
" transform="scale(0.015625)"/>
        <path id="NotoSansCJKtc-Regular-670d" d="M 691 5139 
L 691 2842 
C 691 1894 653 608 218 -294 
C 333 -333 525 -442 608 -518 
C 902 90 1030 896 1088 1658 
L 2106 1658 
L 2106 70 
C 2106 -26 2067 -51 1984 -51 
C 1901 -58 1632 -58 1338 -51 
C 1402 -179 1459 -390 1472 -512 
C 1907 -512 2163 -506 2330 -422 
C 2496 -346 2554 -198 2554 64 
L 2554 5139 
L 691 5139 
z
M 1126 4691 
L 2106 4691 
L 2106 3642 
L 1126 3642 
L 1126 4691 
z
M 1126 3194 
L 2106 3194 
L 2106 2112 
L 1114 2112 
C 1120 2368 1126 2618 1126 2842 
L 1126 3194 
z
M 5491 2502 
C 5350 1965 5126 1478 4851 1062 
C 4550 1491 4320 1978 4147 2502 
L 5491 2502 
z
M 3117 5120 
L 3117 -512 
L 3571 -512 
L 3571 2502 
L 3731 2502 
C 3936 1837 4218 1222 4582 704 
C 4288 346 3949 70 3597 -122 
C 3699 -205 3827 -365 3878 -474 
C 4230 -269 4563 6 4858 346 
C 5158 -13 5504 -307 5894 -518 
C 5971 -403 6106 -237 6208 -147 
C 5805 45 5446 339 5133 698 
C 5536 1267 5850 1990 6022 2861 
L 5741 2963 
L 5658 2944 
L 3571 2944 
L 3571 4672 
L 5370 4672 
L 5370 3885 
C 5370 3808 5350 3789 5248 3782 
C 5146 3776 4806 3776 4416 3789 
C 4480 3674 4550 3507 4570 3379 
C 5056 3379 5382 3379 5581 3443 
C 5786 3514 5837 3642 5837 3878 
L 5837 5120 
L 3117 5120 
z
" transform="scale(0.015625)"/>
        <path id="NotoSansCJKtc-Regular-52d9" d="M 3776 5382 
C 3514 4762 3053 4179 2547 3808 
C 2662 3744 2854 3603 2944 3526 
C 3098 3654 3258 3808 3405 3981 
C 3590 3693 3814 3430 4070 3200 
C 3738 2989 3347 2822 2918 2701 
L 3014 3046 
L 2714 3149 
L 2643 3123 
L 2170 3123 
L 2426 3405 
C 2291 3526 2099 3661 1888 3789 
C 2272 4083 2675 4493 2931 4877 
L 2618 5075 
L 2541 5056 
L 365 5056 
L 365 4640 
L 2189 4640 
C 2003 4416 1760 4179 1523 4000 
C 1312 4109 1088 4218 890 4301 
L 589 3987 
C 1088 3770 1690 3411 2029 3123 
L 294 3123 
L 294 2694 
L 1261 2694 
C 1024 2035 634 1350 230 979 
C 314 858 429 659 480 531 
C 832 883 1171 1478 1421 2099 
L 1421 51 
C 1421 -19 1395 -38 1318 -45 
C 1242 -51 986 -51 710 -38 
C 774 -166 838 -365 858 -486 
C 1248 -486 1498 -480 1664 -410 
C 1830 -333 1882 -198 1882 45 
L 1882 2694 
L 2490 2694 
C 2400 2317 2272 1926 2150 1664 
L 2483 1498 
C 2618 1760 2746 2131 2861 2502 
C 2931 2413 3002 2317 3034 2246 
C 3558 2413 4032 2624 4442 2906 
C 4870 2605 5363 2374 5901 2227 
C 5971 2355 6106 2541 6214 2637 
C 5696 2752 5216 2944 4806 3194 
C 5139 3494 5402 3853 5587 4294 
L 6074 4294 
L 6074 4704 
L 3942 4704 
C 4051 4883 4147 5069 4230 5254 
L 3776 5382 
z
M 4032 2419 
C 4013 2202 3987 1990 3942 1786 
L 2842 1786 
L 2842 1370 
L 3840 1370 
C 3642 717 3238 186 2349 -141 
C 2451 -230 2579 -403 2630 -512 
C 3661 -115 4115 550 4339 1370 
L 5421 1370 
C 5325 499 5229 128 5107 13 
C 5050 -45 4992 -51 4890 -51 
C 4787 -51 4525 -45 4250 -19 
C 4320 -141 4371 -333 4378 -467 
C 4672 -486 4947 -480 5094 -474 
C 5267 -454 5382 -416 5498 -301 
C 5683 -109 5805 378 5926 1574 
C 5933 1651 5939 1786 5939 1786 
L 4429 1786 
C 4467 1990 4493 2202 4512 2419 
L 4032 2419 
z
M 4429 3462 
C 4128 3706 3885 3987 3706 4294 
L 5050 4294 
C 4909 3968 4691 3699 4429 3462 
z
" transform="scale(0.015625)"/>
       </defs>
       <use xlink:href="#NotoSansCJKtc-Regular-5168"/>
       <use xlink:href="#NotoSansCJKtc-Regular-7403" transform="translate(99.999985 0)"/>
       <use xlink:href="#NotoSansCJKtc-Regular-670d" transform="translate(199.999969 0)"/>
       <use xlink:href="#NotoSansCJKtc-Regular-52d9" transform="translate(299.999954 0)"/>
      </g>
     </g>
    </g>
    <g id="xtick_4">
     <g id="line2d_4"/>
     <g id="text_4">
      <!-- 路由與其他 -->
      <g style="fill: #6b7076" transform="translate(480.032551 303.487437) scale(0.09 -0.09)">
       <defs>
        <path id="NotoSansCJKtc-Regular-8def" d="M 998 4685 
L 2208 4685 
L 2208 3558 
L 998 3558 
L 998 4685 
z
M 243 269 
L 326 -198 
C 1005 -38 1926 186 2803 410 
L 2758 838 
L 1914 640 
L 1914 1786 
L 2592 1786 
C 2682 1696 2771 1562 2822 1466 
C 2950 1523 3078 1581 3206 1651 
L 3206 -499 
L 3654 -499 
L 3654 -262 
L 5267 -262 
L 5267 -480 
L 5722 -480 
L 5722 1638 
L 5926 1542 
C 5997 1670 6131 1856 6227 1946 
C 5645 2163 5158 2502 4755 2893 
C 5165 3373 5491 3942 5702 4608 
L 5402 4742 
L 5312 4723 
L 4070 4723 
C 4147 4902 4211 5082 4275 5267 
L 3821 5382 
C 3578 4608 3155 3878 2650 3405 
L 2650 5107 
L 570 5107 
L 570 3136 
L 1478 3136 
L 1478 538 
L 979 422 
L 979 2534 
L 570 2534 
L 570 333 
L 243 269 
z
M 3654 160 
L 3654 1395 
L 5267 1395 
L 5267 160 
L 3654 160 
z
M 5101 4301 
C 4934 3904 4710 3546 4448 3226 
C 4179 3539 3968 3872 3814 4192 
L 3872 4301 
L 5101 4301 
z
M 3494 1811 
C 3834 2022 4166 2272 4461 2573 
C 4736 2291 5050 2029 5408 1811 
L 3494 1811 
z
M 4160 2906 
C 3731 2470 3226 2131 2714 1907 
L 2714 2214 
L 1914 2214 
L 1914 3136 
L 2650 3136 
L 2650 3341 
C 2758 3264 2918 3130 2989 3053 
C 3194 3258 3392 3507 3571 3789 
C 3731 3501 3923 3200 4160 2906 
z
" transform="scale(0.015625)"/>
        <path id="NotoSansCJKtc-Regular-7531" d="M 1210 1786 
L 2938 1786 
L 2938 365 
L 1210 365 
L 1210 1786 
z
M 5184 1786 
L 5184 365 
L 3424 365 
L 3424 1786 
L 5184 1786 
z
M 1210 2259 
L 1210 3654 
L 2938 3654 
L 2938 2259 
L 1210 2259 
z
M 5184 2259 
L 3424 2259 
L 3424 3654 
L 5184 3654 
L 5184 2259 
z
M 2938 5376 
L 2938 4134 
L 730 4134 
L 730 -512 
L 1210 -512 
L 1210 -115 
L 5184 -115 
L 5184 -486 
L 5683 -486 
L 5683 4134 
L 3424 4134 
L 3424 5376 
L 2938 5376 
z
" transform="scale(0.015625)"/>
        <path id="NotoSansCJKtc-Regular-8207" d="M 3821 589 
C 4486 256 5203 -173 5638 -480 
L 5952 -122 
C 5504 192 4762 602 4083 915 
L 3821 589 
z
M 2176 896 
C 1773 544 992 115 384 -141 
C 474 -237 602 -403 666 -499 
C 1286 -224 2067 205 2586 602 
L 2176 896 
z
M 2707 2976 
C 2650 2579 2554 2195 2355 1914 
C 2451 1869 2618 1766 2688 1709 
C 2880 2010 3021 2464 3085 2912 
L 2707 2976 
z
M 826 4851 
L 947 1446 
L 301 1446 
L 301 998 
L 6112 998 
L 6112 1446 
L 5491 1446 
C 5549 2400 5581 3923 5587 5056 
L 4218 5056 
L 4218 4634 
L 5146 4634 
L 5133 3821 
L 4275 3821 
L 4275 3411 
L 5120 3411 
L 5094 2618 
L 4243 2618 
L 4243 2208 
L 5075 2208 
L 5037 1446 
L 1382 1446 
L 1357 2240 
L 2182 2240 
L 2182 2650 
L 1338 2650 
L 1312 3430 
L 2163 3430 
L 2163 3840 
L 1299 3840 
L 1274 4602 
C 1600 4698 1952 4819 2253 4947 
L 2016 5344 
C 1709 5184 1222 4986 826 4851 
z
M 2502 5331 
L 2502 3251 
L 3526 3251 
L 3526 1939 
C 3526 1882 3514 1856 3450 1856 
C 3379 1850 3187 1850 2963 1862 
C 3014 1766 3059 1632 3085 1530 
C 3398 1530 3622 1530 3763 1594 
C 3904 1651 3942 1741 3942 1939 
L 3942 3635 
L 3770 3635 
L 2925 3642 
L 2925 4326 
L 3981 4326 
L 3981 4742 
L 2925 4742 
L 2925 5331 
L 2502 5331 
z
" transform="scale(0.015625)"/>
        <path id="NotoSansCJKtc-Regular-5176" d="M 3667 416 
C 4422 134 5184 -211 5632 -486 
L 6074 -166 
C 5574 96 4755 454 4000 717 
L 3667 416 
z
M 2310 755 
C 1862 442 979 70 288 -134 
C 390 -230 531 -397 602 -499 
C 1293 -275 2170 96 2739 454 
L 2310 755 
z
M 4390 5370 
L 4390 4627 
L 2003 4627 
L 2003 5370 
L 1530 5370 
L 1530 4627 
L 531 4627 
L 531 4179 
L 1530 4179 
L 1530 1312 
L 346 1312 
L 346 864 
L 6054 864 
L 6054 1312 
L 4870 1312 
L 4870 4179 
L 5901 4179 
L 5901 4627 
L 4870 4627 
L 4870 5370 
L 4390 5370 
z
M 2003 1312 
L 2003 2016 
L 4390 2016 
L 4390 1312 
L 2003 1312 
z
M 2003 4179 
L 4390 4179 
L 4390 3539 
L 2003 3539 
L 2003 4179 
z
M 2003 3123 
L 4390 3123 
L 4390 2426 
L 2003 2426 
L 2003 3123 
z
" transform="scale(0.015625)"/>
        <path id="NotoSansCJKtc-Regular-4ed6" d="M 2554 4730 
L 2554 3053 
L 1734 2733 
L 1920 2304 
L 2554 2554 
L 2554 435 
C 2554 -275 2778 -454 3539 -454 
C 3712 -454 5050 -454 5235 -454 
C 5939 -454 6093 -160 6170 730 
C 6035 755 5850 838 5734 915 
C 5683 160 5619 -19 5222 -19 
C 4941 -19 3776 -19 3552 -19 
C 3091 -19 3008 64 3008 435 
L 3008 2726 
L 3955 3098 
L 3955 915 
L 4397 915 
L 4397 3270 
L 5421 3674 
C 5408 2835 5376 1850 5306 1248 
L 5702 1133 
C 5818 1894 5875 3117 5894 4051 
L 5914 4134 
L 5555 4256 
L 5466 4186 
L 4397 3770 
L 4397 5363 
L 3955 5363 
L 3955 3597 
L 3008 3226 
L 3008 4730 
L 2554 4730 
z
M 1702 5350 
C 1344 4378 749 3418 115 2797 
C 205 2688 339 2438 390 2323 
C 608 2547 819 2810 1024 3091 
L 1024 -499 
L 1485 -499 
L 1485 3808 
C 1747 4256 1978 4736 2163 5216 
L 1702 5350 
z
" transform="scale(0.015625)"/>
       </defs>
       <use xlink:href="#NotoSansCJKtc-Regular-8def"/>
       <use xlink:href="#NotoSansCJKtc-Regular-7531" transform="translate(99.999985 0)"/>
       <use xlink:href="#NotoSansCJKtc-Regular-8207" transform="translate(199.999969 0)"/>
       <use xlink:href="#NotoSansCJKtc-Regular-5176" transform="translate(299.999954 0)"/>
       <use xlink:href="#NotoSansCJKtc-Regular-4ed6" transform="translate(399.999939 0)"/>
      </g>
     </g>
    </g>
   </g>
   <g id="matplotlib.axis_2">
    <g id="ytick_1">
     <g id="line2d_5"/>
     <g id="text_5">
      <!-- 0 -->
      <g style="fill: #6b7076" transform="translate(37.945 296.405719) scale(0.09 -0.09)">
       <defs>
        <path id="NotoSansCJKtc-Regular-30" d="M 1779 -83 
C 2669 -83 3238 723 3238 2362 
C 3238 3987 2669 4774 1779 4774 
C 883 4774 320 3987 320 2362 
C 320 723 883 -83 1779 -83 
z
M 1779 390 
C 1248 390 883 986 883 2362 
C 883 3731 1248 4314 1779 4314 
C 2310 4314 2675 3731 2675 2362 
C 2675 986 2310 390 1779 390 
z
" transform="scale(0.015625)"/>
       </defs>
       <use xlink:href="#NotoSansCJKtc-Regular-30"/>
      </g>
     </g>
    </g>
    <g id="ytick_2">
     <g id="line2d_6"/>
     <g id="text_6">
      <!-- 5 -->
      <g style="fill: #6b7076" transform="translate(37.945 249.336753) scale(0.09 -0.09)">
       <defs>
        <path id="NotoSansCJKtc-Regular-35" d="M 1677 -83 
C 2464 -83 3213 499 3213 1523 
C 3213 2560 2573 3021 1798 3021 
C 1517 3021 1306 2950 1094 2835 
L 1216 4192 
L 2982 4192 
L 2982 4691 
L 704 4691 
L 550 2502 
L 864 2304 
C 1133 2483 1331 2579 1645 2579 
C 2234 2579 2618 2182 2618 1510 
C 2618 826 2176 403 1619 403 
C 1075 403 730 653 467 922 
L 173 538 
C 493 224 941 -83 1677 -83 
z
" transform="scale(0.015625)"/>
       </defs>
       <use xlink:href="#NotoSansCJKtc-Regular-35"/>
      </g>
     </g>
    </g>
    <g id="ytick_3">
     <g id="line2d_7"/>
     <g id="text_7">
      <!-- 10 -->
      <g style="fill: #6b7076" transform="translate(32.95 202.267788) scale(0.09 -0.09)">
       <defs>
        <path id="NotoSansCJKtc-Regular-31" d="M 563 0 
L 3136 0 
L 3136 486 
L 2195 486 
L 2195 4691 
L 1747 4691 
C 1491 4544 1190 4435 774 4358 
L 774 3987 
L 1613 3987 
L 1613 486 
L 563 486 
L 563 0 
z
" transform="scale(0.015625)"/>
       </defs>
       <use xlink:href="#NotoSansCJKtc-Regular-31"/>
       <use xlink:href="#NotoSansCJKtc-Regular-30" transform="translate(55.499985 0)"/>
      </g>
     </g>
    </g>
    <g id="ytick_4">
     <g id="line2d_8"/>
     <g id="text_8">
      <!-- 15 -->
      <g style="fill: #6b7076" transform="translate(32.95 155.198822) scale(0.09 -0.09)">
       <use xlink:href="#NotoSansCJKtc-Regular-31"/>
       <use xlink:href="#NotoSansCJKtc-Regular-35" transform="translate(55.499985 0)"/>
      </g>
     </g>
    </g>
    <g id="ytick_5">
     <g id="line2d_9"/>
     <g id="text_9">
      <!-- 20 -->
      <g style="fill: #6b7076" transform="translate(32.95 108.129857) scale(0.09 -0.09)">
       <defs>
        <path id="NotoSansCJKtc-Regular-32" d="M 282 0 
L 3232 0 
L 3232 506 
L 1933 506 
C 1696 506 1408 480 1165 461 
C 2266 1504 3008 2458 3008 3398 
C 3008 4230 2477 4774 1638 4774 
C 1043 4774 634 4506 256 4090 
L 595 3757 
C 858 4070 1184 4301 1568 4301 
C 2150 4301 2432 3910 2432 3373 
C 2432 2566 1754 1632 282 346 
L 282 0 
z
" transform="scale(0.015625)"/>
       </defs>
       <use xlink:href="#NotoSansCJKtc-Regular-32"/>
       <use xlink:href="#NotoSansCJKtc-Regular-30" transform="translate(55.499985 0)"/>
      </g>
     </g>
    </g>
    <g id="text_10">
     <!-- 十億美元 -->
     <g style="fill: #6b7076" transform="translate(26.888437 196.164) rotate(-90) scale(0.09 -0.09)">
      <defs>
       <path id="NotoSansCJKtc-Regular-5341" d="M 2950 5370 
L 2950 2982 
L 352 2982 
L 352 2490 
L 2950 2490 
L 2950 -512 
L 3469 -512 
L 3469 2490 
L 6093 2490 
L 6093 2982 
L 3469 2982 
L 3469 5370 
L 2950 5370 
z
" transform="scale(0.015625)"/>
       <path id="NotoSansCJKtc-Regular-5104" d="M 2874 1990 
L 5171 1990 
L 5171 1574 
L 2874 1574 
L 2874 1990 
z
M 2874 2694 
L 5171 2694 
L 5171 2291 
L 2874 2291 
L 2874 2694 
z
M 2317 909 
C 2195 582 1990 134 1786 -134 
L 2176 -346 
C 2374 -51 2560 410 2688 736 
L 2317 909 
z
M 2906 915 
L 2906 64 
C 2906 -378 3046 -486 3622 -486 
C 3744 -486 4550 -486 4678 -486 
C 5114 -486 5242 -352 5286 224 
C 5171 250 4992 314 4896 378 
C 4877 -45 4838 -96 4627 -96 
C 4461 -96 3795 -96 3667 -96 
C 3386 -96 3347 -77 3347 64 
L 3347 915 
L 2906 915 
z
M 5030 819 
C 5318 467 5638 -26 5779 -339 
L 6182 -141 
C 6029 166 5696 640 5408 986 
L 5030 819 
z
M 3558 5312 
C 3642 5139 3725 4922 3789 4742 
L 2170 4742 
L 2170 4378 
L 4762 4378 
C 4710 4198 4595 3955 4493 3750 
L 3155 3750 
L 3456 3827 
C 3418 3981 3302 4198 3194 4365 
L 2790 4269 
C 2886 4115 2982 3904 3021 3750 
L 1875 3750 
L 1875 3360 
L 6163 3360 
L 6163 3750 
L 4960 3750 
L 5248 4262 
L 4813 4378 
L 5946 4378 
L 5946 4742 
L 4282 4742 
C 4224 4922 4109 5190 4006 5389 
L 3558 5312 
z
M 3405 1069 
C 3725 858 4122 550 4307 346 
L 4621 614 
C 4442 806 4096 1062 3795 1248 
L 5645 1248 
L 5645 3021 
L 2419 3021 
L 2419 1248 
L 3629 1248 
L 3405 1069 
z
M 1702 5350 
C 1363 4384 806 3424 205 2797 
C 294 2688 435 2438 480 2323 
C 666 2528 851 2758 1024 3008 
L 1024 -499 
L 1485 -499 
L 1485 3750 
C 1747 4218 1978 4717 2163 5216 
L 1702 5350 
z
" transform="scale(0.015625)"/>
       <path id="NotoSansCJKtc-Regular-7f8e" d="M 3232 800 
C 4122 442 5280 -134 5843 -538 
L 6074 -122 
C 5491 269 4326 826 3443 1158 
L 3232 800 
z
M 4448 5402 
C 4320 5126 4083 4742 3891 4480 
L 2195 4480 
L 2432 4589 
C 2330 4819 2099 5152 1869 5402 
L 1446 5222 
C 1645 5005 1837 4710 1946 4480 
L 589 4480 
L 589 4051 
L 2944 4051 
L 2944 3526 
L 941 3526 
L 941 3110 
L 2944 3110 
L 2944 2566 
L 358 2566 
L 358 2138 
L 2893 2138 
C 2867 1965 2842 1798 2803 1645 
L 499 1645 
L 499 1229 
L 2669 1229 
C 2381 563 1747 154 262 -64 
C 352 -173 467 -371 506 -493 
C 2208 -211 2893 339 3200 1229 
L 5971 1229 
L 5971 1645 
L 3315 1645 
C 3347 1798 3373 1965 3392 2138 
L 6080 2138 
L 6080 2566 
L 3430 2566 
L 3430 3110 
L 5491 3110 
L 5491 3526 
L 3430 3526 
L 3430 4051 
L 5805 4051 
L 5805 4480 
L 4422 4480 
C 4595 4710 4787 4986 4947 5248 
L 4448 5402 
z
" transform="scale(0.015625)"/>
       <path id="NotoSansCJKtc-Regular-5143" d="M 941 4877 
L 941 4416 
L 5485 4416 
L 5485 4877 
L 941 4877 
z
M 378 3085 
L 378 2611 
L 2010 2611 
C 1914 1414 1677 397 307 -122 
C 416 -211 557 -384 608 -493 
C 2099 102 2406 1235 2522 2611 
L 3731 2611 
L 3731 320 
C 3731 -237 3885 -397 4461 -397 
C 4582 -397 5261 -397 5389 -397 
C 5946 -397 6074 -96 6131 1005 
C 5997 1037 5792 1126 5677 1216 
C 5658 230 5613 58 5350 58 
C 5197 58 4634 58 4518 58 
C 4269 58 4218 96 4218 326 
L 4218 2611 
L 6029 2611 
L 6029 3085 
L 378 3085 
z
" transform="scale(0.015625)"/>
      </defs>
      <use xlink:href="#NotoSansCJKtc-Regular-5341"/>
      <use xlink:href="#NotoSansCJKtc-Regular-5104" transform="translate(99.999985 0)"/>
      <use xlink:href="#NotoSansCJKtc-Regular-7f8e" transform="translate(199.999969 0)"/>
      <use xlink:href="#NotoSansCJKtc-Regular-5143" transform="translate(299.999954 0)"/>
     </g>
    </g>
   </g>
   <g id="line2d_10">
    <path d="M 46.44 292.824 
L 572.76 292.824 
" clip-path="url(#p38f1083c0e)" style="fill: none; stroke: #c9c5c0; stroke-width: 0.9; stroke-linecap: square"/>
   </g>
   <g id="patch_7">
    <path d="M 46.44 292.824 
L 572.76 292.824 
" style="fill: none; stroke: #c9c5c0; stroke-width: 0.9; stroke-linejoin: miter; stroke-linecap: square"/>
   </g>
  </g>
  <g id="text_11">
   <!-- Ciena 自 FY27 起的新分部切分：2029 年 TAM 共 520 億美元 -->
   <g style="fill: #14161a" transform="translate(46.44 27.446547) scale(0.145 -0.145)">
    <defs>
     <path id="NotoSansCJKtc-Bold-43" d="M 2509 -90 
C 3130 -90 3635 154 4026 608 
L 3520 1197 
C 3270 922 2957 730 2547 730 
C 1798 730 1318 1350 1318 2381 
C 1318 3398 1850 4013 2566 4013 
C 2925 4013 3200 3846 3443 3616 
L 3936 4218 
C 3629 4538 3155 4826 2547 4826 
C 1350 4826 346 3910 346 2349 
C 346 768 1318 -90 2509 -90 
z
" transform="scale(0.015625)"/>
     <path id="NotoSansCJKtc-Bold-69" d="M 506 0 
L 1446 0 
L 1446 3584 
L 506 3584 
L 506 0 
z
M 979 4166 
C 1299 4166 1523 4365 1523 4678 
C 1523 4986 1299 5190 979 5190 
C 646 5190 435 4986 435 4678 
C 435 4365 646 4166 979 4166 
z
" transform="scale(0.015625)"/>
     <path id="NotoSansCJKtc-Bold-65" d="M 2067 -90 
C 2509 -90 2963 64 3315 307 
L 2995 883 
C 2733 723 2483 640 2195 640 
C 1658 640 1274 941 1197 1523 
L 3405 1523 
C 3430 1613 3450 1786 3450 1958 
C 3450 2957 2938 3674 1952 3674 
C 1101 3674 282 2950 282 1792 
C 282 608 1062 -90 2067 -90 
z
M 1178 2157 
C 1254 2675 1587 2944 1965 2944 
C 2432 2944 2643 2637 2643 2157 
L 1178 2157 
z
" transform="scale(0.015625)"/>
     <path id="NotoSansCJKtc-Bold-6e" d="M 506 0 
L 1446 0 
L 1446 2464 
C 1709 2726 1901 2867 2189 2867 
C 2541 2867 2694 2675 2694 2118 
L 2694 0 
L 3635 0 
L 3635 2234 
C 3635 3136 3302 3674 2528 3674 
C 2042 3674 1677 3418 1363 3110 
L 1344 3110 
L 1274 3584 
L 506 3584 
L 506 0 
z
" transform="scale(0.015625)"/>
     <path id="NotoSansCJKtc-Bold-61" d="M 1382 -90 
C 1798 -90 2157 109 2464 384 
L 2496 384 
L 2560 0 
L 3328 0 
L 3328 2093 
C 3328 3130 2861 3674 1952 3674 
C 1389 3674 877 3456 461 3200 
L 794 2573 
C 1126 2771 1446 2918 1779 2918 
C 2221 2918 2374 2650 2387 2298 
C 947 2144 326 1741 326 979 
C 326 365 742 -90 1382 -90 
z
M 1696 646 
C 1421 646 1222 768 1222 1050 
C 1222 1376 1510 1613 2387 1715 
L 2387 998 
C 2163 774 1965 646 1696 646 
z
" transform="scale(0.015625)"/>
     <path id="NotoSansCJKtc-Bold-20" transform="scale(0.015625)"/>
     <path id="NotoSansCJKtc-Bold-81ea" d="M 1696 2502 
L 4755 2502 
L 4755 1843 
L 1696 1843 
L 1696 2502 
z
M 1696 3213 
L 1696 3872 
L 4755 3872 
L 4755 3213 
L 1696 3213 
z
M 1696 1133 
L 4755 1133 
L 4755 467 
L 1696 467 
L 1696 1133 
z
M 2739 5446 
C 2707 5197 2637 4883 2560 4608 
L 922 4608 
L 922 -570 
L 1696 -570 
L 1696 -243 
L 4755 -243 
L 4755 -557 
L 5568 -557 
L 5568 4608 
L 3366 4608 
C 3469 4832 3571 5088 3667 5344 
L 2739 5446 
z
" transform="scale(0.015625)"/>
     <path id="NotoSansCJKtc-Bold-46" d="M 582 0 
L 1530 0 
L 1530 1920 
L 3213 1920 
L 3213 2714 
L 1530 2714 
L 1530 3949 
L 3501 3949 
L 3501 4742 
L 582 4742 
L 582 0 
z
" transform="scale(0.015625)"/>
     <path id="NotoSansCJKtc-Bold-59" d="M 1389 0 
L 2330 0 
L 2330 1734 
L 3757 4742 
L 2771 4742 
L 2298 3584 
C 2157 3232 2022 2899 1875 2534 
L 1850 2534 
C 1702 2899 1574 3232 1440 3584 
L 966 4742 
L -38 4742 
L 1389 1734 
L 1389 0 
z
" transform="scale(0.015625)"/>
     <path id="NotoSansCJKtc-Bold-32" d="M 275 0 
L 3450 0 
L 3450 794 
L 2426 794 
C 2202 794 1888 768 1645 736 
C 2509 1587 3226 2509 3226 3366 
C 3226 4250 2630 4826 1734 4826 
C 1088 4826 666 4576 224 4102 
L 749 3597 
C 986 3859 1267 4083 1613 4083 
C 2067 4083 2323 3789 2323 3322 
C 2323 2586 1568 1696 275 544 
L 275 0 
z
" transform="scale(0.015625)"/>
     <path id="NotoSansCJKtc-Bold-37" d="M 1190 0 
L 2138 0 
C 2221 1850 2368 2822 3469 4166 
L 3469 4742 
L 320 4742 
L 320 3949 
L 2451 3949 
C 1549 2694 1274 1645 1190 0 
z
" transform="scale(0.015625)"/>
     <path id="NotoSansCJKtc-Bold-8d77" d="M 4160 4435 
L 5133 4435 
L 5133 3386 
L 4160 3386 
L 4160 4435 
z
M 3418 5114 
L 3418 1734 
C 3418 922 3635 717 4346 717 
C 4506 717 5133 717 5299 717 
C 5907 717 6112 986 6195 1824 
C 5984 1875 5690 1997 5530 2112 
C 5498 1530 5453 1402 5229 1402 
C 5094 1402 4570 1402 4454 1402 
C 4198 1402 4160 1446 4160 1734 
L 4160 2701 
L 5875 2701 
L 5875 5114 
L 3418 5114 
z
M 493 2490 
C 480 1389 410 320 96 -333 
C 262 -403 602 -563 736 -659 
C 870 -346 973 38 1043 467 
C 1542 -250 2310 -410 3501 -410 
L 5984 -410 
C 6029 -179 6163 173 6278 346 
C 5696 320 3987 320 3501 326 
C 3008 326 2598 352 2266 448 
L 2266 1510 
L 3174 1510 
L 3174 2170 
L 2266 2170 
L 2266 2861 
L 3232 2861 
L 3232 3539 
L 2118 3539 
L 2118 4134 
L 3072 4134 
L 3072 4800 
L 2118 4800 
L 2118 5421 
L 1402 5421 
L 1402 4800 
L 448 4800 
L 448 4134 
L 1402 4134 
L 1402 3539 
L 269 3539 
L 269 2861 
L 1562 2861 
L 1562 870 
C 1395 1050 1267 1286 1158 1600 
C 1178 1875 1190 2150 1197 2438 
L 493 2490 
z
" transform="scale(0.015625)"/>
     <path id="NotoSansCJKtc-Bold-7684" d="M 3430 2598 
C 3744 2131 4141 1498 4320 1107 
L 4973 1504 
C 4774 1882 4346 2496 4032 2938 
L 3430 2598 
z
M 3744 5434 
C 3558 4672 3251 3898 2880 3347 
L 2880 4397 
L 1888 4397 
C 1997 4666 2112 4998 2214 5318 
L 1382 5440 
C 1357 5133 1280 4717 1197 4397 
L 467 4397 
L 467 -384 
L 1165 -384 
L 1165 90 
L 2880 90 
L 2880 3098 
C 3053 2989 3270 2829 3379 2726 
C 3578 3002 3770 3354 3942 3744 
L 5318 3744 
C 5254 1478 5171 512 4973 307 
C 4896 218 4826 198 4698 198 
C 4531 198 4147 198 3738 237 
C 3872 26 3974 -301 3987 -512 
C 4365 -525 4755 -531 4998 -499 
C 5261 -454 5440 -384 5613 -141 
C 5882 198 5952 1222 6035 4102 
C 6042 4192 6042 4448 6042 4448 
L 4230 4448 
C 4326 4717 4416 4992 4486 5261 
L 3744 5434 
z
M 1165 3731 
L 2189 3731 
L 2189 2688 
L 1165 2688 
L 1165 3731 
z
M 1165 762 
L 1165 2022 
L 2189 2022 
L 2189 762 
L 1165 762 
z
" transform="scale(0.015625)"/>
     <path id="NotoSansCJKtc-Bold-65b0" d="M 730 1408 
C 602 1005 384 563 166 262 
C 307 186 557 13 672 -83 
C 896 250 1158 781 1318 1229 
L 730 1408 
z
M 2355 1203 
C 2534 909 2752 499 2854 243 
L 3315 525 
C 3245 301 3149 90 3027 -102 
C 3187 -179 3494 -422 3622 -557 
C 4173 262 4256 1594 4256 2534 
L 4256 2611 
L 4851 2611 
L 4851 -544 
L 5594 -544 
L 5594 2611 
L 6195 2611 
L 6195 3322 
L 4256 3322 
L 4256 4326 
C 4883 4442 5549 4608 6080 4813 
L 5491 5382 
C 5024 5165 4243 4954 3539 4826 
L 3539 2534 
C 3539 1952 3520 1248 3347 634 
C 3232 877 3034 1216 2854 1478 
L 2355 1203 
z
M 1299 4179 
L 2246 4179 
C 2182 3942 2067 3610 1971 3373 
L 1030 3373 
L 1504 3507 
C 1472 3686 1389 3962 1299 4179 
z
M 1248 5312 
C 1312 5158 1382 4973 1440 4800 
L 339 4800 
L 339 4179 
L 1210 4179 
L 678 4051 
C 755 3840 832 3571 864 3373 
L 243 3373 
L 243 2746 
L 1478 2746 
L 1478 2253 
L 282 2253 
L 282 1606 
L 1478 1606 
L 1478 -525 
L 2221 -525 
L 2221 1606 
L 3219 1606 
L 3219 2253 
L 2221 2253 
L 2221 2746 
L 3328 2746 
L 3328 3373 
L 2656 3373 
C 2746 3578 2848 3827 2944 4077 
L 2394 4179 
L 3226 4179 
L 3226 4800 
L 2304 4800 
C 2227 5018 2112 5293 2016 5498 
L 1248 5312 
z
" transform="scale(0.015625)"/>
     <path id="NotoSansCJKtc-Bold-5206" d="M 2854 5338 
L 2854 4627 
L 3866 4627 
C 4096 4083 4422 3546 4838 3085 
L 1504 3085 
C 1926 3635 2278 4301 2522 5024 
L 1709 5216 
C 1414 4256 845 3392 115 2874 
C 301 2746 627 2458 762 2304 
C 928 2445 1094 2598 1248 2778 
L 1248 2342 
L 2330 2342 
C 2202 1408 1869 563 416 90 
C 602 -83 826 -403 915 -614 
C 2592 6 3014 1107 3168 2342 
L 4435 2342 
C 4378 1005 4307 429 4179 288 
C 4109 211 4032 198 3917 198 
C 3763 198 3424 205 3072 230 
C 3206 13 3309 -314 3322 -544 
C 3699 -557 4077 -557 4294 -525 
C 4544 -493 4717 -429 4883 -218 
C 5101 51 5184 794 5248 2682 
C 5402 2547 5568 2426 5741 2317 
C 5862 2534 6125 2867 6285 3027 
C 5389 3488 4730 4397 4435 5338 
L 2854 5338 
z
" transform="scale(0.015625)"/>
     <path id="NotoSansCJKtc-Bold-90e8" d="M 3898 5133 
L 3898 -538 
L 4576 -538 
L 4576 4442 
L 5286 4442 
C 5146 3949 4941 3296 4762 2829 
C 5248 2317 5382 1856 5382 1504 
C 5382 1286 5344 1126 5235 1062 
C 5171 1024 5088 1005 5005 998 
C 4902 998 4781 998 4640 1018 
C 4755 813 4813 499 4826 301 
C 4998 294 5178 301 5318 320 
C 5485 339 5632 384 5747 474 
C 5984 640 6086 954 6086 1414 
C 6086 1830 5990 2342 5472 2918 
C 5715 3475 5984 4211 6202 4832 
L 5664 5165 
L 5555 5133 
L 3898 5133 
z
M 1440 4045 
L 2541 4045 
C 2458 3725 2317 3315 2176 3008 
L 1382 3008 
L 1792 3123 
C 1734 3379 1600 3750 1440 4045 
z
M 1440 5293 
C 1510 5126 1587 4915 1645 4730 
L 429 4730 
L 429 4045 
L 1293 4045 
L 762 3910 
C 902 3635 1037 3270 1094 3008 
L 269 3008 
L 269 2317 
L 3674 2317 
L 3674 3008 
L 2906 3008 
C 3034 3283 3168 3616 3302 3930 
L 2784 4045 
L 3526 4045 
L 3526 4730 
L 2445 4730 
C 2374 4954 2253 5254 2138 5491 
L 1440 5293 
z
M 563 1856 
L 563 -563 
L 1280 -563 
L 1280 -275 
L 2662 -275 
L 2662 -531 
L 3424 -531 
L 3424 1856 
L 563 1856 
z
M 1280 390 
L 1280 1171 
L 2662 1171 
L 2662 390 
L 1280 390 
z
" transform="scale(0.015625)"/>
     <path id="NotoSansCJKtc-Bold-5207" d="M 2637 4960 
L 2637 4230 
L 3533 4230 
C 3501 2413 3418 883 1971 19 
C 2163 -122 2400 -397 2515 -602 
C 4102 416 4262 2189 4301 4230 
L 5280 4230 
C 5222 1632 5146 602 4966 378 
C 4896 282 4832 256 4710 256 
C 4563 256 4269 256 3923 282 
C 4064 64 4160 -282 4173 -499 
C 4518 -512 4864 -518 5094 -480 
C 5344 -429 5504 -352 5677 -90 
C 5926 262 5997 1376 6067 4576 
C 6074 4678 6080 4960 6080 4960 
L 2637 4960 
z
M 896 256 
C 1056 397 1306 544 2816 1229 
C 2765 1395 2714 1702 2694 1914 
L 1632 1459 
L 1632 3046 
L 2810 3277 
L 2688 3974 
L 1632 3776 
L 1632 5178 
L 896 5178 
L 896 3635 
L 128 3488 
L 250 2778 
L 896 2906 
L 896 1478 
C 896 1197 698 1011 550 928 
C 672 768 838 442 896 256 
z
" transform="scale(0.015625)"/>
     <path id="NotoSansCJKtc-Bold-ff1a" d="M 3200 3302 
C 3539 3302 3808 3558 3808 3898 
C 3808 4250 3539 4506 3200 4506 
C 2861 4506 2592 4250 2592 3898 
C 2592 3558 2861 3302 3200 3302 
z
M 3200 250 
C 3539 250 3808 506 3808 845 
C 3808 1197 3539 1453 3200 1453 
C 2861 1453 2592 1197 2592 845 
C 2592 506 2861 250 3200 250 
z
" transform="scale(0.015625)"/>
     <path id="NotoSansCJKtc-Bold-30" d="M 1888 -90 
C 2854 -90 3494 755 3494 2394 
C 3494 4019 2854 4826 1888 4826 
C 922 4826 282 4026 282 2394 
C 282 755 922 -90 1888 -90 
z
M 1888 646 
C 1478 646 1171 1056 1171 2394 
C 1171 3712 1478 4102 1888 4102 
C 2298 4102 2598 3712 2598 2394 
C 2598 1056 2298 646 1888 646 
z
" transform="scale(0.015625)"/>
     <path id="NotoSansCJKtc-Bold-39" d="M 1632 -90 
C 2573 -90 3450 685 3450 2477 
C 3450 4122 2650 4826 1747 4826 
C 934 4826 256 4218 256 3245 
C 256 2240 819 1754 1613 1754 
C 1933 1754 2336 1946 2586 2266 
C 2541 1082 2106 678 1581 678 
C 1299 678 1005 826 832 1018 
L 333 448 
C 614 160 1043 -90 1632 -90 
z
M 2573 2938 
C 2342 2566 2048 2426 1792 2426 
C 1382 2426 1120 2688 1120 3245 
C 1120 3827 1408 4115 1760 4115 
C 2163 4115 2490 3795 2573 2938 
z
" transform="scale(0.015625)"/>
     <path id="NotoSansCJKtc-Bold-5e74" d="M 256 1536 
L 256 800 
L 3155 800 
L 3155 -576 
L 3949 -576 
L 3949 800 
L 6144 800 
L 6144 1536 
L 3949 1536 
L 3949 2502 
L 5645 2502 
L 5645 3219 
L 3949 3219 
L 3949 3994 
L 5798 3994 
L 5798 4736 
L 2163 4736 
C 2240 4909 2310 5082 2374 5261 
L 1587 5466 
C 1312 4627 813 3808 237 3315 
C 429 3200 755 2950 902 2816 
C 1210 3123 1510 3533 1779 3994 
L 3155 3994 
L 3155 3219 
L 1274 3219 
L 1274 1536 
L 256 1536 
z
M 2042 1536 
L 2042 2502 
L 3155 2502 
L 3155 1536 
L 2042 1536 
z
" transform="scale(0.015625)"/>
     <path id="NotoSansCJKtc-Bold-54" d="M 1523 0 
L 2470 0 
L 2470 3949 
L 3808 3949 
L 3808 4742 
L 192 4742 
L 192 3949 
L 1523 3949 
L 1523 0 
z
" transform="scale(0.015625)"/>
     <path id="NotoSansCJKtc-Bold-41" d="M -26 0 
L 934 0 
L 1267 1216 
L 2797 1216 
L 3130 0 
L 4128 0 
L 2611 4742 
L 1491 4742 
L -26 0 
z
M 1472 1952 
L 1613 2470 
C 1754 2963 1888 3501 2016 4019 
L 2042 4019 
C 2182 3514 2310 2963 2458 2470 
L 2598 1952 
L 1472 1952 
z
" transform="scale(0.015625)"/>
     <path id="NotoSansCJKtc-Bold-4d" d="M 582 0 
L 1434 0 
L 1434 1978 
C 1434 2432 1357 3085 1312 3533 
L 1338 3533 
L 1715 2419 
L 2451 429 
L 2995 429 
L 3725 2419 
L 4109 3533 
L 4141 3533 
C 4090 3085 4019 2432 4019 1978 
L 4019 0 
L 4883 0 
L 4883 4742 
L 3834 4742 
L 3040 2515 
C 2944 2227 2861 1914 2758 1613 
L 2726 1613 
C 2630 1914 2541 2227 2438 2515 
L 1632 4742 
L 582 4742 
L 582 0 
z
" transform="scale(0.015625)"/>
     <path id="NotoSansCJKtc-Bold-5171" d="M 3648 877 
C 4211 435 4979 -192 5331 -576 
L 6093 -128 
C 5690 269 4890 864 4346 1261 
L 3648 877 
z
M 1939 1235 
C 1606 806 928 282 320 -38 
C 499 -166 787 -410 947 -576 
C 1574 -211 2278 371 2758 922 
L 1939 1235 
z
M 506 4205 
L 506 3462 
L 1664 3462 
L 1664 2234 
L 282 2234 
L 282 1485 
L 6138 1485 
L 6138 2234 
L 4742 2234 
L 4742 3462 
L 5939 3462 
L 5939 4205 
L 4742 4205 
L 4742 5395 
L 3936 5395 
L 3936 4205 
L 2464 4205 
L 2464 5395 
L 1664 5395 
L 1664 4205 
L 506 4205 
z
M 2464 2234 
L 2464 3462 
L 3936 3462 
L 3936 2234 
L 2464 2234 
z
" transform="scale(0.015625)"/>
     <path id="NotoSansCJKtc-Bold-35" d="M 1773 -90 
C 2637 -90 3424 518 3424 1574 
C 3424 2605 2765 3072 1965 3072 
C 1747 3072 1581 3034 1395 2944 
L 1485 3949 
L 3206 3949 
L 3206 4742 
L 672 4742 
L 544 2438 
L 973 2163 
C 1254 2342 1408 2406 1683 2406 
C 2157 2406 2483 2099 2483 1549 
C 2483 992 2138 678 1645 678 
C 1210 678 870 896 602 1158 
L 166 557 
C 525 205 1018 -90 1773 -90 
z
" transform="scale(0.015625)"/>
     <path id="NotoSansCJKtc-Bold-5104" d="M 3168 1939 
L 5018 1939 
L 5018 1670 
L 3168 1670 
L 3168 1939 
z
M 3168 2605 
L 5018 2605 
L 5018 2342 
L 3168 2342 
L 3168 2605 
z
M 2227 973 
C 2118 621 1914 173 1722 -115 
L 2330 -435 
C 2528 -115 2701 358 2822 717 
L 2227 973 
z
M 2886 934 
L 2886 205 
C 2886 -378 3040 -563 3744 -563 
C 3885 -563 4435 -563 4576 -563 
C 5075 -563 5261 -403 5338 224 
C 5152 269 4870 365 4730 461 
C 4710 90 4672 32 4499 32 
C 4371 32 3936 32 3840 32 
C 3616 32 3578 51 3578 205 
L 3578 934 
L 2886 934 
z
M 5024 787 
C 5254 410 5542 -115 5664 -435 
L 6298 -147 
C 6163 160 5856 666 5619 1030 
L 5024 787 
z
M 3450 4326 
L 4691 4326 
C 4653 4198 4602 4045 4544 3904 
L 3610 3904 
L 3642 3910 
C 3610 4032 3533 4198 3450 4326 
z
M 3546 5338 
C 3603 5197 3667 5030 3718 4883 
L 2221 4883 
L 2221 4326 
L 3187 4326 
L 2778 4250 
C 2829 4147 2886 4019 2925 3904 
L 1965 3904 
L 1965 3309 
L 6221 3309 
L 6221 3904 
L 5286 3904 
L 5478 4237 
L 5082 4326 
L 6035 4326 
L 6035 4883 
L 4499 4883 
C 4454 5056 4358 5280 4262 5453 
L 3546 5338 
z
M 3475 1037 
C 3750 813 4115 493 4282 294 
L 4774 698 
C 4640 838 4410 1037 4192 1210 
L 5779 1210 
L 5779 3066 
L 2445 3066 
L 2445 1210 
L 3699 1210 
L 3475 1037 
z
M 1549 5414 
C 1235 4499 698 3590 134 3008 
C 262 2816 474 2400 544 2208 
C 666 2336 787 2483 902 2637 
L 902 -563 
L 1632 -563 
L 1632 3776 
C 1882 4237 2099 4717 2272 5184 
L 1549 5414 
z
" transform="scale(0.015625)"/>
     <path id="NotoSansCJKtc-Bold-7f8e" d="M 3226 531 
C 4051 230 5229 -262 5792 -589 
L 6157 77 
C 5619 358 4608 755 3834 1018 
L 5958 1018 
L 5958 1664 
L 3450 1664 
L 3501 1997 
L 6144 1997 
L 6144 2662 
L 3584 2662 
L 3584 3002 
L 5555 3002 
L 5555 3648 
L 3584 3648 
L 3584 3974 
L 5869 3974 
L 5869 4646 
L 4627 4646 
C 4768 4832 4915 5050 5056 5274 
L 4230 5485 
C 4122 5229 3936 4890 3770 4646 
L 2355 4646 
L 2547 4730 
C 2464 4947 2266 5261 2067 5485 
L 1382 5216 
C 1517 5050 1651 4832 1741 4646 
L 518 4646 
L 518 3974 
L 2790 3974 
L 2790 3648 
L 890 3648 
L 890 3002 
L 2790 3002 
L 2790 2662 
L 320 2662 
L 320 1997 
L 2688 1997 
L 2637 1664 
L 461 1664 
L 461 1018 
L 2387 1018 
C 2086 582 1485 301 186 128 
C 333 -38 512 -358 570 -563 
C 2285 -282 2976 230 3283 1018 
L 3514 1018 
L 3226 531 
z
" transform="scale(0.015625)"/>
     <path id="NotoSansCJKtc-Bold-5143" d="M 922 4986 
L 922 4250 
L 5491 4250 
L 5491 4986 
L 922 4986 
z
M 339 3245 
L 339 2502 
L 1792 2502 
C 1715 1440 1536 563 198 64 
C 371 -77 582 -365 666 -557 
C 2214 70 2509 1165 2618 2502 
L 3590 2502 
L 3590 531 
C 3590 -218 3776 -461 4499 -461 
C 4646 -461 5126 -461 5280 -461 
C 5933 -461 6125 -128 6202 1024 
C 5990 1075 5658 1210 5491 1344 
C 5459 416 5427 256 5210 256 
C 5088 256 4717 256 4627 256 
C 4416 256 4384 294 4384 538 
L 4384 2502 
L 6080 2502 
L 6080 3245 
L 339 3245 
z
" transform="scale(0.015625)"/>
    </defs>
    <use xlink:href="#NotoSansCJKtc-Bold-43"/>
    <use xlink:href="#NotoSansCJKtc-Bold-69" transform="translate(65.599991 0)"/>
    <use xlink:href="#NotoSansCJKtc-Bold-65" transform="translate(95.999985 0)"/>
    <use xlink:href="#NotoSansCJKtc-Bold-6e" transform="translate(154.099976 0)"/>
    <use xlink:href="#NotoSansCJKtc-Bold-61" transform="translate(218.199966 0)"/>
    <use xlink:href="#NotoSansCJKtc-Bold-20" transform="translate(277.299957 0)"/>
    <use xlink:href="#NotoSansCJKtc-Bold-81ea" transform="translate(299.999954 0)"/>
    <use xlink:href="#NotoSansCJKtc-Bold-20" transform="translate(399.999939 0)"/>
    <use xlink:href="#NotoSansCJKtc-Bold-46" transform="translate(422.699936 0)"/>
    <use xlink:href="#NotoSansCJKtc-Bold-59" transform="translate(481.199921 0)"/>
    <use xlink:href="#NotoSansCJKtc-Bold-32" transform="translate(539.199905 0)"/>
    <use xlink:href="#NotoSansCJKtc-Bold-37" transform="translate(598.19989 0)"/>
    <use xlink:href="#NotoSansCJKtc-Bold-20" transform="translate(657.199875 0)"/>
    <use xlink:href="#NotoSansCJKtc-Bold-8d77" transform="translate(679.899872 0)"/>
    <use xlink:href="#NotoSansCJKtc-Bold-7684" transform="translate(779.899857 0)"/>
    <use xlink:href="#NotoSansCJKtc-Bold-65b0" transform="translate(879.899841 0)"/>
    <use xlink:href="#NotoSansCJKtc-Bold-5206" transform="translate(979.899826 0)"/>
    <use xlink:href="#NotoSansCJKtc-Bold-90e8" transform="translate(1079.899811 0)"/>
    <use xlink:href="#NotoSansCJKtc-Bold-5207" transform="translate(1179.899796 0)"/>
    <use xlink:href="#NotoSansCJKtc-Bold-5206" transform="translate(1279.89978 0)"/>
    <use xlink:href="#NotoSansCJKtc-Bold-ff1a" transform="translate(1379.899765 0)"/>
    <use xlink:href="#NotoSansCJKtc-Bold-32" transform="translate(1479.89975 0)"/>
    <use xlink:href="#NotoSansCJKtc-Bold-30" transform="translate(1538.899734 0)"/>
    <use xlink:href="#NotoSansCJKtc-Bold-32" transform="translate(1597.899719 0)"/>
    <use xlink:href="#NotoSansCJKtc-Bold-39" transform="translate(1656.899704 0)"/>
    <use xlink:href="#NotoSansCJKtc-Bold-20" transform="translate(1715.899689 0)"/>
    <use xlink:href="#NotoSansCJKtc-Bold-5e74" transform="translate(1738.599686 0)"/>
    <use xlink:href="#NotoSansCJKtc-Bold-20" transform="translate(1838.59967 0)"/>
    <use xlink:href="#NotoSansCJKtc-Bold-54" transform="translate(1861.299667 0)"/>
    <use xlink:href="#NotoSansCJKtc-Bold-41" transform="translate(1923.799652 0)"/>
    <use xlink:href="#NotoSansCJKtc-Bold-4d" transform="translate(1987.899643 0)"/>
    <use xlink:href="#NotoSansCJKtc-Bold-20" transform="translate(2073.199631 0)"/>
    <use xlink:href="#NotoSansCJKtc-Bold-5171" transform="translate(2095.899628 0)"/>
    <use xlink:href="#NotoSansCJKtc-Bold-20" transform="translate(2195.899612 0)"/>
    <use xlink:href="#NotoSansCJKtc-Bold-35" transform="translate(2218.599609 0)"/>
    <use xlink:href="#NotoSansCJKtc-Bold-32" transform="translate(2277.599594 0)"/>
    <use xlink:href="#NotoSansCJKtc-Bold-30" transform="translate(2336.599579 0)"/>
    <use xlink:href="#NotoSansCJKtc-Bold-20" transform="translate(2395.599564 0)"/>
    <use xlink:href="#NotoSansCJKtc-Bold-5104" transform="translate(2418.299561 0)"/>
    <use xlink:href="#NotoSansCJKtc-Bold-7f8e" transform="translate(2518.299545 0)"/>
    <use xlink:href="#NotoSansCJKtc-Bold-5143" transform="translate(2618.29953 0)"/>
   </g>
  </g>
  <g id="text_12">
   <!-- 公司 FY29 營收目標 140 億美元，約為此 TAM 的四分之一多一點 -->
   <g style="fill: #6b7076" transform="translate(46.44 46.414575) scale(0.1 -0.1)">
    <defs>
     <path id="NotoSansCJKtc-Regular-516c" d="M 2029 5190 
C 1626 4211 954 3270 237 2669 
C 358 2579 570 2387 659 2285 
C 1376 2944 2086 3968 2547 5024 
L 2029 5190 
z
M 1043 -198 
C 1280 -102 1638 -83 4986 141 
C 5120 -83 5235 -294 5325 -467 
L 5811 -205 
C 5504 365 4883 1267 4365 1958 
L 3904 1754 
C 4160 1408 4442 992 4704 595 
L 1734 422 
C 2400 1190 3059 2189 3616 3181 
L 3078 3411 
C 2541 2317 1715 1171 1446 877 
C 1203 570 1024 358 845 320 
C 922 173 1011 -90 1043 -198 
z
M 2938 5216 
L 2938 4723 
L 4134 4723 
C 4493 3757 5114 2822 5837 2278 
C 5920 2426 6099 2630 6214 2733 
C 5453 3226 4806 4192 4499 5216 
L 2938 5216 
z
" transform="scale(0.015625)"/>
     <path id="NotoSansCJKtc-Regular-53f8" d="M 608 3827 
L 608 3405 
L 4467 3405 
L 4467 3827 
L 608 3827 
z
M 563 4966 
L 563 4506 
L 5197 4506 
L 5197 211 
C 5197 90 5158 51 5043 51 
C 4909 45 4467 38 4026 58 
C 4096 -90 4173 -326 4192 -467 
C 4768 -467 5165 -461 5389 -378 
C 5619 -294 5683 -128 5683 205 
L 5683 4966 
L 563 4966 
z
M 1485 2285 
L 3552 2285 
L 3552 1088 
L 1485 1088 
L 1485 2285 
z
M 1018 2714 
L 1018 186 
L 1485 186 
L 1485 666 
L 4019 666 
L 4019 2714 
L 1018 2714 
z
" transform="scale(0.015625)"/>
     <path id="NotoSansCJKtc-Regular-20" transform="scale(0.015625)"/>
     <path id="NotoSansCJKtc-Regular-46" d="M 646 0 
L 1235 0 
L 1235 2106 
L 3027 2106 
L 3027 2605 
L 1235 2605 
L 1235 4192 
L 3347 4192 
L 3347 4691 
L 646 4691 
L 646 0 
z
" transform="scale(0.015625)"/>
     <path id="NotoSansCJKtc-Regular-59" d="M 1402 0 
L 1990 0 
L 1990 1818 
L 3405 4691 
L 2790 4691 
L 2189 3366 
C 2042 3021 1882 2688 1715 2336 
L 1690 2336 
C 1523 2688 1382 3021 1229 3366 
L 621 4691 
L -6 4691 
L 1402 1818 
L 1402 0 
z
" transform="scale(0.015625)"/>
     <path id="NotoSansCJKtc-Regular-39" d="M 1504 -83 
C 2381 -83 3206 646 3206 2547 
C 3206 4038 2528 4774 1626 4774 
C 896 4774 282 4166 282 3251 
C 282 2285 794 1779 1574 1779 
C 1965 1779 2368 2003 2656 2349 
C 2611 896 2086 403 1485 403 
C 1178 403 896 538 691 762 
L 371 397 
C 634 122 992 -83 1504 -83 
z
M 2650 2842 
C 2336 2394 1984 2214 1670 2214 
C 1114 2214 832 2624 832 3251 
C 832 3898 1178 4320 1632 4320 
C 2227 4320 2586 3808 2650 2842 
z
" transform="scale(0.015625)"/>
     <path id="NotoSansCJKtc-Regular-71df" d="M 1933 2234 
L 4474 2234 
L 4474 1696 
L 1933 1696 
L 1933 2234 
z
M 2726 5069 
C 2618 4877 2413 4589 2259 4403 
L 2547 4275 
C 2714 4435 2931 4678 3117 4915 
L 2726 5069 
z
M 5542 5082 
C 5427 4883 5197 4582 5024 4390 
L 5325 4256 
C 5510 4422 5747 4678 5958 4922 
L 5542 5082 
z
M 480 4998 
C 653 4800 870 4525 979 4352 
L 1280 4608 
C 1178 4762 947 5024 774 5216 
L 480 4998 
z
M 3206 5037 
C 3373 4838 3590 4563 3699 4397 
L 4006 4646 
C 3898 4800 3674 5056 3494 5254 
L 3206 5037 
z
M 1062 986 
L 1062 -518 
L 1517 -518 
L 1517 -333 
L 5011 -333 
L 5011 -512 
L 5485 -512 
L 5485 986 
L 2906 986 
L 3098 1370 
L 4947 1370 
L 4947 2560 
L 1478 2560 
L 1478 1370 
L 2643 1370 
L 2483 986 
L 1062 986 
z
M 1517 26 
L 1517 627 
L 5011 627 
L 5011 26 
L 1517 26 
z
M 4384 5376 
C 4326 4422 4115 3962 3021 3712 
C 3110 3622 3226 3456 3264 3347 
C 3853 3494 4218 3712 4448 4019 
C 4864 3795 5344 3507 5626 3302 
L 531 3302 
L 531 2138 
L 992 2138 
L 992 2918 
L 5402 2918 
L 5402 2138 
L 5888 2138 
L 5888 3302 
L 5709 3302 
L 5965 3597 
C 5664 3808 5094 4134 4640 4365 
C 4749 4640 4800 4973 4826 5376 
L 4384 5376 
z
M 1677 5376 
C 1626 4378 1408 3910 288 3654 
C 371 3578 493 3411 531 3309 
C 1133 3462 1510 3680 1741 4000 
C 2061 3802 2419 3558 2618 3392 
L 2918 3699 
C 2688 3872 2259 4134 1920 4339 
C 2035 4621 2080 4960 2106 5376 
L 1677 5376 
z
" transform="scale(0.015625)"/>
     <path id="NotoSansCJKtc-Regular-6536" d="M 3763 3674 
L 5152 3674 
C 5018 2861 4806 2163 4499 1587 
C 4166 2176 3910 2854 3731 3578 
L 3763 3674 
z
M 3693 5376 
C 3507 4262 3168 3213 2618 2566 
C 2726 2470 2899 2259 2963 2163 
C 3155 2400 3322 2675 3475 2982 
C 3674 2310 3923 1690 4237 1152 
C 3866 614 3373 192 2726 -122 
C 2829 -224 2982 -422 3040 -518 
C 3648 -192 4128 224 4506 736 
C 4877 218 5312 -198 5837 -486 
C 5907 -365 6061 -186 6170 -96 
C 5619 173 5158 608 4781 1139 
C 5190 1824 5459 2662 5638 3674 
L 6118 3674 
L 6118 4128 
L 3910 4128 
C 4019 4499 4115 4896 4186 5299 
L 3693 5376 
z
M 589 640 
C 710 742 902 832 2074 1261 
L 2074 -518 
L 2547 -518 
L 2547 5280 
L 2074 5280 
L 2074 1728 
L 1088 1402 
L 1088 4666 
L 614 4666 
L 614 1517 
C 614 1261 486 1139 390 1082 
C 467 973 557 762 589 640 
z
" transform="scale(0.015625)"/>
     <path id="NotoSansCJKtc-Regular-76ee" d="M 1491 3008 
L 4858 3008 
L 4858 1952 
L 1491 1952 
L 1491 3008 
z
M 1491 3469 
L 1491 4506 
L 4858 4506 
L 4858 3469 
L 1491 3469 
z
M 1491 1491 
L 4858 1491 
L 4858 429 
L 1491 429 
L 1491 1491 
z
M 1011 4979 
L 1011 -474 
L 1491 -474 
L 1491 -38 
L 4858 -38 
L 4858 -474 
L 5357 -474 
L 5357 4979 
L 1011 4979 
z
" transform="scale(0.015625)"/>
     <path id="NotoSansCJKtc-Regular-6a19" d="M 4864 774 
C 5190 448 5549 -6 5715 -307 
L 6086 -77 
C 5920 218 5555 646 5216 973 
L 4864 774 
z
M 3078 966 
C 2874 576 2541 192 2189 -70 
C 2298 -134 2483 -262 2566 -333 
C 2899 -38 3264 410 3507 845 
L 3078 966 
z
M 2842 2413 
L 2842 2022 
L 5606 2022 
L 5606 2413 
L 2842 2413 
z
M 2566 4256 
L 2566 2746 
L 5907 2746 
L 5907 4256 
L 4851 4256 
L 4851 4678 
L 6010 4678 
L 6010 5075 
L 2419 5075 
L 2419 4678 
L 3546 4678 
L 3546 4256 
L 2566 4256 
z
M 3910 4678 
L 4486 4678 
L 4486 4256 
L 3910 4256 
L 3910 4678 
z
M 2970 3885 
L 3546 3885 
L 3546 3117 
L 2970 3117 
L 2970 3885 
z
M 3910 3885 
L 4486 3885 
L 4486 3117 
L 3910 3117 
L 3910 3885 
z
M 4851 3885 
L 5478 3885 
L 5478 3117 
L 4851 3117 
L 4851 3885 
z
M 2432 1581 
L 2432 1184 
L 3974 1184 
L 3974 -506 
L 4410 -506 
L 4410 1184 
L 6048 1184 
L 6048 1581 
L 2432 1581 
z
M 1274 5376 
L 1274 4141 
L 365 4141 
L 365 3693 
L 1203 3693 
C 998 2842 602 1824 205 1293 
C 288 1178 403 966 454 826 
C 755 1274 1056 2003 1274 2739 
L 1274 -506 
L 1709 -506 
L 1709 2771 
C 1888 2451 2086 2067 2176 1862 
L 2470 2202 
C 2362 2387 1869 3149 1709 3360 
L 1709 3693 
L 2419 3693 
L 2419 4141 
L 1709 4141 
L 1709 5376 
L 1274 5376 
z
" transform="scale(0.015625)"/>
     <path id="NotoSansCJKtc-Regular-34" d="M 2176 0 
L 2726 0 
L 2726 1293 
L 3354 1293 
L 3354 1760 
L 2726 1760 
L 2726 4691 
L 2080 4691 
L 128 1677 
L 128 1293 
L 2176 1293 
L 2176 0 
z
M 2176 1760 
L 736 1760 
L 1805 3360 
C 1939 3590 2067 3827 2182 4051 
L 2208 4051 
C 2195 3814 2176 3430 2176 3200 
L 2176 1760 
z
" transform="scale(0.015625)"/>
     <path id="NotoSansCJKtc-Regular-ff0c" d="M 2675 1203 
C 3347 1440 3782 1965 3782 2656 
C 3782 3104 3590 3392 3238 3392 
C 2976 3392 2752 3232 2752 2931 
C 2752 2630 2970 2477 3232 2477 
L 3341 2490 
C 3309 2048 3027 1747 2534 1542 
L 2675 1203 
z
" transform="scale(0.015625)"/>
     <path id="NotoSansCJKtc-Regular-7d04" d="M 3386 2630 
C 3821 2208 4301 1606 4499 1210 
L 4858 1491 
C 4653 1882 4154 2464 3725 2874 
L 3386 2630 
z
M 1446 1210 
C 1536 762 1619 173 1645 -218 
L 2054 -115 
C 2022 275 1933 845 1837 1306 
L 1446 1210 
z
M 678 1261 
C 582 742 435 166 256 -224 
C 371 -256 576 -326 672 -378 
C 832 19 1005 627 1107 1171 
L 678 1261 
z
M 2234 1318 
C 2387 928 2560 410 2637 77 
L 3014 218 
C 2938 544 2758 1050 2592 1440 
L 2234 1318 
z
M 3661 5376 
C 3456 4506 3104 3635 2656 3078 
C 2771 3014 2982 2874 3072 2803 
C 3258 3066 3437 3379 3597 3731 
L 5440 3731 
C 5370 1248 5280 294 5088 83 
C 5024 0 4947 -19 4826 -13 
C 4678 -13 4307 -13 3904 19 
C 3994 -115 4051 -320 4064 -461 
C 4422 -480 4800 -486 5011 -467 
C 5242 -442 5382 -390 5530 -198 
C 5766 102 5850 1069 5933 3936 
C 5933 4000 5939 4186 5939 4186 
L 3789 4186 
C 3923 4538 4038 4902 4134 5280 
L 3661 5376 
z
M 454 1536 
C 582 1606 806 1658 2464 1914 
C 2502 1786 2528 1664 2547 1562 
L 2963 1690 
C 2893 2022 2701 2579 2522 3002 
L 2131 2899 
C 2208 2714 2278 2509 2349 2304 
L 1133 2131 
C 1690 2694 2246 3392 2720 4102 
L 2310 4365 
C 2157 4096 1978 3827 1792 3578 
L 966 3507 
C 1376 3981 1779 4595 2118 5197 
L 1670 5389 
C 1344 4691 826 3962 666 3776 
C 506 3578 384 3450 269 3424 
C 326 3302 397 3078 422 2982 
C 518 3027 672 3059 1472 3155 
C 1190 2790 941 2515 819 2400 
C 602 2170 442 2022 294 1997 
C 352 1862 429 1632 454 1536 
z
" transform="scale(0.015625)"/>
     <path id="NotoSansCJKtc-Regular-70ba" d="M 4083 1197 
C 4275 934 4474 563 4550 326 
L 4902 474 
C 4826 704 4621 1069 4416 1325 
L 4083 1197 
z
M 1312 5184 
C 1562 4915 1830 4544 1946 4294 
L 2387 4499 
C 2259 4742 1978 5107 1734 5357 
L 1312 5184 
z
M 2182 1043 
C 2298 627 2368 96 2349 -250 
L 2771 -186 
C 2771 160 2707 685 2579 1094 
L 2182 1043 
z
M 3130 1101 
C 3283 742 3437 275 3482 -26 
L 3885 83 
C 3827 378 3674 838 3501 1184 
L 3130 1101 
z
M 1363 1184 
C 1242 691 992 122 640 -218 
L 1011 -474 
C 1395 -90 1619 525 1766 1056 
L 1363 1184 
z
M 3251 5382 
C 3142 5011 3008 4640 2848 4282 
L 525 4282 
L 525 3840 
L 2637 3840 
C 2086 2765 1280 1798 192 1178 
C 275 1075 397 890 454 774 
C 832 998 1178 1254 1491 1542 
L 5472 1542 
C 5370 525 5267 96 5126 -32 
C 5069 -90 5005 -96 4890 -96 
C 4768 -102 4461 -96 4134 -64 
C 4211 -192 4269 -378 4275 -506 
C 4608 -525 4922 -525 5088 -512 
C 5280 -499 5402 -461 5523 -333 
C 5728 -128 5843 410 5965 1760 
C 5971 1824 5984 1965 5984 1965 
L 5286 1965 
C 5370 2298 5459 2746 5530 3123 
L 4800 3123 
C 4883 3456 4979 3898 5050 4282 
L 3373 4282 
C 3507 4602 3629 4928 3738 5261 
L 3251 5382 
z
M 1914 1965 
C 2125 2195 2323 2445 2502 2701 
L 5005 2701 
C 4960 2445 4896 2182 4838 1965 
L 1914 1965 
z
M 3168 3840 
L 4518 3840 
C 4467 3584 4410 3328 4352 3123 
L 2778 3123 
C 2918 3354 3046 3597 3168 3840 
z
" transform="scale(0.015625)"/>
     <path id="NotoSansCJKtc-Regular-6b64" d="M 282 83 
L 371 -429 
C 1178 -269 2342 -58 3430 147 
L 3398 627 
L 2496 461 
L 2496 2938 
L 3398 2938 
L 3398 3398 
L 2496 3398 
L 2496 5376 
L 1997 5376 
L 1997 371 
L 1280 250 
L 1280 4077 
L 800 4077 
L 800 166 
L 282 83 
z
M 3718 5376 
L 3718 582 
C 3718 -115 3885 -301 4480 -301 
C 4602 -301 5325 -301 5459 -301 
C 6029 -301 6163 64 6221 1094 
C 6080 1126 5882 1216 5760 1312 
C 5728 403 5683 173 5414 173 
C 5261 173 4666 173 4544 173 
C 4269 173 4230 237 4230 570 
L 4230 2938 
L 5792 2938 
L 5792 3398 
L 4230 3398 
L 4230 5376 
L 3718 5376 
z
" transform="scale(0.015625)"/>
     <path id="NotoSansCJKtc-Regular-54" d="M 1619 0 
L 2214 0 
L 2214 4192 
L 3635 4192 
L 3635 4691 
L 198 4691 
L 198 4192 
L 1619 4192 
L 1619 0 
z
" transform="scale(0.015625)"/>
     <path id="NotoSansCJKtc-Regular-41" d="M 26 0 
L 621 0 
L 1075 1434 
L 2790 1434 
L 3238 0 
L 3866 0 
L 2272 4691 
L 1613 4691 
L 26 0 
z
M 1222 1901 
L 1453 2624 
C 1619 3155 1773 3661 1920 4211 
L 1946 4211 
C 2099 3667 2246 3155 2419 2624 
L 2643 1901 
L 1222 1901 
z
" transform="scale(0.015625)"/>
     <path id="NotoSansCJKtc-Regular-4d" d="M 646 0 
L 1178 0 
L 1178 2598 
C 1178 3002 1139 3571 1101 3981 
L 1126 3981 
L 1504 2912 
L 2394 474 
L 2790 474 
L 3674 2912 
L 4051 3981 
L 4077 3981 
C 4045 3571 4000 3002 4000 2598 
L 4000 0 
L 4550 0 
L 4550 4691 
L 3840 4691 
L 2944 2182 
C 2835 1862 2739 1530 2618 1203 
L 2592 1203 
C 2477 1530 2374 1862 2253 2182 
L 1357 4691 
L 646 4691 
L 646 0 
z
" transform="scale(0.015625)"/>
     <path id="NotoSansCJKtc-Regular-7684" d="M 3533 2707 
C 3885 2240 4320 1600 4512 1210 
L 4922 1466 
C 4710 1843 4269 2464 3904 2918 
L 3533 2707 
z
M 1536 5389 
C 1485 5082 1376 4659 1274 4346 
L 557 4346 
L 557 -346 
L 998 -346 
L 998 160 
L 2784 160 
L 2784 4346 
L 1715 4346 
C 1824 4621 1946 4979 2054 5299 
L 1536 5389 
z
M 998 3917 
L 2342 3917 
L 2342 2566 
L 998 2566 
L 998 3917 
z
M 998 595 
L 998 2144 
L 2342 2144 
L 2342 595 
L 998 595 
z
M 3827 5402 
C 3622 4518 3277 3635 2835 3066 
C 2950 3002 3149 2867 3238 2790 
C 3456 3098 3661 3488 3840 3923 
L 5478 3923 
C 5402 1357 5299 371 5094 154 
C 5018 64 4947 45 4819 45 
C 4672 45 4288 51 3866 83 
C 3955 -38 4013 -243 4026 -378 
C 4384 -397 4762 -410 4979 -390 
C 5210 -365 5350 -314 5498 -122 
C 5754 192 5843 1184 5939 4122 
C 5946 4186 5946 4365 5946 4365 
L 4013 4365 
C 4115 4666 4211 4986 4288 5299 
L 3827 5402 
z
" transform="scale(0.015625)"/>
     <path id="NotoSansCJKtc-Regular-56db" d="M 563 4819 
L 563 -301 
L 1050 -301 
L 1050 186 
L 5325 186 
L 5325 -250 
L 5818 -250 
L 5818 4819 
L 563 4819 
z
M 1050 653 
L 1050 4358 
L 2253 4358 
C 2221 2784 2106 1965 1126 1504 
C 1229 1421 1370 1242 1421 1126 
C 2528 1670 2688 2624 2720 4358 
L 3616 4358 
L 3616 2349 
C 3616 1850 3725 1645 4173 1645 
C 4275 1645 4742 1645 4870 1645 
C 5018 1645 5184 1651 5261 1677 
C 5248 1792 5235 1958 5222 2086 
C 5139 2061 4960 2054 4858 2054 
C 4749 2054 4333 2054 4230 2054 
C 4096 2054 4070 2131 4070 2336 
L 4070 4358 
L 5325 4358 
L 5325 653 
L 1050 653 
z
" transform="scale(0.015625)"/>
     <path id="NotoSansCJKtc-Regular-5206" d="M 1888 5165 
C 1574 4160 986 3302 224 2778 
C 339 2694 544 2515 634 2419 
C 832 2573 1018 2752 1197 2950 
L 1197 2490 
L 2509 2490 
C 2368 1402 2010 378 486 -122 
C 595 -224 736 -416 800 -544 
C 2445 51 2854 1216 3027 2490 
L 4685 2490 
C 4608 864 4512 224 4346 58 
C 4282 -6 4205 -26 4077 -26 
C 3923 -26 3533 -19 3110 19 
C 3200 -115 3258 -320 3270 -461 
C 3674 -486 4070 -493 4288 -474 
C 4506 -454 4653 -410 4781 -243 
C 5005 0 5094 736 5190 2726 
C 5197 2790 5197 2957 5197 2957 
L 1203 2957 
C 1702 3514 2118 4230 2381 5043 
L 1888 5165 
z
M 2893 5267 
L 2893 4813 
L 4026 4813 
C 4397 3846 5069 2944 5862 2432 
C 5946 2566 6106 2765 6214 2867 
C 5395 3328 4698 4256 4378 5267 
L 2893 5267 
z
" transform="scale(0.015625)"/>
     <path id="NotoSansCJKtc-Regular-4e4b" d="M 1498 851 
C 1165 851 742 506 314 32 
L 672 -403 
C 973 19 1274 397 1485 397 
C 1626 397 1830 179 2086 19 
C 2522 -256 3040 -326 3821 -326 
C 4442 -326 5542 -294 6016 -262 
C 6022 -122 6106 134 6157 262 
C 5542 192 4589 141 3834 141 
C 3123 141 2592 186 2189 448 
L 2022 557 
C 3341 1376 4774 2714 5555 3898 
L 5197 4134 
L 5101 4109 
L 640 4109 
L 640 3635 
L 4742 3635 
C 4013 2662 2739 1510 1581 838 
L 1498 851 
z
M 2656 5184 
C 2906 4858 3206 4390 3328 4109 
L 3782 4365 
C 3642 4634 3334 5075 3085 5408 
L 2656 5184 
z
" transform="scale(0.015625)"/>
     <path id="NotoSansCJKtc-Regular-4e00" d="M 282 2758 
L 282 2234 
L 6144 2234 
L 6144 2758 
L 282 2758 
z
" transform="scale(0.015625)"/>
     <path id="NotoSansCJKtc-Regular-591a" d="M 2899 5389 
C 2458 4845 1619 4243 461 3840 
C 570 3763 723 3597 794 3482 
C 1120 3610 1427 3757 1709 3910 
C 2106 3706 2554 3424 2835 3187 
C 2086 2778 1222 2483 416 2336 
C 499 2227 602 2035 640 1907 
C 2336 2278 4224 3181 5056 4672 
L 4749 4858 
L 4666 4838 
L 3014 4838 
C 3174 4979 3315 5126 3443 5274 
L 2899 5389 
z
M 3251 3437 
C 2989 3661 2528 3942 2118 4154 
C 2259 4243 2394 4333 2522 4429 
L 4352 4429 
C 4070 4058 3686 3725 3251 3437 
z
M 3936 3194 
C 3443 2586 2464 1920 1114 1498 
C 1216 1414 1350 1242 1408 1126 
C 1798 1267 2157 1421 2490 1587 
C 2925 1344 3418 998 3712 723 
C 2893 288 1901 32 896 -90 
C 979 -198 1069 -390 1107 -525 
C 3194 -224 5190 582 6003 2445 
L 5690 2618 
L 5600 2598 
L 4006 2598 
C 4179 2752 4333 2912 4474 3072 
L 3936 3194 
z
M 4147 973 
C 3853 1242 3360 1574 2925 1818 
C 3123 1933 3309 2054 3488 2182 
L 5325 2182 
C 5043 1696 4634 1293 4147 973 
z
" transform="scale(0.015625)"/>
     <path id="NotoSansCJKtc-Regular-9ede" d="M 966 4474 
C 1069 4166 1152 3757 1165 3494 
L 1421 3565 
C 1402 3821 1312 4230 1203 4538 
L 966 4474 
z
M 1197 781 
C 1267 422 1299 -38 1286 -339 
L 1626 -301 
C 1632 0 1594 461 1523 813 
L 1197 781 
z
M 1856 781 
C 1990 454 2106 26 2138 -262 
L 2458 -186 
C 2426 90 2298 518 2163 838 
L 1856 781 
z
M 2515 794 
C 2694 480 2867 58 2931 -218 
L 3251 -102 
C 3187 179 3014 589 2822 902 
L 2515 794 
z
M 627 902 
C 557 512 416 13 218 -288 
L 563 -435 
C 762 -128 890 378 960 781 
L 627 902 
z
M 2272 4557 
C 2214 4262 2086 3808 1997 3533 
L 2202 3456 
C 2317 3706 2445 4122 2554 4454 
L 2272 4557 
z
M 4314 5363 
L 4314 2330 
L 3379 2330 
L 3379 -506 
L 3827 -506 
L 3827 -211 
L 5440 -211 
L 5440 -480 
L 5901 -480 
L 5901 2330 
L 4781 2330 
L 4781 3526 
L 6150 3526 
L 6150 3974 
L 4781 3974 
L 4781 5363 
L 4314 5363 
z
M 3827 237 
L 3827 1894 
L 5440 1894 
L 5440 237 
L 3827 237 
z
M 877 4794 
L 1568 4794 
L 1568 3245 
L 877 3245 
L 877 4794 
z
M 1894 4794 
L 2637 4794 
L 2637 3245 
L 1894 3245 
L 1894 4794 
z
M 333 1555 
L 333 1178 
L 3149 1178 
L 3149 1555 
L 1946 1555 
L 1946 2067 
L 3072 2067 
L 3072 2451 
L 1946 2451 
L 1946 2893 
L 3027 2893 
L 3027 5146 
L 493 5146 
L 493 2893 
L 1517 2893 
L 1517 2451 
L 448 2451 
L 448 2067 
L 1517 2067 
L 1517 1555 
L 333 1555 
z
" transform="scale(0.015625)"/>
    </defs>
    <use xlink:href="#NotoSansCJKtc-Regular-516c"/>
    <use xlink:href="#NotoSansCJKtc-Regular-53f8" transform="translate(99.999985 0)"/>
    <use xlink:href="#NotoSansCJKtc-Regular-20" transform="translate(199.999969 0)"/>
    <use xlink:href="#NotoSansCJKtc-Regular-46" transform="translate(222.399963 0)"/>
    <use xlink:href="#NotoSansCJKtc-Regular-59" transform="translate(277.59996 0)"/>
    <use xlink:href="#NotoSansCJKtc-Regular-32" transform="translate(330.699951 0)"/>
    <use xlink:href="#NotoSansCJKtc-Regular-39" transform="translate(386.199936 0)"/>
    <use xlink:href="#NotoSansCJKtc-Regular-20" transform="translate(441.699921 0)"/>
    <use xlink:href="#NotoSansCJKtc-Regular-71df" transform="translate(464.099915 0)"/>
    <use xlink:href="#NotoSansCJKtc-Regular-6536" transform="translate(564.099899 0)"/>
    <use xlink:href="#NotoSansCJKtc-Regular-76ee" transform="translate(664.099884 0)"/>
    <use xlink:href="#NotoSansCJKtc-Regular-6a19" transform="translate(764.099869 0)"/>
    <use xlink:href="#NotoSansCJKtc-Regular-20" transform="translate(864.099854 0)"/>
    <use xlink:href="#NotoSansCJKtc-Regular-31" transform="translate(886.499847 0)"/>
    <use xlink:href="#NotoSansCJKtc-Regular-34" transform="translate(941.999832 0)"/>
    <use xlink:href="#NotoSansCJKtc-Regular-30" transform="translate(997.499817 0)"/>
    <use xlink:href="#NotoSansCJKtc-Regular-20" transform="translate(1052.999802 0)"/>
    <use xlink:href="#NotoSansCJKtc-Regular-5104" transform="translate(1075.399796 0)"/>
    <use xlink:href="#NotoSansCJKtc-Regular-7f8e" transform="translate(1175.39978 0)"/>
    <use xlink:href="#NotoSansCJKtc-Regular-5143" transform="translate(1275.399765 0)"/>
    <use xlink:href="#NotoSansCJKtc-Regular-ff0c" transform="translate(1375.39975 0)"/>
    <use xlink:href="#NotoSansCJKtc-Regular-7d04" transform="translate(1475.399734 0)"/>
    <use xlink:href="#NotoSansCJKtc-Regular-70ba" transform="translate(1575.399719 0)"/>
    <use xlink:href="#NotoSansCJKtc-Regular-6b64" transform="translate(1675.399704 0)"/>
    <use xlink:href="#NotoSansCJKtc-Regular-20" transform="translate(1775.399689 0)"/>
    <use xlink:href="#NotoSansCJKtc-Regular-54" transform="translate(1797.799683 0)"/>
    <use xlink:href="#NotoSansCJKtc-Regular-41" transform="translate(1857.699677 0)"/>
    <use xlink:href="#NotoSansCJKtc-Regular-4d" transform="translate(1918.499664 0)"/>
    <use xlink:href="#NotoSansCJKtc-Regular-20" transform="translate(1999.699646 0)"/>
    <use xlink:href="#NotoSansCJKtc-Regular-7684" transform="translate(2022.09964 0)"/>
    <use xlink:href="#NotoSansCJKtc-Regular-56db" transform="translate(2122.099625 0)"/>
    <use xlink:href="#NotoSansCJKtc-Regular-5206" transform="translate(2222.099609 0)"/>
    <use xlink:href="#NotoSansCJKtc-Regular-4e4b" transform="translate(2322.099594 0)"/>
    <use xlink:href="#NotoSansCJKtc-Regular-4e00" transform="translate(2422.099579 0)"/>
    <use xlink:href="#NotoSansCJKtc-Regular-591a" transform="translate(2522.099564 0)"/>
    <use xlink:href="#NotoSansCJKtc-Regular-4e00" transform="translate(2622.099548 0)"/>
    <use xlink:href="#NotoSansCJKtc-Regular-9ede" transform="translate(2722.099533 0)"/>
   </g>
  </g>
  <g id="text_13">
   <!-- 營收目標） -->
   <g style="fill: #9ba0a6" transform="translate(46.44 346.7339) scale(0.08 -0.08)">
    <defs>
     <path id="NotoSansCJKtc-Regular-ff09" d="M 1952 2432 
C 1952 3680 1446 4698 678 5478 
L 294 5280 
C 1030 4518 1485 3571 1485 2432 
C 1485 1293 1030 346 294 -416 
L 678 -614 
C 1446 166 1952 1184 1952 2432 
z
" transform="scale(0.015625)"/>
    </defs>
    <use xlink:href="#NotoSansCJKtc-Regular-71df"/>
    <use xlink:href="#NotoSansCJKtc-Regular-6536" transform="translate(99.999985 0)"/>
    <use xlink:href="#NotoSansCJKtc-Regular-76ee" transform="translate(199.999969 0)"/>
    <use xlink:href="#NotoSansCJKtc-Regular-6a19" transform="translate(299.999954 0)"/>
    <use xlink:href="#NotoSansCJKtc-Regular-ff09" transform="translate(399.999939 0)"/>
   </g>
  </g>
  <g id="text_14">
   <!-- Citi Research，Ciena (CIEN.K): Investor Event Takeaways - Positive，2026-09-16，第 3 頁（分部與 TAM）、第 2 頁（FY29 -->
   <g style="fill: #9ba0a6" transform="translate(46.44 338.2267) scale(0.08 -0.08)">
    <defs>
     <path id="NotoSansCJKtc-Regular-43" d="M 2413 -83 
C 3021 -83 3482 160 3853 589 
L 3526 966 
C 3226 634 2886 435 2438 435 
C 1542 435 979 1178 979 2362 
C 979 3533 1574 4256 2458 4256 
C 2861 4256 3168 4077 3418 3814 
L 3738 4198 
C 3469 4499 3021 4774 2451 4774 
C 1261 4774 371 3859 371 2342 
C 371 819 1242 -83 2413 -83 
z
" transform="scale(0.015625)"/>
     <path id="NotoSansCJKtc-Regular-69" d="M 589 0 
L 1178 0 
L 1178 3475 
L 589 3475 
L 589 0 
z
M 883 4192 
C 1114 4192 1274 4346 1274 4582 
C 1274 4806 1114 4960 883 4960 
C 653 4960 499 4806 499 4582 
C 499 4346 653 4192 883 4192 
z
" transform="scale(0.015625)"/>
     <path id="NotoSansCJKtc-Regular-74" d="M 1677 -83 
C 1894 -83 2125 -19 2323 45 
L 2208 486 
C 2093 435 1939 390 1811 390 
C 1408 390 1274 634 1274 1056 
L 1274 3002 
L 2221 3002 
L 2221 3475 
L 1274 3475 
L 1274 4454 
L 787 4454 
L 723 3475 
L 173 3443 
L 173 3002 
L 691 3002 
L 691 1075 
C 691 378 941 -83 1677 -83 
z
" transform="scale(0.015625)"/>
     <path id="NotoSansCJKtc-Regular-52" d="M 1235 2464 
L 1235 4211 
L 2022 4211 
C 2758 4211 3162 3994 3162 3379 
C 3162 2765 2758 2464 2022 2464 
L 1235 2464 
z
M 3219 0 
L 3885 0 
L 2694 2054 
C 3328 2208 3750 2643 3750 3379 
C 3750 4352 3066 4691 2112 4691 
L 646 4691 
L 646 0 
L 1235 0 
L 1235 1990 
L 2080 1990 
L 3219 0 
z
" transform="scale(0.015625)"/>
     <path id="NotoSansCJKtc-Regular-65" d="M 1997 -83 
C 2464 -83 2835 70 3136 269 
L 2931 659 
C 2669 486 2400 384 2061 384 
C 1402 384 947 858 909 1600 
L 3251 1600 
C 3264 1690 3277 1805 3277 1933 
C 3277 2925 2778 3565 1888 3565 
C 1094 3565 333 2867 333 1734 
C 333 589 1069 -83 1997 -83 
z
M 902 2016 
C 973 2707 1408 3098 1901 3098 
C 2445 3098 2765 2720 2765 2016 
L 902 2016 
z
" transform="scale(0.015625)"/>
     <path id="NotoSansCJKtc-Regular-73" d="M 1498 -83 
C 2317 -83 2758 384 2758 947 
C 2758 1606 2208 1811 1702 2003 
C 1312 2150 954 2278 954 2605 
C 954 2880 1158 3110 1600 3110 
C 1907 3110 2150 2976 2387 2803 
L 2669 3168 
C 2406 3386 2022 3565 1594 3565 
C 832 3565 397 3130 397 2579 
C 397 1984 922 1754 1408 1574 
C 1792 1434 2202 1267 2202 915 
C 2202 614 1978 371 1517 371 
C 1101 371 794 538 486 787 
L 205 397 
C 531 122 1005 -83 1498 -83 
z
" transform="scale(0.015625)"/>
     <path id="NotoSansCJKtc-Regular-61" d="M 1389 -83 
C 1818 -83 2208 141 2541 416 
L 2560 416 
L 2611 0 
L 3091 0 
L 3091 2138 
C 3091 3002 2739 3565 1888 3565 
C 1325 3565 838 3315 525 3110 
L 749 2707 
C 1024 2893 1389 3078 1792 3078 
C 2362 3078 2509 2650 2509 2202 
C 1030 2035 378 1658 378 902 
C 378 275 806 -83 1389 -83 
z
M 1555 390 
C 1210 390 941 544 941 941 
C 941 1389 1338 1677 2509 1811 
L 2509 845 
C 2170 544 1888 390 1555 390 
z
" transform="scale(0.015625)"/>
     <path id="NotoSansCJKtc-Regular-72" d="M 589 0 
L 1178 0 
L 1178 2234 
C 1408 2822 1760 3040 2048 3040 
C 2195 3040 2272 3021 2387 2982 
L 2496 3488 
C 2387 3546 2278 3565 2125 3565 
C 1741 3565 1382 3283 1139 2842 
L 1126 2842 
L 1069 3475 
L 589 3475 
L 589 0 
z
" transform="scale(0.015625)"/>
     <path id="NotoSansCJKtc-Regular-63" d="M 1958 -83 
C 2374 -83 2771 83 3085 352 
L 2829 749 
C 2611 557 2330 403 2010 403 
C 1370 403 934 934 934 1734 
C 934 2534 1395 3072 2029 3072 
C 2298 3072 2522 2950 2720 2771 
L 3014 3155 
C 2771 3373 2458 3565 2003 3565 
C 1107 3565 333 2893 333 1734 
C 333 582 1037 -83 1958 -83 
z
" transform="scale(0.015625)"/>
     <path id="NotoSansCJKtc-Regular-68" d="M 589 0 
L 1178 0 
L 1178 2522 
C 1523 2874 1766 3053 2125 3053 
C 2586 3053 2784 2778 2784 2125 
L 2784 0 
L 3366 0 
L 3366 2202 
C 3366 3085 3034 3565 2304 3565 
C 1830 3565 1472 3302 1152 2982 
L 1178 3699 
L 1178 5094 
L 589 5094 
L 589 0 
z
" transform="scale(0.015625)"/>
     <path id="NotoSansCJKtc-Regular-6e" d="M 589 0 
L 1178 0 
L 1178 2522 
C 1523 2874 1766 3053 2125 3053 
C 2586 3053 2784 2778 2784 2125 
L 2784 0 
L 3366 0 
L 3366 2202 
C 3366 3085 3034 3565 2304 3565 
C 1830 3565 1466 3302 1139 2970 
L 1126 2970 
L 1069 3475 
L 589 3475 
L 589 0 
z
" transform="scale(0.015625)"/>
     <path id="NotoSansCJKtc-Regular-28" d="M 1530 -1254 
L 1888 -1094 
C 1338 -186 1075 902 1075 1990 
C 1075 3072 1338 4154 1888 5069 
L 1530 5235 
C 941 4275 589 3245 589 1990 
C 589 730 941 -301 1530 -1254 
z
" transform="scale(0.015625)"/>
     <path id="NotoSansCJKtc-Regular-49" d="M 646 0 
L 1235 0 
L 1235 4691 
L 646 4691 
L 646 0 
z
" transform="scale(0.015625)"/>
     <path id="NotoSansCJKtc-Regular-45" d="M 646 0 
L 3418 0 
L 3418 506 
L 1235 506 
L 1235 2214 
L 3014 2214 
L 3014 2720 
L 1235 2720 
L 1235 4192 
L 3347 4192 
L 3347 4691 
L 646 4691 
L 646 0 
z
" transform="scale(0.015625)"/>
     <path id="NotoSansCJKtc-Regular-4e" d="M 646 0 
L 1203 0 
L 1203 2464 
C 1203 2957 1158 3456 1133 3930 
L 1158 3930 
L 1664 2963 
L 3373 0 
L 3981 0 
L 3981 4691 
L 3418 4691 
L 3418 2253 
C 3418 1766 3462 1235 3501 768 
L 3469 768 
L 2963 1734 
L 1248 4691 
L 646 4691 
L 646 0 
z
" transform="scale(0.015625)"/>
     <path id="NotoSansCJKtc-Regular-2e" d="M 890 -83 
C 1120 -83 1312 96 1312 358 
C 1312 627 1120 806 890 806 
C 653 806 467 627 467 358 
C 467 96 653 -83 890 -83 
z
" transform="scale(0.015625)"/>
     <path id="NotoSansCJKtc-Regular-4b" d="M 646 0 
L 1235 0 
L 1235 1485 
L 2042 2445 
L 3450 0 
L 4109 0 
L 2413 2912 
L 3885 4691 
L 3213 4691 
L 1248 2336 
L 1235 2336 
L 1235 4691 
L 646 4691 
L 646 0 
z
" transform="scale(0.015625)"/>
     <path id="NotoSansCJKtc-Regular-29" d="M 634 -1254 
C 1222 -301 1574 730 1574 1990 
C 1574 3245 1222 4275 634 5235 
L 269 5069 
C 819 4154 1094 3072 1094 1990 
C 1094 902 819 -186 269 -1094 
L 634 -1254 
z
" transform="scale(0.015625)"/>
     <path id="NotoSansCJKtc-Regular-3a" d="M 890 2496 
C 1120 2496 1312 2675 1312 2944 
C 1312 3206 1120 3392 890 3392 
C 653 3392 467 3206 467 2944 
C 467 2675 653 2496 890 2496 
z
M 890 -83 
C 1120 -83 1312 96 1312 358 
C 1312 627 1120 806 890 806 
C 653 806 467 627 467 358 
C 467 96 653 -83 890 -83 
z
" transform="scale(0.015625)"/>
     <path id="NotoSansCJKtc-Regular-76" d="M 1338 0 
L 2022 0 
L 3251 3475 
L 2675 3475 
L 2016 1498 
C 1914 1158 1798 806 1696 474 
L 1664 474 
C 1562 806 1453 1158 1344 1498 
L 691 3475 
L 83 3475 
L 1338 0 
z
" transform="scale(0.015625)"/>
     <path id="NotoSansCJKtc-Regular-6f" d="M 1939 -83 
C 2790 -83 3546 582 3546 1734 
C 3546 2893 2790 3565 1939 3565 
C 1088 3565 333 2893 333 1734 
C 333 582 1088 -83 1939 -83 
z
M 1939 403 
C 1338 403 934 934 934 1734 
C 934 2534 1338 3072 1939 3072 
C 2541 3072 2950 2534 2950 1734 
C 2950 934 2541 403 1939 403 
z
" transform="scale(0.015625)"/>
     <path id="NotoSansCJKtc-Regular-6b" d="M 589 0 
L 1165 0 
L 1165 915 
L 1818 1677 
L 2835 0 
L 3469 0 
L 2157 2074 
L 3315 3475 
L 2662 3475 
L 1190 1645 
L 1165 1645 
L 1165 5094 
L 589 5094 
L 589 0 
z
" transform="scale(0.015625)"/>
     <path id="NotoSansCJKtc-Regular-77" d="M 1139 0 
L 1818 0 
L 2310 1862 
C 2400 2195 2470 2522 2547 2874 
L 2579 2874 
C 2662 2522 2726 2202 2816 1875 
L 3315 0 
L 4026 0 
L 4966 3475 
L 4403 3475 
L 3898 1466 
C 3821 1133 3757 819 3686 499 
L 3654 499 
C 3571 819 3494 1133 3411 1466 
L 2867 3475 
L 2298 3475 
L 1754 1466 
C 1670 1133 1594 819 1523 499 
L 1491 499 
C 1421 819 1357 1133 1286 1466 
L 768 3475 
L 173 3475 
L 1139 0 
z
" transform="scale(0.015625)"/>
     <path id="NotoSansCJKtc-Regular-79" d="M 646 -1498 
C 1338 -1498 1702 -973 1946 -294 
L 3251 3475 
L 2682 3475 
L 2054 1549 
C 1965 1235 1862 883 1773 563 
L 1741 563 
C 1619 890 1504 1242 1395 1549 
L 691 3475 
L 83 3475 
L 1478 -6 
L 1402 -269 
C 1254 -698 1011 -1018 621 -1018 
C 525 -1018 422 -986 352 -960 
L 237 -1427 
C 346 -1472 486 -1498 646 -1498 
z
" transform="scale(0.015625)"/>
     <path id="NotoSansCJKtc-Regular-2d" d="M 294 1568 
L 1933 1568 
L 1933 2016 
L 294 2016 
L 294 1568 
z
" transform="scale(0.015625)"/>
     <path id="NotoSansCJKtc-Regular-50" d="M 646 0 
L 1235 0 
L 1235 1869 
L 2010 1869 
C 3040 1869 3738 2323 3738 3315 
C 3738 4339 3034 4691 1984 4691 
L 646 4691 
L 646 0 
z
M 1235 2349 
L 1235 4211 
L 1907 4211 
C 2733 4211 3149 4000 3149 3315 
C 3149 2643 2758 2349 1933 2349 
L 1235 2349 
z
" transform="scale(0.015625)"/>
     <path id="NotoSansCJKtc-Regular-36" d="M 1926 -83 
C 2656 -83 3277 531 3277 1440 
C 3277 2426 2765 2912 1971 2912 
C 1606 2912 1197 2701 909 2349 
C 934 3802 1466 4294 2118 4294 
C 2400 4294 2682 4154 2861 3936 
L 3194 4294 
C 2931 4576 2579 4774 2093 4774 
C 1184 4774 358 4077 358 2240 
C 358 691 1030 -83 1926 -83 
z
M 922 1882 
C 1229 2317 1587 2477 1875 2477 
C 2445 2477 2720 2074 2720 1440 
C 2720 800 2374 378 1926 378 
C 1338 378 986 909 922 1882 
z
" transform="scale(0.015625)"/>
     <path id="NotoSansCJKtc-Regular-7b2c" d="M 1075 2566 
C 1024 2106 928 1536 838 1152 
L 2547 1152 
C 2016 595 1203 109 448 -141 
C 557 -230 691 -403 762 -518 
C 1523 -218 2362 326 2925 966 
L 2925 -512 
L 3398 -512 
L 3398 1152 
L 5254 1152 
C 5190 570 5120 320 5030 230 
C 4979 186 4915 179 4800 179 
C 4685 173 4384 179 4070 211 
C 4141 90 4198 -96 4205 -230 
C 4538 -250 4851 -250 5011 -237 
C 5197 -224 5312 -186 5421 -77 
C 5587 83 5670 474 5760 1370 
C 5766 1434 5773 1562 5773 1562 
L 3398 1562 
L 3398 2157 
L 5555 2157 
L 5555 3571 
L 838 3571 
L 838 3162 
L 2925 3162 
L 2925 2566 
L 1075 2566 
z
M 1478 2157 
L 2925 2157 
L 2925 1562 
L 1389 1562 
L 1478 2157 
z
M 3398 3162 
L 5088 3162 
L 5088 2566 
L 3398 2566 
L 3398 3162 
z
M 1587 4339 
C 1805 4141 2080 3859 2208 3680 
L 2528 3949 
C 2400 4109 2157 4346 1946 4531 
L 3162 4531 
L 3162 4915 
L 1504 4915 
C 1568 5043 1632 5178 1683 5306 
L 1254 5427 
C 1043 4890 685 4371 288 4019 
C 390 3942 557 3776 634 3693 
C 858 3917 1088 4211 1286 4531 
L 1824 4531 
L 1587 4339 
z
M 4384 4301 
C 4614 4115 4902 3846 5043 3667 
L 5363 3955 
C 5222 4115 4954 4352 4730 4531 
L 6118 4531 
L 6118 4915 
L 4160 4915 
C 4224 5043 4282 5178 4333 5312 
L 3891 5421 
C 3731 4960 3437 4518 3085 4224 
C 3194 4160 3373 4013 3450 3936 
C 3622 4096 3789 4301 3936 4531 
L 4666 4531 
L 4384 4301 
z
" transform="scale(0.015625)"/>
     <path id="NotoSansCJKtc-Regular-33" d="M 1683 -83 
C 2522 -83 3194 416 3194 1254 
C 3194 1901 2752 2310 2202 2445 
L 2202 2477 
C 2701 2650 3034 3034 3034 3603 
C 3034 4346 2458 4774 1664 4774 
C 1126 4774 710 4538 358 4218 
L 672 3846 
C 941 4115 1267 4301 1645 4301 
C 2138 4301 2438 4006 2438 3558 
C 2438 3053 2112 2662 1139 2662 
L 1139 2214 
C 2227 2214 2598 1843 2598 1274 
C 2598 736 2208 403 1645 403 
C 1114 403 762 659 486 941 
L 186 563 
C 493 224 954 -83 1683 -83 
z
" transform="scale(0.015625)"/>
     <path id="NotoSansCJKtc-Regular-9801" d="M 1632 2682 
L 4864 2682 
L 4864 2099 
L 1632 2099 
L 1632 2682 
z
M 1632 1728 
L 4864 1728 
L 4864 1133 
L 1632 1133 
L 1632 1728 
z
M 1632 3635 
L 4864 3635 
L 4864 3053 
L 1632 3053 
L 1632 3635 
z
M 3674 326 
C 4422 70 5184 -269 5638 -518 
L 6093 -192 
C 5594 64 4768 397 4019 640 
L 3674 326 
z
M 2298 672 
C 1856 378 986 45 294 -141 
C 403 -237 550 -410 627 -512 
C 1312 -314 2182 26 2739 365 
L 2298 672 
z
M 518 5043 
L 518 4602 
L 2918 4602 
C 2880 4410 2835 4198 2784 4019 
L 1133 4019 
L 1133 749 
L 5376 749 
L 5376 4019 
L 3283 4019 
L 3469 4602 
L 5862 4602 
L 5862 5043 
L 518 5043 
z
" transform="scale(0.015625)"/>
     <path id="NotoSansCJKtc-Regular-ff08" d="M 4448 2432 
C 4448 1184 4954 166 5722 -614 
L 6106 -416 
C 5370 346 4915 1293 4915 2432 
C 4915 3571 5370 4518 6106 5280 
L 5722 5478 
C 4954 4698 4448 3680 4448 2432 
z
" transform="scale(0.015625)"/>
     <path id="NotoSansCJKtc-Regular-90e8" d="M 902 4019 
C 1075 3674 1248 3213 1306 2912 
L 1741 3040 
C 1683 3334 1510 3782 1318 4128 
L 902 4019 
z
M 4013 5037 
L 4013 -499 
L 4442 -499 
L 4442 4595 
L 5472 4595 
C 5299 4090 5050 3411 4806 2867 
C 5382 2291 5542 1818 5542 1421 
C 5549 1197 5504 992 5376 915 
C 5306 870 5210 851 5114 845 
C 4986 845 4806 845 4621 864 
C 4698 730 4742 531 4749 410 
C 4934 397 5139 397 5299 416 
C 5453 435 5594 474 5696 544 
C 5907 691 5990 998 5990 1376 
C 5990 1818 5850 2323 5274 2925 
C 5549 3520 5843 4250 6067 4845 
L 5741 5056 
L 5664 5037 
L 4013 5037 
z
M 1581 5286 
C 1677 5082 1779 4832 1850 4621 
L 512 4621 
L 512 4186 
L 3533 4186 
L 3533 4621 
L 2342 4621 
C 2272 4838 2138 5158 2010 5402 
L 1581 5286 
z
M 2771 4147 
C 2669 3782 2477 3251 2304 2893 
L 326 2893 
L 326 2451 
L 3680 2451 
L 3680 2893 
L 2771 2893 
C 2931 3226 3104 3661 3251 4038 
L 2771 4147 
z
M 698 1862 
L 698 -467 
L 1152 -467 
L 1152 -166 
L 2906 -166 
L 2906 -422 
L 3386 -422 
L 3386 1862 
L 698 1862 
z
M 1152 269 
L 1152 1427 
L 2906 1427 
L 2906 269 
L 1152 269 
z
" transform="scale(0.015625)"/>
     <path id="NotoSansCJKtc-Regular-3001" d="M 3693 1504 
L 4128 1869 
C 3731 2342 3149 2918 2694 3290 
L 2278 2925 
C 2733 2554 3277 2010 3693 1504 
z
" transform="scale(0.015625)"/>
    </defs>
    <use xlink:href="#NotoSansCJKtc-Regular-43"/>
    <use xlink:href="#NotoSansCJKtc-Regular-69" transform="translate(63.799988 0)"/>
    <use xlink:href="#NotoSansCJKtc-Regular-74" transform="translate(91.299973 0)"/>
    <use xlink:href="#NotoSansCJKtc-Regular-69" transform="translate(128.999969 0)"/>
    <use xlink:href="#NotoSansCJKtc-Regular-20" transform="translate(156.499954 0)"/>
    <use xlink:href="#NotoSansCJKtc-Regular-52" transform="translate(178.899948 0)"/>
    <use xlink:href="#NotoSansCJKtc-Regular-65" transform="translate(242.399933 0)"/>
    <use xlink:href="#NotoSansCJKtc-Regular-73" transform="translate(297.799927 0)"/>
    <use xlink:href="#NotoSansCJKtc-Regular-65" transform="translate(344.599915 0)"/>
    <use xlink:href="#NotoSansCJKtc-Regular-61" transform="translate(399.999908 0)"/>
    <use xlink:href="#NotoSansCJKtc-Regular-72" transform="translate(456.299896 0)"/>
    <use xlink:href="#NotoSansCJKtc-Regular-63" transform="translate(495.099884 0)"/>
    <use xlink:href="#NotoSansCJKtc-Regular-68" transform="translate(546.099869 0)"/>
    <use xlink:href="#NotoSansCJKtc-Regular-ff0c" transform="translate(606.799866 0)"/>
    <use xlink:href="#NotoSansCJKtc-Regular-43" transform="translate(706.79985 0)"/>
    <use xlink:href="#NotoSansCJKtc-Regular-69" transform="translate(770.599838 0)"/>
    <use xlink:href="#NotoSansCJKtc-Regular-65" transform="translate(798.099823 0)"/>
    <use xlink:href="#NotoSansCJKtc-Regular-6e" transform="translate(853.499817 0)"/>
    <use xlink:href="#NotoSansCJKtc-Regular-61" transform="translate(914.499802 0)"/>
    <use xlink:href="#NotoSansCJKtc-Regular-20" transform="translate(970.799789 0)"/>
    <use xlink:href="#NotoSansCJKtc-Regular-28" transform="translate(993.199783 0)"/>
    <use xlink:href="#NotoSansCJKtc-Regular-43" transform="translate(1026.999771 0)"/>
    <use xlink:href="#NotoSansCJKtc-Regular-49" transform="translate(1090.799759 0)"/>
    <use xlink:href="#NotoSansCJKtc-Regular-45" transform="translate(1120.099747 0)"/>
    <use xlink:href="#NotoSansCJKtc-Regular-4e" transform="translate(1178.999741 0)"/>
    <use xlink:href="#NotoSansCJKtc-Regular-2e" transform="translate(1251.299728 0)"/>
    <use xlink:href="#NotoSansCJKtc-Regular-4b" transform="translate(1279.099716 0)"/>
    <use xlink:href="#NotoSansCJKtc-Regular-29" transform="translate(1343.699707 0)"/>
    <use xlink:href="#NotoSansCJKtc-Regular-3a" transform="translate(1377.499695 0)"/>
    <use xlink:href="#NotoSansCJKtc-Regular-20" transform="translate(1405.299683 0)"/>
    <use xlink:href="#NotoSansCJKtc-Regular-49" transform="translate(1427.699677 0)"/>
    <use xlink:href="#NotoSansCJKtc-Regular-6e" transform="translate(1456.999664 0)"/>
    <use xlink:href="#NotoSansCJKtc-Regular-76" transform="translate(1517.999649 0)"/>
    <use xlink:href="#NotoSansCJKtc-Regular-65" transform="translate(1570.09964 0)"/>
    <use xlink:href="#NotoSansCJKtc-Regular-73" transform="translate(1625.499634 0)"/>
    <use xlink:href="#NotoSansCJKtc-Regular-74" transform="translate(1672.299622 0)"/>
    <use xlink:href="#NotoSansCJKtc-Regular-6f" transform="translate(1709.999619 0)"/>
    <use xlink:href="#NotoSansCJKtc-Regular-72" transform="translate(1770.599609 0)"/>
    <use xlink:href="#NotoSansCJKtc-Regular-20" transform="translate(1809.399597 0)"/>
    <use xlink:href="#NotoSansCJKtc-Regular-45" transform="translate(1831.799591 0)"/>
    <use xlink:href="#NotoSansCJKtc-Regular-76" transform="translate(1890.699585 0)"/>
    <use xlink:href="#NotoSansCJKtc-Regular-65" transform="translate(1942.799576 0)"/>
    <use xlink:href="#NotoSansCJKtc-Regular-6e" transform="translate(1998.19957 0)"/>
    <use xlink:href="#NotoSansCJKtc-Regular-74" transform="translate(2059.199554 0)"/>
    <use xlink:href="#NotoSansCJKtc-Regular-20" transform="translate(2096.899551 0)"/>
    <use xlink:href="#NotoSansCJKtc-Regular-54" transform="translate(2119.299545 0)"/>
    <use xlink:href="#NotoSansCJKtc-Regular-61" transform="translate(2179.199539 0)"/>
    <use xlink:href="#NotoSansCJKtc-Regular-6b" transform="translate(2235.499527 0)"/>
    <use xlink:href="#NotoSansCJKtc-Regular-65" transform="translate(2290.699524 0)"/>
    <use xlink:href="#NotoSansCJKtc-Regular-61" transform="translate(2346.099518 0)"/>
    <use xlink:href="#NotoSansCJKtc-Regular-77" transform="translate(2402.399506 0)"/>
    <use xlink:href="#NotoSansCJKtc-Regular-61" transform="translate(2482.599487 0)"/>
    <use xlink:href="#NotoSansCJKtc-Regular-79" transform="translate(2538.899475 0)"/>
    <use xlink:href="#NotoSansCJKtc-Regular-73" transform="translate(2590.999466 0)"/>
    <use xlink:href="#NotoSansCJKtc-Regular-20" transform="translate(2637.799454 0)"/>
    <use xlink:href="#NotoSansCJKtc-Regular-2d" transform="translate(2660.199448 0)"/>
    <use xlink:href="#NotoSansCJKtc-Regular-20" transform="translate(2694.899445 0)"/>
    <use xlink:href="#NotoSansCJKtc-Regular-50" transform="translate(2717.299438 0)"/>
    <use xlink:href="#NotoSansCJKtc-Regular-6f" transform="translate(2780.599426 0)"/>
    <use xlink:href="#NotoSansCJKtc-Regular-73" transform="translate(2841.199417 0)"/>
    <use xlink:href="#NotoSansCJKtc-Regular-69" transform="translate(2887.999405 0)"/>
    <use xlink:href="#NotoSansCJKtc-Regular-74" transform="translate(2915.49939 0)"/>
    <use xlink:href="#NotoSansCJKtc-Regular-69" transform="translate(2953.199387 0)"/>
    <use xlink:href="#NotoSansCJKtc-Regular-76" transform="translate(2980.699371 0)"/>
    <use xlink:href="#NotoSansCJKtc-Regular-65" transform="translate(3032.799362 0)"/>
    <use xlink:href="#NotoSansCJKtc-Regular-ff0c" transform="translate(3088.199356 0)"/>
    <use xlink:href="#NotoSansCJKtc-Regular-32" transform="translate(3188.199341 0)"/>
    <use xlink:href="#NotoSansCJKtc-Regular-30" transform="translate(3243.699326 0)"/>
    <use xlink:href="#NotoSansCJKtc-Regular-32" transform="translate(3299.19931 0)"/>
    <use xlink:href="#NotoSansCJKtc-Regular-36" transform="translate(3354.699295 0)"/>
    <use xlink:href="#NotoSansCJKtc-Regular-2d" transform="translate(3410.19928 0)"/>
    <use xlink:href="#NotoSansCJKtc-Regular-30" transform="translate(3444.899277 0)"/>
    <use xlink:href="#NotoSansCJKtc-Regular-39" transform="translate(3500.399261 0)"/>
    <use xlink:href="#NotoSansCJKtc-Regular-2d" transform="translate(3555.899246 0)"/>
    <use xlink:href="#NotoSansCJKtc-Regular-31" transform="translate(3590.599243 0)"/>
    <use xlink:href="#NotoSansCJKtc-Regular-36" transform="translate(3646.099228 0)"/>
    <use xlink:href="#NotoSansCJKtc-Regular-ff0c" transform="translate(3701.599213 0)"/>
    <use xlink:href="#NotoSansCJKtc-Regular-7b2c" transform="translate(3801.599197 0)"/>
    <use xlink:href="#NotoSansCJKtc-Regular-20" transform="translate(3901.599182 0)"/>
    <use xlink:href="#NotoSansCJKtc-Regular-33" transform="translate(3923.999176 0)"/>
    <use xlink:href="#NotoSansCJKtc-Regular-20" transform="translate(3979.499161 0)"/>
    <use xlink:href="#NotoSansCJKtc-Regular-9801" transform="translate(4001.899155 0)"/>
    <use xlink:href="#NotoSansCJKtc-Regular-ff08" transform="translate(4101.899139 0)"/>
    <use xlink:href="#NotoSansCJKtc-Regular-5206" transform="translate(4201.899124 0)"/>
    <use xlink:href="#NotoSansCJKtc-Regular-90e8" transform="translate(4301.899109 0)"/>
    <use xlink:href="#NotoSansCJKtc-Regular-8207" transform="translate(4401.899094 0)"/>
    <use xlink:href="#NotoSansCJKtc-Regular-20" transform="translate(4501.899078 0)"/>
    <use xlink:href="#NotoSansCJKtc-Regular-54" transform="translate(4524.299072 0)"/>
    <use xlink:href="#NotoSansCJKtc-Regular-41" transform="translate(4584.199066 0)"/>
    <use xlink:href="#NotoSansCJKtc-Regular-4d" transform="translate(4644.999054 0)"/>
    <use xlink:href="#NotoSansCJKtc-Regular-ff09" transform="translate(4726.199036 0)"/>
    <use xlink:href="#NotoSansCJKtc-Regular-3001" transform="translate(4826.19902 0)"/>
    <use xlink:href="#NotoSansCJKtc-Regular-7b2c" transform="translate(4926.199005 0)"/>
    <use xlink:href="#NotoSansCJKtc-Regular-20" transform="translate(5026.19899 0)"/>
    <use xlink:href="#NotoSansCJKtc-Regular-32" transform="translate(5048.598984 0)"/>
    <use xlink:href="#NotoSansCJKtc-Regular-20" transform="translate(5104.098969 0)"/>
    <use xlink:href="#NotoSansCJKtc-Regular-9801" transform="translate(5126.498962 0)"/>
    <use xlink:href="#NotoSansCJKtc-Regular-ff08" transform="translate(5226.498947 0)"/>
    <use xlink:href="#NotoSansCJKtc-Regular-46" transform="translate(5326.498932 0)"/>
    <use xlink:href="#NotoSansCJKtc-Regular-59" transform="translate(5381.698929 0)"/>
    <use xlink:href="#NotoSansCJKtc-Regular-32" transform="translate(5434.79892 0)"/>
    <use xlink:href="#NotoSansCJKtc-Regular-39" transform="translate(5490.298904 0)"/>
   </g>
  </g>
 </g>
 <defs>
  <clipPath id="p38f1083c0e">
   <rect x="46.44" y="63.504" width="526.32" height="229.32"/>
  </clipPath>
 </defs>
</svg>
