<?xml version="1.0" encoding="utf-8" standalone="no"?>
<!DOCTYPE svg PUBLIC "-//W3C//DTD SVG 1.1//EN"
  "http://www.w3.org/Graphics/SVG/1.1/DTD/svg11.dtd">
<svg xmlns:xlink="http://www.w3.org/1999/xlink" width="619.2pt" height="352.8pt" viewBox="0 0 619.2 352.8" xmlns="http://www.w3.org/2000/svg" version="1.1">
 <metadata>
  <rdf:RDF xmlns:dc="http://purl.org/dc/elements/1.1/" xmlns:cc="http://creativecommons.org/ns#" xmlns:rdf="http://www.w3.org/1999/02/22-rdf-syntax-ns#">
   <cc:Work>
    <dc:type rdf:resource="http://purl.org/dc/dcmitype/StillImage"/>
    <dc:format>image/svg+xml</dc:format>
    <dc:creator>
     <cc:Agent>
      <dc:title>Matplotlib v3.10.9, https://matplotlib.org/</dc:title>
     </cc:Agent>
    </dc:creator>
   </cc:Work>
  </rdf:RDF>
 </metadata>
 <defs>
  <style type="text/css">*{stroke-linejoin: round; stroke-linecap: butt}</style>
 </defs>
 <g id="figure_1">
  <g id="patch_1">
   <path d="M 0 352.8 
L 619.2 352.8 
L 619.2 0 
L 0 0 
z
" style="fill: #ffffff"/>
  </g>
  <g id="axes_1">
   <g id="patch_2">
    <path d="M 46.44 292.824 
L 572.76 292.824 
L 572.76 70.56 
L 46.44 70.56 
z
" style="fill: #ffffff"/>
   </g>
   <g id="patch_3">
    <path d="M 70.363636 253.140501 
L 88.012221 253.140501 
L 88.012221 97.501091 
L 70.363636 97.501091 
z
" clip-path="url(#p590cffd353)" style="fill: #d70c18"/>
   </g>
   <g id="patch_4">
    <path d="M 119.387481 253.140501 
L 137.036066 253.140501 
L 137.036066 127.536767 
L 119.387481 127.536767 
z
" clip-path="url(#p590cffd353)" style="fill: #d70c18"/>
   </g>
   <g id="patch_5">
    <path d="M 168.411326 253.140501 
L 186.059911 253.140501 
L 186.059911 132.087627 
L 168.411326 132.087627 
z
" clip-path="url(#p590cffd353)" style="fill: #d70c18"/>
   </g>
   <g id="patch_6">
    <path d="M 217.435171 253.140501 
L 235.083756 253.140501 
L 235.083756 140.279174 
L 217.435171 140.279174 
z
" clip-path="url(#p590cffd353)" style="fill: #d70c18"/>
   </g>
   <g id="patch_7">
    <path d="M 266.459016 253.140501 
L 284.107601 253.140501 
L 284.107601 152.11141 
L 266.459016 152.11141 
z
" clip-path="url(#p590cffd353)" style="fill: #d70c18"/>
   </g>
   <g id="patch_8">
    <path d="M 315.482861 253.140501 
L 333.131446 253.140501 
L 333.131446 155.752098 
L 315.482861 155.752098 
z
" clip-path="url(#p590cffd353)" style="fill: #d70c18"/>
   </g>
   <g id="patch_9">
    <path d="M 364.506706 253.140501 
L 382.155291 253.140501 
L 382.155291 156.66227 
L 364.506706 156.66227 
z
" clip-path="url(#p590cffd353)" style="fill: #d70c18"/>
   </g>
   <g id="patch_10">
    <path d="M 413.530551 253.140501 
L 431.179136 253.140501 
L 431.179136 156.66227 
L 413.530551 156.66227 
z
" clip-path="url(#p590cffd353)" style="fill: #d70c18"/>
   </g>
   <g id="patch_11">
    <path d="M 462.554396 253.140501 
L 480.202981 253.140501 
L 480.202981 162.123302 
L 462.554396 162.123302 
z
" clip-path="url(#p590cffd353)" style="fill: #d70c18"/>
   </g>
   <g id="patch_12">
    <path d="M 511.578241 253.140501 
L 529.226826 253.140501 
L 529.226826 168.494506 
L 511.578241 168.494506 
z
" clip-path="url(#p590cffd353)" style="fill: #d70c18"/>
   </g>
   <g id="patch_13">
    <path d="M 89.973174 253.140501 
L 107.621759 253.140501 
L 107.621759 245.859125 
L 89.973174 245.859125 
z
" clip-path="url(#p590cffd353)" style="fill: #1f4e79"/>
   </g>
   <g id="patch_14">
    <path d="M 138.997019 253.140501 
L 156.645604 253.140501 
L 156.645604 251.320157 
L 138.997019 251.320157 
z
" clip-path="url(#p590cffd353)" style="fill: #1f4e79"/>
   </g>
   <g id="patch_15">
    <path d="M 188.020864 253.140501 
L 205.669449 253.140501 
L 205.669449 260.421877 
L 188.020864 260.421877 
z
" clip-path="url(#p590cffd353)" style="fill: #1f4e79"/>
   </g>
   <g id="patch_16">
    <path d="M 237.044709 253.140501 
L 254.693294 253.140501 
L 254.693294 251.320157 
L 237.044709 251.320157 
z
" clip-path="url(#p590cffd353)" style="fill: #1f4e79"/>
   </g>
   <g id="patch_17">
    <path d="M 286.068554 253.140501 
L 303.717139 253.140501 
L 303.717139 246.769297 
L 286.068554 246.769297 
z
" clip-path="url(#p590cffd353)" style="fill: #1f4e79"/>
   </g>
   <g id="patch_18">
    <path d="M 335.092399 253.140501 
L 352.740984 253.140501 
L 352.740984 258.601533 
L 335.092399 258.601533 
z
" clip-path="url(#p590cffd353)" style="fill: #1f4e79"/>
   </g>
   <g id="patch_19">
    <path d="M 384.116244 253.140501 
L 401.764829 253.140501 
L 401.764829 263.152393 
L 384.116244 263.152393 
z
" clip-path="url(#p590cffd353)" style="fill: #1f4e79"/>
   </g>
   <g id="patch_20">
    <path d="M 433.140089 253.140501 
L 450.788674 253.140501 
L 450.788674 259.511705 
L 433.140089 259.511705 
z
" clip-path="url(#p590cffd353)" style="fill: #1f4e79"/>
   </g>
   <g id="patch_21">
    <path d="M 482.163934 253.140501 
L 499.812519 253.140501 
L 499.812519 265.882909 
L 482.163934 265.882909 
z
" clip-path="url(#p590cffd353)" style="fill: #1f4e79"/>
   </g>
   <g id="patch_22">
    <path d="M 531.187779 253.140501 
L 548.836364 253.140501 
L 548.836364 250.409985 
L 531.187779 250.409985 
z
" clip-path="url(#p590cffd353)" style="fill: #1f4e79"/>
   </g>
   <g id="matplotlib.axis_1">
    <g id="xtick_1">
     <g id="line2d_1"/>
     <g id="text_1">
      <!-- V -->
      <g style="fill: #6b7076" transform="translate(86.405197 303.487437) scale(0.09 -0.09)">
       <defs>
        <path id="NotoSansCJKtc-Regular-56" d="M 1504 0 
L 2189 0 
L 3680 4691 
L 3078 4691 
L 2323 2150 
C 2163 1600 2048 1152 1869 602 
L 1843 602 
C 1670 1152 1549 1600 1389 2150 
L 627 4691 
L 6 4691 
L 1504 0 
z
" transform="scale(0.015625)"/>
       </defs>
       <use xlink:href="#NotoSansCJKtc-Regular-56"/>
      </g>
     </g>
    </g>
    <g id="xtick_2">
     <g id="line2d_2"/>
     <g id="text_2">
      <!-- MA -->
      <g style="fill: #6b7076" transform="translate(131.626542 303.487437) scale(0.09 -0.09)">
       <defs>
        <path id="NotoSansCJKtc-Regular-4d" d="M 646 0 
L 1178 0 
L 1178 2598 
C 1178 3002 1139 3571 1101 3981 
L 1126 3981 
L 1504 2912 
L 2394 474 
L 2790 474 
L 3674 2912 
L 4051 3981 
L 4077 3981 
C 4045 3571 4000 3002 4000 2598 
L 4000 0 
L 4550 0 
L 4550 4691 
L 3840 4691 
L 2944 2182 
C 2835 1862 2739 1530 2618 1203 
L 2592 1203 
C 2477 1530 2374 1862 2253 2182 
L 1357 4691 
L 646 4691 
L 646 0 
z
" transform="scale(0.015625)"/>
        <path id="NotoSansCJKtc-Regular-41" d="M 26 0 
L 621 0 
L 1075 1434 
L 2790 1434 
L 3238 0 
L 3866 0 
L 2272 4691 
L 1613 4691 
L 26 0 
z
M 1222 1901 
L 1453 2624 
C 1619 3155 1773 3661 1920 4211 
L 1946 4211 
C 2099 3667 2246 3155 2419 2624 
L 2643 1901 
L 1222 1901 
z
" transform="scale(0.015625)"/>
       </defs>
       <use xlink:href="#NotoSansCJKtc-Regular-4d"/>
       <use xlink:href="#NotoSansCJKtc-Regular-41" transform="translate(81.199982 0)"/>
      </g>
     </g>
    </g>
    <g id="xtick_3">
     <g id="line2d_3"/>
     <g id="text_3">
      <!-- COF -->
      <g style="fill: #6b7076" transform="translate(178.346247 303.487437) scale(0.09 -0.09)">
       <defs>
        <path id="NotoSansCJKtc-Regular-43" d="M 2413 -83 
C 3021 -83 3482 160 3853 589 
L 3526 966 
C 3226 634 2886 435 2438 435 
C 1542 435 979 1178 979 2362 
C 979 3533 1574 4256 2458 4256 
C 2861 4256 3168 4077 3418 3814 
L 3738 4198 
C 3469 4499 3021 4774 2451 4774 
C 1261 4774 371 3859 371 2342 
C 371 819 1242 -83 2413 -83 
z
" transform="scale(0.015625)"/>
        <path id="NotoSansCJKtc-Regular-4f" d="M 2374 -83 
C 3552 -83 4378 858 4378 2362 
C 4378 3866 3552 4774 2374 4774 
C 1197 4774 371 3866 371 2362 
C 371 858 1197 -83 2374 -83 
z
M 2374 435 
C 1530 435 979 1190 979 2362 
C 979 3533 1530 4256 2374 4256 
C 3219 4256 3770 3533 3770 2362 
C 3770 1190 3219 435 2374 435 
z
" transform="scale(0.015625)"/>
        <path id="NotoSansCJKtc-Regular-46" d="M 646 0 
L 1235 0 
L 1235 2106 
L 3027 2106 
L 3027 2605 
L 1235 2605 
L 1235 4192 
L 3347 4192 
L 3347 4691 
L 646 4691 
L 646 0 
z
" transform="scale(0.015625)"/>
       </defs>
       <use xlink:href="#NotoSansCJKtc-Regular-43"/>
       <use xlink:href="#NotoSansCJKtc-Regular-4f" transform="translate(63.799988 0)"/>
       <use xlink:href="#NotoSansCJKtc-Regular-46" transform="translate(137.999969 0)"/>
      </g>
     </g>
    </g>
    <g id="xtick_4">
     <g id="line2d_4"/>
     <g id="text_4">
      <!-- JPM -->
      <g style="fill: #6b7076" transform="translate(227.154232 303.487437) scale(0.09 -0.09)">
       <defs>
        <path id="NotoSansCJKtc-Regular-4a" d="M 1517 -83 
C 2432 -83 2810 563 2810 1376 
L 2810 4691 
L 2214 4691 
L 2214 1434 
C 2214 723 1965 435 1459 435 
C 1120 435 858 589 646 966 
L 224 659 
C 499 173 922 -83 1517 -83 
z
" transform="scale(0.015625)"/>
        <path id="NotoSansCJKtc-Regular-50" d="M 646 0 
L 1235 0 
L 1235 1869 
L 2010 1869 
C 3040 1869 3738 2323 3738 3315 
C 3738 4339 3034 4691 1984 4691 
L 646 4691 
L 646 0 
z
M 1235 2349 
L 1235 4211 
L 1907 4211 
C 2733 4211 3149 4000 3149 3315 
C 3149 2643 2758 2349 1933 2349 
L 1235 2349 
z
" transform="scale(0.015625)"/>
       </defs>
       <use xlink:href="#NotoSansCJKtc-Regular-4a"/>
       <use xlink:href="#NotoSansCJKtc-Regular-50" transform="translate(53.499985 0)"/>
       <use xlink:href="#NotoSansCJKtc-Regular-4d" transform="translate(116.799973 0)"/>
      </g>
     </g>
    </g>
    <g id="xtick_5">
     <g id="line2d_5"/>
     <g id="text_5">
      <!-- BRK.B -->
      <g style="fill: #6b7076" transform="translate(272.159718 303.487437) scale(0.09 -0.09)">
       <defs>
        <path id="NotoSansCJKtc-Regular-42" d="M 646 0 
L 2138 0 
C 3187 0 3917 454 3917 1376 
C 3917 2016 3520 2387 2963 2496 
L 2963 2528 
C 3405 2669 3648 3078 3648 3546 
C 3648 4371 2982 4691 2035 4691 
L 646 4691 
L 646 0 
z
M 1235 2701 
L 1235 4224 
L 1958 4224 
C 2694 4224 3066 4019 3066 3469 
C 3066 2989 2739 2701 1933 2701 
L 1235 2701 
z
M 1235 474 
L 1235 2240 
L 2054 2240 
C 2880 2240 3334 1978 3334 1395 
C 3334 762 2861 474 2054 474 
L 1235 474 
z
" transform="scale(0.015625)"/>
        <path id="NotoSansCJKtc-Regular-52" d="M 1235 2464 
L 1235 4211 
L 2022 4211 
C 2758 4211 3162 3994 3162 3379 
C 3162 2765 2758 2464 2022 2464 
L 1235 2464 
z
M 3219 0 
L 3885 0 
L 2694 2054 
C 3328 2208 3750 2643 3750 3379 
C 3750 4352 3066 4691 2112 4691 
L 646 4691 
L 646 0 
L 1235 0 
L 1235 1990 
L 2080 1990 
L 3219 0 
z
" transform="scale(0.015625)"/>
        <path id="NotoSansCJKtc-Regular-4b" d="M 646 0 
L 1235 0 
L 1235 1485 
L 2042 2445 
L 3450 0 
L 4109 0 
L 2413 2912 
L 3885 4691 
L 3213 4691 
L 1248 2336 
L 1235 2336 
L 1235 4691 
L 646 4691 
L 646 0 
z
" transform="scale(0.015625)"/>
        <path id="NotoSansCJKtc-Regular-2e" d="M 890 -83 
C 1120 -83 1312 96 1312 358 
C 1312 627 1120 806 890 806 
C 653 806 467 627 467 358 
C 467 96 653 -83 890 -83 
z
" transform="scale(0.015625)"/>
       </defs>
       <use xlink:href="#NotoSansCJKtc-Regular-42"/>
       <use xlink:href="#NotoSansCJKtc-Regular-52" transform="translate(65.699997 0)"/>
       <use xlink:href="#NotoSansCJKtc-Regular-4b" transform="translate(129.199982 0)"/>
       <use xlink:href="#NotoSansCJKtc-Regular-2e" transform="translate(193.799973 0)"/>
       <use xlink:href="#NotoSansCJKtc-Regular-42" transform="translate(221.59996 0)"/>
      </g>
     </g>
    </g>
    <g id="xtick_6">
     <g id="line2d_6"/>
     <g id="text_6">
      <!-- SPGI -->
      <g style="fill: #6b7076" transform="translate(324.162704 303.487437) scale(0.09 -0.09)">
       <defs>
        <path id="NotoSansCJKtc-Regular-53" d="M 1946 -83 
C 2925 -83 3539 506 3539 1248 
C 3539 1946 3117 2266 2573 2502 
L 1907 2790 
C 1542 2944 1126 3117 1126 3578 
C 1126 3994 1472 4256 2003 4256 
C 2438 4256 2784 4090 3072 3821 
L 3379 4198 
C 3053 4538 2560 4774 2003 4774 
C 1152 4774 525 4256 525 3533 
C 525 2848 1043 2515 1478 2330 
L 2150 2035 
C 2598 1837 2938 1683 2938 1197 
C 2938 742 2573 435 1952 435 
C 1466 435 992 666 659 1018 
L 307 608 
C 710 186 1280 -83 1946 -83 
z
" transform="scale(0.015625)"/>
        <path id="NotoSansCJKtc-Regular-47" d="M 2490 -83 
C 3117 -83 3635 147 3936 461 
L 3936 2432 
L 2394 2432 
L 2394 1939 
L 3392 1939 
L 3392 710 
C 3206 538 2880 435 2547 435 
C 1542 435 979 1178 979 2362 
C 979 3533 1594 4256 2541 4256 
C 3008 4256 3315 4058 3552 3814 
L 3872 4198 
C 3603 4480 3174 4774 2522 4774 
C 1280 4774 371 3859 371 2342 
C 371 819 1254 -83 2490 -83 
z
" transform="scale(0.015625)"/>
        <path id="NotoSansCJKtc-Regular-49" d="M 646 0 
L 1235 0 
L 1235 4691 
L 646 4691 
L 646 0 
z
" transform="scale(0.015625)"/>
       </defs>
       <use xlink:href="#NotoSansCJKtc-Regular-53"/>
       <use xlink:href="#NotoSansCJKtc-Regular-50" transform="translate(59.599991 0)"/>
       <use xlink:href="#NotoSansCJKtc-Regular-47" transform="translate(122.899979 0)"/>
       <use xlink:href="#NotoSansCJKtc-Regular-49" transform="translate(191.799973 0)"/>
      </g>
     </g>
    </g>
    <g id="xtick_7">
     <g id="line2d_7"/>
     <g id="text_7">
      <!-- BAC -->
      <g style="fill: #6b7076" transform="translate(374.572408 303.487437) scale(0.09 -0.09)">
       <use xlink:href="#NotoSansCJKtc-Regular-42"/>
       <use xlink:href="#NotoSansCJKtc-Regular-41" transform="translate(65.699997 0)"/>
       <use xlink:href="#NotoSansCJKtc-Regular-43" transform="translate(126.499985 0)"/>
      </g>
     </g>
    </g>
    <g id="xtick_8">
     <g id="line2d_8"/>
     <g id="text_8">
      <!-- C -->
      <g style="fill: #6b7076" transform="translate(429.288753 303.487437) scale(0.09 -0.09)">
       <use xlink:href="#NotoSansCJKtc-Regular-43"/>
      </g>
     </g>
    </g>
    <g id="xtick_9">
     <g id="line2d_9"/>
     <g id="text_9">
      <!-- RKT -->
      <g style="fill: #6b7076" transform="translate(472.723458 303.487437) scale(0.09 -0.09)">
       <defs>
        <path id="NotoSansCJKtc-Regular-54" d="M 1619 0 
L 2214 0 
L 2214 4192 
L 3635 4192 
L 3635 4691 
L 198 4691 
L 198 4192 
L 1619 4192 
L 1619 0 
z
" transform="scale(0.015625)"/>
       </defs>
       <use xlink:href="#NotoSansCJKtc-Regular-52"/>
       <use xlink:href="#NotoSansCJKtc-Regular-4b" transform="translate(63.499985 0)"/>
       <use xlink:href="#NotoSansCJKtc-Regular-54" transform="translate(128.099976 0)"/>
      </g>
     </g>
    </g>
    <g id="xtick_10">
     <g id="line2d_10"/>
     <g id="text_10">
      <!-- WFC -->
      <g style="fill: #6b7076" transform="translate(520.901443 303.487437) scale(0.09 -0.09)">
       <defs>
        <path id="NotoSansCJKtc-Regular-57" d="M 1158 0 
L 1862 0 
L 2560 2829 
C 2637 3200 2726 3539 2797 3898 
L 2822 3898 
C 2899 3539 2970 3200 3053 2829 
L 3763 0 
L 4480 0 
L 5446 4691 
L 4883 4691 
L 4378 2138 
C 4294 1632 4205 1126 4122 614 
L 4083 614 
C 3968 1126 3866 1638 3750 2138 
L 3098 4691 
L 2554 4691 
L 1907 2138 
C 1792 1632 1677 1126 1574 614 
L 1549 614 
C 1453 1126 1363 1632 1267 2138 
L 774 4691 
L 166 4691 
L 1158 0 
z
" transform="scale(0.015625)"/>
       </defs>
       <use xlink:href="#NotoSansCJKtc-Regular-57"/>
       <use xlink:href="#NotoSansCJKtc-Regular-46" transform="translate(87.799988 0)"/>
       <use xlink:href="#NotoSansCJKtc-Regular-43" transform="translate(142.999985 0)"/>
      </g>
     </g>
    </g>
   </g>
   <g id="matplotlib.axis_2">
    <g id="ytick_1">
     <g id="line2d_11"/>
     <g id="text_11">
      <!-- 0 -->
      <g style="fill: #6b7076" transform="translate(37.945 256.72222) scale(0.09 -0.09)">
       <defs>
        <path id="NotoSansCJKtc-Regular-30" d="M 1779 -83 
C 2669 -83 3238 723 3238 2362 
C 3238 3987 2669 4774 1779 4774 
C 883 4774 320 3987 320 2362 
C 320 723 883 -83 1779 -83 
z
M 1779 390 
C 1248 390 883 986 883 2362 
C 883 3731 1248 4314 1779 4314 
C 2310 4314 2675 3731 2675 2362 
C 2675 986 2310 390 1779 390 
z
" transform="scale(0.015625)"/>
       </defs>
       <use xlink:href="#NotoSansCJKtc-Regular-30"/>
      </g>
     </g>
    </g>
    <g id="ytick_2">
     <g id="line2d_12"/>
     <g id="text_12">
      <!-- 50 -->
      <g style="fill: #6b7076" transform="translate(32.95 211.21362) scale(0.09 -0.09)">
       <defs>
        <path id="NotoSansCJKtc-Regular-35" d="M 1677 -83 
C 2464 -83 3213 499 3213 1523 
C 3213 2560 2573 3021 1798 3021 
C 1517 3021 1306 2950 1094 2835 
L 1216 4192 
L 2982 4192 
L 2982 4691 
L 704 4691 
L 550 2502 
L 864 2304 
C 1133 2483 1331 2579 1645 2579 
C 2234 2579 2618 2182 2618 1510 
C 2618 826 2176 403 1619 403 
C 1075 403 730 653 467 922 
L 173 538 
C 493 224 941 -83 1677 -83 
z
" transform="scale(0.015625)"/>
       </defs>
       <use xlink:href="#NotoSansCJKtc-Regular-35"/>
       <use xlink:href="#NotoSansCJKtc-Regular-30" transform="translate(55.499985 0)"/>
      </g>
     </g>
    </g>
    <g id="ytick_3">
     <g id="line2d_13"/>
     <g id="text_13">
      <!-- 100 -->
      <g style="fill: #6b7076" transform="translate(27.955 165.705021) scale(0.09 -0.09)">
       <defs>
        <path id="NotoSansCJKtc-Regular-31" d="M 563 0 
L 3136 0 
L 3136 486 
L 2195 486 
L 2195 4691 
L 1747 4691 
C 1491 4544 1190 4435 774 4358 
L 774 3987 
L 1613 3987 
L 1613 486 
L 563 486 
L 563 0 
z
" transform="scale(0.015625)"/>
       </defs>
       <use xlink:href="#NotoSansCJKtc-Regular-31"/>
       <use xlink:href="#NotoSansCJKtc-Regular-30" transform="translate(55.499985 0)"/>
       <use xlink:href="#NotoSansCJKtc-Regular-30" transform="translate(110.999969 0)"/>
      </g>
     </g>
    </g>
    <g id="ytick_4">
     <g id="line2d_14"/>
     <g id="text_14">
      <!-- 150 -->
      <g style="fill: #6b7076" transform="translate(27.955 120.196421) scale(0.09 -0.09)">
       <use xlink:href="#NotoSansCJKtc-Regular-31"/>
       <use xlink:href="#NotoSansCJKtc-Regular-35" transform="translate(55.499985 0)"/>
       <use xlink:href="#NotoSansCJKtc-Regular-30" transform="translate(110.999969 0)"/>
      </g>
     </g>
    </g>
    <g id="ytick_5">
     <g id="line2d_15"/>
     <g id="text_15">
      <!-- 200 -->
      <g style="fill: #6b7076" transform="translate(27.955 74.687822) scale(0.09 -0.09)">
       <defs>
        <path id="NotoSansCJKtc-Regular-32" d="M 282 0 
L 3232 0 
L 3232 506 
L 1933 506 
C 1696 506 1408 480 1165 461 
C 2266 1504 3008 2458 3008 3398 
C 3008 4230 2477 4774 1638 4774 
C 1043 4774 634 4506 256 4090 
L 595 3757 
C 858 4070 1184 4301 1568 4301 
C 2150 4301 2432 3910 2432 3373 
C 2432 2566 1754 1632 282 346 
L 282 0 
z
" transform="scale(0.015625)"/>
       </defs>
       <use xlink:href="#NotoSansCJKtc-Regular-32"/>
       <use xlink:href="#NotoSansCJKtc-Regular-30" transform="translate(55.499985 0)"/>
       <use xlink:href="#NotoSansCJKtc-Regular-30" transform="translate(110.999969 0)"/>
      </g>
     </g>
    </g>
    <g id="text_16">
     <!-- 家數 -->
     <g style="fill: #6b7076" transform="translate(21.893437 190.692) rotate(-90) scale(0.09 -0.09)">
      <defs>
       <path id="NotoSansCJKtc-Regular-5bb6" d="M 2707 5274 
C 2790 5133 2880 4960 2950 4800 
L 538 4800 
L 538 3482 
L 1005 3482 
L 1005 4365 
L 5414 4365 
L 5414 3482 
L 5907 3482 
L 5907 4800 
L 3526 4800 
C 3450 4992 3322 5229 3206 5421 
L 2707 5274 
z
M 5056 3078 
C 4698 2746 4141 2323 3654 2003 
C 3507 2355 3290 2694 2989 2989 
C 3149 3098 3302 3206 3437 3328 
L 5050 3328 
L 5050 3750 
L 1338 3750 
L 1338 3328 
L 2803 3328 
C 2189 2918 1312 2592 512 2394 
C 595 2304 730 2106 774 2016 
C 1389 2195 2054 2451 2630 2771 
C 2752 2656 2854 2528 2944 2394 
C 2387 1984 1306 1523 499 1325 
C 582 1222 691 1056 742 947 
C 1510 1184 2502 1638 3130 2074 
C 3206 1920 3264 1773 3302 1626 
C 2662 1043 1414 442 390 205 
C 486 96 589 -83 640 -205 
C 1562 77 2662 608 3392 1165 
C 3450 646 3334 211 3142 64 
C 3027 -45 2906 -64 2733 -64 
C 2598 -64 2381 -58 2150 -32 
C 2227 -166 2272 -358 2278 -486 
C 2483 -493 2688 -499 2822 -499 
C 3117 -499 3283 -448 3488 -275 
C 3846 -6 4000 794 3782 1619 
L 4090 1805 
C 4435 870 5043 128 5862 -243 
C 5933 -115 6074 58 6182 147 
C 5376 467 4762 1190 4461 2042 
C 4813 2272 5158 2528 5453 2765 
L 5056 3078 
z
" transform="scale(0.015625)"/>
       <path id="NotoSansCJKtc-Regular-6578" d="M 4339 3680 
L 5222 3680 
C 5139 2918 5005 2266 4781 1715 
C 4563 2278 4416 2918 4314 3603 
L 4339 3680 
z
M 282 1466 
L 282 1114 
L 1107 1114 
C 979 902 845 710 723 550 
C 1018 474 1331 365 1645 250 
C 1306 83 851 -64 237 -186 
C 314 -262 410 -416 448 -506 
C 1190 -352 1715 -154 2086 64 
C 2406 -70 2694 -218 2906 -339 
L 3059 -198 
C 3142 -288 3245 -442 3283 -518 
C 3923 -186 4397 243 4755 781 
C 5043 243 5414 -192 5888 -486 
C 5952 -365 6099 -192 6202 -109 
C 5690 166 5299 627 5005 1210 
C 5338 1875 5536 2688 5658 3680 
L 6150 3680 
L 6150 4109 
L 4467 4109 
C 4576 4493 4672 4896 4749 5299 
L 4333 5376 
C 4147 4339 3846 3290 3424 2592 
L 3424 2925 
L 2163 2925 
L 2163 3200 
L 3290 3200 
L 3290 3930 
L 3654 3930 
L 3654 4294 
L 3290 4294 
L 3290 4960 
L 2163 4960 
L 2163 5376 
L 1779 5376 
L 1779 4960 
L 717 4960 
L 717 4294 
L 282 4294 
L 282 3930 
L 717 3930 
L 717 3200 
L 1779 3200 
L 1779 2925 
L 570 2925 
L 570 1875 
L 1523 1875 
C 1459 1741 1389 1606 1312 1466 
L 282 1466 
z
M 2566 1728 
L 2566 1510 
L 2566 1466 
L 1760 1466 
C 1830 1600 1901 1741 1965 1875 
L 3424 1875 
L 3424 2470 
C 3520 2394 3654 2272 3712 2208 
C 3840 2419 3955 2662 4064 2931 
C 4186 2304 4339 1728 4550 1229 
C 4237 678 3802 250 3206 -64 
L 3219 -51 
C 3014 64 2739 192 2445 320 
C 2739 576 2867 851 2918 1114 
L 3603 1114 
L 3603 1466 
L 2957 1466 
L 2957 1504 
L 2957 1728 
L 2566 1728 
z
M 1101 4627 
L 1779 4627 
L 1779 4275 
L 1101 4275 
L 1101 4627 
z
M 1779 3539 
L 1101 3539 
L 1101 3949 
L 1779 3949 
L 1779 3539 
z
M 2163 4627 
L 2899 4627 
L 2899 4275 
L 2163 4275 
L 2163 4627 
z
M 2163 3539 
L 2163 3949 
L 2899 3949 
L 2899 3539 
L 2163 3539 
z
M 986 2618 
L 1779 2618 
L 1779 2189 
L 986 2189 
L 986 2618 
z
M 2163 2618 
L 2995 2618 
L 2995 2189 
L 2163 2189 
L 2163 2618 
z
M 1318 730 
L 1555 1114 
L 2515 1114 
C 2451 909 2317 691 2035 486 
C 1798 576 1555 659 1318 730 
z
" transform="scale(0.015625)"/>
      </defs>
      <use xlink:href="#NotoSansCJKtc-Regular-5bb6"/>
      <use xlink:href="#NotoSansCJKtc-Regular-6578" transform="translate(99.999985 0)"/>
     </g>
    </g>
   </g>
   <g id="line2d_16">
    <path d="M 46.44 253.140501 
L 572.76 253.140501 
" clip-path="url(#p590cffd353)" style="fill: none; stroke: #c9c5c0; stroke-width: 0.9; stroke-linecap: square"/>
   </g>
   <g id="patch_23">
    <path d="M 46.44 292.824 
L 572.76 292.824 
" style="fill: none; stroke: #c9c5c0; stroke-width: 0.9; stroke-linejoin: miter; stroke-linecap: square"/>
   </g>
   <g id="legend_1">
    <g id="patch_24">
     <path d="M 54.54 81.513157 
L 68.94 81.513157 
L 68.94 75.213157 
L 54.54 75.213157 
z
" style="fill: #d70c18"/>
    </g>
    <g id="text_17">
     <!-- 持有家數 -->
     <g style="fill: #14161a" transform="translate(76.14 81.513157) scale(0.09 -0.09)">
      <defs>
       <path id="NotoSansCJKtc-Regular-6301" d="M 2867 1306 
C 3117 941 3424 454 3571 160 
L 3968 403 
C 3808 691 3482 1158 3232 1504 
L 2867 1306 
z
M 4006 5344 
L 4006 4544 
L 2317 4544 
L 2317 4102 
L 4006 4102 
L 4006 3322 
L 2643 3322 
L 2643 2880 
L 5850 2880 
L 5850 3322 
L 4467 3322 
L 4467 4102 
L 6150 4102 
L 6150 4544 
L 4467 4544 
L 4467 5344 
L 4006 5344 
z
M 4851 2714 
L 4851 2138 
L 2387 2138 
L 2387 1696 
L 4851 1696 
L 4851 58 
C 4851 -32 4832 -64 4730 -64 
C 4634 -70 4301 -77 3936 -58 
C 4000 -192 4064 -384 4083 -525 
C 4563 -525 4870 -518 5056 -442 
C 5254 -365 5312 -237 5312 51 
L 5312 1696 
L 6106 1696 
L 6106 2138 
L 5312 2138 
L 5312 2714 
L 4851 2714 
z
M 1107 5370 
L 1107 4083 
L 269 4083 
L 269 3635 
L 1107 3635 
L 1107 2246 
C 755 2144 435 2048 179 1978 
L 301 1504 
L 1107 1766 
L 1107 90 
C 1107 0 1075 -26 998 -26 
C 922 -32 672 -32 397 -26 
C 454 -154 518 -352 531 -467 
C 934 -474 1184 -454 1338 -378 
C 1498 -307 1555 -173 1555 90 
L 1555 1914 
L 2240 2138 
L 2176 2579 
L 1555 2387 
L 1555 3635 
L 2221 3635 
L 2221 4083 
L 1555 4083 
L 1555 5370 
L 1107 5370 
z
" transform="scale(0.015625)"/>
       <path id="NotoSansCJKtc-Regular-6709" d="M 2502 5376 
C 2426 5101 2330 4819 2221 4544 
L 403 4544 
L 403 4096 
L 2016 4096 
C 1613 3270 1024 2502 275 1990 
C 371 1894 518 1728 589 1619 
C 979 1894 1325 2234 1626 2605 
L 1626 1658 
C 1626 1056 1568 339 1037 -173 
C 1126 -243 1312 -442 1370 -544 
C 1754 -192 1939 288 2029 762 
L 4787 762 
L 4787 96 
C 4787 0 4755 -38 4646 -38 
C 4525 -45 4134 -51 3712 -32 
C 3776 -166 3846 -365 3872 -493 
C 4422 -493 4774 -493 4986 -422 
C 5197 -339 5261 -192 5261 90 
L 5261 3354 
L 2144 3354 
C 2291 3590 2419 3840 2541 4096 
L 6010 4096 
L 6010 4544 
L 2733 4544 
C 2829 4781 2912 5024 2989 5261 
L 2502 5376 
z
M 4787 1850 
L 4787 1178 
L 2086 1178 
C 2099 1344 2106 1504 2106 1651 
L 2106 1850 
L 4787 1850 
z
M 4787 2259 
L 2106 2259 
L 2106 2918 
L 4787 2918 
L 4787 2259 
z
" transform="scale(0.015625)"/>
      </defs>
      <use xlink:href="#NotoSansCJKtc-Regular-6301"/>
      <use xlink:href="#NotoSansCJKtc-Regular-6709" transform="translate(99.999985 0)"/>
      <use xlink:href="#NotoSansCJKtc-Regular-5bb6" transform="translate(199.999969 0)"/>
      <use xlink:href="#NotoSansCJKtc-Regular-6578" transform="translate(299.999954 0)"/>
     </g>
    </g>
    <g id="patch_25">
     <path d="M 130.14 81.513157 
L 144.54 81.513157 
L 144.54 75.213157 
L 130.14 75.213157 
z
" style="fill: #1f4e79"/>
    </g>
    <g id="text_18">
     <!-- 季增家數（QoQ） -->
     <g style="fill: #14161a" transform="translate(151.74 81.513157) scale(0.09 -0.09)">
      <defs>
       <path id="NotoSansCJKtc-Regular-5b63" d="M 2982 1613 
L 2982 1222 
L 378 1222 
L 378 794 
L 2982 794 
L 2982 45 
C 2982 -45 2957 -70 2842 -77 
C 2714 -83 2304 -83 1837 -70 
C 1907 -198 1984 -365 2016 -493 
C 2566 -493 2938 -499 3168 -435 
C 3392 -365 3456 -237 3456 32 
L 3456 794 
L 6042 794 
L 6042 1222 
L 3456 1222 
L 3456 1402 
C 3974 1594 4512 1869 4896 2157 
L 4589 2413 
L 4486 2387 
L 1446 2387 
L 1446 1990 
L 3898 1990 
C 3616 1843 3283 1702 2982 1613 
z
M 4973 5350 
C 4045 5126 2259 4992 794 4947 
C 838 4845 896 4666 902 4550 
C 1555 4570 2259 4608 2944 4659 
L 2944 4038 
L 378 4038 
L 378 3622 
L 2419 3622 
C 1856 3117 998 2669 243 2438 
C 346 2342 480 2176 550 2061 
C 1382 2355 2342 2925 2944 3565 
L 2944 2560 
L 3418 2560 
L 3418 3546 
C 4282 3066 5312 2381 5830 1920 
L 6138 2272 
C 5683 2656 4858 3187 4096 3622 
L 6035 3622 
L 6035 4038 
L 3418 4038 
L 3418 4704 
C 4147 4774 4832 4877 5370 5005 
L 4973 5350 
z
" transform="scale(0.015625)"/>
       <path id="NotoSansCJKtc-Regular-589e" d="M 2982 3814 
C 3174 3526 3354 3142 3418 2893 
L 3712 3014 
C 3648 3264 3456 3642 3258 3917 
L 2982 3814 
z
M 4922 3917 
C 4813 3642 4589 3232 4422 2982 
L 4672 2874 
C 4845 3110 5062 3475 5248 3789 
L 4922 3917 
z
M 262 826 
L 416 352 
C 934 557 1587 813 2208 1062 
L 2125 1498 
L 1478 1254 
L 1478 3366 
L 2125 3366 
L 2125 3814 
L 1478 3814 
L 1478 5299 
L 1030 5299 
L 1030 3814 
L 339 3814 
L 339 3366 
L 1030 3366 
L 1030 1094 
L 262 826 
z
M 2829 5190 
C 3002 4960 3194 4646 3277 4448 
L 3706 4653 
C 3610 4845 3418 5146 3232 5363 
L 2829 5190 
z
M 2387 4448 
L 2387 2323 
L 5805 2323 
L 5805 4448 
L 4928 4448 
C 5101 4672 5293 4954 5466 5216 
L 4966 5389 
C 4851 5107 4614 4710 4435 4448 
L 2387 4448 
z
M 2784 4102 
L 3910 4102 
L 3910 2669 
L 2784 2669 
L 2784 4102 
z
M 4282 4102 
L 5389 4102 
L 5389 2669 
L 4282 2669 
L 4282 4102 
z
M 3162 659 
L 5050 659 
L 5050 186 
L 3162 186 
L 3162 659 
z
M 3162 1018 
L 3162 1555 
L 5050 1555 
L 5050 1018 
L 3162 1018 
z
M 2720 1920 
L 2720 -493 
L 3162 -493 
L 3162 -186 
L 5050 -186 
L 5050 -493 
L 5504 -493 
L 5504 1920 
L 2720 1920 
z
" transform="scale(0.015625)"/>
       <path id="NotoSansCJKtc-Regular-ff08" d="M 4448 2432 
C 4448 1184 4954 166 5722 -614 
L 6106 -416 
C 5370 346 4915 1293 4915 2432 
C 4915 3571 5370 4518 6106 5280 
L 5722 5478 
C 4954 4698 4448 3680 4448 2432 
z
" transform="scale(0.015625)"/>
       <path id="NotoSansCJKtc-Regular-51" d="M 2374 410 
C 1530 410 979 1165 979 2362 
C 979 3533 1530 4256 2374 4256 
C 3219 4256 3770 3533 3770 2362 
C 3770 1165 3219 410 2374 410 
z
M 3808 -1178 
C 4090 -1178 4339 -1133 4480 -1069 
L 4365 -614 
C 4243 -653 4083 -685 3872 -685 
C 3366 -685 2931 -474 2720 -58 
C 3712 115 4378 1011 4378 2362 
C 4378 3866 3552 4774 2374 4774 
C 1197 4774 371 3866 371 2362 
C 371 986 1062 77 2086 -64 
C 2349 -704 2944 -1178 3808 -1178 
z
" transform="scale(0.015625)"/>
       <path id="NotoSansCJKtc-Regular-6f" d="M 1939 -83 
C 2790 -83 3546 582 3546 1734 
C 3546 2893 2790 3565 1939 3565 
C 1088 3565 333 2893 333 1734 
C 333 582 1088 -83 1939 -83 
z
M 1939 403 
C 1338 403 934 934 934 1734 
C 934 2534 1338 3072 1939 3072 
C 2541 3072 2950 2534 2950 1734 
C 2950 934 2541 403 1939 403 
z
" transform="scale(0.015625)"/>
       <path id="NotoSansCJKtc-Regular-ff09" d="M 1952 2432 
C 1952 3680 1446 4698 678 5478 
L 294 5280 
C 1030 4518 1485 3571 1485 2432 
C 1485 1293 1030 346 294 -416 
L 678 -614 
C 1446 166 1952 1184 1952 2432 
z
" transform="scale(0.015625)"/>
      </defs>
      <use xlink:href="#NotoSansCJKtc-Regular-5b63"/>
      <use xlink:href="#NotoSansCJKtc-Regular-589e" transform="translate(99.999985 0)"/>
      <use xlink:href="#NotoSansCJKtc-Regular-5bb6" transform="translate(199.999969 0)"/>
      <use xlink:href="#NotoSansCJKtc-Regular-6578" transform="translate(299.999954 0)"/>
      <use xlink:href="#NotoSansCJKtc-Regular-ff08" transform="translate(399.999939 0)"/>
      <use xlink:href="#NotoSansCJKtc-Regular-51" transform="translate(499.999924 0)"/>
      <use xlink:href="#NotoSansCJKtc-Regular-6f" transform="translate(574.199905 0)"/>
      <use xlink:href="#NotoSansCJKtc-Regular-51" transform="translate(634.799896 0)"/>
      <use xlink:href="#NotoSansCJKtc-Regular-ff09" transform="translate(708.999878 0)"/>
     </g>
    </g>
   </g>
  </g>
  <g id="text_19">
   <!-- 避險基金最愛的金融股多頭部位：以持有家數計 -->
   <g style="fill: #14161a" transform="translate(46.44 27.446547) scale(0.145 -0.145)">
    <defs>
     <path id="NotoSansCJKtc-Bold-907f" d="M 358 5075 
C 640 4762 986 4320 1146 4051 
L 1722 4454 
C 1549 4710 1203 5107 915 5408 
L 358 5075 
z
M 2874 2227 
L 3232 2227 
L 3232 1184 
L 2874 1184 
L 2874 2227 
z
M 2714 3846 
L 2714 4064 
L 2714 4589 
L 3187 4589 
L 3187 3846 
L 2714 3846 
z
M 416 1696 
C 474 1747 653 1792 781 1792 
L 1030 1792 
C 870 947 557 307 90 -64 
C 224 -166 474 -435 570 -589 
C 845 -358 1082 -32 1274 371 
C 1766 -339 2534 -467 3770 -467 
C 4531 -467 5370 -448 6048 -410 
C 6086 -198 6189 147 6298 307 
C 5562 230 4480 186 3782 192 
C 2643 192 1894 294 1530 1069 
L 1600 1331 
C 1728 1235 1920 1043 1997 934 
C 2125 1120 2227 1331 2317 1555 
L 2317 672 
L 3827 672 
L 3827 2739 
L 2624 2739 
C 2650 2918 2669 3091 2682 3264 
L 3782 3264 
L 3782 5171 
L 2112 5171 
L 2112 4064 
C 2112 3347 2061 2355 1651 1581 
C 1696 1798 1734 2029 1766 2278 
L 1402 2406 
L 1280 2387 
L 1082 2387 
C 1338 2829 1645 3456 1824 3814 
L 1357 3968 
L 1261 3930 
L 262 3930 
L 262 3315 
L 909 3315 
C 736 2976 544 2624 461 2515 
C 365 2381 275 2336 179 2304 
C 243 2170 378 1856 416 1696 
z
M 4506 5261 
C 4576 5088 4653 4883 4717 4698 
L 3974 4698 
L 3974 4096 
L 6125 4096 
L 6125 4698 
L 5421 4698 
C 5350 4922 5242 5210 5120 5440 
L 4506 5261 
z
M 5402 4083 
C 5331 3814 5210 3443 5094 3162 
L 4429 3162 
L 4934 3322 
C 4896 3526 4787 3846 4672 4077 
L 4154 3936 
C 4269 3699 4358 3373 4390 3162 
L 3930 3162 
L 3930 2554 
L 4717 2554 
L 4717 2093 
L 3987 2093 
L 3987 1485 
L 4717 1485 
L 4717 544 
L 5414 544 
L 5414 1485 
L 6112 1485 
L 6112 2093 
L 5414 2093 
L 5414 2554 
L 6163 2554 
L 6163 3162 
L 5670 3162 
C 5786 3392 5907 3680 6022 3942 
L 5402 4083 
z
" transform="scale(0.015625)"/>
     <path id="NotoSansCJKtc-Bold-96aa" d="M 2918 2586 
L 3341 2586 
L 3341 1997 
L 2918 1997 
L 2918 2586 
z
M 2368 3104 
L 2368 1478 
L 3923 1478 
L 3923 3104 
L 2368 3104 
z
M 4768 2586 
L 5216 2586 
L 5216 1997 
L 4768 1997 
L 4768 2586 
z
M 4211 3104 
L 4211 1478 
L 5805 1478 
L 5805 3104 
L 4211 3104 
z
M 3802 5523 
C 3437 4941 2765 4339 2035 3962 
L 2304 4941 
L 1824 5210 
L 1722 5184 
L 416 5184 
L 416 -557 
L 1056 -557 
L 1056 4499 
L 1510 4499 
C 1427 4077 1318 3552 1210 3168 
C 1517 2714 1568 2298 1568 1997 
C 1568 1811 1549 1670 1478 1613 
C 1434 1574 1382 1562 1325 1562 
C 1254 1555 1178 1555 1082 1568 
C 1184 1376 1235 1088 1242 902 
C 1376 902 1510 902 1613 922 
C 1747 941 1862 986 1958 1062 
C 2144 1210 2214 1491 2214 1907 
C 2214 2278 2144 2733 1818 3238 
L 2016 3904 
C 2170 3776 2387 3539 2483 3405 
C 2701 3520 2918 3654 3123 3802 
L 3123 3424 
L 5011 3424 
L 5011 3846 
C 5312 3661 5626 3494 5926 3366 
C 5978 3571 6106 3904 6221 4096 
C 5594 4301 4883 4672 4410 5069 
L 4538 5261 
L 3802 5523 
z
M 3398 4006 
C 3616 4179 3827 4371 4013 4570 
C 4237 4378 4493 4186 4762 4006 
L 3398 4006 
z
M 2874 1414 
C 2682 762 2272 218 1709 -109 
C 1850 -218 2099 -467 2202 -595 
C 2554 -352 2867 -26 3117 365 
C 3315 218 3514 45 3622 -77 
L 4013 429 
C 3878 563 3622 749 3398 890 
C 3450 1018 3501 1146 3539 1274 
L 2874 1414 
z
M 4653 1421 
C 4531 762 4224 224 3718 -102 
C 3866 -205 4109 -461 4205 -589 
C 4493 -384 4730 -115 4922 205 
C 5235 -32 5555 -294 5734 -486 
L 6195 32 
C 5971 250 5555 550 5197 800 
C 5254 960 5299 1139 5338 1318 
L 4653 1421 
z
" transform="scale(0.015625)"/>
     <path id="NotoSansCJKtc-Bold-57fa" d="M 4218 5434 
L 4218 4954 
L 2202 4954 
L 2202 5440 
L 1434 5440 
L 1434 4954 
L 550 4954 
L 550 4333 
L 1434 4333 
L 1434 2413 
L 205 2413 
L 205 1786 
L 1440 1786 
C 1088 1446 621 1152 147 979 
C 307 838 531 570 640 397 
C 998 557 1350 781 1664 1056 
L 1664 646 
L 2797 646 
L 2797 230 
L 781 230 
L 781 -397 
L 5683 -397 
L 5683 230 
L 3578 230 
L 3578 646 
L 4749 646 
L 4749 1120 
C 5056 845 5408 614 5760 454 
C 5869 634 6099 909 6266 1043 
C 5811 1203 5363 1478 5011 1786 
L 6195 1786 
L 6195 2413 
L 5005 2413 
L 5005 4333 
L 5882 4333 
L 5882 4954 
L 5005 4954 
L 5005 5434 
L 4218 5434 
z
M 2202 4333 
L 4218 4333 
L 4218 4058 
L 2202 4058 
L 2202 4333 
z
M 2202 3520 
L 4218 3520 
L 4218 3238 
L 2202 3238 
L 2202 3520 
z
M 2202 2701 
L 4218 2701 
L 4218 2413 
L 2202 2413 
L 2202 2701 
z
M 2797 1658 
L 2797 1254 
L 1875 1254 
C 2048 1421 2202 1600 2330 1786 
L 4147 1786 
C 4282 1600 4435 1421 4608 1254 
L 3578 1254 
L 3578 1658 
L 2797 1658 
z
" transform="scale(0.015625)"/>
     <path id="NotoSansCJKtc-Bold-91d1" d="M 3110 5510 
C 2502 4557 1344 3904 128 3558 
C 326 3366 538 3066 646 2848 
C 928 2950 1203 3066 1472 3194 
L 1472 2880 
L 2778 2880 
L 2778 2214 
L 730 2214 
L 730 1523 
L 1664 1523 
L 1152 1306 
C 1370 986 1587 557 1690 269 
L 422 269 
L 422 -435 
L 5990 -435 
L 5990 269 
L 4608 269 
C 4806 544 5056 928 5286 1293 
L 4640 1523 
L 5658 1523 
L 5658 2214 
L 3603 2214 
L 3603 2880 
L 4896 2880 
L 4896 3258 
C 5184 3110 5478 2982 5766 2886 
C 5888 3078 6125 3392 6298 3552 
C 5331 3821 4288 4358 3661 4928 
L 3840 5184 
L 3110 5510 
z
M 4314 3584 
L 2182 3584 
C 2560 3821 2906 4096 3219 4410 
C 3539 4109 3917 3827 4314 3584 
z
M 2778 1523 
L 2778 269 
L 1843 269 
L 2368 499 
C 2278 781 2035 1203 1805 1523 
L 2778 1523 
z
M 3603 1523 
L 4538 1523 
C 4410 1184 4173 736 3981 448 
L 4403 269 
L 3603 269 
L 3603 1523 
z
" transform="scale(0.015625)"/>
     <path id="NotoSansCJKtc-Bold-6700" d="M 960 5248 
L 960 3174 
L 1702 3174 
L 1702 4704 
L 4678 4704 
L 4678 3174 
L 5459 3174 
L 5459 5248 
L 960 5248 
z
M 1914 4461 
L 1914 4006 
L 4474 4006 
L 4474 4461 
L 1914 4461 
z
M 1914 3757 
L 1914 3283 
L 4454 3283 
L 4454 3757 
L 1914 3757 
z
M 2368 2413 
L 2368 2163 
L 1530 2163 
L 1530 2413 
L 2368 2413 
z
M 256 403 
L 326 -243 
L 2368 -32 
L 2368 -576 
L 3104 -576 
L 3104 -26 
C 3232 -173 3379 -403 3456 -557 
C 3853 -410 4218 -224 4544 19 
C 4883 -237 5280 -435 5734 -570 
C 5830 -390 6029 -109 6189 32 
C 5766 128 5389 288 5069 493 
C 5440 896 5728 1402 5907 2016 
L 5440 2195 
L 5312 2176 
L 3238 2176 
L 3238 1587 
L 3840 1587 
L 3430 1472 
C 3584 1114 3782 787 4026 512 
C 3750 314 3437 160 3104 58 
L 3104 2413 
L 6067 2413 
L 6067 3021 
L 326 3021 
L 326 2413 
L 826 2413 
L 826 442 
L 256 403 
z
M 4070 1587 
L 4979 1587 
C 4858 1350 4704 1133 4525 941 
C 4339 1133 4186 1350 4070 1587 
z
M 2368 1632 
L 2368 1363 
L 1530 1363 
L 1530 1632 
L 2368 1632 
z
M 2368 832 
L 2368 570 
L 1530 499 
L 1530 832 
L 2368 832 
z
" transform="scale(0.015625)"/>
     <path id="NotoSansCJKtc-Bold-611b" d="M 2579 3206 
C 2906 3072 3302 2829 3494 2656 
L 3878 3085 
C 3776 3174 3616 3270 3443 3366 
L 5190 3366 
L 5190 2829 
C 5037 2970 4877 3098 4730 3206 
L 4218 2842 
C 4589 2547 5018 2112 5197 1811 
L 5747 2221 
C 5658 2362 5510 2522 5350 2682 
L 5952 2682 
L 5952 3949 
L 4915 3949 
C 5069 4141 5235 4378 5395 4608 
L 4819 4794 
C 5114 4838 5389 4883 5645 4934 
L 5133 5446 
C 4077 5235 2214 5114 627 5082 
C 691 4941 762 4685 781 4518 
L 1574 4538 
L 1242 4403 
C 1344 4269 1446 4096 1517 3949 
L 454 3949 
L 454 2771 
L 1184 2771 
L 1184 3366 
L 2726 3366 
L 2579 3206 
z
M 2630 4474 
C 2739 4314 2835 4109 2886 3949 
L 1952 3949 
L 2221 4064 
C 2176 4205 2054 4397 1933 4557 
C 2291 4570 2656 4589 3014 4614 
L 2630 4474 
z
M 3174 3949 
L 3558 4090 
C 3526 4243 3411 4461 3283 4634 
C 3744 4672 4192 4717 4608 4768 
C 4493 4506 4314 4179 4166 3949 
L 3174 3949 
z
M 1395 3149 
C 1274 2822 1050 2483 755 2285 
L 1286 1882 
L 742 1658 
C 864 1491 998 1331 1139 1184 
C 915 1082 685 992 448 922 
C 602 806 851 550 966 422 
C 1190 512 1421 614 1645 730 
C 1850 576 2067 435 2298 314 
C 1683 166 992 83 269 38 
C 410 -109 595 -422 659 -595 
C 1568 -506 2445 -352 3213 -83 
C 3949 -339 4794 -499 5747 -576 
C 5837 -365 6022 -38 6176 134 
C 5466 173 4806 250 4211 378 
C 4640 640 4998 960 5261 1357 
L 4774 1677 
L 4646 1651 
L 2944 1651 
C 3040 1741 3130 1837 3206 1939 
L 3187 1946 
L 3757 1946 
C 4230 1946 4416 2080 4480 2579 
C 4294 2611 4032 2694 3898 2778 
C 3872 2522 3834 2477 3667 2477 
C 3539 2477 3098 2477 3002 2477 
C 2778 2477 2739 2496 2739 2643 
L 2739 3085 
L 2029 3085 
L 2029 2637 
C 2029 2272 2106 2080 2387 1997 
C 2208 1818 1984 1645 1734 1491 
C 1587 1619 1459 1760 1350 1907 
L 1312 1894 
C 1638 2150 1837 2534 1978 2899 
L 1395 3149 
z
M 3296 627 
C 2918 755 2573 909 2266 1101 
L 4090 1094 
C 3872 915 3603 755 3296 627 
z
" transform="scale(0.015625)"/>
     <path id="NotoSansCJKtc-Bold-7684" d="M 3430 2598 
C 3744 2131 4141 1498 4320 1107 
L 4973 1504 
C 4774 1882 4346 2496 4032 2938 
L 3430 2598 
z
M 3744 5434 
C 3558 4672 3251 3898 2880 3347 
L 2880 4397 
L 1888 4397 
C 1997 4666 2112 4998 2214 5318 
L 1382 5440 
C 1357 5133 1280 4717 1197 4397 
L 467 4397 
L 467 -384 
L 1165 -384 
L 1165 90 
L 2880 90 
L 2880 3098 
C 3053 2989 3270 2829 3379 2726 
C 3578 3002 3770 3354 3942 3744 
L 5318 3744 
C 5254 1478 5171 512 4973 307 
C 4896 218 4826 198 4698 198 
C 4531 198 4147 198 3738 237 
C 3872 26 3974 -301 3987 -512 
C 4365 -525 4755 -531 4998 -499 
C 5261 -454 5440 -384 5613 -141 
C 5882 198 5952 1222 6035 4102 
C 6042 4192 6042 4448 6042 4448 
L 4230 4448 
C 4326 4717 4416 4992 4486 5261 
L 3744 5434 
z
M 1165 3731 
L 2189 3731 
L 2189 2688 
L 1165 2688 
L 1165 3731 
z
M 1165 762 
L 1165 2022 
L 2189 2022 
L 2189 762 
L 1165 762 
z
" transform="scale(0.015625)"/>
     <path id="NotoSansCJKtc-Bold-878d" d="M 1216 3808 
L 2464 3808 
L 2464 3437 
L 1216 3437 
L 1216 3808 
z
M 570 4320 
L 570 2918 
L 3155 2918 
L 3155 4320 
L 570 4320 
z
M 256 5197 
L 256 4550 
L 3450 4550 
L 3450 5197 
L 256 5197 
z
M 1075 1882 
C 1197 1670 1325 1389 1370 1203 
L 1786 1363 
C 1734 1542 1606 1818 1472 2022 
L 1075 1882 
z
M 3558 4224 
L 3558 1581 
L 4422 1581 
L 4422 397 
C 4064 346 3738 301 3469 269 
L 3622 -429 
L 5581 -64 
C 5619 -256 5645 -429 5664 -570 
L 6221 -422 
C 6157 19 5965 762 5779 1325 
L 5261 1216 
C 5325 1011 5382 787 5440 557 
L 5082 499 
L 5082 1581 
L 5958 1581 
L 5958 4224 
L 5088 4224 
L 5088 5344 
L 4422 5344 
L 4422 4224 
L 3558 4224 
z
M 4096 3571 
L 4480 3571 
L 4480 2234 
L 4096 2234 
L 4096 3571 
z
M 5024 3571 
L 5389 3571 
L 5389 2234 
L 5024 2234 
L 5024 3571 
z
M 2150 2061 
C 2080 1811 1926 1453 1798 1190 
L 1088 1190 
L 1088 730 
L 1555 730 
L 1555 -352 
L 2093 -352 
L 2093 730 
L 2547 730 
L 2547 1190 
L 2266 1190 
L 2624 1875 
L 2150 2061 
z
M 358 2694 
L 358 -570 
L 941 -570 
L 941 2131 
L 2707 2131 
L 2707 173 
C 2707 115 2688 96 2630 96 
C 2579 96 2400 96 2227 102 
C 2304 -64 2374 -307 2394 -474 
C 2707 -474 2938 -467 3104 -371 
C 3283 -275 3322 -109 3322 166 
L 3322 2694 
L 358 2694 
z
" transform="scale(0.015625)"/>
     <path id="NotoSansCJKtc-Bold-80a1" d="M 3334 5203 
L 3334 4512 
C 3334 4102 3245 3642 2554 3296 
L 2554 5216 
L 531 5216 
L 531 2880 
C 531 1946 512 653 173 -230 
C 339 -294 653 -461 787 -576 
C 1037 58 1146 922 1190 1722 
L 1376 1254 
L 1862 1568 
L 1862 294 
C 1862 218 1843 192 1773 192 
C 1702 192 1504 192 1312 198 
C 1395 6 1478 -326 1498 -525 
C 1875 -525 2131 -499 2317 -378 
C 2470 -282 2528 -122 2547 102 
C 2688 -58 2854 -346 2931 -538 
C 3450 -384 3917 -186 4333 83 
C 4730 -198 5190 -416 5715 -563 
C 5824 -365 6042 -58 6208 102 
C 5741 205 5318 371 4954 582 
C 5446 1062 5811 1690 6029 2509 
L 5536 2688 
L 5395 2656 
L 2771 2656 
L 2771 1946 
L 3264 1946 
L 2918 1843 
C 3136 1370 3411 947 3750 595 
C 3392 390 2989 237 2547 134 
L 2554 282 
L 2554 3232 
C 2701 3110 2925 2874 3002 2746 
C 3846 3174 4032 3878 4032 4493 
L 4781 4493 
L 4781 3808 
C 4781 3194 4909 2931 5517 2931 
C 5606 2931 5766 2931 5856 2931 
C 5978 2931 6118 2938 6214 2976 
C 6189 3149 6176 3405 6157 3590 
C 6074 3558 5926 3546 5843 3546 
C 5779 3546 5651 3546 5594 3546 
C 5510 3546 5504 3616 5504 3795 
L 5504 5203 
L 3334 5203 
z
M 1216 4518 
L 1862 4518 
L 1862 3386 
C 1722 3539 1549 3712 1395 3853 
L 1216 3718 
L 1216 4518 
z
M 1203 2010 
C 1210 2323 1216 2618 1216 2886 
L 1216 3238 
C 1370 3059 1523 2874 1613 2746 
L 1862 2950 
L 1862 2246 
L 1203 2010 
z
M 5030 1946 
C 4858 1587 4627 1280 4339 1024 
C 4038 1293 3802 1600 3629 1946 
L 5030 1946 
z
" transform="scale(0.015625)"/>
     <path id="NotoSansCJKtc-Bold-591a" d="M 2758 5459 
C 2317 4934 1523 4390 390 4026 
C 557 3904 794 3635 902 3456 
C 1165 3558 1414 3674 1645 3789 
C 1939 3629 2266 3418 2496 3238 
C 1837 2938 1088 2726 339 2605 
C 474 2438 621 2144 691 1946 
C 1754 2163 2803 2528 3667 3091 
C 3149 2534 2285 1984 1050 1619 
C 1210 1485 1427 1203 1517 1018 
C 1850 1139 2157 1267 2438 1402 
C 2758 1216 3142 947 3386 730 
C 2662 403 1798 218 870 122 
C 998 -58 1146 -371 1203 -576 
C 3405 -275 5254 486 6029 2394 
L 5523 2656 
L 5389 2624 
L 4230 2624 
C 4371 2765 4506 2906 4634 3053 
L 3866 3232 
C 4416 3629 4877 4109 5190 4698 
L 4698 4992 
L 4570 4954 
L 3290 4954 
C 3398 5056 3501 5165 3597 5280 
L 2758 5459 
z
M 3174 3597 
C 2963 3770 2618 3994 2291 4160 
L 2534 4326 
L 4064 4326 
C 3821 4051 3520 3808 3174 3597 
z
M 4077 1114 
C 3853 1325 3462 1581 3117 1773 
L 3443 1984 
L 4960 1984 
C 4730 1638 4429 1350 4077 1114 
z
" transform="scale(0.015625)"/>
     <path id="NotoSansCJKtc-Bold-982d" d="M 288 5139 
L 288 4435 
L 2874 4435 
L 2874 5139 
L 288 5139 
z
M 1107 3386 
L 2048 3386 
L 2048 2784 
L 1107 2784 
L 1107 3386 
z
M 461 3987 
L 461 2189 
L 2739 2189 
L 2739 3987 
L 461 3987 
z
M 544 1882 
C 659 1523 749 1043 755 742 
L 1402 909 
C 1382 1216 1293 1683 1152 2035 
L 544 1882 
z
M 3885 2611 
L 5261 2611 
L 5261 2202 
L 3885 2202 
L 3885 2611 
z
M 3885 1677 
L 5261 1677 
L 5261 1267 
L 3885 1267 
L 3885 1677 
z
M 3885 3539 
L 5261 3539 
L 5261 3136 
L 3885 3136 
L 3885 3539 
z
M 3795 678 
C 3520 410 2970 77 2490 -90 
C 2656 -224 2880 -448 2995 -582 
C 3482 -397 4070 -51 4416 275 
L 3795 678 
z
M 4678 262 
C 5037 13 5504 -352 5722 -582 
L 6336 -173 
C 6086 58 5600 397 5254 627 
L 4678 262 
z
M 179 422 
L 358 -288 
C 1094 -122 2067 102 2982 326 
L 2912 973 
L 2323 851 
C 2426 1165 2534 1562 2637 1939 
L 1894 2093 
C 1856 1696 1760 1146 1670 787 
L 1824 749 
C 1203 621 621 499 179 422 
z
M 3187 4102 
L 3187 704 
L 5997 704 
L 5997 4102 
L 4800 4102 
L 4934 4538 
L 6138 4538 
L 6138 5178 
L 3034 5178 
L 3034 4538 
L 4090 4538 
L 4026 4102 
L 3187 4102 
z
" transform="scale(0.015625)"/>
     <path id="NotoSansCJKtc-Bold-90e8" d="M 3898 5133 
L 3898 -538 
L 4576 -538 
L 4576 4442 
L 5286 4442 
C 5146 3949 4941 3296 4762 2829 
C 5248 2317 5382 1856 5382 1504 
C 5382 1286 5344 1126 5235 1062 
C 5171 1024 5088 1005 5005 998 
C 4902 998 4781 998 4640 1018 
C 4755 813 4813 499 4826 301 
C 4998 294 5178 301 5318 320 
C 5485 339 5632 384 5747 474 
C 5984 640 6086 954 6086 1414 
C 6086 1830 5990 2342 5472 2918 
C 5715 3475 5984 4211 6202 4832 
L 5664 5165 
L 5555 5133 
L 3898 5133 
z
M 1440 4045 
L 2541 4045 
C 2458 3725 2317 3315 2176 3008 
L 1382 3008 
L 1792 3123 
C 1734 3379 1600 3750 1440 4045 
z
M 1440 5293 
C 1510 5126 1587 4915 1645 4730 
L 429 4730 
L 429 4045 
L 1293 4045 
L 762 3910 
C 902 3635 1037 3270 1094 3008 
L 269 3008 
L 269 2317 
L 3674 2317 
L 3674 3008 
L 2906 3008 
C 3034 3283 3168 3616 3302 3930 
L 2784 4045 
L 3526 4045 
L 3526 4730 
L 2445 4730 
C 2374 4954 2253 5254 2138 5491 
L 1440 5293 
z
M 563 1856 
L 563 -563 
L 1280 -563 
L 1280 -275 
L 2662 -275 
L 2662 -531 
L 3424 -531 
L 3424 1856 
L 563 1856 
z
M 1280 390 
L 1280 1171 
L 2662 1171 
L 2662 390 
L 1280 390 
z
" transform="scale(0.015625)"/>
     <path id="NotoSansCJKtc-Bold-4f4d" d="M 2694 3251 
C 2867 2394 3027 1267 3078 602 
L 3834 813 
C 3770 1466 3584 2566 3392 3411 
L 2694 3251 
z
M 3539 5350 
C 3642 5043 3776 4634 3827 4358 
L 2323 4358 
L 2323 3616 
L 5901 3616 
L 5901 4358 
L 3923 4358 
L 4595 4550 
C 4525 4819 4390 5222 4269 5530 
L 3539 5350 
z
M 2086 422 
L 2086 -320 
L 6118 -320 
L 6118 422 
L 5024 422 
C 5254 1222 5491 2342 5651 3309 
L 4845 3437 
C 4762 2502 4544 1261 4326 422 
L 2086 422 
z
M 1658 5414 
C 1331 4499 774 3584 192 3008 
C 320 2822 531 2400 602 2208 
C 742 2355 877 2515 1011 2694 
L 1011 -563 
L 1786 -563 
L 1786 3898 
C 2016 4314 2214 4755 2381 5184 
L 1658 5414 
z
" transform="scale(0.015625)"/>
     <path id="NotoSansCJKtc-Bold-ff1a" d="M 3200 3302 
C 3539 3302 3808 3558 3808 3898 
C 3808 4250 3539 4506 3200 4506 
C 2861 4506 2592 4250 2592 3898 
C 2592 3558 2861 3302 3200 3302 
z
M 3200 250 
C 3539 250 3808 506 3808 845 
C 3808 1197 3539 1453 3200 1453 
C 2861 1453 2592 1197 2592 845 
C 2592 506 2861 250 3200 250 
z
" transform="scale(0.015625)"/>
     <path id="NotoSansCJKtc-Bold-4ee5" d="M 2240 4333 
C 2630 3853 3046 3174 3206 2733 
L 3962 3136 
C 3770 3578 3366 4205 2950 4672 
L 2240 4333 
z
M 890 5043 
L 1024 1286 
C 704 1158 410 1056 166 973 
L 429 154 
C 1158 454 2099 858 2957 1242 
L 2778 1990 
L 1818 1600 
L 1696 5075 
L 890 5043 
z
M 4787 5069 
C 4550 2426 3885 870 1850 96 
C 2035 -64 2355 -416 2464 -582 
C 3315 -198 3949 314 4416 979 
C 4890 442 5376 -147 5619 -570 
L 6278 70 
C 5984 525 5382 1165 4851 1722 
C 5267 2592 5504 3674 5638 4992 
L 4787 5069 
z
" transform="scale(0.015625)"/>
     <path id="NotoSansCJKtc-Bold-6301" d="M 2714 1184 
C 2950 832 3258 346 3386 51 
L 4032 422 
C 3878 723 3558 1178 3315 1510 
L 2714 1184 
z
M 3898 5408 
L 3898 4704 
L 2298 4704 
L 2298 4006 
L 3898 4006 
L 3898 3494 
L 2624 3494 
L 2624 2803 
L 5920 2803 
L 5920 3494 
L 4627 3494 
L 4627 4006 
L 6202 4006 
L 6202 4704 
L 4627 4704 
L 4627 5408 
L 3898 5408 
z
M 4723 2682 
L 4723 2246 
L 2368 2246 
L 2368 1555 
L 4723 1555 
L 4723 243 
C 4723 154 4698 134 4602 134 
C 4506 128 4166 122 3878 141 
C 3968 -64 4070 -365 4096 -576 
C 4557 -576 4902 -570 5139 -461 
C 5382 -346 5453 -154 5453 224 
L 5453 1555 
L 6163 1555 
L 6163 2246 
L 5453 2246 
L 5453 2682 
L 4723 2682 
z
M 986 5434 
L 986 4224 
L 237 4224 
L 237 3520 
L 986 3520 
L 986 2394 
C 666 2317 371 2240 134 2189 
L 301 1453 
L 986 1645 
L 986 326 
C 986 243 954 218 877 218 
C 800 211 576 211 346 218 
C 442 19 525 -301 544 -486 
C 954 -486 1235 -461 1434 -339 
C 1626 -224 1683 -32 1683 320 
L 1683 1850 
L 2266 2022 
L 2170 2714 
L 1683 2579 
L 1683 3520 
L 2214 3520 
L 2214 4224 
L 1683 4224 
L 1683 5434 
L 986 5434 
z
" transform="scale(0.015625)"/>
     <path id="NotoSansCJKtc-Bold-6709" d="M 2336 5440 
C 2266 5184 2182 4928 2080 4666 
L 352 4666 
L 352 3942 
L 1754 3942 
C 1376 3232 858 2586 205 2150 
C 352 2003 595 1734 710 1555 
C 1005 1760 1267 1997 1510 2266 
L 1510 1741 
C 1510 1139 1459 448 909 -32 
C 1062 -134 1363 -461 1459 -621 
C 1856 -294 2067 173 2176 659 
L 4589 659 
L 4589 269 
C 4589 186 4557 154 4448 147 
C 4339 147 3962 147 3635 166 
C 3738 -38 3840 -365 3866 -576 
C 4390 -576 4755 -570 5011 -448 
C 5274 -333 5344 -122 5344 256 
L 5344 3437 
L 2349 3437 
C 2445 3603 2534 3770 2618 3942 
L 6061 3942 
L 6061 4666 
L 2925 4666 
C 3002 4864 3066 5062 3130 5261 
L 2336 5440 
z
M 4589 1715 
L 4589 1299 
L 2272 1299 
C 2278 1440 2285 1581 2285 1715 
L 4589 1715 
z
M 4589 2355 
L 2285 2355 
L 2285 2765 
L 4589 2765 
L 4589 2355 
z
" transform="scale(0.015625)"/>
     <path id="NotoSansCJKtc-Bold-5bb6" d="M 2611 5274 
C 2662 5171 2720 5050 2765 4928 
L 442 4928 
L 442 3469 
L 1190 3469 
L 1190 4230 
L 5203 4230 
L 5203 3469 
L 5990 3469 
L 5990 4928 
L 3706 4928 
C 3635 5114 3526 5331 3424 5504 
L 2611 5274 
z
M 4960 3130 
C 4646 2816 4179 2451 3744 2150 
C 3603 2432 3418 2701 3174 2931 
C 3315 3027 3450 3130 3565 3232 
L 4992 3232 
L 4992 3878 
L 1389 3878 
L 1389 3232 
L 2502 3232 
C 1920 2912 1158 2669 429 2522 
C 557 2381 749 2067 826 1920 
C 1421 2080 2048 2304 2605 2592 
C 2669 2528 2726 2458 2784 2387 
C 2221 2010 1178 1606 378 1440 
C 518 1280 672 1018 762 851 
C 1491 1075 2438 1491 3078 1894 
C 3117 1818 3149 1734 3174 1651 
C 2534 1114 1299 563 288 333 
C 435 166 602 -109 685 -301 
C 1536 -38 2547 429 3283 934 
C 3283 634 3206 390 3098 288 
C 3008 154 2899 134 2752 134 
C 2598 134 2400 141 2163 166 
C 2304 -45 2368 -352 2374 -563 
C 2566 -570 2752 -576 2899 -570 
C 3232 -563 3437 -499 3661 -269 
C 3994 13 4141 749 3962 1517 
L 4160 1638 
C 4480 762 4992 77 5760 -294 
C 5869 -102 6093 192 6266 333 
C 5530 627 5018 1274 4762 2022 
C 5050 2214 5338 2426 5594 2624 
L 4960 3130 
z
" transform="scale(0.015625)"/>
     <path id="NotoSansCJKtc-Bold-6578" d="M 275 1530 
L 275 1011 
L 960 1011 
C 838 832 717 659 602 518 
C 890 448 1190 358 1491 256 
C 1158 128 717 13 141 -77 
C 250 -198 390 -422 442 -563 
C 1248 -429 1824 -237 2221 -19 
C 2522 -141 2790 -269 2995 -390 
L 3181 -224 
C 3270 -352 3360 -506 3398 -595 
C 3987 -301 4442 77 4787 550 
C 5050 96 5376 -282 5798 -557 
C 5901 -371 6125 -96 6285 32 
C 5811 294 5453 698 5178 1203 
C 5485 1850 5664 2637 5773 3584 
L 6208 3584 
L 6208 4250 
L 4640 4250 
C 4723 4602 4800 4966 4864 5325 
L 4230 5440 
C 4077 4435 3814 3411 3450 2688 
L 3450 2950 
L 2259 2950 
L 2259 3136 
L 3366 3136 
L 3366 3840 
L 3706 3840 
L 3706 4390 
L 3366 4390 
L 3366 5056 
L 2259 5056 
L 2259 5440 
L 1683 5440 
L 1683 5056 
L 653 5056 
L 653 4390 
L 205 4390 
L 205 3840 
L 653 3840 
L 653 3136 
L 1683 3136 
L 1683 2950 
L 544 2950 
L 544 1811 
L 1440 1811 
L 1286 1530 
L 275 1530 
z
M 5126 3584 
C 5062 2995 4973 2477 4826 2022 
C 4666 2502 4550 3027 4467 3584 
L 5126 3584 
z
M 2534 1709 
L 2534 1530 
L 1958 1530 
L 2106 1811 
L 3450 1811 
L 3450 2381 
C 3590 2259 3757 2093 3834 1997 
C 3923 2163 4013 2349 4096 2541 
C 4192 2067 4314 1626 4474 1222 
C 4198 762 3827 397 3322 122 
C 3155 205 2957 288 2746 371 
C 2944 582 3046 800 3091 1011 
L 3667 1011 
L 3667 1530 
L 3136 1530 
L 3136 1709 
L 2534 1709 
z
M 1222 4576 
L 1683 4576 
L 1683 4352 
L 1222 4352 
L 1222 4576 
z
M 1683 3622 
L 1222 3622 
L 1222 3885 
L 1683 3885 
L 1683 3622 
z
M 2259 4576 
L 2758 4576 
L 2758 4352 
L 2259 4352 
L 2259 4576 
z
M 2259 3622 
L 2259 3885 
L 2758 3885 
L 2758 3622 
L 2259 3622 
z
M 1171 2522 
L 1683 2522 
L 1683 2240 
L 1171 2240 
L 1171 2522 
z
M 2259 2522 
L 2784 2522 
L 2784 2240 
L 2259 2240 
L 2259 2522 
z
M 1510 800 
L 1651 1011 
L 2458 1011 
C 2394 877 2298 736 2131 602 
C 1926 672 1715 742 1510 800 
z
" transform="scale(0.015625)"/>
     <path id="NotoSansCJKtc-Bold-8a08" d="M 640 3482 
L 640 2906 
L 2803 2906 
L 2803 3482 
L 640 3482 
z
M 640 2618 
L 640 2035 
L 2790 2035 
L 2790 2618 
L 640 2618 
z
M 1069 5184 
C 1216 4941 1382 4614 1485 4378 
L 365 4378 
L 365 3770 
L 3072 3770 
L 3072 4378 
L 1715 4378 
L 2138 4608 
C 2035 4845 1843 5197 1664 5466 
L 1069 5184 
z
M 666 1728 
L 666 -486 
L 1318 -486 
L 1318 -218 
L 2810 -218 
L 2810 1728 
L 666 1728 
z
M 1318 1120 
L 2150 1120 
L 2150 397 
L 1318 397 
L 1318 1120 
z
M 4173 5325 
L 4173 3302 
L 3046 3302 
L 3046 2547 
L 4173 2547 
L 4173 -576 
L 4973 -576 
L 4973 2547 
L 6163 2547 
L 6163 3302 
L 4973 3302 
L 4973 5325 
L 4173 5325 
z
" transform="scale(0.015625)"/>
    </defs>
    <use xlink:href="#NotoSansCJKtc-Bold-907f"/>
    <use xlink:href="#NotoSansCJKtc-Bold-96aa" transform="translate(99.999985 0)"/>
    <use xlink:href="#NotoSansCJKtc-Bold-57fa" transform="translate(199.999969 0)"/>
    <use xlink:href="#NotoSansCJKtc-Bold-91d1" transform="translate(299.999954 0)"/>
    <use xlink:href="#NotoSansCJKtc-Bold-6700" transform="translate(399.999939 0)"/>
    <use xlink:href="#NotoSansCJKtc-Bold-611b" transform="translate(499.999924 0)"/>
    <use xlink:href="#NotoSansCJKtc-Bold-7684" transform="translate(599.999908 0)"/>
    <use xlink:href="#NotoSansCJKtc-Bold-91d1" transform="translate(699.999893 0)"/>
    <use xlink:href="#NotoSansCJKtc-Bold-878d" transform="translate(799.999878 0)"/>
    <use xlink:href="#NotoSansCJKtc-Bold-80a1" transform="translate(899.999863 0)"/>
    <use xlink:href="#NotoSansCJKtc-Bold-591a" transform="translate(999.999847 0)"/>
    <use xlink:href="#NotoSansCJKtc-Bold-982d" transform="translate(1099.999832 0)"/>
    <use xlink:href="#NotoSansCJKtc-Bold-90e8" transform="translate(1199.999817 0)"/>
    <use xlink:href="#NotoSansCJKtc-Bold-4f4d" transform="translate(1299.999802 0)"/>
    <use xlink:href="#NotoSansCJKtc-Bold-ff1a" transform="translate(1399.999786 0)"/>
    <use xlink:href="#NotoSansCJKtc-Bold-4ee5" transform="translate(1499.999771 0)"/>
    <use xlink:href="#NotoSansCJKtc-Bold-6301" transform="translate(1599.999756 0)"/>
    <use xlink:href="#NotoSansCJKtc-Bold-6709" transform="translate(1699.999741 0)"/>
    <use xlink:href="#NotoSansCJKtc-Bold-5bb6" transform="translate(1799.999725 0)"/>
    <use xlink:href="#NotoSansCJKtc-Bold-6578" transform="translate(1899.99971 0)"/>
    <use xlink:href="#NotoSansCJKtc-Bold-8a08" transform="translate(1999.999695 0)"/>
   </g>
  </g>
  <g id="text_20">
   <!-- Most popular hedge fund long positions in Financials by number of HFs owning, 2Q26 -->
   <g style="fill: #6b7076" transform="translate(46.44 46.545825) scale(0.1 -0.1)">
    <defs>
     <path id="NotoSansCJKtc-Regular-73" d="M 1498 -83 
C 2317 -83 2758 384 2758 947 
C 2758 1606 2208 1811 1702 2003 
C 1312 2150 954 2278 954 2605 
C 954 2880 1158 3110 1600 3110 
C 1907 3110 2150 2976 2387 2803 
L 2669 3168 
C 2406 3386 2022 3565 1594 3565 
C 832 3565 397 3130 397 2579 
C 397 1984 922 1754 1408 1574 
C 1792 1434 2202 1267 2202 915 
C 2202 614 1978 371 1517 371 
C 1101 371 794 538 486 787 
L 205 397 
C 531 122 1005 -83 1498 -83 
z
" transform="scale(0.015625)"/>
     <path id="NotoSansCJKtc-Regular-74" d="M 1677 -83 
C 1894 -83 2125 -19 2323 45 
L 2208 486 
C 2093 435 1939 390 1811 390 
C 1408 390 1274 634 1274 1056 
L 1274 3002 
L 2221 3002 
L 2221 3475 
L 1274 3475 
L 1274 4454 
L 787 4454 
L 723 3475 
L 173 3443 
L 173 3002 
L 691 3002 
L 691 1075 
C 691 378 941 -83 1677 -83 
z
" transform="scale(0.015625)"/>
     <path id="NotoSansCJKtc-Regular-20" transform="scale(0.015625)"/>
     <path id="NotoSansCJKtc-Regular-70" d="M 589 -1466 
L 1178 -1466 
L 1178 -288 
L 1158 320 
C 1472 58 1805 -83 2118 -83 
C 2912 -83 3629 602 3629 1792 
C 3629 2867 3142 3565 2246 3565 
C 1843 3565 1453 3334 1139 3072 
L 1126 3072 
L 1069 3475 
L 589 3475 
L 589 -1466 
z
M 2022 410 
C 1792 410 1485 499 1178 768 
L 1178 2598 
C 1510 2906 1811 3072 2099 3072 
C 2765 3072 3021 2560 3021 1786 
C 3021 928 2598 410 2022 410 
z
" transform="scale(0.015625)"/>
     <path id="NotoSansCJKtc-Regular-75" d="M 1606 -83 
C 2080 -83 2426 166 2752 544 
L 2771 544 
L 2816 0 
L 3302 0 
L 3302 3475 
L 2720 3475 
L 2720 1011 
C 2387 602 2138 422 1779 422 
C 1318 422 1126 698 1126 1344 
L 1126 3475 
L 538 3475 
L 538 1274 
C 538 384 870 -83 1606 -83 
z
" transform="scale(0.015625)"/>
     <path id="NotoSansCJKtc-Regular-6c" d="M 1203 -83 
C 1363 -83 1459 -58 1542 -32 
L 1459 416 
C 1395 403 1370 403 1338 403 
C 1248 403 1178 474 1178 653 
L 1178 5094 
L 589 5094 
L 589 691 
C 589 198 768 -83 1203 -83 
z
" transform="scale(0.015625)"/>
     <path id="NotoSansCJKtc-Regular-61" d="M 1389 -83 
C 1818 -83 2208 141 2541 416 
L 2560 416 
L 2611 0 
L 3091 0 
L 3091 2138 
C 3091 3002 2739 3565 1888 3565 
C 1325 3565 838 3315 525 3110 
L 749 2707 
C 1024 2893 1389 3078 1792 3078 
C 2362 3078 2509 2650 2509 2202 
C 1030 2035 378 1658 378 902 
C 378 275 806 -83 1389 -83 
z
M 1555 390 
C 1210 390 941 544 941 941 
C 941 1389 1338 1677 2509 1811 
L 2509 845 
C 2170 544 1888 390 1555 390 
z
" transform="scale(0.015625)"/>
     <path id="NotoSansCJKtc-Regular-72" d="M 589 0 
L 1178 0 
L 1178 2234 
C 1408 2822 1760 3040 2048 3040 
C 2195 3040 2272 3021 2387 2982 
L 2496 3488 
C 2387 3546 2278 3565 2125 3565 
C 1741 3565 1382 3283 1139 2842 
L 1126 2842 
L 1069 3475 
L 589 3475 
L 589 0 
z
" transform="scale(0.015625)"/>
     <path id="NotoSansCJKtc-Regular-68" d="M 589 0 
L 1178 0 
L 1178 2522 
C 1523 2874 1766 3053 2125 3053 
C 2586 3053 2784 2778 2784 2125 
L 2784 0 
L 3366 0 
L 3366 2202 
C 3366 3085 3034 3565 2304 3565 
C 1830 3565 1472 3302 1152 2982 
L 1178 3699 
L 1178 5094 
L 589 5094 
L 589 0 
z
" transform="scale(0.015625)"/>
     <path id="NotoSansCJKtc-Regular-65" d="M 1997 -83 
C 2464 -83 2835 70 3136 269 
L 2931 659 
C 2669 486 2400 384 2061 384 
C 1402 384 947 858 909 1600 
L 3251 1600 
C 3264 1690 3277 1805 3277 1933 
C 3277 2925 2778 3565 1888 3565 
C 1094 3565 333 2867 333 1734 
C 333 589 1069 -83 1997 -83 
z
M 902 2016 
C 973 2707 1408 3098 1901 3098 
C 2445 3098 2765 2720 2765 2016 
L 902 2016 
z
" transform="scale(0.015625)"/>
     <path id="NotoSansCJKtc-Regular-64" d="M 1773 -83 
C 2189 -83 2560 141 2829 410 
L 2848 410 
L 2899 0 
L 3379 0 
L 3379 5094 
L 2790 5094 
L 2790 3757 
L 2822 3162 
C 2515 3411 2253 3565 1843 3565 
C 1050 3565 339 2861 339 1734 
C 339 576 902 -83 1773 -83 
z
M 1901 410 
C 1293 410 941 902 941 1741 
C 941 2534 1389 3072 1946 3072 
C 2234 3072 2502 2970 2790 2707 
L 2790 883 
C 2502 563 2221 410 1901 410 
z
" transform="scale(0.015625)"/>
     <path id="NotoSansCJKtc-Regular-67" d="M 1760 -1600 
C 2835 -1600 3520 -1043 3520 -397 
C 3520 179 3110 429 2310 429 
L 1626 429 
C 1158 429 1018 589 1018 806 
C 1018 998 1114 1114 1242 1222 
C 1395 1146 1587 1101 1754 1101 
C 2470 1101 3027 1568 3027 2310 
C 3027 2611 2912 2867 2746 3027 
L 3456 3027 
L 3456 3475 
L 2246 3475 
C 2125 3526 1952 3565 1754 3565 
C 1056 3565 454 3085 454 2323 
C 454 1907 678 1568 909 1389 
L 909 1363 
C 723 1235 525 1005 525 717 
C 525 442 659 256 838 147 
L 838 115 
C 512 -83 326 -371 326 -672 
C 326 -1267 915 -1600 1760 -1600 
z
M 1754 1498 
C 1357 1498 1018 1818 1018 2323 
C 1018 2835 1350 3136 1754 3136 
C 2170 3136 2496 2835 2496 2323 
C 2496 1818 2157 1498 1754 1498 
z
M 1843 -1197 
C 1210 -1197 838 -960 838 -589 
C 838 -390 941 -179 1190 0 
C 1344 -38 1510 -51 1638 -51 
L 2240 -51 
C 2701 -51 2944 -166 2944 -493 
C 2944 -851 2515 -1197 1843 -1197 
z
" transform="scale(0.015625)"/>
     <path id="NotoSansCJKtc-Regular-66" d="M 211 3002 
L 685 3002 
L 685 0 
L 1267 0 
L 1267 3002 
L 2003 3002 
L 2003 3475 
L 1267 3475 
L 1267 4026 
C 1267 4474 1427 4710 1760 4710 
C 1882 4710 2022 4678 2150 4614 
L 2278 5069 
C 2118 5133 1914 5178 1696 5178 
C 1005 5178 685 4736 685 4032 
L 685 3475 
L 211 3443 
L 211 3002 
z
" transform="scale(0.015625)"/>
     <path id="NotoSansCJKtc-Regular-6e" d="M 589 0 
L 1178 0 
L 1178 2522 
C 1523 2874 1766 3053 2125 3053 
C 2586 3053 2784 2778 2784 2125 
L 2784 0 
L 3366 0 
L 3366 2202 
C 3366 3085 3034 3565 2304 3565 
C 1830 3565 1466 3302 1139 2970 
L 1126 2970 
L 1069 3475 
L 589 3475 
L 589 0 
z
" transform="scale(0.015625)"/>
     <path id="NotoSansCJKtc-Regular-69" d="M 589 0 
L 1178 0 
L 1178 3475 
L 589 3475 
L 589 0 
z
M 883 4192 
C 1114 4192 1274 4346 1274 4582 
C 1274 4806 1114 4960 883 4960 
C 653 4960 499 4806 499 4582 
C 499 4346 653 4192 883 4192 
z
" transform="scale(0.015625)"/>
     <path id="NotoSansCJKtc-Regular-63" d="M 1958 -83 
C 2374 -83 2771 83 3085 352 
L 2829 749 
C 2611 557 2330 403 2010 403 
C 1370 403 934 934 934 1734 
C 934 2534 1395 3072 2029 3072 
C 2298 3072 2522 2950 2720 2771 
L 3014 3155 
C 2771 3373 2458 3565 2003 3565 
C 1107 3565 333 2893 333 1734 
C 333 582 1037 -83 1958 -83 
z
" transform="scale(0.015625)"/>
     <path id="NotoSansCJKtc-Regular-62" d="M 2118 -83 
C 2912 -83 3629 602 3629 1792 
C 3629 2867 3142 3565 2246 3565 
C 1856 3565 1472 3347 1152 3078 
L 1178 3699 
L 1178 5094 
L 589 5094 
L 589 0 
L 1056 0 
L 1107 358 
L 1133 358 
C 1434 83 1798 -83 2118 -83 
z
M 2022 410 
C 1792 410 1478 499 1178 768 
L 1178 2598 
C 1504 2906 1811 3072 2099 3072 
C 2765 3072 3021 2560 3021 1786 
C 3021 928 2598 410 2022 410 
z
" transform="scale(0.015625)"/>
     <path id="NotoSansCJKtc-Regular-79" d="M 646 -1498 
C 1338 -1498 1702 -973 1946 -294 
L 3251 3475 
L 2682 3475 
L 2054 1549 
C 1965 1235 1862 883 1773 563 
L 1741 563 
C 1619 890 1504 1242 1395 1549 
L 691 3475 
L 83 3475 
L 1478 -6 
L 1402 -269 
C 1254 -698 1011 -1018 621 -1018 
C 525 -1018 422 -986 352 -960 
L 237 -1427 
C 346 -1472 486 -1498 646 -1498 
z
" transform="scale(0.015625)"/>
     <path id="NotoSansCJKtc-Regular-6d" d="M 589 0 
L 1178 0 
L 1178 2522 
C 1491 2880 1786 3053 2048 3053 
C 2490 3053 2694 2778 2694 2125 
L 2694 0 
L 3277 0 
L 3277 2522 
C 3603 2880 3885 3053 4154 3053 
C 4595 3053 4800 2778 4800 2125 
L 4800 0 
L 5382 0 
L 5382 2202 
C 5382 3085 5043 3565 4333 3565 
C 3904 3565 3546 3290 3181 2899 
C 3040 3309 2758 3565 2221 3565 
C 1805 3565 1446 3302 1139 2970 
L 1126 2970 
L 1069 3475 
L 589 3475 
L 589 0 
z
" transform="scale(0.015625)"/>
     <path id="NotoSansCJKtc-Regular-48" d="M 646 0 
L 1235 0 
L 1235 2214 
L 3424 2214 
L 3424 0 
L 4019 0 
L 4019 4691 
L 3424 4691 
L 3424 2726 
L 1235 2726 
L 1235 4691 
L 646 4691 
L 646 0 
z
" transform="scale(0.015625)"/>
     <path id="NotoSansCJKtc-Regular-77" d="M 1139 0 
L 1818 0 
L 2310 1862 
C 2400 2195 2470 2522 2547 2874 
L 2579 2874 
C 2662 2522 2726 2202 2816 1875 
L 3315 0 
L 4026 0 
L 4966 3475 
L 4403 3475 
L 3898 1466 
C 3821 1133 3757 819 3686 499 
L 3654 499 
C 3571 819 3494 1133 3411 1466 
L 2867 3475 
L 2298 3475 
L 1754 1466 
C 1670 1133 1594 819 1523 499 
L 1491 499 
C 1421 819 1357 1133 1286 1466 
L 768 3475 
L 173 3475 
L 1139 0 
z
" transform="scale(0.015625)"/>
     <path id="NotoSansCJKtc-Regular-2c" d="M 480 -1216 
C 1056 -973 1414 -493 1414 122 
C 1414 550 1229 806 922 806 
C 685 806 480 653 480 397 
C 480 141 678 -13 909 -13 
L 979 -6 
C 973 -390 736 -698 339 -870 
L 480 -1216 
z
" transform="scale(0.015625)"/>
     <path id="NotoSansCJKtc-Regular-36" d="M 1926 -83 
C 2656 -83 3277 531 3277 1440 
C 3277 2426 2765 2912 1971 2912 
C 1606 2912 1197 2701 909 2349 
C 934 3802 1466 4294 2118 4294 
C 2400 4294 2682 4154 2861 3936 
L 3194 4294 
C 2931 4576 2579 4774 2093 4774 
C 1184 4774 358 4077 358 2240 
C 358 691 1030 -83 1926 -83 
z
M 922 1882 
C 1229 2317 1587 2477 1875 2477 
C 2445 2477 2720 2074 2720 1440 
C 2720 800 2374 378 1926 378 
C 1338 378 986 909 922 1882 
z
" transform="scale(0.015625)"/>
    </defs>
    <use xlink:href="#NotoSansCJKtc-Regular-4d"/>
    <use xlink:href="#NotoSansCJKtc-Regular-6f" transform="translate(81.199982 0)"/>
    <use xlink:href="#NotoSansCJKtc-Regular-73" transform="translate(141.799973 0)"/>
    <use xlink:href="#NotoSansCJKtc-Regular-74" transform="translate(188.59996 0)"/>
    <use xlink:href="#NotoSansCJKtc-Regular-20" transform="translate(226.299957 0)"/>
    <use xlink:href="#NotoSansCJKtc-Regular-70" transform="translate(248.699951 0)"/>
    <use xlink:href="#NotoSansCJKtc-Regular-6f" transform="translate(310.699936 0)"/>
    <use xlink:href="#NotoSansCJKtc-Regular-70" transform="translate(371.299927 0)"/>
    <use xlink:href="#NotoSansCJKtc-Regular-75" transform="translate(433.299911 0)"/>
    <use xlink:href="#NotoSansCJKtc-Regular-6c" transform="translate(493.999908 0)"/>
    <use xlink:href="#NotoSansCJKtc-Regular-61" transform="translate(522.399902 0)"/>
    <use xlink:href="#NotoSansCJKtc-Regular-72" transform="translate(578.69989 0)"/>
    <use xlink:href="#NotoSansCJKtc-Regular-20" transform="translate(617.499878 0)"/>
    <use xlink:href="#NotoSansCJKtc-Regular-68" transform="translate(639.899872 0)"/>
    <use xlink:href="#NotoSansCJKtc-Regular-65" transform="translate(700.599869 0)"/>
    <use xlink:href="#NotoSansCJKtc-Regular-64" transform="translate(755.999863 0)"/>
    <use xlink:href="#NotoSansCJKtc-Regular-67" transform="translate(817.999847 0)"/>
    <use xlink:href="#NotoSansCJKtc-Regular-65" transform="translate(874.399841 0)"/>
    <use xlink:href="#NotoSansCJKtc-Regular-20" transform="translate(929.799835 0)"/>
    <use xlink:href="#NotoSansCJKtc-Regular-66" transform="translate(952.199829 0)"/>
    <use xlink:href="#NotoSansCJKtc-Regular-75" transform="translate(984.699814 0)"/>
    <use xlink:href="#NotoSansCJKtc-Regular-6e" transform="translate(1045.399811 0)"/>
    <use xlink:href="#NotoSansCJKtc-Regular-64" transform="translate(1106.399796 0)"/>
    <use xlink:href="#NotoSansCJKtc-Regular-20" transform="translate(1168.39978 0)"/>
    <use xlink:href="#NotoSansCJKtc-Regular-6c" transform="translate(1190.799774 0)"/>
    <use xlink:href="#NotoSansCJKtc-Regular-6f" transform="translate(1219.199768 0)"/>
    <use xlink:href="#NotoSansCJKtc-Regular-6e" transform="translate(1279.799759 0)"/>
    <use xlink:href="#NotoSansCJKtc-Regular-67" transform="translate(1340.799744 0)"/>
    <use xlink:href="#NotoSansCJKtc-Regular-20" transform="translate(1397.199738 0)"/>
    <use xlink:href="#NotoSansCJKtc-Regular-70" transform="translate(1419.599731 0)"/>
    <use xlink:href="#NotoSansCJKtc-Regular-6f" transform="translate(1481.599716 0)"/>
    <use xlink:href="#NotoSansCJKtc-Regular-73" transform="translate(1542.199707 0)"/>
    <use xlink:href="#NotoSansCJKtc-Regular-69" transform="translate(1588.999695 0)"/>
    <use xlink:href="#NotoSansCJKtc-Regular-74" transform="translate(1616.49968 0)"/>
    <use xlink:href="#NotoSansCJKtc-Regular-69" transform="translate(1654.199677 0)"/>
    <use xlink:href="#NotoSansCJKtc-Regular-6f" transform="translate(1681.699661 0)"/>
    <use xlink:href="#NotoSansCJKtc-Regular-6e" transform="translate(1742.299652 0)"/>
    <use xlink:href="#NotoSansCJKtc-Regular-73" transform="translate(1803.299637 0)"/>
    <use xlink:href="#NotoSansCJKtc-Regular-20" transform="translate(1850.099625 0)"/>
    <use xlink:href="#NotoSansCJKtc-Regular-69" transform="translate(1872.499619 0)"/>
    <use xlink:href="#NotoSansCJKtc-Regular-6e" transform="translate(1899.999603 0)"/>
    <use xlink:href="#NotoSansCJKtc-Regular-20" transform="translate(1960.999588 0)"/>
    <use xlink:href="#NotoSansCJKtc-Regular-46" transform="translate(1983.399582 0)"/>
    <use xlink:href="#NotoSansCJKtc-Regular-69" transform="translate(2038.599579 0)"/>
    <use xlink:href="#NotoSansCJKtc-Regular-6e" transform="translate(2066.099564 0)"/>
    <use xlink:href="#NotoSansCJKtc-Regular-61" transform="translate(2127.099548 0)"/>
    <use xlink:href="#NotoSansCJKtc-Regular-6e" transform="translate(2183.399536 0)"/>
    <use xlink:href="#NotoSansCJKtc-Regular-63" transform="translate(2244.399521 0)"/>
    <use xlink:href="#NotoSansCJKtc-Regular-69" transform="translate(2295.399506 0)"/>
    <use xlink:href="#NotoSansCJKtc-Regular-61" transform="translate(2322.89949 0)"/>
    <use xlink:href="#NotoSansCJKtc-Regular-6c" transform="translate(2379.199478 0)"/>
    <use xlink:href="#NotoSansCJKtc-Regular-73" transform="translate(2407.599472 0)"/>
    <use xlink:href="#NotoSansCJKtc-Regular-20" transform="translate(2454.39946 0)"/>
    <use xlink:href="#NotoSansCJKtc-Regular-62" transform="translate(2476.799454 0)"/>
    <use xlink:href="#NotoSansCJKtc-Regular-79" transform="translate(2538.599442 0)"/>
    <use xlink:href="#NotoSansCJKtc-Regular-20" transform="translate(2590.699432 0)"/>
    <use xlink:href="#NotoSansCJKtc-Regular-6e" transform="translate(2613.099426 0)"/>
    <use xlink:href="#NotoSansCJKtc-Regular-75" transform="translate(2674.099411 0)"/>
    <use xlink:href="#NotoSansCJKtc-Regular-6d" transform="translate(2734.799408 0)"/>
    <use xlink:href="#NotoSansCJKtc-Regular-62" transform="translate(2827.399399 0)"/>
    <use xlink:href="#NotoSansCJKtc-Regular-65" transform="translate(2889.199387 0)"/>
    <use xlink:href="#NotoSansCJKtc-Regular-72" transform="translate(2944.59938 0)"/>
    <use xlink:href="#NotoSansCJKtc-Regular-20" transform="translate(2983.399368 0)"/>
    <use xlink:href="#NotoSansCJKtc-Regular-6f" transform="translate(3005.799362 0)"/>
    <use xlink:href="#NotoSansCJKtc-Regular-66" transform="translate(3066.399353 0)"/>
    <use xlink:href="#NotoSansCJKtc-Regular-20" transform="translate(3098.899338 0)"/>
    <use xlink:href="#NotoSansCJKtc-Regular-48" transform="translate(3121.299332 0)"/>
    <use xlink:href="#NotoSansCJKtc-Regular-46" transform="translate(3194.099319 0)"/>
    <use xlink:href="#NotoSansCJKtc-Regular-73" transform="translate(3249.299316 0)"/>
    <use xlink:href="#NotoSansCJKtc-Regular-20" transform="translate(3296.099304 0)"/>
    <use xlink:href="#NotoSansCJKtc-Regular-6f" transform="translate(3318.499298 0)"/>
    <use xlink:href="#NotoSansCJKtc-Regular-77" transform="translate(3379.099289 0)"/>
    <use xlink:href="#NotoSansCJKtc-Regular-6e" transform="translate(3459.299271 0)"/>
    <use xlink:href="#NotoSansCJKtc-Regular-69" transform="translate(3520.299255 0)"/>
    <use xlink:href="#NotoSansCJKtc-Regular-6e" transform="translate(3547.79924 0)"/>
    <use xlink:href="#NotoSansCJKtc-Regular-67" transform="translate(3608.799225 0)"/>
    <use xlink:href="#NotoSansCJKtc-Regular-2c" transform="translate(3665.199219 0)"/>
    <use xlink:href="#NotoSansCJKtc-Regular-20" transform="translate(3692.999207 0)"/>
    <use xlink:href="#NotoSansCJKtc-Regular-32" transform="translate(3715.3992 0)"/>
    <use xlink:href="#NotoSansCJKtc-Regular-51" transform="translate(3770.899185 0)"/>
    <use xlink:href="#NotoSansCJKtc-Regular-32" transform="translate(3845.099167 0)"/>
    <use xlink:href="#NotoSansCJKtc-Regular-36" transform="translate(3900.599152 0)"/>
   </g>
  </g>
  <g id="text_21">
   <!-- 2026-08-23, p.5（Exhibit 10） -->
   <g style="fill: #9ba0a6" transform="translate(46.44 346.7339) scale(0.08 -0.08)">
    <defs>
     <path id="NotoSansCJKtc-Regular-2d" d="M 294 1568 
L 1933 1568 
L 1933 2016 
L 294 2016 
L 294 1568 
z
" transform="scale(0.015625)"/>
     <path id="NotoSansCJKtc-Regular-38" d="M 1792 -83 
C 2669 -83 3258 448 3258 1126 
C 3258 1773 2880 2125 2470 2362 
L 2470 2394 
C 2746 2611 3091 3034 3091 3526 
C 3091 4250 2605 4762 1805 4762 
C 1075 4762 518 4282 518 3571 
C 518 3078 813 2726 1152 2490 
L 1152 2464 
C 723 2234 294 1792 294 1165 
C 294 442 922 -83 1792 -83 
z
M 2112 2547 
C 1555 2765 1050 3014 1050 3571 
C 1050 4026 1363 4326 1798 4326 
C 2298 4326 2592 3962 2592 3494 
C 2592 3149 2426 2829 2112 2547 
z
M 1798 352 
C 1235 352 813 717 813 1216 
C 813 1664 1082 2035 1459 2278 
C 2125 2010 2701 1779 2701 1146 
C 2701 678 2342 352 1798 352 
z
" transform="scale(0.015625)"/>
     <path id="NotoSansCJKtc-Regular-33" d="M 1683 -83 
C 2522 -83 3194 416 3194 1254 
C 3194 1901 2752 2310 2202 2445 
L 2202 2477 
C 2701 2650 3034 3034 3034 3603 
C 3034 4346 2458 4774 1664 4774 
C 1126 4774 710 4538 358 4218 
L 672 3846 
C 941 4115 1267 4301 1645 4301 
C 2138 4301 2438 4006 2438 3558 
C 2438 3053 2112 2662 1139 2662 
L 1139 2214 
C 2227 2214 2598 1843 2598 1274 
C 2598 736 2208 403 1645 403 
C 1114 403 762 659 486 941 
L 186 563 
C 493 224 954 -83 1683 -83 
z
" transform="scale(0.015625)"/>
     <path id="NotoSansCJKtc-Regular-45" d="M 646 0 
L 3418 0 
L 3418 506 
L 1235 506 
L 1235 2214 
L 3014 2214 
L 3014 2720 
L 1235 2720 
L 1235 4192 
L 3347 4192 
L 3347 4691 
L 646 4691 
L 646 0 
z
" transform="scale(0.015625)"/>
     <path id="NotoSansCJKtc-Regular-78" d="M 96 0 
L 710 0 
L 1178 813 
C 1299 1024 1408 1235 1530 1434 
L 1562 1434 
C 1696 1235 1824 1024 1939 813 
L 2451 0 
L 3091 0 
L 1946 1754 
L 3002 3475 
L 2394 3475 
L 1965 2714 
C 1856 2515 1760 2330 1658 2131 
L 1626 2131 
C 1510 2330 1389 2515 1286 2714 
L 819 3475 
L 186 3475 
L 1242 1811 
L 96 0 
z
" transform="scale(0.015625)"/>
    </defs>
    <use xlink:href="#NotoSansCJKtc-Regular-32"/>
    <use xlink:href="#NotoSansCJKtc-Regular-30" transform="translate(55.499985 0)"/>
    <use xlink:href="#NotoSansCJKtc-Regular-32" transform="translate(110.999969 0)"/>
    <use xlink:href="#NotoSansCJKtc-Regular-36" transform="translate(166.499954 0)"/>
    <use xlink:href="#NotoSansCJKtc-Regular-2d" transform="translate(221.999939 0)"/>
    <use xlink:href="#NotoSansCJKtc-Regular-30" transform="translate(256.699936 0)"/>
    <use xlink:href="#NotoSansCJKtc-Regular-38" transform="translate(312.199921 0)"/>
    <use xlink:href="#NotoSansCJKtc-Regular-2d" transform="translate(367.699905 0)"/>
    <use xlink:href="#NotoSansCJKtc-Regular-32" transform="translate(402.399902 0)"/>
    <use xlink:href="#NotoSansCJKtc-Regular-33" transform="translate(457.899887 0)"/>
    <use xlink:href="#NotoSansCJKtc-Regular-2c" transform="translate(513.399872 0)"/>
    <use xlink:href="#NotoSansCJKtc-Regular-20" transform="translate(541.19986 0)"/>
    <use xlink:href="#NotoSansCJKtc-Regular-70" transform="translate(563.599854 0)"/>
    <use xlink:href="#NotoSansCJKtc-Regular-2e" transform="translate(625.599838 0)"/>
    <use xlink:href="#NotoSansCJKtc-Regular-35" transform="translate(653.399826 0)"/>
    <use xlink:href="#NotoSansCJKtc-Regular-ff08" transform="translate(708.899811 0)"/>
    <use xlink:href="#NotoSansCJKtc-Regular-45" transform="translate(808.899796 0)"/>
    <use xlink:href="#NotoSansCJKtc-Regular-78" transform="translate(867.799789 0)"/>
    <use xlink:href="#NotoSansCJKtc-Regular-68" transform="translate(917.599777 0)"/>
    <use xlink:href="#NotoSansCJKtc-Regular-69" transform="translate(978.299774 0)"/>
    <use xlink:href="#NotoSansCJKtc-Regular-62" transform="translate(1005.799759 0)"/>
    <use xlink:href="#NotoSansCJKtc-Regular-69" transform="translate(1067.599747 0)"/>
    <use xlink:href="#NotoSansCJKtc-Regular-74" transform="translate(1095.099731 0)"/>
    <use xlink:href="#NotoSansCJKtc-Regular-20" transform="translate(1132.799728 0)"/>
    <use xlink:href="#NotoSansCJKtc-Regular-31" transform="translate(1155.199722 0)"/>
    <use xlink:href="#NotoSansCJKtc-Regular-30" transform="translate(1210.699707 0)"/>
    <use xlink:href="#NotoSansCJKtc-Regular-ff09" transform="translate(1266.199692 0)"/>
   </g>
  </g>
  <g id="text_22">
   <!-- Goldman Sachs, Americas Diversified Financials: 2Q26 mutual fund and hedge fund Financials positioning analysis, -->
   <g style="fill: #9ba0a6" transform="translate(46.44 338.0992) scale(0.08 -0.08)">
    <defs>
     <path id="NotoSansCJKtc-Regular-44" d="M 646 0 
L 1843 0 
C 3258 0 4026 877 4026 2362 
C 4026 3859 3258 4691 1818 4691 
L 646 4691 
L 646 0 
z
M 1235 486 
L 1235 4211 
L 1766 4211 
C 2874 4211 3418 3552 3418 2362 
C 3418 1178 2874 486 1766 486 
L 1235 486 
z
" transform="scale(0.015625)"/>
     <path id="NotoSansCJKtc-Regular-76" d="M 1338 0 
L 2022 0 
L 3251 3475 
L 2675 3475 
L 2016 1498 
C 1914 1158 1798 806 1696 474 
L 1664 474 
C 1562 806 1453 1158 1344 1498 
L 691 3475 
L 83 3475 
L 1338 0 
z
" transform="scale(0.015625)"/>
     <path id="NotoSansCJKtc-Regular-3a" d="M 890 2496 
C 1120 2496 1312 2675 1312 2944 
C 1312 3206 1120 3392 890 3392 
C 653 3392 467 3206 467 2944 
C 467 2675 653 2496 890 2496 
z
M 890 -83 
C 1120 -83 1312 96 1312 358 
C 1312 627 1120 806 890 806 
C 653 806 467 627 467 358 
C 467 96 653 -83 890 -83 
z
" transform="scale(0.015625)"/>
    </defs>
    <use xlink:href="#NotoSansCJKtc-Regular-47"/>
    <use xlink:href="#NotoSansCJKtc-Regular-6f" transform="translate(68.899994 0)"/>
    <use xlink:href="#NotoSansCJKtc-Regular-6c" transform="translate(129.499985 0)"/>
    <use xlink:href="#NotoSansCJKtc-Regular-64" transform="translate(157.899979 0)"/>
    <use xlink:href="#NotoSansCJKtc-Regular-6d" transform="translate(219.899963 0)"/>
    <use xlink:href="#NotoSansCJKtc-Regular-61" transform="translate(312.499954 0)"/>
    <use xlink:href="#NotoSansCJKtc-Regular-6e" transform="translate(368.799942 0)"/>
    <use xlink:href="#NotoSansCJKtc-Regular-20" transform="translate(429.799927 0)"/>
    <use xlink:href="#NotoSansCJKtc-Regular-53" transform="translate(452.199921 0)"/>
    <use xlink:href="#NotoSansCJKtc-Regular-61" transform="translate(511.799911 0)"/>
    <use xlink:href="#NotoSansCJKtc-Regular-63" transform="translate(568.099899 0)"/>
    <use xlink:href="#NotoSansCJKtc-Regular-68" transform="translate(619.099884 0)"/>
    <use xlink:href="#NotoSansCJKtc-Regular-73" transform="translate(679.799881 0)"/>
    <use xlink:href="#NotoSansCJKtc-Regular-2c" transform="translate(726.599869 0)"/>
    <use xlink:href="#NotoSansCJKtc-Regular-20" transform="translate(754.399857 0)"/>
    <use xlink:href="#NotoSansCJKtc-Regular-41" transform="translate(776.79985 0)"/>
    <use xlink:href="#NotoSansCJKtc-Regular-6d" transform="translate(837.599838 0)"/>
    <use xlink:href="#NotoSansCJKtc-Regular-65" transform="translate(930.199829 0)"/>
    <use xlink:href="#NotoSansCJKtc-Regular-72" transform="translate(985.599823 0)"/>
    <use xlink:href="#NotoSansCJKtc-Regular-69" transform="translate(1024.399811 0)"/>
    <use xlink:href="#NotoSansCJKtc-Regular-63" transform="translate(1051.899796 0)"/>
    <use xlink:href="#NotoSansCJKtc-Regular-61" transform="translate(1102.89978 0)"/>
    <use xlink:href="#NotoSansCJKtc-Regular-73" transform="translate(1159.199768 0)"/>
    <use xlink:href="#NotoSansCJKtc-Regular-20" transform="translate(1205.999756 0)"/>
    <use xlink:href="#NotoSansCJKtc-Regular-44" transform="translate(1228.39975 0)"/>
    <use xlink:href="#NotoSansCJKtc-Regular-69" transform="translate(1297.199738 0)"/>
    <use xlink:href="#NotoSansCJKtc-Regular-76" transform="translate(1324.699722 0)"/>
    <use xlink:href="#NotoSansCJKtc-Regular-65" transform="translate(1376.799713 0)"/>
    <use xlink:href="#NotoSansCJKtc-Regular-72" transform="translate(1432.199707 0)"/>
    <use xlink:href="#NotoSansCJKtc-Regular-73" transform="translate(1470.999695 0)"/>
    <use xlink:href="#NotoSansCJKtc-Regular-69" transform="translate(1517.799683 0)"/>
    <use xlink:href="#NotoSansCJKtc-Regular-66" transform="translate(1545.299667 0)"/>
    <use xlink:href="#NotoSansCJKtc-Regular-69" transform="translate(1577.799652 0)"/>
    <use xlink:href="#NotoSansCJKtc-Regular-65" transform="translate(1605.299637 0)"/>
    <use xlink:href="#NotoSansCJKtc-Regular-64" transform="translate(1660.699631 0)"/>
    <use xlink:href="#NotoSansCJKtc-Regular-20" transform="translate(1722.699615 0)"/>
    <use xlink:href="#NotoSansCJKtc-Regular-46" transform="translate(1745.099609 0)"/>
    <use xlink:href="#NotoSansCJKtc-Regular-69" transform="translate(1800.299606 0)"/>
    <use xlink:href="#NotoSansCJKtc-Regular-6e" transform="translate(1827.799591 0)"/>
    <use xlink:href="#NotoSansCJKtc-Regular-61" transform="translate(1888.799576 0)"/>
    <use xlink:href="#NotoSansCJKtc-Regular-6e" transform="translate(1945.099564 0)"/>
    <use xlink:href="#NotoSansCJKtc-Regular-63" transform="translate(2006.099548 0)"/>
    <use xlink:href="#NotoSansCJKtc-Regular-69" transform="translate(2057.099533 0)"/>
    <use xlink:href="#NotoSansCJKtc-Regular-61" transform="translate(2084.599518 0)"/>
    <use xlink:href="#NotoSansCJKtc-Regular-6c" transform="translate(2140.899506 0)"/>
    <use xlink:href="#NotoSansCJKtc-Regular-73" transform="translate(2169.2995 0)"/>
    <use xlink:href="#NotoSansCJKtc-Regular-3a" transform="translate(2216.099487 0)"/>
    <use xlink:href="#NotoSansCJKtc-Regular-20" transform="translate(2243.899475 0)"/>
    <use xlink:href="#NotoSansCJKtc-Regular-32" transform="translate(2266.299469 0)"/>
    <use xlink:href="#NotoSansCJKtc-Regular-51" transform="translate(2321.799454 0)"/>
    <use xlink:href="#NotoSansCJKtc-Regular-32" transform="translate(2395.999435 0)"/>
    <use xlink:href="#NotoSansCJKtc-Regular-36" transform="translate(2451.49942 0)"/>
    <use xlink:href="#NotoSansCJKtc-Regular-20" transform="translate(2506.999405 0)"/>
    <use xlink:href="#NotoSansCJKtc-Regular-6d" transform="translate(2529.399399 0)"/>
    <use xlink:href="#NotoSansCJKtc-Regular-75" transform="translate(2621.99939 0)"/>
    <use xlink:href="#NotoSansCJKtc-Regular-74" transform="translate(2682.699387 0)"/>
    <use xlink:href="#NotoSansCJKtc-Regular-75" transform="translate(2720.399384 0)"/>
    <use xlink:href="#NotoSansCJKtc-Regular-61" transform="translate(2781.09938 0)"/>
    <use xlink:href="#NotoSansCJKtc-Regular-6c" transform="translate(2837.399368 0)"/>
    <use xlink:href="#NotoSansCJKtc-Regular-20" transform="translate(2865.799362 0)"/>
    <use xlink:href="#NotoSansCJKtc-Regular-66" transform="translate(2888.199356 0)"/>
    <use xlink:href="#NotoSansCJKtc-Regular-75" transform="translate(2920.699341 0)"/>
    <use xlink:href="#NotoSansCJKtc-Regular-6e" transform="translate(2981.399338 0)"/>
    <use xlink:href="#NotoSansCJKtc-Regular-64" transform="translate(3042.399323 0)"/>
    <use xlink:href="#NotoSansCJKtc-Regular-20" transform="translate(3104.399307 0)"/>
    <use xlink:href="#NotoSansCJKtc-Regular-61" transform="translate(3126.799301 0)"/>
    <use xlink:href="#NotoSansCJKtc-Regular-6e" transform="translate(3183.099289 0)"/>
    <use xlink:href="#NotoSansCJKtc-Regular-64" transform="translate(3244.099274 0)"/>
    <use xlink:href="#NotoSansCJKtc-Regular-20" transform="translate(3306.099258 0)"/>
    <use xlink:href="#NotoSansCJKtc-Regular-68" transform="translate(3328.499252 0)"/>
    <use xlink:href="#NotoSansCJKtc-Regular-65" transform="translate(3389.199249 0)"/>
    <use xlink:href="#NotoSansCJKtc-Regular-64" transform="translate(3444.599243 0)"/>
    <use xlink:href="#NotoSansCJKtc-Regular-67" transform="translate(3506.599228 0)"/>
    <use xlink:href="#NotoSansCJKtc-Regular-65" transform="translate(3562.999222 0)"/>
    <use xlink:href="#NotoSansCJKtc-Regular-20" transform="translate(3618.399216 0)"/>
    <use xlink:href="#NotoSansCJKtc-Regular-66" transform="translate(3640.79921 0)"/>
    <use xlink:href="#NotoSansCJKtc-Regular-75" transform="translate(3673.299194 0)"/>
    <use xlink:href="#NotoSansCJKtc-Regular-6e" transform="translate(3733.999191 0)"/>
    <use xlink:href="#NotoSansCJKtc-Regular-64" transform="translate(3794.999176 0)"/>
    <use xlink:href="#NotoSansCJKtc-Regular-20" transform="translate(3856.999161 0)"/>
    <use xlink:href="#NotoSansCJKtc-Regular-46" transform="translate(3879.399155 0)"/>
    <use xlink:href="#NotoSansCJKtc-Regular-69" transform="translate(3934.599152 0)"/>
    <use xlink:href="#NotoSansCJKtc-Regular-6e" transform="translate(3962.099136 0)"/>
    <use xlink:href="#NotoSansCJKtc-Regular-61" transform="translate(4023.099121 0)"/>
    <use xlink:href="#NotoSansCJKtc-Regular-6e" transform="translate(4079.399109 0)"/>
    <use xlink:href="#NotoSansCJKtc-Regular-63" transform="translate(4140.399094 0)"/>
    <use xlink:href="#NotoSansCJKtc-Regular-69" transform="translate(4191.399078 0)"/>
    <use xlink:href="#NotoSansCJKtc-Regular-61" transform="translate(4218.899063 0)"/>
    <use xlink:href="#NotoSansCJKtc-Regular-6c" transform="translate(4275.199051 0)"/>
    <use xlink:href="#NotoSansCJKtc-Regular-73" transform="translate(4303.599045 0)"/>
    <use xlink:href="#NotoSansCJKtc-Regular-20" transform="translate(4350.399033 0)"/>
    <use xlink:href="#NotoSansCJKtc-Regular-70" transform="translate(4372.799026 0)"/>
    <use xlink:href="#NotoSansCJKtc-Regular-6f" transform="translate(4434.799011 0)"/>
    <use xlink:href="#NotoSansCJKtc-Regular-73" transform="translate(4495.399002 0)"/>
    <use xlink:href="#NotoSansCJKtc-Regular-69" transform="translate(4542.19899 0)"/>
    <use xlink:href="#NotoSansCJKtc-Regular-74" transform="translate(4569.698975 0)"/>
    <use xlink:href="#NotoSansCJKtc-Regular-69" transform="translate(4607.398972 0)"/>
    <use xlink:href="#NotoSansCJKtc-Regular-6f" transform="translate(4634.898956 0)"/>
    <use xlink:href="#NotoSansCJKtc-Regular-6e" transform="translate(4695.498947 0)"/>
    <use xlink:href="#NotoSansCJKtc-Regular-69" transform="translate(4756.498932 0)"/>
    <use xlink:href="#NotoSansCJKtc-Regular-6e" transform="translate(4783.998917 0)"/>
    <use xlink:href="#NotoSansCJKtc-Regular-67" transform="translate(4844.998901 0)"/>
    <use xlink:href="#NotoSansCJKtc-Regular-20" transform="translate(4901.398895 0)"/>
    <use xlink:href="#NotoSansCJKtc-Regular-61" transform="translate(4923.798889 0)"/>
    <use xlink:href="#NotoSansCJKtc-Regular-6e" transform="translate(4980.098877 0)"/>
    <use xlink:href="#NotoSansCJKtc-Regular-61" transform="translate(5041.098862 0)"/>
    <use xlink:href="#NotoSansCJKtc-Regular-6c" transform="translate(5097.398849 0)"/>
    <use xlink:href="#NotoSansCJKtc-Regular-79" transform="translate(5125.798843 0)"/>
    <use xlink:href="#NotoSansCJKtc-Regular-73" transform="translate(5177.898834 0)"/>
    <use xlink:href="#NotoSansCJKtc-Regular-69" transform="translate(5224.698822 0)"/>
    <use xlink:href="#NotoSansCJKtc-Regular-73" transform="translate(5252.198807 0)"/>
    <use xlink:href="#NotoSansCJKtc-Regular-2c" transform="translate(5298.998795 0)"/>
   </g>
  </g>
 </g>
 <defs>
  <clipPath id="p590cffd353">
   <rect x="46.44" y="70.56" width="526.32" height="222.264"/>
  </clipPath>
 </defs>
</svg>
