<?xml version="1.0" encoding="utf-8" standalone="no"?>
<!DOCTYPE svg PUBLIC "-//W3C//DTD SVG 1.1//EN"
  "http://www.w3.org/Graphics/SVG/1.1/DTD/svg11.dtd">
<svg xmlns:xlink="http://www.w3.org/1999/xlink" width="619.2pt" height="352.8pt" viewBox="0 0 619.2 352.8" xmlns="http://www.w3.org/2000/svg" version="1.1">
 <metadata>
  <rdf:RDF xmlns:dc="http://purl.org/dc/elements/1.1/" xmlns:cc="http://creativecommons.org/ns#" xmlns:rdf="http://www.w3.org/1999/02/22-rdf-syntax-ns#">
   <cc:Work>
    <dc:type rdf:resource="http://purl.org/dc/dcmitype/StillImage"/>
    <dc:format>image/svg+xml</dc:format>
    <dc:creator>
     <cc:Agent>
      <dc:title>Matplotlib v3.10.9, https://matplotlib.org/</dc:title>
     </cc:Agent>
    </dc:creator>
   </cc:Work>
  </rdf:RDF>
 </metadata>
 <defs>
  <style type="text/css">*{stroke-linejoin: round; stroke-linecap: butt}</style>
 </defs>
 <g id="figure_1">
  <g id="patch_1">
   <path d="M 0 352.8 
L 619.2 352.8 
L 619.2 0 
L 0 0 
z
" style="fill: #ffffff"/>
  </g>
  <g id="axes_1">
   <g id="patch_2">
    <path d="M 46.44 292.824 
L 572.76 292.824 
L 572.76 63.504 
L 46.44 63.504 
z
" style="fill: #ffffff"/>
   </g>
   <g id="patch_3">
    <path d="M 70.363636 207.118545 
L 162.971261 207.118545 
L 162.971261 91.300364 
L 70.363636 91.300364 
z
" clip-path="url(#p38f1083c0e)" style="fill: #d70c18"/>
   </g>
   <g id="patch_4">
    <path d="M 198.985337 207.118545 
L 291.592962 207.118545 
L 291.592962 149.209455 
L 198.985337 149.209455 
z
" clip-path="url(#p38f1083c0e)" style="fill: #d70c18"/>
   </g>
   <g id="patch_5">
    <path d="M 327.607038 207.118545 
L 420.214663 207.118545 
L 420.214663 216.770061 
L 327.607038 216.770061 
z
" clip-path="url(#p38f1083c0e)" style="fill: #d70c18"/>
   </g>
   <g id="patch_6">
    <path d="M 456.228739 207.118545 
L 548.836364 207.118545 
L 548.836364 265.027636 
L 456.228739 265.027636 
z
" clip-path="url(#p38f1083c0e)" style="fill: #d70c18"/>
   </g>
   <g id="matplotlib.axis_1">
    <g id="xtick_1">
     <g id="line2d_1"/>
     <g id="text_1">
      <!-- 2 年期 -->
      <g style="fill: #6b7076" transform="translate(104.161667 303.487437) scale(0.09 -0.09)">
       <defs>
        <path id="NotoSansCJKtc-Regular-32" d="M 282 0 
L 3232 0 
L 3232 506 
L 1933 506 
C 1696 506 1408 480 1165 461 
C 2266 1504 3008 2458 3008 3398 
C 3008 4230 2477 4774 1638 4774 
C 1043 4774 634 4506 256 4090 
L 595 3757 
C 858 4070 1184 4301 1568 4301 
C 2150 4301 2432 3910 2432 3373 
C 2432 2566 1754 1632 282 346 
L 282 0 
z
" transform="scale(0.015625)"/>
        <path id="NotoSansCJKtc-Regular-20" transform="scale(0.015625)"/>
        <path id="NotoSansCJKtc-Regular-5e74" d="M 307 1427 
L 307 966 
L 3277 966 
L 3277 -512 
L 3770 -512 
L 3770 966 
L 6106 966 
L 6106 1427 
L 3770 1427 
L 3770 2701 
L 5658 2701 
L 5658 3155 
L 3770 3155 
L 3770 4141 
L 5805 4141 
L 5805 4602 
L 1965 4602 
C 2074 4819 2170 5043 2259 5274 
L 1773 5402 
C 1466 4531 934 3699 320 3174 
C 442 3104 646 2944 736 2867 
C 1082 3200 1421 3642 1715 4141 
L 3277 4141 
L 3277 3155 
L 1363 3155 
L 1363 1427 
L 307 1427 
z
M 1843 1427 
L 1843 2701 
L 3277 2701 
L 3277 1427 
L 1843 1427 
z
" transform="scale(0.015625)"/>
        <path id="NotoSansCJKtc-Regular-671f" d="M 1139 915 
C 947 486 608 58 250 -230 
C 365 -301 557 -435 646 -512 
C 992 -192 1363 301 1594 787 
L 1139 915 
z
M 2054 717 
C 2304 416 2598 -6 2714 -269 
L 3110 -38 
C 2976 224 2682 621 2426 915 
L 2054 717 
z
M 5472 4621 
L 5472 3590 
L 4160 3590 
L 4160 4621 
L 5472 4621 
z
M 3712 5056 
L 3712 2733 
C 3712 1811 3661 589 3123 -262 
C 3232 -314 3430 -454 3507 -538 
C 3891 70 4058 890 4122 1664 
L 5472 1664 
L 5472 109 
C 5472 6 5434 -19 5344 -26 
C 5248 -32 4922 -32 4582 -19 
C 4646 -147 4717 -358 4736 -486 
C 5203 -486 5510 -480 5690 -397 
C 5875 -320 5933 -173 5933 102 
L 5933 5056 
L 3712 5056 
z
M 5472 3162 
L 5472 2099 
L 4147 2099 
C 4160 2323 4160 2534 4160 2733 
L 4160 3162 
L 5472 3162 
z
M 2477 5299 
L 2477 4525 
L 1312 4525 
L 1312 5299 
L 877 5299 
L 877 4525 
L 333 4525 
L 333 4096 
L 877 4096 
L 877 1478 
L 243 1478 
L 243 1050 
L 3398 1050 
L 3398 1478 
L 2925 1478 
L 2925 4096 
L 3398 4096 
L 3398 4525 
L 2925 4525 
L 2925 5299 
L 2477 5299 
z
M 1312 4096 
L 2477 4096 
L 2477 3526 
L 1312 3526 
L 1312 4096 
z
M 1312 3142 
L 2477 3142 
L 2477 2515 
L 1312 2515 
L 1312 3142 
z
M 1312 2125 
L 2477 2125 
L 2477 1478 
L 1312 1478 
L 1312 2125 
z
" transform="scale(0.015625)"/>
       </defs>
       <use xlink:href="#NotoSansCJKtc-Regular-32"/>
       <use xlink:href="#NotoSansCJKtc-Regular-20" transform="translate(55.499985 0)"/>
       <use xlink:href="#NotoSansCJKtc-Regular-5e74" transform="translate(77.899979 0)"/>
       <use xlink:href="#NotoSansCJKtc-Regular-671f" transform="translate(177.899963 0)"/>
      </g>
     </g>
    </g>
    <g id="xtick_2">
     <g id="line2d_2"/>
     <g id="text_2">
      <!-- 5 年期 -->
      <g style="fill: #6b7076" transform="translate(232.783368 303.487437) scale(0.09 -0.09)">
       <defs>
        <path id="NotoSansCJKtc-Regular-35" d="M 1677 -83 
C 2464 -83 3213 499 3213 1523 
C 3213 2560 2573 3021 1798 3021 
C 1517 3021 1306 2950 1094 2835 
L 1216 4192 
L 2982 4192 
L 2982 4691 
L 704 4691 
L 550 2502 
L 864 2304 
C 1133 2483 1331 2579 1645 2579 
C 2234 2579 2618 2182 2618 1510 
C 2618 826 2176 403 1619 403 
C 1075 403 730 653 467 922 
L 173 538 
C 493 224 941 -83 1677 -83 
z
" transform="scale(0.015625)"/>
       </defs>
       <use xlink:href="#NotoSansCJKtc-Regular-35"/>
       <use xlink:href="#NotoSansCJKtc-Regular-20" transform="translate(55.499985 0)"/>
       <use xlink:href="#NotoSansCJKtc-Regular-5e74" transform="translate(77.899979 0)"/>
       <use xlink:href="#NotoSansCJKtc-Regular-671f" transform="translate(177.899963 0)"/>
      </g>
     </g>
    </g>
    <g id="xtick_3">
     <g id="line2d_3"/>
     <g id="text_3">
      <!-- 10 年期 -->
      <g style="fill: #6b7076" transform="translate(358.907569 303.487437) scale(0.09 -0.09)">
       <defs>
        <path id="NotoSansCJKtc-Regular-31" d="M 563 0 
L 3136 0 
L 3136 486 
L 2195 486 
L 2195 4691 
L 1747 4691 
C 1491 4544 1190 4435 774 4358 
L 774 3987 
L 1613 3987 
L 1613 486 
L 563 486 
L 563 0 
z
" transform="scale(0.015625)"/>
        <path id="NotoSansCJKtc-Regular-30" d="M 1779 -83 
C 2669 -83 3238 723 3238 2362 
C 3238 3987 2669 4774 1779 4774 
C 883 4774 320 3987 320 2362 
C 320 723 883 -83 1779 -83 
z
M 1779 390 
C 1248 390 883 986 883 2362 
C 883 3731 1248 4314 1779 4314 
C 2310 4314 2675 3731 2675 2362 
C 2675 986 2310 390 1779 390 
z
" transform="scale(0.015625)"/>
       </defs>
       <use xlink:href="#NotoSansCJKtc-Regular-31"/>
       <use xlink:href="#NotoSansCJKtc-Regular-30" transform="translate(55.499985 0)"/>
       <use xlink:href="#NotoSansCJKtc-Regular-20" transform="translate(110.999969 0)"/>
       <use xlink:href="#NotoSansCJKtc-Regular-5e74" transform="translate(133.399963 0)"/>
       <use xlink:href="#NotoSansCJKtc-Regular-671f" transform="translate(233.399948 0)"/>
      </g>
     </g>
    </g>
    <g id="xtick_4">
     <g id="line2d_4"/>
     <g id="text_4">
      <!-- 30 年期 -->
      <g style="fill: #6b7076" transform="translate(487.52927 303.487437) scale(0.09 -0.09)">
       <defs>
        <path id="NotoSansCJKtc-Regular-33" d="M 1683 -83 
C 2522 -83 3194 416 3194 1254 
C 3194 1901 2752 2310 2202 2445 
L 2202 2477 
C 2701 2650 3034 3034 3034 3603 
C 3034 4346 2458 4774 1664 4774 
C 1126 4774 710 4538 358 4218 
L 672 3846 
C 941 4115 1267 4301 1645 4301 
C 2138 4301 2438 4006 2438 3558 
C 2438 3053 2112 2662 1139 2662 
L 1139 2214 
C 2227 2214 2598 1843 2598 1274 
C 2598 736 2208 403 1645 403 
C 1114 403 762 659 486 941 
L 186 563 
C 493 224 954 -83 1683 -83 
z
" transform="scale(0.015625)"/>
       </defs>
       <use xlink:href="#NotoSansCJKtc-Regular-33"/>
       <use xlink:href="#NotoSansCJKtc-Regular-30" transform="translate(55.499985 0)"/>
       <use xlink:href="#NotoSansCJKtc-Regular-20" transform="translate(110.999969 0)"/>
       <use xlink:href="#NotoSansCJKtc-Regular-5e74" transform="translate(133.399963 0)"/>
       <use xlink:href="#NotoSansCJKtc-Regular-671f" transform="translate(233.399948 0)"/>
      </g>
     </g>
    </g>
   </g>
   <g id="matplotlib.axis_2">
    <g id="ytick_1">
     <g id="line2d_5"/>
     <g id="text_5">
      <!-- -5 -->
      <g style="fill: #6b7076" transform="translate(34.821719 258.95784) scale(0.09 -0.09)">
       <defs>
        <path id="NotoSansCJKtc-Regular-2d" d="M 294 1568 
L 1933 1568 
L 1933 2016 
L 294 2016 
L 294 1568 
z
" transform="scale(0.015625)"/>
       </defs>
       <use xlink:href="#NotoSansCJKtc-Regular-2d"/>
       <use xlink:href="#NotoSansCJKtc-Regular-35" transform="translate(34.699997 0)"/>
      </g>
     </g>
    </g>
    <g id="ytick_2">
     <g id="line2d_6"/>
     <g id="text_6">
      <!-- 0 -->
      <g style="fill: #6b7076" transform="translate(37.945 210.700264) scale(0.09 -0.09)">
       <use xlink:href="#NotoSansCJKtc-Regular-30"/>
      </g>
     </g>
    </g>
    <g id="ytick_3">
     <g id="line2d_7"/>
     <g id="text_7">
      <!-- 5 -->
      <g style="fill: #6b7076" transform="translate(37.945 162.442688) scale(0.09 -0.09)">
       <use xlink:href="#NotoSansCJKtc-Regular-35"/>
      </g>
     </g>
    </g>
    <g id="ytick_4">
     <g id="line2d_8"/>
     <g id="text_8">
      <!-- 10 -->
      <g style="fill: #6b7076" transform="translate(32.95 114.185113) scale(0.09 -0.09)">
       <use xlink:href="#NotoSansCJKtc-Regular-31"/>
       <use xlink:href="#NotoSansCJKtc-Regular-30" transform="translate(55.499985 0)"/>
      </g>
     </g>
    </g>
    <g id="text_9">
     <!-- 基點 -->
     <g style="fill: #6b7076" transform="translate(26.888437 187.164) rotate(-90) scale(0.09 -0.09)">
      <defs>
       <path id="NotoSansCJKtc-Regular-57fa" d="M 4378 5370 
L 4378 4755 
L 2048 4755 
L 2048 5376 
L 1568 5376 
L 1568 4755 
L 589 4755 
L 589 4352 
L 1568 4352 
L 1568 2298 
L 294 2298 
L 294 1888 
L 1690 1888 
C 1318 1434 755 1030 230 819 
C 333 730 474 563 544 448 
C 1165 742 1818 1286 2214 1888 
L 4237 1888 
C 4627 1318 5254 787 5869 525 
C 5946 640 6086 813 6189 902 
C 5651 1094 5107 1466 4742 1888 
L 6112 1888 
L 6112 2298 
L 4864 2298 
L 4864 4352 
L 5830 4352 
L 5830 4755 
L 4864 4755 
L 4864 5370 
L 4378 5370 
z
M 2048 4352 
L 4378 4352 
L 4378 3923 
L 2048 3923 
L 2048 4352 
z
M 2944 1683 
L 2944 1146 
L 1632 1146 
L 1632 749 
L 2944 749 
L 2944 70 
L 794 70 
L 794 -339 
L 5645 -339 
L 5645 70 
L 3430 70 
L 3430 749 
L 4774 749 
L 4774 1146 
L 3430 1146 
L 3430 1683 
L 2944 1683 
z
M 2048 3565 
L 4378 3565 
L 4378 3117 
L 2048 3117 
L 2048 3565 
z
M 2048 2752 
L 4378 2752 
L 4378 2298 
L 2048 2298 
L 2048 2752 
z
" transform="scale(0.015625)"/>
       <path id="NotoSansCJKtc-Regular-9ede" d="M 966 4474 
C 1069 4166 1152 3757 1165 3494 
L 1421 3565 
C 1402 3821 1312 4230 1203 4538 
L 966 4474 
z
M 1197 781 
C 1267 422 1299 -38 1286 -339 
L 1626 -301 
C 1632 0 1594 461 1523 813 
L 1197 781 
z
M 1856 781 
C 1990 454 2106 26 2138 -262 
L 2458 -186 
C 2426 90 2298 518 2163 838 
L 1856 781 
z
M 2515 794 
C 2694 480 2867 58 2931 -218 
L 3251 -102 
C 3187 179 3014 589 2822 902 
L 2515 794 
z
M 627 902 
C 557 512 416 13 218 -288 
L 563 -435 
C 762 -128 890 378 960 781 
L 627 902 
z
M 2272 4557 
C 2214 4262 2086 3808 1997 3533 
L 2202 3456 
C 2317 3706 2445 4122 2554 4454 
L 2272 4557 
z
M 4314 5363 
L 4314 2330 
L 3379 2330 
L 3379 -506 
L 3827 -506 
L 3827 -211 
L 5440 -211 
L 5440 -480 
L 5901 -480 
L 5901 2330 
L 4781 2330 
L 4781 3526 
L 6150 3526 
L 6150 3974 
L 4781 3974 
L 4781 5363 
L 4314 5363 
z
M 3827 237 
L 3827 1894 
L 5440 1894 
L 5440 237 
L 3827 237 
z
M 877 4794 
L 1568 4794 
L 1568 3245 
L 877 3245 
L 877 4794 
z
M 1894 4794 
L 2637 4794 
L 2637 3245 
L 1894 3245 
L 1894 4794 
z
M 333 1555 
L 333 1178 
L 3149 1178 
L 3149 1555 
L 1946 1555 
L 1946 2067 
L 3072 2067 
L 3072 2451 
L 1946 2451 
L 1946 2893 
L 3027 2893 
L 3027 5146 
L 493 5146 
L 493 2893 
L 1517 2893 
L 1517 2451 
L 448 2451 
L 448 2067 
L 1517 2067 
L 1517 1555 
L 333 1555 
z
" transform="scale(0.015625)"/>
      </defs>
      <use xlink:href="#NotoSansCJKtc-Regular-57fa"/>
      <use xlink:href="#NotoSansCJKtc-Regular-9ede" transform="translate(99.999985 0)"/>
     </g>
    </g>
   </g>
   <g id="line2d_9">
    <path d="M 46.44 207.118545 
L 572.76 207.118545 
" clip-path="url(#p38f1083c0e)" style="fill: none; stroke: #c9c5c0; stroke-width: 0.9; stroke-linecap: square"/>
   </g>
   <g id="patch_7">
    <path d="M 46.44 292.824 
L 572.76 292.824 
" style="fill: none; stroke: #c9c5c0; stroke-width: 0.9; stroke-linejoin: miter; stroke-linecap: square"/>
   </g>
  </g>
  <g id="text_10">
   <!-- 傑克森洞當週：短端大跌、長端反漲，一年來最大的曲線扭轉 -->
   <g style="fill: #14161a" transform="translate(46.44 27.446547) scale(0.145 -0.145)">
    <defs>
     <path id="NotoSansCJKtc-Bold-5091" d="M 2829 1114 
C 2579 730 2176 314 1805 38 
C 1965 -77 2246 -339 2374 -474 
C 2752 -141 3226 390 3533 864 
L 2829 1114 
z
M 4550 742 
C 4941 365 5408 -173 5619 -512 
L 6195 -58 
C 5965 275 5504 762 5094 1133 
L 4550 742 
z
M 2854 4326 
L 3334 4326 
C 3277 4128 3200 3936 3110 3757 
C 3002 3859 2854 3981 2726 4090 
L 2854 4326 
z
M 4992 5350 
L 4992 4742 
L 4077 4742 
L 4083 4762 
L 3674 4902 
L 3558 4883 
L 3098 4883 
L 3238 5280 
L 2605 5376 
C 2445 4800 2118 4122 1594 3603 
C 1747 3520 1965 3334 2074 3200 
C 2189 3322 2298 3450 2394 3584 
C 2528 3462 2669 3328 2778 3213 
C 2522 2880 2214 2618 1875 2451 
C 2010 2330 2189 2099 2272 1946 
C 3136 2432 3763 3290 4045 4570 
L 4045 4166 
L 4192 4166 
C 4102 3680 3987 3142 3885 2771 
L 4141 2771 
L 4992 2765 
L 4992 2080 
L 5632 2080 
L 5632 2765 
L 6189 2765 
L 6189 3360 
L 5632 3360 
L 5632 4166 
L 6035 4166 
L 6035 4742 
L 5632 4742 
L 5632 5350 
L 4992 5350 
z
M 4992 3360 
L 4602 3360 
L 4768 4166 
L 4992 4166 
L 4992 3360 
z
M 1933 1869 
L 1933 1210 
L 3654 1210 
L 3654 -576 
L 4403 -576 
L 4403 1210 
L 6176 1210 
L 6176 1869 
L 4403 1869 
L 4403 2515 
L 3654 2515 
L 3654 1869 
L 1933 1869 
z
M 1312 5427 
C 1043 4493 602 3558 96 2944 
C 224 2746 410 2304 474 2118 
C 589 2259 704 2413 813 2579 
L 813 -570 
L 1536 -570 
L 1536 3930 
C 1722 4352 1888 4794 2016 5222 
L 1312 5427 
z
" transform="scale(0.015625)"/>
     <path id="NotoSansCJKtc-Bold-514b" d="M 1830 3008 
L 4576 3008 
L 4576 2317 
L 1830 2317 
L 1830 3008 
z
M 2784 5440 
L 2784 4890 
L 416 4890 
L 416 4198 
L 2784 4198 
L 2784 3686 
L 1088 3686 
L 1088 1632 
L 1946 1632 
C 1843 877 1600 390 173 128 
C 339 -45 544 -378 621 -589 
C 2291 -192 2643 544 2778 1632 
L 3514 1632 
L 3514 454 
C 3514 -269 3699 -499 4448 -499 
C 4595 -499 5114 -499 5267 -499 
C 5907 -499 6112 -237 6189 794 
C 5978 845 5645 973 5478 1094 
C 5453 339 5414 224 5197 224 
C 5069 224 4659 224 4563 224 
C 4339 224 4301 250 4301 467 
L 4301 1632 
L 5370 1632 
L 5370 3686 
L 3565 3686 
L 3565 4198 
L 6010 4198 
L 6010 4890 
L 3565 4890 
L 3565 5440 
L 2784 5440 
z
" transform="scale(0.015625)"/>
     <path id="NotoSansCJKtc-Bold-68ee" d="M 2803 5446 
L 2803 4864 
L 480 4864 
L 480 4186 
L 2131 4186 
C 1626 3731 915 3354 179 3149 
C 339 3008 550 2733 653 2547 
C 1472 2829 2240 3315 2803 3923 
L 2803 2554 
L 3571 2554 
L 3571 3923 
C 4256 3558 5363 2925 5869 2592 
L 6106 3309 
C 5850 3456 4954 3878 4275 4186 
L 5907 4186 
L 5907 4864 
L 3571 4864 
L 3571 5446 
L 2803 5446 
z
M 1363 2790 
L 1363 2170 
L 371 2170 
L 371 1504 
L 1312 1504 
C 1024 1114 589 730 166 506 
C 275 320 416 6 474 -192 
C 787 -6 1094 294 1363 627 
L 1363 -518 
L 2086 -518 
L 2086 813 
C 2259 685 2419 563 2522 474 
L 3104 845 
C 2944 960 2330 1344 2086 1478 
L 2086 1504 
L 2995 1504 
L 2995 2170 
L 2086 2170 
L 2086 2790 
L 1363 2790 
z
M 4147 2790 
L 4147 2144 
L 3219 2144 
L 3219 1485 
L 4038 1485 
C 3680 1005 3098 544 2534 301 
C 2688 173 2899 -77 3002 -243 
C 3405 -26 3808 307 4147 691 
L 4147 -576 
L 4877 -576 
L 4877 698 
C 5152 333 5466 0 5747 -224 
C 5875 -32 6118 237 6291 378 
C 5843 621 5306 1062 4966 1485 
L 6048 1485 
L 6048 2144 
L 4877 2144 
L 4877 2790 
L 4147 2790 
z
" transform="scale(0.015625)"/>
     <path id="NotoSansCJKtc-Bold-6d1e" d="M 3014 4077 
L 3014 3450 
L 5005 3450 
L 5005 4077 
L 3014 4077 
z
M 160 3059 
C 544 2880 1082 2592 1331 2400 
L 1747 3040 
C 1472 3232 928 3494 550 3642 
L 160 3059 
z
M 320 45 
L 1005 -474 
C 1350 147 1709 851 1997 1510 
L 1402 2022 
C 1062 1299 634 518 320 45 
z
M 2022 5203 
L 2022 -576 
L 2746 -576 
L 2746 4512 
L 5261 4512 
L 5261 314 
C 5261 211 5229 179 5139 179 
C 5030 179 4723 173 4429 192 
C 4531 -13 4634 -371 4653 -576 
C 5146 -576 5472 -563 5702 -429 
C 5933 -307 5997 -83 5997 301 
L 5997 5203 
L 2022 5203 
z
M 461 4781 
C 826 4595 1338 4301 1581 4102 
L 2022 4723 
C 1766 4915 1235 5184 883 5350 
L 461 4781 
z
M 3117 3027 
L 3117 474 
L 3706 474 
L 3706 851 
L 4890 851 
L 4890 3027 
L 3117 3027 
z
M 3706 2394 
L 4282 2394 
L 4282 1485 
L 3706 1485 
L 3706 2394 
z
" transform="scale(0.015625)"/>
     <path id="NotoSansCJKtc-Bold-7576" d="M 2227 3059 
L 4160 3059 
L 4160 2675 
L 2227 2675 
L 2227 3059 
z
M 1510 3603 
L 1510 2125 
L 4922 2125 
L 4922 3603 
L 1510 3603 
z
M 2822 1306 
L 2822 973 
L 1632 973 
L 1632 1306 
L 2822 1306 
z
M 3571 1306 
L 4826 1306 
L 4826 973 
L 3571 973 
L 3571 1306 
z
M 2822 461 
L 2822 115 
L 1632 115 
L 1632 461 
L 2822 461 
z
M 3571 461 
L 4826 461 
L 4826 115 
L 3571 115 
L 3571 461 
z
M 896 1856 
L 896 -589 
L 1632 -589 
L 1632 -435 
L 4826 -435 
L 4826 -582 
L 5587 -582 
L 5587 1856 
L 896 1856 
z
M 4742 5395 
C 4640 5146 4448 4806 4288 4576 
L 4326 4563 
L 3571 4563 
L 3571 5440 
L 2797 5440 
L 2797 4563 
L 2003 4563 
L 2118 4614 
C 2016 4832 1811 5146 1606 5382 
L 928 5114 
C 1050 4954 1178 4749 1280 4563 
L 435 4563 
L 435 3104 
L 1158 3104 
L 1158 3910 
L 5267 3910 
L 5267 3104 
L 6029 3104 
L 6029 4563 
L 5107 4563 
C 5248 4736 5402 4941 5555 5158 
L 4742 5395 
z
" transform="scale(0.015625)"/>
     <path id="NotoSansCJKtc-Bold-9031" d="M 429 5088 
C 685 4768 1018 4320 1171 4051 
L 1773 4435 
C 1606 4698 1280 5101 1011 5408 
L 429 5088 
z
M 3674 4602 
L 3674 4237 
L 2886 4237 
L 2886 4602 
L 3674 4602 
z
M 4301 4602 
L 5171 4602 
L 5171 4237 
L 4301 4237 
L 4301 4602 
z
M 3123 2496 
L 3123 845 
L 3642 845 
L 3642 1024 
L 4512 1024 
C 4589 845 4659 608 4678 442 
C 5107 442 5402 454 5606 563 
C 5811 672 5875 851 5875 1184 
L 5875 5222 
L 2189 5222 
L 2189 3565 
C 2189 2771 2170 1658 1862 870 
C 2035 806 2355 627 2490 518 
C 2746 1146 2842 2029 2874 2803 
L 5171 2803 
L 5171 1190 
C 5171 1107 5146 1075 5062 1075 
L 4832 1075 
L 4832 2496 
L 3123 2496 
z
M 3674 3718 
L 3674 3315 
L 2886 3315 
L 2886 3565 
L 2886 3718 
L 3674 3718 
z
M 4301 3718 
L 5171 3718 
L 5171 3315 
L 4301 3315 
L 4301 3718 
z
M 390 1696 
C 448 1754 634 1792 768 1792 
L 1158 1792 
C 979 934 614 301 96 -64 
C 243 -166 493 -429 595 -576 
C 890 -352 1146 -38 1350 358 
C 1843 -339 2598 -467 3808 -467 
C 4557 -467 5376 -454 6048 -410 
C 6086 -205 6182 147 6291 301 
C 5562 230 4506 192 3821 192 
C 2726 198 1990 288 1626 1018 
C 1747 1389 1843 1811 1901 2278 
L 1536 2406 
L 1421 2387 
L 1101 2387 
C 1402 2822 1773 3430 1990 3789 
L 1523 3968 
L 1453 3942 
L 275 3942 
L 275 3334 
L 1011 3334 
C 800 2995 563 2630 461 2515 
C 352 2387 250 2342 147 2310 
C 218 2176 352 1856 390 1696 
z
M 3642 1530 
L 3642 1997 
L 4294 1997 
L 4294 1530 
L 3642 1530 
z
" transform="scale(0.015625)"/>
     <path id="NotoSansCJKtc-Bold-ff1a" d="M 3200 3302 
C 3539 3302 3808 3558 3808 3898 
C 3808 4250 3539 4506 3200 4506 
C 2861 4506 2592 4250 2592 3898 
C 2592 3558 2861 3302 3200 3302 
z
M 3200 250 
C 3539 250 3808 506 3808 845 
C 3808 1197 3539 1453 3200 1453 
C 2861 1453 2592 1197 2592 845 
C 2592 506 2861 250 3200 250 
z
" transform="scale(0.015625)"/>
     <path id="NotoSansCJKtc-Bold-77ed" d="M 2867 5178 
L 2867 4467 
L 6099 4467 
L 6099 5178 
L 2867 5178 
z
M 3174 1523 
C 3334 1139 3488 614 3526 288 
L 4205 480 
C 4154 813 4000 1312 3814 1690 
L 3174 1523 
z
M 3757 3315 
L 5178 3315 
L 5178 2458 
L 3757 2458 
L 3757 3315 
z
M 3046 3981 
L 3046 1786 
L 5920 1786 
L 5920 3981 
L 3046 3981 
z
M 5024 1741 
C 4922 1293 4736 704 4557 275 
L 2611 275 
L 2611 -435 
L 6202 -435 
L 6202 275 
L 5274 275 
C 5440 659 5619 1139 5773 1587 
L 5024 1741 
z
M 691 5434 
C 602 4704 442 3955 166 3482 
C 333 3392 627 3187 749 3078 
C 877 3315 992 3610 1094 3936 
L 1274 3936 
L 1274 3149 
L 1274 2925 
L 211 2925 
L 211 2240 
L 1229 2240 
C 1139 1472 877 634 179 0 
C 320 -102 602 -371 698 -518 
C 1197 -70 1504 512 1696 1107 
C 1914 787 2150 410 2291 147 
L 2784 781 
C 2656 947 2138 1626 1888 1920 
L 1926 2240 
L 2733 2240 
L 2733 2925 
L 1978 2925 
L 1978 3136 
L 1978 3936 
L 2688 3936 
L 2688 4621 
L 1267 4621 
C 1312 4845 1350 5075 1382 5306 
L 691 5434 
z
" transform="scale(0.015625)"/>
     <path id="NotoSansCJKtc-Bold-7aef" d="M 416 3264 
C 518 2592 608 1715 608 1133 
L 1203 1235 
C 1190 1824 1094 2682 986 3366 
L 416 3264 
z
M 2509 2086 
L 2509 -570 
L 3194 -570 
L 3194 1446 
L 3520 1446 
L 3520 -525 
L 4096 -525 
L 4096 1446 
L 4442 1446 
L 4442 -518 
L 5024 -518 
L 5024 -45 
C 5101 -205 5165 -429 5184 -589 
C 5459 -589 5670 -576 5837 -480 
C 6003 -378 6042 -211 6042 70 
L 6042 2086 
L 4486 2086 
L 4646 2483 
L 6163 2483 
L 6163 3162 
L 2368 3162 
L 2368 2483 
L 3782 2483 
L 3706 2086 
L 2509 2086 
z
M 5024 1446 
L 5370 1446 
L 5370 77 
C 5370 26 5357 6 5306 6 
L 5024 13 
L 5024 1446 
z
M 2592 5126 
L 2592 3482 
L 5965 3482 
L 5965 5126 
L 5229 5126 
L 5229 4141 
L 4614 4141 
L 4614 5414 
L 3878 5414 
L 3878 4141 
L 3296 4141 
L 3296 5126 
L 2592 5126 
z
M 845 5190 
C 979 4922 1126 4570 1203 4314 
L 262 4314 
L 262 3610 
L 2426 3610 
L 2426 4314 
L 1434 4314 
L 1894 4467 
C 1818 4723 1651 5094 1491 5376 
L 845 5190 
z
M 1658 3398 
C 1613 2675 1498 1664 1370 998 
C 928 902 512 819 186 762 
L 346 6 
C 954 147 1715 326 2438 512 
L 2355 1216 
L 1939 1126 
C 2067 1754 2208 2592 2304 3302 
L 1658 3398 
z
" transform="scale(0.015625)"/>
     <path id="NotoSansCJKtc-Bold-5927" d="M 2765 5434 
C 2758 4909 2765 4314 2701 3712 
L 358 3712 
L 358 2918 
L 2573 2918 
C 2317 1811 1709 755 237 96 
C 461 -70 691 -346 813 -550 
C 2176 102 2867 1101 3219 2176 
C 3718 928 4461 -13 5626 -550 
C 5747 -333 6003 6 6195 173 
C 4992 659 4218 1670 3789 2918 
L 6054 2918 
L 6054 3712 
L 3526 3712 
C 3590 4314 3597 4902 3603 5434 
L 2765 5434 
z
" transform="scale(0.015625)"/>
     <path id="NotoSansCJKtc-Bold-8dcc" d="M 1101 4544 
L 1843 4544 
L 1843 3718 
L 1101 3718 
L 1101 4544 
z
M 134 422 
L 314 -301 
C 979 -109 1837 134 2650 378 
L 2554 1037 
L 1978 883 
L 1978 1728 
L 2541 1728 
L 2541 2387 
L 1978 2387 
L 1978 3072 
L 2541 3072 
L 2541 5197 
L 454 5197 
L 454 3072 
L 1306 3072 
L 1306 704 
L 1043 640 
L 1043 2605 
L 422 2605 
L 422 486 
L 134 422 
z
M 4045 5382 
L 4045 4358 
L 3680 4358 
C 3725 4589 3763 4832 3789 5069 
L 3085 5178 
C 3008 4429 2848 3667 2573 3194 
C 2739 3104 3053 2925 3187 2816 
C 3309 3046 3418 3334 3507 3648 
L 4045 3648 
L 4045 3142 
L 4032 2662 
L 2656 2662 
L 2656 1933 
L 3942 1933 
C 3776 1203 3373 480 2368 -6 
C 2547 -154 2790 -429 2893 -589 
C 3699 -141 4173 442 4442 1075 
C 4749 371 5178 -192 5779 -538 
C 5894 -333 6131 -45 6304 96 
C 5594 442 5101 1126 4819 1933 
L 6118 1933 
L 6118 2662 
L 4781 2662 
L 4794 3136 
L 4794 3648 
L 5990 3648 
L 5990 4358 
L 4794 4358 
L 4794 5382 
L 4045 5382 
z
" transform="scale(0.015625)"/>
     <path id="NotoSansCJKtc-Bold-3001" d="M 3558 1363 
L 4243 1952 
C 3917 2349 3302 2982 2848 3354 
L 2182 2771 
C 2624 2394 3168 1843 3558 1363 
z
" transform="scale(0.015625)"/>
     <path id="NotoSansCJKtc-Bold-9577" d="M 1370 5216 
L 1370 2374 
L 301 2374 
L 301 1702 
L 1242 1702 
L 1242 659 
C 1242 397 1062 243 915 166 
C 1037 -19 1190 -416 1235 -602 
L 1286 -563 
C 1459 -486 1824 -403 3341 -70 
C 3334 96 3366 416 3405 614 
L 1997 339 
L 1997 1702 
L 2912 1702 
C 3456 512 4320 -230 5760 -563 
C 5862 -352 6074 -32 6246 128 
C 5670 230 5184 410 4774 646 
C 5152 851 5562 1101 5907 1357 
L 5408 1702 
L 6106 1702 
L 6106 2374 
L 2157 2374 
L 2157 2720 
L 5254 2720 
L 5254 3315 
L 2157 3315 
L 2157 3648 
L 5254 3648 
L 5254 4243 
L 2157 4243 
L 2157 4589 
L 5427 4589 
L 5427 5216 
L 1370 5216 
z
M 3718 1702 
L 5184 1702 
C 4928 1491 4570 1248 4237 1050 
C 4032 1242 3859 1459 3718 1702 
z
" transform="scale(0.015625)"/>
     <path id="NotoSansCJKtc-Bold-53cd" d="M 992 5107 
L 992 3315 
C 992 2298 934 858 230 -109 
C 416 -198 742 -422 883 -563 
C 1510 320 1702 1638 1747 2701 
L 1990 2701 
C 2266 1978 2618 1363 3072 864 
C 2592 531 2035 288 1421 134 
C 1581 -38 1779 -365 1875 -576 
C 2547 -365 3155 -77 3680 307 
C 4205 -90 4838 -384 5606 -576 
C 5722 -358 5946 -26 6125 141 
C 5414 294 4819 538 4320 864 
C 4890 1466 5318 2253 5568 3258 
L 5024 3475 
L 4883 3443 
L 1760 3443 
L 1760 4346 
L 5862 4346 
L 5862 5107 
L 992 5107 
z
M 4544 2701 
C 4339 2189 4051 1747 3686 1376 
C 3315 1754 3021 2195 2810 2701 
L 4544 2701 
z
" transform="scale(0.015625)"/>
     <path id="NotoSansCJKtc-Bold-6f32" d="M 320 4928 
C 602 4678 966 4314 1126 4070 
L 1581 4525 
C 1408 4762 1037 5107 755 5331 
L 320 4928 
z
M 147 3136 
C 448 2944 851 2650 1043 2451 
L 1434 2989 
C 1229 3174 813 3443 518 3616 
L 147 3136 
z
M 243 -128 
L 838 -512 
C 1075 96 1338 819 1542 1478 
L 1011 1862 
C 774 1146 461 352 243 -128 
z
M 3571 -570 
C 3693 -467 3898 -365 5024 51 
C 4992 192 4947 454 4941 634 
L 4186 384 
L 4186 1920 
L 4499 1920 
C 4781 966 5267 83 5888 -390 
C 5990 -211 6189 45 6330 179 
C 6054 352 5805 614 5587 922 
C 5805 1056 6029 1216 6253 1376 
L 5760 1837 
C 5638 1702 5466 1549 5293 1402 
C 5210 1568 5133 1741 5062 1920 
L 6195 1920 
L 6195 2541 
L 4352 2541 
L 4352 2867 
L 5901 2867 
L 5901 3411 
L 4352 3411 
L 4352 3725 
L 5901 3725 
L 5901 4262 
L 4352 4262 
L 4352 4563 
L 6106 4563 
L 6106 5165 
L 3686 5165 
L 3686 2541 
L 3347 2541 
L 3347 1920 
L 3571 1920 
L 3571 525 
C 3571 288 3450 186 3334 134 
C 3430 -45 3539 -403 3571 -570 
z
M 1779 3776 
C 1773 3091 1728 2214 1664 1664 
L 2586 1664 
C 2534 678 2464 294 2374 186 
C 2317 122 2266 109 2176 115 
C 2086 115 1907 115 1690 134 
C 1792 -26 1856 -275 1869 -448 
C 2118 -461 2368 -461 2509 -435 
C 2694 -416 2816 -358 2938 -218 
C 3110 -26 3187 563 3264 2029 
C 3270 2112 3270 2278 3270 2278 
L 2342 2278 
L 2387 3130 
L 3270 3130 
L 3270 5254 
L 1683 5254 
L 1683 4614 
L 2662 4614 
L 2662 3776 
L 1779 3776 
z
" transform="scale(0.015625)"/>
     <path id="NotoSansCJKtc-Bold-ff0c" d="M 2662 1030 
C 3456 1261 3923 1856 3923 2579 
C 3923 3117 3686 3456 3232 3456 
C 2893 3456 2605 3238 2605 2880 
C 2605 2515 2893 2310 3213 2310 
L 3283 2317 
C 3245 1978 2957 1702 2458 1542 
L 2662 1030 
z
" transform="scale(0.015625)"/>
     <path id="NotoSansCJKtc-Bold-4e00" d="M 243 2912 
L 243 2074 
L 6170 2074 
L 6170 2912 
L 243 2912 
z
" transform="scale(0.015625)"/>
     <path id="NotoSansCJKtc-Bold-5e74" d="M 256 1536 
L 256 800 
L 3155 800 
L 3155 -576 
L 3949 -576 
L 3949 800 
L 6144 800 
L 6144 1536 
L 3949 1536 
L 3949 2502 
L 5645 2502 
L 5645 3219 
L 3949 3219 
L 3949 3994 
L 5798 3994 
L 5798 4736 
L 2163 4736 
C 2240 4909 2310 5082 2374 5261 
L 1587 5466 
C 1312 4627 813 3808 237 3315 
C 429 3200 755 2950 902 2816 
C 1210 3123 1510 3533 1779 3994 
L 3155 3994 
L 3155 3219 
L 1274 3219 
L 1274 1536 
L 256 1536 
z
M 2042 1536 
L 2042 2502 
L 3155 2502 
L 3155 1536 
L 2042 1536 
z
" transform="scale(0.015625)"/>
     <path id="NotoSansCJKtc-Bold-4f86" d="M 4486 3846 
C 4365 3238 4083 2662 3680 2298 
L 3584 2445 
L 3584 3885 
L 6003 3885 
L 6003 4634 
L 3584 4634 
L 3584 5434 
L 2771 5434 
L 2771 4634 
L 435 4634 
L 435 3885 
L 2771 3885 
L 2771 2400 
C 2214 1536 1216 730 166 326 
C 339 166 589 -141 710 -339 
C 1472 19 2195 582 2771 1254 
L 2771 -576 
L 3584 -576 
L 3584 1293 
C 4160 602 4890 26 5664 -333 
C 5792 -115 6042 211 6234 371 
C 5274 730 4358 1408 3782 2157 
C 3955 2061 4166 1926 4275 1843 
C 4429 1997 4576 2182 4704 2394 
C 5024 2125 5350 1843 5536 1651 
L 6067 2176 
C 5830 2406 5389 2739 5018 3021 
C 5107 3238 5178 3475 5235 3712 
L 4486 3846 
z
M 1472 3846 
C 1293 3066 902 2387 333 1978 
C 506 1869 800 1613 928 1478 
C 1210 1709 1453 2010 1664 2355 
C 1837 2189 2003 2029 2099 1907 
L 2611 2451 
C 2470 2605 2221 2816 1990 3014 
C 2080 3232 2150 3462 2214 3706 
L 1472 3846 
z
" transform="scale(0.015625)"/>
     <path id="NotoSansCJKtc-Bold-6700" d="M 960 5248 
L 960 3174 
L 1702 3174 
L 1702 4704 
L 4678 4704 
L 4678 3174 
L 5459 3174 
L 5459 5248 
L 960 5248 
z
M 1914 4461 
L 1914 4006 
L 4474 4006 
L 4474 4461 
L 1914 4461 
z
M 1914 3757 
L 1914 3283 
L 4454 3283 
L 4454 3757 
L 1914 3757 
z
M 2368 2413 
L 2368 2163 
L 1530 2163 
L 1530 2413 
L 2368 2413 
z
M 256 403 
L 326 -243 
L 2368 -32 
L 2368 -576 
L 3104 -576 
L 3104 -26 
C 3232 -173 3379 -403 3456 -557 
C 3853 -410 4218 -224 4544 19 
C 4883 -237 5280 -435 5734 -570 
C 5830 -390 6029 -109 6189 32 
C 5766 128 5389 288 5069 493 
C 5440 896 5728 1402 5907 2016 
L 5440 2195 
L 5312 2176 
L 3238 2176 
L 3238 1587 
L 3840 1587 
L 3430 1472 
C 3584 1114 3782 787 4026 512 
C 3750 314 3437 160 3104 58 
L 3104 2413 
L 6067 2413 
L 6067 3021 
L 326 3021 
L 326 2413 
L 826 2413 
L 826 442 
L 256 403 
z
M 4070 1587 
L 4979 1587 
C 4858 1350 4704 1133 4525 941 
C 4339 1133 4186 1350 4070 1587 
z
M 2368 1632 
L 2368 1363 
L 1530 1363 
L 1530 1632 
L 2368 1632 
z
M 2368 832 
L 2368 570 
L 1530 499 
L 1530 832 
L 2368 832 
z
" transform="scale(0.015625)"/>
     <path id="NotoSansCJKtc-Bold-7684" d="M 3430 2598 
C 3744 2131 4141 1498 4320 1107 
L 4973 1504 
C 4774 1882 4346 2496 4032 2938 
L 3430 2598 
z
M 3744 5434 
C 3558 4672 3251 3898 2880 3347 
L 2880 4397 
L 1888 4397 
C 1997 4666 2112 4998 2214 5318 
L 1382 5440 
C 1357 5133 1280 4717 1197 4397 
L 467 4397 
L 467 -384 
L 1165 -384 
L 1165 90 
L 2880 90 
L 2880 3098 
C 3053 2989 3270 2829 3379 2726 
C 3578 3002 3770 3354 3942 3744 
L 5318 3744 
C 5254 1478 5171 512 4973 307 
C 4896 218 4826 198 4698 198 
C 4531 198 4147 198 3738 237 
C 3872 26 3974 -301 3987 -512 
C 4365 -525 4755 -531 4998 -499 
C 5261 -454 5440 -384 5613 -141 
C 5882 198 5952 1222 6035 4102 
C 6042 4192 6042 4448 6042 4448 
L 4230 4448 
C 4326 4717 4416 4992 4486 5261 
L 3744 5434 
z
M 1165 3731 
L 2189 3731 
L 2189 2688 
L 1165 2688 
L 1165 3731 
z
M 1165 762 
L 1165 2022 
L 2189 2022 
L 2189 762 
L 1165 762 
z
" transform="scale(0.015625)"/>
     <path id="NotoSansCJKtc-Bold-66f2" d="M 3565 5376 
L 3565 4173 
L 2790 4173 
L 2790 5376 
L 2035 5376 
L 2035 4173 
L 544 4173 
L 544 -557 
L 1267 -557 
L 1267 -198 
L 5133 -198 
L 5133 -550 
L 5888 -550 
L 5888 4173 
L 4320 4173 
L 4320 5376 
L 3565 5376 
z
M 1267 550 
L 1267 1619 
L 2035 1619 
L 2035 550 
L 1267 550 
z
M 5133 550 
L 4320 550 
L 4320 1619 
L 5133 1619 
L 5133 550 
z
M 2790 550 
L 2790 1619 
L 3565 1619 
L 3565 550 
L 2790 550 
z
M 1267 2349 
L 1267 3424 
L 2035 3424 
L 2035 2349 
L 1267 2349 
z
M 5133 2349 
L 4320 2349 
L 4320 3424 
L 5133 3424 
L 5133 2349 
z
M 2790 2349 
L 2790 3424 
L 3565 3424 
L 3565 2349 
L 2790 2349 
z
" transform="scale(0.015625)"/>
     <path id="NotoSansCJKtc-Bold-7dda" d="M 3578 3322 
L 5203 3322 
L 5203 2989 
L 3578 2989 
L 3578 3322 
z
M 3578 4186 
L 5203 4186 
L 5203 3859 
L 3578 3859 
L 3578 4186 
z
M 1126 1120 
C 1184 691 1235 128 1235 -250 
L 1805 -141 
C 1792 230 1734 787 1664 1216 
L 1126 1120 
z
M 442 1210 
C 403 666 326 77 173 -314 
C 326 -358 614 -448 742 -512 
C 877 -109 979 525 1024 1120 
L 442 1210 
z
M 1766 1248 
C 1862 966 1971 589 2010 339 
L 2534 525 
C 2483 762 2374 1126 2272 1408 
L 1766 1248 
z
M 5587 2317 
C 5446 2131 5229 1894 5018 1690 
C 4941 1856 4877 2029 4819 2208 
L 4819 2413 
L 5952 2413 
L 5952 4762 
L 4576 4762 
C 4666 4928 4768 5107 4858 5286 
L 3981 5440 
C 3936 5242 3859 4986 3782 4762 
L 2867 4762 
L 2867 2413 
L 4090 2413 
L 4090 198 
C 4090 128 4064 109 3987 109 
C 3904 102 3642 102 3411 115 
C 3501 -83 3590 -384 3616 -589 
C 4026 -589 4320 -576 4538 -467 
C 4762 -346 4819 -154 4819 186 
L 4819 736 
C 5069 288 5376 -83 5747 -339 
C 5856 -141 6086 134 6246 275 
C 5875 474 5562 787 5306 1165 
C 5568 1350 5862 1606 6157 1837 
L 5587 2317 
z
M 2643 2016 
L 2643 1395 
L 3206 1395 
C 3008 909 2675 493 2278 269 
C 2419 141 2618 -109 2707 -269 
C 3379 147 3853 883 4058 1882 
L 3610 2042 
L 3494 2016 
L 2643 2016 
z
M 1702 2746 
L 1818 2298 
L 1280 2234 
C 1427 2394 1562 2566 1702 2746 
z
M 429 1408 
C 563 1478 787 1542 1946 1702 
L 1984 1427 
L 2579 1613 
C 2534 1952 2381 2522 2234 2957 
L 1760 2822 
C 2080 3245 2374 3699 2618 4141 
L 1965 4550 
C 1837 4256 1677 3962 1510 3686 
L 1088 3654 
C 1389 4109 1690 4659 1907 5171 
L 1210 5459 
C 1005 4787 621 4083 499 3904 
C 371 3712 269 3590 141 3565 
C 224 3373 339 3040 378 2893 
C 474 2938 614 2982 1088 3034 
C 922 2797 774 2611 698 2528 
C 493 2291 352 2150 179 2106 
C 269 1914 390 1555 429 1408 
z
" transform="scale(0.015625)"/>
     <path id="NotoSansCJKtc-Bold-626d" d="M 4941 4320 
C 4934 3840 4922 3341 4909 2842 
L 4051 2842 
L 4154 4320 
L 4941 4320 
z
M 1050 5440 
L 1050 4218 
L 250 4218 
L 250 3507 
L 1050 3507 
L 1050 2387 
C 710 2310 397 2240 141 2189 
L 333 1453 
L 1050 1632 
L 1050 230 
C 1050 141 1011 109 922 109 
C 838 109 570 109 320 122 
C 410 -77 512 -384 531 -576 
C 986 -576 1293 -557 1510 -442 
C 1728 -326 1798 -141 1798 237 
L 1798 1830 
L 2541 2029 
L 2528 2131 
L 3258 2131 
C 3200 1498 3142 890 3078 378 
L 2330 378 
L 2330 -346 
L 6221 -346 
L 6221 378 
L 5517 378 
C 5555 890 5587 1491 5613 2131 
L 6234 2131 
L 6234 2842 
L 5645 2842 
C 5670 3590 5690 4352 5702 5037 
L 2707 5037 
L 2707 4320 
L 3398 4320 
C 3379 3846 3347 3347 3309 2842 
L 2490 2842 
L 2490 2426 
L 2451 2726 
L 1798 2566 
L 1798 3507 
L 2490 3507 
L 2490 4218 
L 1798 4218 
L 1798 5440 
L 1050 5440 
z
M 4877 2131 
C 4851 1498 4819 896 4781 378 
L 3834 378 
C 3891 890 3942 1498 3994 2131 
L 4877 2131 
z
" transform="scale(0.015625)"/>
     <path id="NotoSansCJKtc-Bold-8f49" d="M 2874 2182 
L 2918 1632 
L 5581 1702 
C 5632 1619 5670 1542 5702 1472 
L 6240 1747 
C 6131 1958 5933 2240 5722 2483 
L 5990 2483 
L 5990 4211 
L 4826 4211 
L 4826 4442 
L 6112 4442 
L 6112 5011 
L 4826 5011 
L 4826 5434 
L 4166 5434 
L 4166 5011 
L 2938 5011 
L 2938 4442 
L 4166 4442 
L 4166 4211 
L 3046 4211 
L 3046 2483 
L 4166 2483 
L 4166 2202 
L 2874 2182 
z
M 4768 813 
L 4768 109 
C 4768 38 4736 19 4646 13 
C 4570 13 4269 13 4006 26 
L 4275 192 
C 4186 371 4006 614 3814 813 
L 4768 813 
z
M 397 3821 
L 397 1491 
L 1216 1491 
L 1216 1114 
L 179 1114 
L 179 442 
L 1216 442 
L 1216 -570 
L 1894 -570 
L 1894 442 
L 2886 442 
L 2886 813 
L 3494 813 
L 3174 627 
C 3405 397 3629 70 3725 -154 
L 3981 6 
C 4064 -166 4147 -410 4173 -595 
C 4621 -595 4934 -589 5171 -493 
C 5408 -403 5472 -237 5472 90 
L 5472 813 
L 6202 813 
L 6202 1376 
L 5472 1376 
L 5472 1632 
L 4768 1632 
L 4768 1376 
L 2880 1376 
L 2880 1114 
L 1894 1114 
L 1894 1491 
L 2752 1491 
L 2752 3821 
L 1894 3821 
L 1894 4160 
L 2810 4160 
L 2810 4819 
L 1894 4819 
L 1894 5434 
L 1216 5434 
L 1216 4819 
L 269 4819 
L 269 4160 
L 1216 4160 
L 1216 3821 
L 397 3821 
z
M 3648 3155 
L 4166 3155 
L 4166 2899 
L 3648 2899 
L 3648 3155 
z
M 4826 3155 
L 5357 3155 
L 5357 2899 
L 4826 2899 
L 4826 3155 
z
M 3648 3795 
L 4166 3795 
L 4166 3552 
L 3648 3552 
L 3648 3795 
z
M 4826 3795 
L 5357 3795 
L 5357 3552 
L 4826 3552 
L 4826 3795 
z
M 5075 2400 
L 5229 2221 
L 4826 2214 
L 4826 2483 
L 5254 2483 
L 5075 2400 
z
M 934 2406 
L 1306 2406 
L 1306 2029 
L 934 2029 
L 934 2406 
z
M 1805 2406 
L 2189 2406 
L 2189 2029 
L 1805 2029 
L 1805 2406 
z
M 934 3283 
L 1306 3283 
L 1306 2912 
L 934 2912 
L 934 3283 
z
M 1805 3283 
L 2189 3283 
L 2189 2912 
L 1805 2912 
L 1805 3283 
z
" transform="scale(0.015625)"/>
    </defs>
    <use xlink:href="#NotoSansCJKtc-Bold-5091"/>
    <use xlink:href="#NotoSansCJKtc-Bold-514b" transform="translate(99.999985 0)"/>
    <use xlink:href="#NotoSansCJKtc-Bold-68ee" transform="translate(199.999969 0)"/>
    <use xlink:href="#NotoSansCJKtc-Bold-6d1e" transform="translate(299.999954 0)"/>
    <use xlink:href="#NotoSansCJKtc-Bold-7576" transform="translate(399.999939 0)"/>
    <use xlink:href="#NotoSansCJKtc-Bold-9031" transform="translate(499.999924 0)"/>
    <use xlink:href="#NotoSansCJKtc-Bold-ff1a" transform="translate(599.999908 0)"/>
    <use xlink:href="#NotoSansCJKtc-Bold-77ed" transform="translate(699.999893 0)"/>
    <use xlink:href="#NotoSansCJKtc-Bold-7aef" transform="translate(799.999878 0)"/>
    <use xlink:href="#NotoSansCJKtc-Bold-5927" transform="translate(899.999863 0)"/>
    <use xlink:href="#NotoSansCJKtc-Bold-8dcc" transform="translate(999.999847 0)"/>
    <use xlink:href="#NotoSansCJKtc-Bold-3001" transform="translate(1099.999832 0)"/>
    <use xlink:href="#NotoSansCJKtc-Bold-9577" transform="translate(1199.999817 0)"/>
    <use xlink:href="#NotoSansCJKtc-Bold-7aef" transform="translate(1299.999802 0)"/>
    <use xlink:href="#NotoSansCJKtc-Bold-53cd" transform="translate(1399.999786 0)"/>
    <use xlink:href="#NotoSansCJKtc-Bold-6f32" transform="translate(1499.999771 0)"/>
    <use xlink:href="#NotoSansCJKtc-Bold-ff0c" transform="translate(1599.999756 0)"/>
    <use xlink:href="#NotoSansCJKtc-Bold-4e00" transform="translate(1699.999741 0)"/>
    <use xlink:href="#NotoSansCJKtc-Bold-5e74" transform="translate(1799.999725 0)"/>
    <use xlink:href="#NotoSansCJKtc-Bold-4f86" transform="translate(1899.99971 0)"/>
    <use xlink:href="#NotoSansCJKtc-Bold-6700" transform="translate(1999.999695 0)"/>
    <use xlink:href="#NotoSansCJKtc-Bold-5927" transform="translate(2099.99968 0)"/>
    <use xlink:href="#NotoSansCJKtc-Bold-7684" transform="translate(2199.999664 0)"/>
    <use xlink:href="#NotoSansCJKtc-Bold-66f2" transform="translate(2299.999649 0)"/>
    <use xlink:href="#NotoSansCJKtc-Bold-7dda" transform="translate(2399.999634 0)"/>
    <use xlink:href="#NotoSansCJKtc-Bold-626d" transform="translate(2499.999619 0)"/>
    <use xlink:href="#NotoSansCJKtc-Bold-8f49" transform="translate(2599.999603 0)"/>
   </g>
  </g>
  <g id="text_11">
   <!-- 2026 年 8 月 28 日當週各年期美國公債殖利率變動；基點 -->
   <g style="fill: #6b7076" transform="translate(46.44 46.414575) scale(0.1 -0.1)">
    <defs>
     <path id="NotoSansCJKtc-Regular-36" d="M 1926 -83 
C 2656 -83 3277 531 3277 1440 
C 3277 2426 2765 2912 1971 2912 
C 1606 2912 1197 2701 909 2349 
C 934 3802 1466 4294 2118 4294 
C 2400 4294 2682 4154 2861 3936 
L 3194 4294 
C 2931 4576 2579 4774 2093 4774 
C 1184 4774 358 4077 358 2240 
C 358 691 1030 -83 1926 -83 
z
M 922 1882 
C 1229 2317 1587 2477 1875 2477 
C 2445 2477 2720 2074 2720 1440 
C 2720 800 2374 378 1926 378 
C 1338 378 986 909 922 1882 
z
" transform="scale(0.015625)"/>
     <path id="NotoSansCJKtc-Regular-38" d="M 1792 -83 
C 2669 -83 3258 448 3258 1126 
C 3258 1773 2880 2125 2470 2362 
L 2470 2394 
C 2746 2611 3091 3034 3091 3526 
C 3091 4250 2605 4762 1805 4762 
C 1075 4762 518 4282 518 3571 
C 518 3078 813 2726 1152 2490 
L 1152 2464 
C 723 2234 294 1792 294 1165 
C 294 442 922 -83 1792 -83 
z
M 2112 2547 
C 1555 2765 1050 3014 1050 3571 
C 1050 4026 1363 4326 1798 4326 
C 2298 4326 2592 3962 2592 3494 
C 2592 3149 2426 2829 2112 2547 
z
M 1798 352 
C 1235 352 813 717 813 1216 
C 813 1664 1082 2035 1459 2278 
C 2125 2010 2701 1779 2701 1146 
C 2701 678 2342 352 1798 352 
z
" transform="scale(0.015625)"/>
     <path id="NotoSansCJKtc-Regular-6708" d="M 1325 5037 
L 1325 3066 
C 1325 2035 1222 736 186 -173 
C 294 -237 480 -416 550 -518 
C 1178 32 1498 755 1658 1485 
L 4749 1485 
L 4749 205 
C 4749 64 4704 19 4550 13 
C 4403 6 3885 0 3354 19 
C 3437 -115 3526 -339 3558 -486 
C 4243 -486 4672 -480 4922 -390 
C 5158 -307 5254 -147 5254 198 
L 5254 5037 
L 1325 5037 
z
M 1811 4570 
L 4749 4570 
L 4749 3494 
L 1811 3494 
L 1811 4570 
z
M 1811 3040 
L 4749 3040 
L 4749 1952 
L 1741 1952 
C 1792 2330 1811 2701 1811 3040 
z
" transform="scale(0.015625)"/>
     <path id="NotoSansCJKtc-Regular-65e5" d="M 1619 2253 
L 4813 2253 
L 4813 454 
L 1619 454 
L 1619 2253 
z
M 1619 2726 
L 1619 4461 
L 4813 4461 
L 4813 2726 
L 1619 2726 
z
M 1126 4941 
L 1126 -442 
L 1619 -442 
L 1619 -26 
L 4813 -26 
L 4813 -410 
L 5325 -410 
L 5325 4941 
L 1126 4941 
z
" transform="scale(0.015625)"/>
     <path id="NotoSansCJKtc-Regular-7576" d="M 2010 3142 
L 4429 3142 
L 4429 2534 
L 2010 2534 
L 2010 3142 
z
M 1562 3507 
L 1562 2163 
L 4902 2163 
L 4902 3507 
L 1562 3507 
z
M 2976 1421 
L 2976 909 
L 1434 909 
L 1434 1421 
L 2976 1421 
z
M 3443 1421 
L 5056 1421 
L 5056 909 
L 3443 909 
L 3443 1421 
z
M 2976 557 
L 2976 32 
L 1434 32 
L 1434 557 
L 2976 557 
z
M 3443 557 
L 5056 557 
L 5056 32 
L 3443 32 
L 3443 557 
z
M 973 1798 
L 973 -525 
L 1434 -525 
L 1434 -339 
L 5056 -339 
L 5056 -512 
L 5536 -512 
L 5536 1798 
L 973 1798 
z
M 4896 5318 
C 4768 5062 4525 4698 4333 4467 
L 4512 4397 
L 3430 4397 
L 3430 5376 
L 2944 5376 
L 2944 4397 
L 1811 4397 
L 2042 4506 
C 1933 4723 1702 5050 1485 5299 
L 1056 5120 
C 1235 4909 1434 4621 1549 4397 
L 531 4397 
L 531 3066 
L 992 3066 
L 992 3974 
L 5459 3974 
L 5459 3066 
L 5933 3066 
L 5933 4397 
L 4806 4397 
C 4986 4608 5203 4890 5395 5152 
L 4896 5318 
z
" transform="scale(0.015625)"/>
     <path id="NotoSansCJKtc-Regular-9031" d="M 512 5152 
C 781 4838 1114 4397 1280 4128 
L 1658 4371 
C 1498 4634 1158 5037 883 5357 
L 512 5152 
z
M 3731 4710 
L 3731 4166 
L 2694 4166 
L 2694 4710 
L 3731 4710 
z
M 4147 4710 
L 5312 4710 
L 5312 4166 
L 4147 4166 
L 4147 4710 
z
M 2253 5114 
L 2253 3456 
C 2253 2643 2221 1517 1856 704 
C 1965 659 2157 538 2246 467 
C 2560 1152 2656 2086 2688 2880 
L 5312 2880 
L 5312 941 
C 5312 851 5274 819 5184 819 
C 5101 819 4806 813 4486 826 
C 4544 710 4608 531 4627 416 
C 5088 416 5363 416 5530 493 
C 5696 563 5754 685 5754 941 
L 5754 5114 
L 2253 5114 
z
M 3731 3814 
L 3731 3232 
L 2694 3232 
L 2694 3456 
L 2694 3814 
L 3731 3814 
z
M 4147 3814 
L 5312 3814 
L 5312 3232 
L 4147 3232 
L 4147 3814 
z
M 390 1818 
C 442 1869 608 1914 762 1914 
L 1318 1914 
C 1139 922 730 205 186 -198 
C 282 -262 442 -422 506 -525 
C 813 -294 1075 32 1286 454 
C 1792 -282 2605 -416 3930 -416 
C 4640 -416 5453 -403 6054 -365 
C 6080 -230 6144 -6 6221 102 
C 5555 38 4614 6 3930 6 
C 2707 13 1882 115 1466 858 
C 1613 1248 1728 1709 1805 2227 
L 1568 2310 
L 1485 2304 
L 896 2304 
C 1229 2746 1664 3418 1907 3795 
L 1587 3930 
L 1523 3898 
L 301 3898 
L 301 3494 
L 1235 3494 
C 986 3098 646 2586 512 2445 
C 410 2323 307 2278 211 2246 
C 269 2157 358 1933 390 1818 
z
M 3085 2477 
L 3085 858 
L 3430 858 
L 3430 1075 
L 4813 1075 
L 4813 2477 
L 3085 2477 
z
M 3430 1421 
L 3430 2138 
L 4448 2138 
L 4448 1421 
L 3430 1421 
z
" transform="scale(0.015625)"/>
     <path id="NotoSansCJKtc-Regular-5404" d="M 1299 1779 
L 1299 -538 
L 1779 -538 
L 1779 -237 
L 4589 -237 
L 4589 -518 
L 5094 -518 
L 5094 1779 
L 1299 1779 
z
M 1779 192 
L 1779 1338 
L 4589 1338 
L 4589 192 
L 1779 192 
z
M 2394 5427 
C 1939 4640 1165 3923 358 3475 
C 467 3398 646 3213 723 3123 
C 1069 3341 1421 3610 1747 3923 
C 2048 3578 2406 3264 2797 2982 
C 1978 2541 1037 2214 186 2042 
C 269 1939 378 1741 422 1613 
C 1350 1824 2355 2189 3238 2694 
C 4032 2208 4947 1850 5888 1638 
C 5958 1766 6093 1971 6202 2074 
C 5312 2246 4435 2560 3680 2970 
C 4326 3398 4877 3917 5254 4512 
L 4922 4730 
L 4838 4704 
L 2464 4704 
C 2605 4883 2739 5075 2854 5267 
L 2394 5427 
z
M 2054 4224 
L 2106 4282 
L 4480 4282 
C 4160 3891 3725 3546 3232 3238 
C 2771 3533 2368 3866 2054 4224 
z
" transform="scale(0.015625)"/>
     <path id="NotoSansCJKtc-Regular-7f8e" d="M 3232 800 
C 4122 442 5280 -134 5843 -538 
L 6074 -122 
C 5491 269 4326 826 3443 1158 
L 3232 800 
z
M 4448 5402 
C 4320 5126 4083 4742 3891 4480 
L 2195 4480 
L 2432 4589 
C 2330 4819 2099 5152 1869 5402 
L 1446 5222 
C 1645 5005 1837 4710 1946 4480 
L 589 4480 
L 589 4051 
L 2944 4051 
L 2944 3526 
L 941 3526 
L 941 3110 
L 2944 3110 
L 2944 2566 
L 358 2566 
L 358 2138 
L 2893 2138 
C 2867 1965 2842 1798 2803 1645 
L 499 1645 
L 499 1229 
L 2669 1229 
C 2381 563 1747 154 262 -64 
C 352 -173 467 -371 506 -493 
C 2208 -211 2893 339 3200 1229 
L 5971 1229 
L 5971 1645 
L 3315 1645 
C 3347 1798 3373 1965 3392 2138 
L 6080 2138 
L 6080 2566 
L 3430 2566 
L 3430 3110 
L 5491 3110 
L 5491 3526 
L 3430 3526 
L 3430 4051 
L 5805 4051 
L 5805 4480 
L 4422 4480 
C 4595 4710 4787 4986 4947 5248 
L 4448 5402 
z
" transform="scale(0.015625)"/>
     <path id="NotoSansCJKtc-Regular-570b" d="M 4000 4326 
C 4250 4205 4544 4013 4691 3866 
L 4922 4122 
C 4774 4269 4474 4448 4224 4557 
L 4000 4326 
z
M 1267 1184 
L 1338 813 
C 1869 915 2547 1050 3219 1184 
L 3200 1523 
C 2483 1389 1760 1261 1267 1184 
z
M 1901 2733 
L 2637 2733 
L 2637 2080 
L 1901 2080 
L 1901 2733 
z
M 1562 3027 
L 1562 1786 
L 2989 1786 
L 2989 3027 
L 1562 3027 
z
M 3226 4486 
L 3277 3795 
L 1331 3795 
L 1331 3437 
L 3309 3437 
C 3379 2707 3488 2042 3661 1530 
C 3392 1190 3066 909 2688 691 
C 2778 621 2918 467 2970 390 
C 3283 595 3571 838 3821 1126 
C 3994 781 4205 557 4486 499 
C 4826 378 5050 627 5139 1331 
C 5050 1370 4902 1472 4819 1555 
C 4781 1133 4717 864 4627 883 
C 4416 915 4243 1139 4102 1485 
C 4416 1926 4653 2451 4819 3059 
L 4429 3136 
C 4320 2701 4160 2304 3949 1958 
C 3846 2374 3763 2886 3712 3437 
L 5082 3437 
L 5082 3795 
L 3680 3795 
L 3635 4486 
L 3226 4486 
z
M 525 5082 
L 525 -531 
L 986 -531 
L 986 -230 
L 5402 -230 
L 5402 -531 
L 5875 -531 
L 5875 5082 
L 525 5082 
z
M 986 205 
L 986 4640 
L 5402 4640 
L 5402 205 
L 986 205 
z
" transform="scale(0.015625)"/>
     <path id="NotoSansCJKtc-Regular-516c" d="M 2029 5190 
C 1626 4211 954 3270 237 2669 
C 358 2579 570 2387 659 2285 
C 1376 2944 2086 3968 2547 5024 
L 2029 5190 
z
M 1043 -198 
C 1280 -102 1638 -83 4986 141 
C 5120 -83 5235 -294 5325 -467 
L 5811 -205 
C 5504 365 4883 1267 4365 1958 
L 3904 1754 
C 4160 1408 4442 992 4704 595 
L 1734 422 
C 2400 1190 3059 2189 3616 3181 
L 3078 3411 
C 2541 2317 1715 1171 1446 877 
C 1203 570 1024 358 845 320 
C 922 173 1011 -90 1043 -198 
z
M 2938 5216 
L 2938 4723 
L 4134 4723 
C 4493 3757 5114 2822 5837 2278 
C 5920 2426 6099 2630 6214 2733 
C 5453 3226 4806 4192 4499 5216 
L 2938 5216 
z
" transform="scale(0.015625)"/>
     <path id="NotoSansCJKtc-Regular-50b5" d="M 2906 2029 
L 5242 2029 
L 5242 1632 
L 2906 1632 
L 2906 2029 
z
M 2906 1344 
L 5242 1344 
L 5242 941 
L 2906 941 
L 2906 1344 
z
M 2906 2701 
L 5242 2701 
L 5242 2317 
L 2906 2317 
L 2906 2701 
z
M 2445 3034 
L 2445 614 
L 5722 614 
L 5722 3034 
L 2445 3034 
z
M 3290 506 
C 2957 237 2374 -13 1850 -173 
C 1965 -256 2150 -422 2234 -512 
C 2746 -320 3366 0 3750 333 
L 3290 506 
z
M 4448 320 
C 4890 70 5434 -314 5709 -550 
L 6138 -288 
C 5856 -51 5331 282 4877 531 
L 4448 320 
z
M 3808 5370 
L 3808 5018 
L 2221 5018 
L 2221 4691 
L 3808 4691 
L 3808 4365 
L 2381 4365 
L 2381 4045 
L 3808 4045 
L 3808 3706 
L 1939 3706 
L 1939 3354 
L 6131 3354 
L 6131 3706 
L 4288 3706 
L 4288 4045 
L 5766 4045 
L 5766 4365 
L 4288 4365 
L 4288 4691 
L 5933 4691 
L 5933 5018 
L 4288 5018 
L 4288 5370 
L 3808 5370 
z
M 1690 5363 
C 1331 4403 736 3456 102 2842 
C 192 2733 326 2483 371 2374 
C 602 2611 826 2880 1037 3181 
L 1037 -499 
L 1510 -499 
L 1510 3923 
C 1754 4339 1965 4781 2138 5229 
L 1690 5363 
z
" transform="scale(0.015625)"/>
     <path id="NotoSansCJKtc-Regular-6b96" d="M 403 5082 
L 403 4634 
L 1114 4634 
C 947 3635 678 2707 230 2093 
C 326 2003 486 1830 550 1741 
C 646 1888 742 2042 826 2214 
C 1088 1971 1357 1683 1542 1459 
C 1242 736 832 198 333 -154 
C 435 -224 602 -390 666 -499 
C 1619 211 2278 1587 2502 3706 
L 2227 3776 
L 2144 3763 
L 1376 3763 
C 1446 4045 1504 4333 1562 4634 
L 2592 4634 
L 2592 4250 
L 3840 4250 
C 3808 4058 3770 3878 3738 3718 
L 2861 3718 
L 2861 83 
L 2234 83 
L 2234 -333 
L 6118 -333 
L 6118 83 
L 5600 83 
L 5600 3718 
L 4186 3718 
L 4314 4250 
L 5965 4250 
L 5965 4666 
L 4403 4666 
L 4531 5350 
L 4000 5382 
C 3981 5171 3949 4922 3910 4666 
L 2605 4666 
L 2605 5082 
L 403 5082 
z
M 3315 83 
L 3315 646 
L 5126 646 
L 5126 83 
L 3315 83 
z
M 3315 2445 
L 5126 2445 
L 5126 1901 
L 3315 1901 
L 3315 2445 
z
M 3315 2803 
L 3315 3347 
L 5126 3347 
L 5126 2803 
L 3315 2803 
z
M 3315 1549 
L 5126 1549 
L 5126 998 
L 3315 998 
L 3315 1549 
z
M 1261 3328 
L 2016 3328 
C 1946 2810 1843 2342 1709 1926 
C 1504 2144 1242 2400 1005 2605 
C 1101 2835 1184 3072 1261 3328 
z
" transform="scale(0.015625)"/>
     <path id="NotoSansCJKtc-Regular-5229" d="M 3795 4614 
L 3795 1082 
L 4262 1082 
L 4262 4614 
L 3795 4614 
z
M 5363 5254 
L 5363 128 
C 5363 6 5318 -32 5197 -38 
C 5069 -38 4672 -45 4218 -32 
C 4288 -166 4365 -384 4397 -518 
C 4986 -518 5344 -506 5555 -429 
C 5754 -346 5843 -205 5843 128 
L 5843 5254 
L 5363 5254 
z
M 2931 5338 
C 2330 5075 1216 4851 269 4717 
C 333 4614 397 4454 422 4339 
C 819 4390 1242 4454 1658 4538 
L 1658 3450 
L 320 3450 
L 320 3002 
L 1555 3002 
C 1248 2202 685 1312 173 832 
C 256 710 384 512 435 378 
C 870 813 1318 1542 1658 2272 
L 1658 -499 
L 2131 -499 
L 2131 2035 
C 2458 1728 2874 1318 3066 1107 
L 3341 1510 
C 3155 1677 2432 2304 2131 2534 
L 2131 3002 
L 3366 3002 
L 3366 3450 
L 2131 3450 
L 2131 4634 
C 2566 4730 2970 4845 3290 4973 
L 2931 5338 
z
" transform="scale(0.015625)"/>
     <path id="NotoSansCJKtc-Regular-7387" d="M 5306 4115 
C 5082 3859 4685 3507 4397 3296 
L 4749 3059 
C 5043 3264 5414 3571 5709 3872 
L 5306 4115 
z
M 358 2157 
L 602 1773 
C 1024 1978 1549 2259 2042 2522 
L 1946 2886 
C 1363 2605 755 2323 358 2157 
z
M 544 3834 
C 890 3616 1312 3296 1510 3078 
L 1856 3373 
C 1638 3590 1216 3898 870 4096 
L 544 3834 
z
M 4333 2611 
C 4774 2342 5325 1958 5594 1702 
L 5952 1990 
C 5670 2246 5101 2624 4672 2867 
L 4333 2611 
z
M 326 1293 
L 326 845 
L 2944 845 
L 2944 -512 
L 3456 -512 
L 3456 845 
L 6080 845 
L 6080 1293 
L 3456 1293 
L 3456 1818 
L 2944 1818 
L 2944 1293 
L 326 1293 
z
M 2784 5299 
C 2880 5152 2995 4966 3078 4800 
L 454 4800 
L 454 4358 
L 2803 4358 
C 2611 4051 2394 3789 2310 3706 
C 2214 3590 2118 3520 2029 3501 
C 2074 3392 2138 3187 2163 3091 
C 2259 3130 2400 3162 3136 3219 
C 2829 2906 2554 2656 2426 2554 
C 2208 2374 2042 2253 1901 2234 
C 1952 2112 2016 1901 2035 1818 
C 2170 1875 2394 1907 4070 2074 
C 4147 1946 4211 1830 4250 1728 
L 4634 1901 
C 4499 2195 4173 2656 3885 2982 
L 3526 2835 
C 3635 2714 3744 2566 3840 2426 
L 2707 2330 
C 3270 2778 3834 3341 4346 3936 
L 3955 4160 
C 3821 3981 3667 3802 3520 3629 
L 2694 3584 
C 2906 3808 3117 4077 3302 4358 
L 6022 4358 
L 6022 4800 
L 3642 4800 
C 3552 4986 3398 5235 3251 5421 
L 2784 5299 
z
" transform="scale(0.015625)"/>
     <path id="NotoSansCJKtc-Regular-8b8a" d="M 2330 4243 
L 2330 3955 
L 4045 3955 
L 4045 4243 
L 2330 4243 
z
M 2330 3667 
L 2330 3373 
L 4045 3373 
L 4045 3667 
L 2330 3667 
z
M 2675 2752 
L 3686 2752 
L 3686 2182 
L 2675 2182 
L 2675 2752 
z
M 2355 3046 
L 2355 1888 
L 4013 1888 
L 4013 3046 
L 2355 3046 
z
M 1043 2707 
C 1101 2413 1152 2042 1158 1792 
L 1485 1862 
C 1472 2106 1414 2477 1344 2765 
L 1043 2707 
z
M 486 2758 
C 448 2426 397 2067 288 1792 
C 371 1754 512 1664 570 1619 
C 672 1901 762 2323 806 2701 
L 486 2758 
z
M 1638 2739 
C 1722 2483 1811 2150 1843 1926 
L 2138 2022 
C 2106 2234 2010 2566 1920 2816 
L 1638 2739 
z
M 4934 2733 
C 5005 2445 5050 2067 5056 1818 
L 5370 1882 
C 5363 2125 5306 2502 5242 2784 
L 4934 2733 
z
M 4358 2790 
C 4320 2483 4269 2144 4186 1882 
C 4262 1843 4403 1766 4474 1709 
C 4557 1978 4646 2381 4691 2714 
L 4358 2790 
z
M 5536 2803 
C 5632 2502 5734 2112 5773 1862 
L 6074 1946 
C 6035 2195 5933 2579 5824 2874 
L 5536 2803 
z
M 2822 5280 
C 2899 5139 2976 4979 3034 4832 
L 2189 4832 
L 2189 4531 
L 4186 4531 
L 4186 4832 
L 3469 4832 
C 3411 5005 3290 5235 3181 5402 
L 2822 5280 
z
M 461 2899 
C 550 2944 723 2982 1850 3142 
L 1914 2880 
L 2214 2976 
C 2170 3206 2029 3597 1888 3885 
L 1600 3808 
C 1658 3686 1709 3552 1760 3411 
L 998 3322 
C 1376 3686 1766 4154 2112 4640 
L 1766 4800 
C 1664 4627 1542 4461 1421 4301 
L 896 4275 
C 1120 4544 1350 4896 1542 5261 
L 1184 5389 
C 1005 4973 685 4538 595 4429 
C 506 4326 422 4256 339 4237 
C 378 4147 442 3968 461 3885 
C 525 3917 646 3942 1158 3981 
C 973 3757 806 3584 730 3507 
C 576 3366 454 3264 339 3251 
C 384 3149 435 2976 461 2899 
z
M 4314 2931 
C 4410 2982 4582 3021 5722 3174 
C 5747 3072 5773 2970 5786 2886 
L 6093 2982 
C 6054 3226 5920 3629 5773 3930 
L 5472 3853 
C 5530 3731 5581 3590 5632 3456 
L 4858 3360 
C 5222 3718 5600 4186 5933 4659 
L 5600 4813 
C 5491 4640 5370 4467 5248 4307 
L 4723 4282 
C 4954 4550 5184 4902 5376 5261 
L 5018 5395 
C 4838 4973 4525 4550 4435 4442 
C 4339 4339 4256 4269 4179 4250 
C 4218 4160 4275 3981 4294 3904 
C 4365 3936 4486 3955 4998 4000 
C 4819 3776 4659 3610 4582 3539 
C 4435 3392 4307 3290 4198 3277 
C 4243 3181 4294 3014 4314 2931 
z
M 4454 1126 
C 4147 845 3744 621 3270 442 
C 2733 627 2278 858 1939 1126 
L 4454 1126 
z
M 2029 1920 
C 1683 1389 1011 954 333 691 
C 422 602 563 416 614 326 
C 954 480 1299 678 1606 915 
C 1914 659 2285 442 2707 256 
C 1958 45 1101 -77 237 -147 
C 314 -250 429 -442 467 -550 
C 1453 -435 2432 -269 3277 32 
C 4083 -250 4998 -429 5914 -525 
C 5965 -410 6067 -230 6163 -134 
C 5363 -70 4557 64 3846 262 
C 4326 486 4736 768 5050 1126 
L 5907 1126 
L 5907 1498 
L 2234 1498 
C 2317 1594 2387 1690 2451 1792 
L 2029 1920 
z
" transform="scale(0.015625)"/>
     <path id="NotoSansCJKtc-Regular-52d5" d="M 4192 5293 
C 4192 4806 4192 4333 4179 3878 
L 3418 3878 
L 3418 3437 
L 4166 3437 
C 4109 2227 3942 1184 3386 422 
L 3386 448 
L 2099 314 
L 2099 826 
L 3360 826 
L 3360 1197 
L 2099 1197 
L 2099 1587 
L 3347 1587 
L 3347 3501 
L 2099 3501 
L 2099 3904 
L 3469 3904 
L 3469 4282 
L 2099 4282 
L 2099 4755 
C 2566 4806 3008 4864 3354 4941 
L 3117 5312 
C 2451 5158 1286 5043 339 4998 
C 384 4896 435 4742 454 4640 
C 832 4653 1248 4678 1658 4710 
L 1658 4282 
L 269 4282 
L 269 3904 
L 1658 3904 
L 1658 3501 
L 461 3501 
L 461 1587 
L 1658 1587 
L 1658 1197 
L 442 1197 
L 442 826 
L 1658 826 
L 1658 269 
L 269 141 
L 333 -282 
C 1056 -205 2054 -90 3034 26 
C 2950 -51 2854 -128 2758 -198 
C 2874 -275 3040 -435 3110 -544 
C 4256 307 4544 1722 4627 3437 
L 5536 3437 
C 5472 1094 5395 243 5242 51 
C 5184 -32 5120 -45 5018 -45 
C 4896 -45 4608 -45 4294 -19 
C 4371 -147 4422 -346 4435 -480 
C 4736 -493 5037 -499 5222 -474 
C 5414 -454 5542 -403 5651 -230 
C 5869 38 5933 934 6003 3642 
C 6003 3699 6003 3878 6003 3878 
L 4640 3878 
C 4653 4333 4659 4806 4659 5293 
L 4192 5293 
z
M 858 2387 
L 1658 2387 
L 1658 1920 
L 858 1920 
L 858 2387 
z
M 2099 2387 
L 2938 2387 
L 2938 1920 
L 2099 1920 
L 2099 2387 
z
M 858 3168 
L 1658 3168 
L 1658 2707 
L 858 2707 
L 858 3168 
z
M 2099 3168 
L 2938 3168 
L 2938 2707 
L 2099 2707 
L 2099 3168 
z
" transform="scale(0.015625)"/>
     <path id="NotoSansCJKtc-Regular-ff1b" d="M 3200 3482 
C 3456 3482 3686 3667 3686 3962 
C 3686 4256 3456 4442 3200 4442 
C 2944 4442 2714 4256 2714 3962 
C 2714 3667 2944 3482 3200 3482 
z
M 2682 -659 
C 3366 -397 3789 141 3789 883 
C 3789 1363 3590 1664 3238 1664 
C 2982 1664 2752 1504 2752 1203 
C 2752 896 2970 742 3232 742 
L 3347 755 
C 3328 256 3053 -83 2534 -320 
L 2682 -659 
z
" transform="scale(0.015625)"/>
    </defs>
    <use xlink:href="#NotoSansCJKtc-Regular-32"/>
    <use xlink:href="#NotoSansCJKtc-Regular-30" transform="translate(55.499985 0)"/>
    <use xlink:href="#NotoSansCJKtc-Regular-32" transform="translate(110.999969 0)"/>
    <use xlink:href="#NotoSansCJKtc-Regular-36" transform="translate(166.499954 0)"/>
    <use xlink:href="#NotoSansCJKtc-Regular-20" transform="translate(221.999939 0)"/>
    <use xlink:href="#NotoSansCJKtc-Regular-5e74" transform="translate(244.399933 0)"/>
    <use xlink:href="#NotoSansCJKtc-Regular-20" transform="translate(344.399918 0)"/>
    <use xlink:href="#NotoSansCJKtc-Regular-38" transform="translate(366.799911 0)"/>
    <use xlink:href="#NotoSansCJKtc-Regular-20" transform="translate(422.299896 0)"/>
    <use xlink:href="#NotoSansCJKtc-Regular-6708" transform="translate(444.69989 0)"/>
    <use xlink:href="#NotoSansCJKtc-Regular-20" transform="translate(544.699875 0)"/>
    <use xlink:href="#NotoSansCJKtc-Regular-32" transform="translate(567.099869 0)"/>
    <use xlink:href="#NotoSansCJKtc-Regular-38" transform="translate(622.599854 0)"/>
    <use xlink:href="#NotoSansCJKtc-Regular-20" transform="translate(678.099838 0)"/>
    <use xlink:href="#NotoSansCJKtc-Regular-65e5" transform="translate(700.499832 0)"/>
    <use xlink:href="#NotoSansCJKtc-Regular-7576" transform="translate(800.499817 0)"/>
    <use xlink:href="#NotoSansCJKtc-Regular-9031" transform="translate(900.499802 0)"/>
    <use xlink:href="#NotoSansCJKtc-Regular-5404" transform="translate(1000.499786 0)"/>
    <use xlink:href="#NotoSansCJKtc-Regular-5e74" transform="translate(1100.499771 0)"/>
    <use xlink:href="#NotoSansCJKtc-Regular-671f" transform="translate(1200.499756 0)"/>
    <use xlink:href="#NotoSansCJKtc-Regular-7f8e" transform="translate(1300.499741 0)"/>
    <use xlink:href="#NotoSansCJKtc-Regular-570b" transform="translate(1400.499725 0)"/>
    <use xlink:href="#NotoSansCJKtc-Regular-516c" transform="translate(1500.49971 0)"/>
    <use xlink:href="#NotoSansCJKtc-Regular-50b5" transform="translate(1600.499695 0)"/>
    <use xlink:href="#NotoSansCJKtc-Regular-6b96" transform="translate(1700.49968 0)"/>
    <use xlink:href="#NotoSansCJKtc-Regular-5229" transform="translate(1800.499664 0)"/>
    <use xlink:href="#NotoSansCJKtc-Regular-7387" transform="translate(1900.499649 0)"/>
    <use xlink:href="#NotoSansCJKtc-Regular-8b8a" transform="translate(2000.499634 0)"/>
    <use xlink:href="#NotoSansCJKtc-Regular-52d5" transform="translate(2100.499619 0)"/>
    <use xlink:href="#NotoSansCJKtc-Regular-ff1b" transform="translate(2200.499603 0)"/>
    <use xlink:href="#NotoSansCJKtc-Regular-57fa" transform="translate(2300.499588 0)"/>
    <use xlink:href="#NotoSansCJKtc-Regular-9ede" transform="translate(2400.499573 0)"/>
   </g>
  </g>
  <g id="text_12">
   <!-- J.P. Morgan《U.S. Fixed Income Markets Weekly》，2026-08-28，第 15 頁 -->
   <g style="fill: #9ba0a6" transform="translate(46.44 338.452) scale(0.08 -0.08)">
    <defs>
     <path id="NotoSansCJKtc-Regular-4a" d="M 1517 -83 
C 2432 -83 2810 563 2810 1376 
L 2810 4691 
L 2214 4691 
L 2214 1434 
C 2214 723 1965 435 1459 435 
C 1120 435 858 589 646 966 
L 224 659 
C 499 173 922 -83 1517 -83 
z
" transform="scale(0.015625)"/>
     <path id="NotoSansCJKtc-Regular-2e" d="M 890 -83 
C 1120 -83 1312 96 1312 358 
C 1312 627 1120 806 890 806 
C 653 806 467 627 467 358 
C 467 96 653 -83 890 -83 
z
" transform="scale(0.015625)"/>
     <path id="NotoSansCJKtc-Regular-50" d="M 646 0 
L 1235 0 
L 1235 1869 
L 2010 1869 
C 3040 1869 3738 2323 3738 3315 
C 3738 4339 3034 4691 1984 4691 
L 646 4691 
L 646 0 
z
M 1235 2349 
L 1235 4211 
L 1907 4211 
C 2733 4211 3149 4000 3149 3315 
C 3149 2643 2758 2349 1933 2349 
L 1235 2349 
z
" transform="scale(0.015625)"/>
     <path id="NotoSansCJKtc-Regular-4d" d="M 646 0 
L 1178 0 
L 1178 2598 
C 1178 3002 1139 3571 1101 3981 
L 1126 3981 
L 1504 2912 
L 2394 474 
L 2790 474 
L 3674 2912 
L 4051 3981 
L 4077 3981 
C 4045 3571 4000 3002 4000 2598 
L 4000 0 
L 4550 0 
L 4550 4691 
L 3840 4691 
L 2944 2182 
C 2835 1862 2739 1530 2618 1203 
L 2592 1203 
C 2477 1530 2374 1862 2253 2182 
L 1357 4691 
L 646 4691 
L 646 0 
z
" transform="scale(0.015625)"/>
     <path id="NotoSansCJKtc-Regular-6f" d="M 1939 -83 
C 2790 -83 3546 582 3546 1734 
C 3546 2893 2790 3565 1939 3565 
C 1088 3565 333 2893 333 1734 
C 333 582 1088 -83 1939 -83 
z
M 1939 403 
C 1338 403 934 934 934 1734 
C 934 2534 1338 3072 1939 3072 
C 2541 3072 2950 2534 2950 1734 
C 2950 934 2541 403 1939 403 
z
" transform="scale(0.015625)"/>
     <path id="NotoSansCJKtc-Regular-72" d="M 589 0 
L 1178 0 
L 1178 2234 
C 1408 2822 1760 3040 2048 3040 
C 2195 3040 2272 3021 2387 2982 
L 2496 3488 
C 2387 3546 2278 3565 2125 3565 
C 1741 3565 1382 3283 1139 2842 
L 1126 2842 
L 1069 3475 
L 589 3475 
L 589 0 
z
" transform="scale(0.015625)"/>
     <path id="NotoSansCJKtc-Regular-67" d="M 1760 -1600 
C 2835 -1600 3520 -1043 3520 -397 
C 3520 179 3110 429 2310 429 
L 1626 429 
C 1158 429 1018 589 1018 806 
C 1018 998 1114 1114 1242 1222 
C 1395 1146 1587 1101 1754 1101 
C 2470 1101 3027 1568 3027 2310 
C 3027 2611 2912 2867 2746 3027 
L 3456 3027 
L 3456 3475 
L 2246 3475 
C 2125 3526 1952 3565 1754 3565 
C 1056 3565 454 3085 454 2323 
C 454 1907 678 1568 909 1389 
L 909 1363 
C 723 1235 525 1005 525 717 
C 525 442 659 256 838 147 
L 838 115 
C 512 -83 326 -371 326 -672 
C 326 -1267 915 -1600 1760 -1600 
z
M 1754 1498 
C 1357 1498 1018 1818 1018 2323 
C 1018 2835 1350 3136 1754 3136 
C 2170 3136 2496 2835 2496 2323 
C 2496 1818 2157 1498 1754 1498 
z
M 1843 -1197 
C 1210 -1197 838 -960 838 -589 
C 838 -390 941 -179 1190 0 
C 1344 -38 1510 -51 1638 -51 
L 2240 -51 
C 2701 -51 2944 -166 2944 -493 
C 2944 -851 2515 -1197 1843 -1197 
z
" transform="scale(0.015625)"/>
     <path id="NotoSansCJKtc-Regular-61" d="M 1389 -83 
C 1818 -83 2208 141 2541 416 
L 2560 416 
L 2611 0 
L 3091 0 
L 3091 2138 
C 3091 3002 2739 3565 1888 3565 
C 1325 3565 838 3315 525 3110 
L 749 2707 
C 1024 2893 1389 3078 1792 3078 
C 2362 3078 2509 2650 2509 2202 
C 1030 2035 378 1658 378 902 
C 378 275 806 -83 1389 -83 
z
M 1555 390 
C 1210 390 941 544 941 941 
C 941 1389 1338 1677 2509 1811 
L 2509 845 
C 2170 544 1888 390 1555 390 
z
" transform="scale(0.015625)"/>
     <path id="NotoSansCJKtc-Regular-6e" d="M 589 0 
L 1178 0 
L 1178 2522 
C 1523 2874 1766 3053 2125 3053 
C 2586 3053 2784 2778 2784 2125 
L 2784 0 
L 3366 0 
L 3366 2202 
C 3366 3085 3034 3565 2304 3565 
C 1830 3565 1466 3302 1139 2970 
L 1126 2970 
L 1069 3475 
L 589 3475 
L 589 0 
z
" transform="scale(0.015625)"/>
     <path id="NotoSansCJKtc-Regular-300a" d="M 5158 -435 
L 3776 2432 
L 5158 5299 
L 4806 5414 
L 3386 2432 
L 4806 -550 
L 5158 -435 
z
M 6163 -435 
L 4787 2432 
L 6163 5299 
L 5818 5414 
L 4397 2432 
L 5818 -550 
L 6163 -435 
z
" transform="scale(0.015625)"/>
     <path id="NotoSansCJKtc-Regular-55" d="M 2310 -83 
C 3264 -83 3994 429 3994 1933 
L 3994 4691 
L 3424 4691 
L 3424 1920 
C 3424 794 2931 435 2310 435 
C 1696 435 1216 794 1216 1920 
L 1216 4691 
L 627 4691 
L 627 1933 
C 627 429 1350 -83 2310 -83 
z
" transform="scale(0.015625)"/>
     <path id="NotoSansCJKtc-Regular-53" d="M 1946 -83 
C 2925 -83 3539 506 3539 1248 
C 3539 1946 3117 2266 2573 2502 
L 1907 2790 
C 1542 2944 1126 3117 1126 3578 
C 1126 3994 1472 4256 2003 4256 
C 2438 4256 2784 4090 3072 3821 
L 3379 4198 
C 3053 4538 2560 4774 2003 4774 
C 1152 4774 525 4256 525 3533 
C 525 2848 1043 2515 1478 2330 
L 2150 2035 
C 2598 1837 2938 1683 2938 1197 
C 2938 742 2573 435 1952 435 
C 1466 435 992 666 659 1018 
L 307 608 
C 710 186 1280 -83 1946 -83 
z
" transform="scale(0.015625)"/>
     <path id="NotoSansCJKtc-Regular-46" d="M 646 0 
L 1235 0 
L 1235 2106 
L 3027 2106 
L 3027 2605 
L 1235 2605 
L 1235 4192 
L 3347 4192 
L 3347 4691 
L 646 4691 
L 646 0 
z
" transform="scale(0.015625)"/>
     <path id="NotoSansCJKtc-Regular-69" d="M 589 0 
L 1178 0 
L 1178 3475 
L 589 3475 
L 589 0 
z
M 883 4192 
C 1114 4192 1274 4346 1274 4582 
C 1274 4806 1114 4960 883 4960 
C 653 4960 499 4806 499 4582 
C 499 4346 653 4192 883 4192 
z
" transform="scale(0.015625)"/>
     <path id="NotoSansCJKtc-Regular-78" d="M 96 0 
L 710 0 
L 1178 813 
C 1299 1024 1408 1235 1530 1434 
L 1562 1434 
C 1696 1235 1824 1024 1939 813 
L 2451 0 
L 3091 0 
L 1946 1754 
L 3002 3475 
L 2394 3475 
L 1965 2714 
C 1856 2515 1760 2330 1658 2131 
L 1626 2131 
C 1510 2330 1389 2515 1286 2714 
L 819 3475 
L 186 3475 
L 1242 1811 
L 96 0 
z
" transform="scale(0.015625)"/>
     <path id="NotoSansCJKtc-Regular-65" d="M 1997 -83 
C 2464 -83 2835 70 3136 269 
L 2931 659 
C 2669 486 2400 384 2061 384 
C 1402 384 947 858 909 1600 
L 3251 1600 
C 3264 1690 3277 1805 3277 1933 
C 3277 2925 2778 3565 1888 3565 
C 1094 3565 333 2867 333 1734 
C 333 589 1069 -83 1997 -83 
z
M 902 2016 
C 973 2707 1408 3098 1901 3098 
C 2445 3098 2765 2720 2765 2016 
L 902 2016 
z
" transform="scale(0.015625)"/>
     <path id="NotoSansCJKtc-Regular-64" d="M 1773 -83 
C 2189 -83 2560 141 2829 410 
L 2848 410 
L 2899 0 
L 3379 0 
L 3379 5094 
L 2790 5094 
L 2790 3757 
L 2822 3162 
C 2515 3411 2253 3565 1843 3565 
C 1050 3565 339 2861 339 1734 
C 339 576 902 -83 1773 -83 
z
M 1901 410 
C 1293 410 941 902 941 1741 
C 941 2534 1389 3072 1946 3072 
C 2234 3072 2502 2970 2790 2707 
L 2790 883 
C 2502 563 2221 410 1901 410 
z
" transform="scale(0.015625)"/>
     <path id="NotoSansCJKtc-Regular-49" d="M 646 0 
L 1235 0 
L 1235 4691 
L 646 4691 
L 646 0 
z
" transform="scale(0.015625)"/>
     <path id="NotoSansCJKtc-Regular-63" d="M 1958 -83 
C 2374 -83 2771 83 3085 352 
L 2829 749 
C 2611 557 2330 403 2010 403 
C 1370 403 934 934 934 1734 
C 934 2534 1395 3072 2029 3072 
C 2298 3072 2522 2950 2720 2771 
L 3014 3155 
C 2771 3373 2458 3565 2003 3565 
C 1107 3565 333 2893 333 1734 
C 333 582 1037 -83 1958 -83 
z
" transform="scale(0.015625)"/>
     <path id="NotoSansCJKtc-Regular-6d" d="M 589 0 
L 1178 0 
L 1178 2522 
C 1491 2880 1786 3053 2048 3053 
C 2490 3053 2694 2778 2694 2125 
L 2694 0 
L 3277 0 
L 3277 2522 
C 3603 2880 3885 3053 4154 3053 
C 4595 3053 4800 2778 4800 2125 
L 4800 0 
L 5382 0 
L 5382 2202 
C 5382 3085 5043 3565 4333 3565 
C 3904 3565 3546 3290 3181 2899 
C 3040 3309 2758 3565 2221 3565 
C 1805 3565 1446 3302 1139 2970 
L 1126 2970 
L 1069 3475 
L 589 3475 
L 589 0 
z
" transform="scale(0.015625)"/>
     <path id="NotoSansCJKtc-Regular-6b" d="M 589 0 
L 1165 0 
L 1165 915 
L 1818 1677 
L 2835 0 
L 3469 0 
L 2157 2074 
L 3315 3475 
L 2662 3475 
L 1190 1645 
L 1165 1645 
L 1165 5094 
L 589 5094 
L 589 0 
z
" transform="scale(0.015625)"/>
     <path id="NotoSansCJKtc-Regular-74" d="M 1677 -83 
C 1894 -83 2125 -19 2323 45 
L 2208 486 
C 2093 435 1939 390 1811 390 
C 1408 390 1274 634 1274 1056 
L 1274 3002 
L 2221 3002 
L 2221 3475 
L 1274 3475 
L 1274 4454 
L 787 4454 
L 723 3475 
L 173 3443 
L 173 3002 
L 691 3002 
L 691 1075 
C 691 378 941 -83 1677 -83 
z
" transform="scale(0.015625)"/>
     <path id="NotoSansCJKtc-Regular-73" d="M 1498 -83 
C 2317 -83 2758 384 2758 947 
C 2758 1606 2208 1811 1702 2003 
C 1312 2150 954 2278 954 2605 
C 954 2880 1158 3110 1600 3110 
C 1907 3110 2150 2976 2387 2803 
L 2669 3168 
C 2406 3386 2022 3565 1594 3565 
C 832 3565 397 3130 397 2579 
C 397 1984 922 1754 1408 1574 
C 1792 1434 2202 1267 2202 915 
C 2202 614 1978 371 1517 371 
C 1101 371 794 538 486 787 
L 205 397 
C 531 122 1005 -83 1498 -83 
z
" transform="scale(0.015625)"/>
     <path id="NotoSansCJKtc-Regular-57" d="M 1158 0 
L 1862 0 
L 2560 2829 
C 2637 3200 2726 3539 2797 3898 
L 2822 3898 
C 2899 3539 2970 3200 3053 2829 
L 3763 0 
L 4480 0 
L 5446 4691 
L 4883 4691 
L 4378 2138 
C 4294 1632 4205 1126 4122 614 
L 4083 614 
C 3968 1126 3866 1638 3750 2138 
L 3098 4691 
L 2554 4691 
L 1907 2138 
C 1792 1632 1677 1126 1574 614 
L 1549 614 
C 1453 1126 1363 1632 1267 2138 
L 774 4691 
L 166 4691 
L 1158 0 
z
" transform="scale(0.015625)"/>
     <path id="NotoSansCJKtc-Regular-6c" d="M 1203 -83 
C 1363 -83 1459 -58 1542 -32 
L 1459 416 
C 1395 403 1370 403 1338 403 
C 1248 403 1178 474 1178 653 
L 1178 5094 
L 589 5094 
L 589 691 
C 589 198 768 -83 1203 -83 
z
" transform="scale(0.015625)"/>
     <path id="NotoSansCJKtc-Regular-79" d="M 646 -1498 
C 1338 -1498 1702 -973 1946 -294 
L 3251 3475 
L 2682 3475 
L 2054 1549 
C 1965 1235 1862 883 1773 563 
L 1741 563 
C 1619 890 1504 1242 1395 1549 
L 691 3475 
L 83 3475 
L 1478 -6 
L 1402 -269 
C 1254 -698 1011 -1018 621 -1018 
C 525 -1018 422 -986 352 -960 
L 237 -1427 
C 346 -1472 486 -1498 646 -1498 
z
" transform="scale(0.015625)"/>
     <path id="NotoSansCJKtc-Regular-300b" d="M 1242 -435 
L 1587 -550 
L 3008 2432 
L 1587 5414 
L 1242 5299 
L 2618 2432 
L 1242 -435 
z
M 230 -435 
L 576 -550 
L 1997 2432 
L 576 5414 
L 230 5299 
L 1606 2432 
L 230 -435 
z
" transform="scale(0.015625)"/>
     <path id="NotoSansCJKtc-Regular-ff0c" d="M 2675 1203 
C 3347 1440 3782 1965 3782 2656 
C 3782 3104 3590 3392 3238 3392 
C 2976 3392 2752 3232 2752 2931 
C 2752 2630 2970 2477 3232 2477 
L 3341 2490 
C 3309 2048 3027 1747 2534 1542 
L 2675 1203 
z
" transform="scale(0.015625)"/>
     <path id="NotoSansCJKtc-Regular-7b2c" d="M 1075 2566 
C 1024 2106 928 1536 838 1152 
L 2547 1152 
C 2016 595 1203 109 448 -141 
C 557 -230 691 -403 762 -518 
C 1523 -218 2362 326 2925 966 
L 2925 -512 
L 3398 -512 
L 3398 1152 
L 5254 1152 
C 5190 570 5120 320 5030 230 
C 4979 186 4915 179 4800 179 
C 4685 173 4384 179 4070 211 
C 4141 90 4198 -96 4205 -230 
C 4538 -250 4851 -250 5011 -237 
C 5197 -224 5312 -186 5421 -77 
C 5587 83 5670 474 5760 1370 
C 5766 1434 5773 1562 5773 1562 
L 3398 1562 
L 3398 2157 
L 5555 2157 
L 5555 3571 
L 838 3571 
L 838 3162 
L 2925 3162 
L 2925 2566 
L 1075 2566 
z
M 1478 2157 
L 2925 2157 
L 2925 1562 
L 1389 1562 
L 1478 2157 
z
M 3398 3162 
L 5088 3162 
L 5088 2566 
L 3398 2566 
L 3398 3162 
z
M 1587 4339 
C 1805 4141 2080 3859 2208 3680 
L 2528 3949 
C 2400 4109 2157 4346 1946 4531 
L 3162 4531 
L 3162 4915 
L 1504 4915 
C 1568 5043 1632 5178 1683 5306 
L 1254 5427 
C 1043 4890 685 4371 288 4019 
C 390 3942 557 3776 634 3693 
C 858 3917 1088 4211 1286 4531 
L 1824 4531 
L 1587 4339 
z
M 4384 4301 
C 4614 4115 4902 3846 5043 3667 
L 5363 3955 
C 5222 4115 4954 4352 4730 4531 
L 6118 4531 
L 6118 4915 
L 4160 4915 
C 4224 5043 4282 5178 4333 5312 
L 3891 5421 
C 3731 4960 3437 4518 3085 4224 
C 3194 4160 3373 4013 3450 3936 
C 3622 4096 3789 4301 3936 4531 
L 4666 4531 
L 4384 4301 
z
" transform="scale(0.015625)"/>
     <path id="NotoSansCJKtc-Regular-9801" d="M 1632 2682 
L 4864 2682 
L 4864 2099 
L 1632 2099 
L 1632 2682 
z
M 1632 1728 
L 4864 1728 
L 4864 1133 
L 1632 1133 
L 1632 1728 
z
M 1632 3635 
L 4864 3635 
L 4864 3053 
L 1632 3053 
L 1632 3635 
z
M 3674 326 
C 4422 70 5184 -269 5638 -518 
L 6093 -192 
C 5594 64 4768 397 4019 640 
L 3674 326 
z
M 2298 672 
C 1856 378 986 45 294 -141 
C 403 -237 550 -410 627 -512 
C 1312 -314 2182 26 2739 365 
L 2298 672 
z
M 518 5043 
L 518 4602 
L 2918 4602 
C 2880 4410 2835 4198 2784 4019 
L 1133 4019 
L 1133 749 
L 5376 749 
L 5376 4019 
L 3283 4019 
L 3469 4602 
L 5862 4602 
L 5862 5043 
L 518 5043 
z
" transform="scale(0.015625)"/>
    </defs>
    <use xlink:href="#NotoSansCJKtc-Regular-4a"/>
    <use xlink:href="#NotoSansCJKtc-Regular-2e" transform="translate(53.499985 0)"/>
    <use xlink:href="#NotoSansCJKtc-Regular-50" transform="translate(81.299973 0)"/>
    <use xlink:href="#NotoSansCJKtc-Regular-2e" transform="translate(144.59996 0)"/>
    <use xlink:href="#NotoSansCJKtc-Regular-20" transform="translate(172.399948 0)"/>
    <use xlink:href="#NotoSansCJKtc-Regular-4d" transform="translate(194.799942 0)"/>
    <use xlink:href="#NotoSansCJKtc-Regular-6f" transform="translate(275.999924 0)"/>
    <use xlink:href="#NotoSansCJKtc-Regular-72" transform="translate(336.599915 0)"/>
    <use xlink:href="#NotoSansCJKtc-Regular-67" transform="translate(375.399902 0)"/>
    <use xlink:href="#NotoSansCJKtc-Regular-61" transform="translate(431.799896 0)"/>
    <use xlink:href="#NotoSansCJKtc-Regular-6e" transform="translate(488.099884 0)"/>
    <use xlink:href="#NotoSansCJKtc-Regular-300a" transform="translate(549.099869 0)"/>
    <use xlink:href="#NotoSansCJKtc-Regular-55" transform="translate(649.099854 0)"/>
    <use xlink:href="#NotoSansCJKtc-Regular-2e" transform="translate(721.199844 0)"/>
    <use xlink:href="#NotoSansCJKtc-Regular-53" transform="translate(748.999832 0)"/>
    <use xlink:href="#NotoSansCJKtc-Regular-2e" transform="translate(808.599823 0)"/>
    <use xlink:href="#NotoSansCJKtc-Regular-20" transform="translate(836.399811 0)"/>
    <use xlink:href="#NotoSansCJKtc-Regular-46" transform="translate(858.799805 0)"/>
    <use xlink:href="#NotoSansCJKtc-Regular-69" transform="translate(913.999802 0)"/>
    <use xlink:href="#NotoSansCJKtc-Regular-78" transform="translate(941.499786 0)"/>
    <use xlink:href="#NotoSansCJKtc-Regular-65" transform="translate(991.299774 0)"/>
    <use xlink:href="#NotoSansCJKtc-Regular-64" transform="translate(1046.699768 0)"/>
    <use xlink:href="#NotoSansCJKtc-Regular-20" transform="translate(1108.699753 0)"/>
    <use xlink:href="#NotoSansCJKtc-Regular-49" transform="translate(1131.099747 0)"/>
    <use xlink:href="#NotoSansCJKtc-Regular-6e" transform="translate(1160.399734 0)"/>
    <use xlink:href="#NotoSansCJKtc-Regular-63" transform="translate(1221.399719 0)"/>
    <use xlink:href="#NotoSansCJKtc-Regular-6f" transform="translate(1272.399704 0)"/>
    <use xlink:href="#NotoSansCJKtc-Regular-6d" transform="translate(1332.999695 0)"/>
    <use xlink:href="#NotoSansCJKtc-Regular-65" transform="translate(1425.599686 0)"/>
    <use xlink:href="#NotoSansCJKtc-Regular-20" transform="translate(1480.99968 0)"/>
    <use xlink:href="#NotoSansCJKtc-Regular-4d" transform="translate(1503.399673 0)"/>
    <use xlink:href="#NotoSansCJKtc-Regular-61" transform="translate(1584.599655 0)"/>
    <use xlink:href="#NotoSansCJKtc-Regular-72" transform="translate(1640.899643 0)"/>
    <use xlink:href="#NotoSansCJKtc-Regular-6b" transform="translate(1679.699631 0)"/>
    <use xlink:href="#NotoSansCJKtc-Regular-65" transform="translate(1734.899628 0)"/>
    <use xlink:href="#NotoSansCJKtc-Regular-74" transform="translate(1790.299622 0)"/>
    <use xlink:href="#NotoSansCJKtc-Regular-73" transform="translate(1827.999619 0)"/>
    <use xlink:href="#NotoSansCJKtc-Regular-20" transform="translate(1874.799606 0)"/>
    <use xlink:href="#NotoSansCJKtc-Regular-57" transform="translate(1897.1996 0)"/>
    <use xlink:href="#NotoSansCJKtc-Regular-65" transform="translate(1984.999588 0)"/>
    <use xlink:href="#NotoSansCJKtc-Regular-65" transform="translate(2040.399582 0)"/>
    <use xlink:href="#NotoSansCJKtc-Regular-6b" transform="translate(2095.799576 0)"/>
    <use xlink:href="#NotoSansCJKtc-Regular-6c" transform="translate(2150.999573 0)"/>
    <use xlink:href="#NotoSansCJKtc-Regular-79" transform="translate(2179.399567 0)"/>
    <use xlink:href="#NotoSansCJKtc-Regular-300b" transform="translate(2231.499557 0)"/>
    <use xlink:href="#NotoSansCJKtc-Regular-ff0c" transform="translate(2331.499542 0)"/>
    <use xlink:href="#NotoSansCJKtc-Regular-32" transform="translate(2431.499527 0)"/>
    <use xlink:href="#NotoSansCJKtc-Regular-30" transform="translate(2486.999512 0)"/>
    <use xlink:href="#NotoSansCJKtc-Regular-32" transform="translate(2542.499496 0)"/>
    <use xlink:href="#NotoSansCJKtc-Regular-36" transform="translate(2597.999481 0)"/>
    <use xlink:href="#NotoSansCJKtc-Regular-2d" transform="translate(2653.499466 0)"/>
    <use xlink:href="#NotoSansCJKtc-Regular-30" transform="translate(2688.199463 0)"/>
    <use xlink:href="#NotoSansCJKtc-Regular-38" transform="translate(2743.699448 0)"/>
    <use xlink:href="#NotoSansCJKtc-Regular-2d" transform="translate(2799.199432 0)"/>
    <use xlink:href="#NotoSansCJKtc-Regular-32" transform="translate(2833.899429 0)"/>
    <use xlink:href="#NotoSansCJKtc-Regular-38" transform="translate(2889.399414 0)"/>
    <use xlink:href="#NotoSansCJKtc-Regular-ff0c" transform="translate(2944.899399 0)"/>
    <use xlink:href="#NotoSansCJKtc-Regular-7b2c" transform="translate(3044.899384 0)"/>
    <use xlink:href="#NotoSansCJKtc-Regular-20" transform="translate(3144.899368 0)"/>
    <use xlink:href="#NotoSansCJKtc-Regular-31" transform="translate(3167.299362 0)"/>
    <use xlink:href="#NotoSansCJKtc-Regular-35" transform="translate(3222.799347 0)"/>
    <use xlink:href="#NotoSansCJKtc-Regular-20" transform="translate(3278.299332 0)"/>
    <use xlink:href="#NotoSansCJKtc-Regular-9801" transform="translate(3300.699326 0)"/>
   </g>
  </g>
  <g id="text_13">
   <!-- 依報告內文數字重製 -->
   <g style="fill: #9ba0a6" transform="translate(500.76 338.6195) scale(0.08 -0.08)">
    <defs>
     <path id="NotoSansCJKtc-Regular-4f9d" d="M 3494 5210 
C 3674 4890 3866 4454 3942 4192 
L 4397 4365 
C 4314 4621 4109 5037 3923 5350 
L 3494 5210 
z
M 2566 -531 
C 2701 -429 2899 -333 4320 186 
C 4288 288 4256 480 4243 602 
L 3098 198 
L 3098 2502 
C 3315 2733 3520 2976 3706 3226 
C 4115 1690 4819 346 5862 -333 
C 5946 -205 6106 -26 6214 64 
C 5619 410 5126 998 4742 1722 
C 5171 2010 5696 2413 6099 2771 
L 5741 3104 
C 5446 2790 4973 2374 4570 2074 
C 4339 2579 4154 3130 4019 3699 
L 4038 3725 
L 6042 3725 
L 6042 4179 
L 1901 4179 
L 1901 3725 
L 3488 3725 
C 2989 2957 2259 2266 1517 1818 
C 1619 1728 1786 1530 1856 1427 
C 2112 1606 2374 1811 2630 2042 
L 2630 384 
C 2630 90 2432 -90 2310 -166 
C 2394 -250 2522 -429 2566 -531 
z
M 1702 5370 
C 1363 4397 806 3443 205 2816 
C 294 2701 435 2451 480 2342 
C 666 2541 851 2771 1024 3027 
L 1024 -518 
L 1485 -518 
L 1485 3763 
C 1747 4230 1978 4730 2163 5229 
L 1702 5370 
z
" transform="scale(0.015625)"/>
     <path id="NotoSansCJKtc-Regular-5831" d="M 3776 2509 
L 3827 2509 
C 4026 1856 4294 1242 4640 730 
C 4397 397 4109 102 3776 -122 
L 3776 2509 
z
M 3328 5082 
L 3328 -499 
L 3776 -499 
L 3776 -294 
C 3853 -365 3936 -454 3987 -525 
C 4346 -294 4659 6 4928 346 
C 5203 13 5523 -269 5882 -474 
C 5958 -346 6106 -173 6214 -77 
C 5830 109 5491 390 5197 736 
C 5574 1344 5837 2061 5978 2816 
L 5677 2925 
L 5594 2906 
L 3776 2906 
L 3776 4646 
L 5376 4646 
L 5376 3846 
C 5376 3776 5357 3757 5248 3750 
C 5152 3744 4819 3744 4416 3757 
C 4480 3629 4544 3462 4563 3334 
C 5062 3334 5382 3334 5581 3405 
C 5779 3475 5824 3610 5824 3846 
L 5824 5082 
L 3328 5082 
z
M 4237 2509 
L 5453 2509 
C 5338 2029 5152 1555 4902 1126 
C 4621 1536 4397 2010 4237 2509 
z
M 1504 5370 
L 1504 4717 
L 493 4717 
L 493 4307 
L 1504 4307 
L 1504 3661 
L 301 3661 
L 301 3245 
L 3085 3245 
L 3085 3661 
L 1952 3661 
L 1952 4307 
L 2925 4307 
L 2925 4717 
L 1952 4717 
L 1952 5370 
L 1504 5370 
z
M 736 3110 
C 864 2867 992 2547 1037 2336 
L 442 2336 
L 442 1920 
L 1504 1920 
L 1504 1216 
L 301 1216 
L 301 800 
L 1504 800 
L 1504 -486 
L 1952 -486 
L 1952 800 
L 3098 800 
L 3098 1216 
L 1952 1216 
L 1952 1920 
L 2970 1920 
L 2970 2336 
L 2330 2336 
C 2470 2579 2618 2861 2758 3130 
L 2342 3245 
C 2240 2982 2061 2611 1901 2336 
L 1101 2336 
L 1421 2445 
C 1376 2656 1235 2976 1088 3219 
L 736 3110 
z
" transform="scale(0.015625)"/>
     <path id="NotoSansCJKtc-Regular-544a" d="M 1587 5325 
C 1344 4595 934 3866 467 3405 
C 582 3347 806 3219 902 3142 
C 1114 3379 1318 3680 1510 4013 
L 3091 4013 
L 3091 3002 
L 390 3002 
L 390 2554 
L 6029 2554 
L 6029 3002 
L 3590 3002 
L 3590 4013 
L 5555 4013 
L 5555 4454 
L 3590 4454 
L 3590 5376 
L 3091 5376 
L 3091 4454 
L 1747 4454 
C 1869 4698 1978 4947 2067 5203 
L 1587 5325 
z
M 1184 1914 
L 1184 -570 
L 1664 -570 
L 1664 -205 
L 4787 -205 
L 4787 -557 
L 5286 -557 
L 5286 1914 
L 1184 1914 
z
M 1664 243 
L 1664 1472 
L 4787 1472 
L 4787 243 
L 1664 243 
z
" transform="scale(0.015625)"/>
     <path id="NotoSansCJKtc-Regular-5167" d="M 1824 5088 
L 1824 4659 
L 2976 4659 
C 2995 4410 3021 4173 3053 3942 
L 704 3942 
L 704 -512 
L 1184 -512 
L 1184 3469 
L 2854 3469 
C 2630 2458 2112 1773 1242 1344 
C 1344 1261 1504 1075 1568 966 
C 2426 1408 2950 2118 3226 3098 
C 3501 2138 4000 1421 4838 998 
C 4915 1126 5075 1318 5184 1414 
C 4339 1779 3859 2483 3610 3469 
L 5254 3469 
L 5254 115 
C 5254 19 5222 -19 5107 -19 
C 4986 -26 4576 -32 4154 -13 
C 4230 -154 4307 -371 4326 -506 
C 4864 -506 5235 -506 5459 -422 
C 5670 -346 5734 -192 5734 115 
L 5734 3942 
L 3507 3942 
C 3450 4294 3411 4678 3392 5088 
L 1824 5088 
z
" transform="scale(0.015625)"/>
     <path id="NotoSansCJKtc-Regular-6587" d="M 2707 5267 
C 2899 4954 3104 4525 3181 4262 
L 3712 4435 
C 3622 4698 3398 5114 3206 5421 
L 2707 5267 
z
M 320 4250 
L 320 3776 
L 1318 3776 
C 1696 2803 2202 1965 2861 1280 
C 2157 691 1293 256 230 -45 
C 326 -160 480 -384 531 -499 
C 1600 -154 2490 307 3213 934 
C 3936 294 4806 -179 5856 -467 
C 5939 -333 6080 -128 6189 -26 
C 5165 230 4294 685 3584 1286 
C 4230 1946 4723 2765 5094 3776 
L 6106 3776 
L 6106 4250 
L 320 4250 
z
M 3226 1619 
C 2624 2227 2150 2957 1818 3776 
L 4550 3776 
C 4230 2912 3789 2202 3226 1619 
z
" transform="scale(0.015625)"/>
     <path id="NotoSansCJKtc-Regular-6578" d="M 4339 3680 
L 5222 3680 
C 5139 2918 5005 2266 4781 1715 
C 4563 2278 4416 2918 4314 3603 
L 4339 3680 
z
M 282 1466 
L 282 1114 
L 1107 1114 
C 979 902 845 710 723 550 
C 1018 474 1331 365 1645 250 
C 1306 83 851 -64 237 -186 
C 314 -262 410 -416 448 -506 
C 1190 -352 1715 -154 2086 64 
C 2406 -70 2694 -218 2906 -339 
L 3059 -198 
C 3142 -288 3245 -442 3283 -518 
C 3923 -186 4397 243 4755 781 
C 5043 243 5414 -192 5888 -486 
C 5952 -365 6099 -192 6202 -109 
C 5690 166 5299 627 5005 1210 
C 5338 1875 5536 2688 5658 3680 
L 6150 3680 
L 6150 4109 
L 4467 4109 
C 4576 4493 4672 4896 4749 5299 
L 4333 5376 
C 4147 4339 3846 3290 3424 2592 
L 3424 2925 
L 2163 2925 
L 2163 3200 
L 3290 3200 
L 3290 3930 
L 3654 3930 
L 3654 4294 
L 3290 4294 
L 3290 4960 
L 2163 4960 
L 2163 5376 
L 1779 5376 
L 1779 4960 
L 717 4960 
L 717 4294 
L 282 4294 
L 282 3930 
L 717 3930 
L 717 3200 
L 1779 3200 
L 1779 2925 
L 570 2925 
L 570 1875 
L 1523 1875 
C 1459 1741 1389 1606 1312 1466 
L 282 1466 
z
M 2566 1728 
L 2566 1510 
L 2566 1466 
L 1760 1466 
C 1830 1600 1901 1741 1965 1875 
L 3424 1875 
L 3424 2470 
C 3520 2394 3654 2272 3712 2208 
C 3840 2419 3955 2662 4064 2931 
C 4186 2304 4339 1728 4550 1229 
C 4237 678 3802 250 3206 -64 
L 3219 -51 
C 3014 64 2739 192 2445 320 
C 2739 576 2867 851 2918 1114 
L 3603 1114 
L 3603 1466 
L 2957 1466 
L 2957 1504 
L 2957 1728 
L 2566 1728 
z
M 1101 4627 
L 1779 4627 
L 1779 4275 
L 1101 4275 
L 1101 4627 
z
M 1779 3539 
L 1101 3539 
L 1101 3949 
L 1779 3949 
L 1779 3539 
z
M 2163 4627 
L 2899 4627 
L 2899 4275 
L 2163 4275 
L 2163 4627 
z
M 2163 3539 
L 2163 3949 
L 2899 3949 
L 2899 3539 
L 2163 3539 
z
M 986 2618 
L 1779 2618 
L 1779 2189 
L 986 2189 
L 986 2618 
z
M 2163 2618 
L 2995 2618 
L 2995 2189 
L 2163 2189 
L 2163 2618 
z
M 1318 730 
L 1555 1114 
L 2515 1114 
C 2451 909 2317 691 2035 486 
C 1798 576 1555 659 1318 730 
z
" transform="scale(0.015625)"/>
     <path id="NotoSansCJKtc-Regular-5b57" d="M 2944 2323 
L 2944 1920 
L 442 1920 
L 442 1459 
L 2944 1459 
L 2944 90 
C 2944 0 2912 -32 2797 -38 
C 2682 -38 2266 -38 1837 -26 
C 1920 -154 2010 -371 2042 -506 
C 2586 -506 2925 -499 3149 -429 
C 3379 -346 3450 -205 3450 77 
L 3450 1459 
L 5952 1459 
L 5952 1920 
L 3450 1920 
L 3450 2157 
C 4013 2458 4589 2893 4986 3302 
L 4659 3552 
L 4550 3526 
L 1491 3526 
L 1491 3072 
L 4064 3072 
C 3738 2790 3322 2509 2944 2323 
z
M 2714 5274 
C 2835 5107 2957 4896 3040 4710 
L 512 4710 
L 512 3386 
L 986 3386 
L 986 4250 
L 5395 4250 
L 5395 3386 
L 5888 3386 
L 5888 4710 
L 3603 4710 
C 3514 4922 3347 5210 3181 5421 
L 2714 5274 
z
" transform="scale(0.015625)"/>
     <path id="NotoSansCJKtc-Regular-91cd" d="M 1018 3456 
L 1018 1466 
L 2938 1466 
L 2938 1024 
L 813 1024 
L 813 640 
L 2938 640 
L 2938 83 
L 333 83 
L 333 -307 
L 6074 -307 
L 6074 83 
L 3418 83 
L 3418 640 
L 5670 640 
L 5670 1024 
L 3418 1024 
L 3418 1466 
L 5427 1466 
L 5427 3456 
L 3418 3456 
L 3418 3846 
L 6042 3846 
L 6042 4243 
L 3418 4243 
L 3418 4736 
C 4166 4794 4870 4870 5421 4966 
L 5165 5338 
C 4154 5158 2342 5037 851 4998 
C 896 4902 947 4730 954 4621 
C 1581 4634 2266 4659 2938 4698 
L 2938 4243 
L 371 4243 
L 371 3846 
L 2938 3846 
L 2938 3456 
L 1018 3456 
z
M 1485 2304 
L 2938 2304 
L 2938 1818 
L 1485 1818 
L 1485 2304 
z
M 3418 2304 
L 4941 2304 
L 4941 1818 
L 3418 1818 
L 3418 2304 
z
M 1485 3110 
L 2938 3110 
L 2938 2630 
L 1485 2630 
L 1485 3110 
z
M 3418 3110 
L 4941 3110 
L 4941 2630 
L 3418 2630 
L 3418 3110 
z
" transform="scale(0.015625)"/>
     <path id="NotoSansCJKtc-Regular-88fd" d="M 4058 5050 
L 4058 2944 
L 4493 2944 
L 4493 5050 
L 4058 5050 
z
M 5274 5312 
L 5274 2662 
C 5274 2586 5242 2560 5152 2560 
C 5056 2554 4749 2547 4397 2560 
C 4461 2445 4525 2278 4550 2163 
C 4998 2163 5293 2163 5478 2234 
C 5658 2298 5709 2413 5709 2656 
L 5709 5312 
L 5274 5312 
z
M 2874 2285 
C 2938 2163 3014 2016 3072 1882 
L 352 1882 
L 352 1485 
L 2598 1485 
C 1978 1107 1056 800 243 659 
C 339 570 461 403 518 294 
C 877 371 1254 486 1626 621 
L 1626 333 
C 1626 38 1453 -90 1357 -154 
C 1408 -230 1491 -390 1523 -493 
L 1523 -518 
C 1645 -442 1843 -384 3539 13 
C 3533 102 3546 262 3558 378 
L 2074 58 
L 2074 800 
C 2502 992 2899 1210 3206 1453 
C 3699 454 4582 -173 5862 -429 
C 5926 -307 6042 -134 6138 -38 
C 5523 58 4992 250 4563 525 
C 4954 704 5389 941 5734 1178 
L 5382 1434 
C 5101 1222 4640 954 4250 762 
C 4000 966 3802 1210 3648 1485 
L 6054 1485 
L 6054 1882 
L 3597 1882 
C 3533 2042 3424 2246 3322 2406 
L 2874 2285 
z
M 934 5357 
C 819 5005 646 4640 422 4378 
C 518 4339 685 4250 768 4192 
C 851 4301 934 4435 1011 4582 
L 1779 4582 
L 1779 4186 
L 326 4186 
L 326 3840 
L 1779 3840 
L 1779 3501 
L 659 3501 
L 659 2298 
L 1043 2298 
L 1043 3174 
L 1779 3174 
L 1779 2125 
L 2202 2125 
L 2202 3174 
L 2989 3174 
L 2989 2714 
C 2989 2662 2976 2643 2918 2643 
C 2867 2637 2701 2637 2490 2643 
C 2534 2554 2598 2432 2618 2336 
C 2906 2336 3098 2336 3226 2394 
C 3366 2445 3392 2534 3392 2714 
L 3392 3501 
L 2202 3501 
L 2202 3840 
L 3558 3840 
L 3558 4186 
L 2202 4186 
L 2202 4582 
L 3334 4582 
L 3334 4922 
L 2202 4922 
L 2202 5376 
L 1779 5376 
L 1779 4922 
L 1178 4922 
C 1229 5037 1274 5152 1312 5267 
L 934 5357 
z
" transform="scale(0.015625)"/>
    </defs>
    <use xlink:href="#NotoSansCJKtc-Regular-4f9d"/>
    <use xlink:href="#NotoSansCJKtc-Regular-5831" transform="translate(99.999985 0)"/>
    <use xlink:href="#NotoSansCJKtc-Regular-544a" transform="translate(199.999969 0)"/>
    <use xlink:href="#NotoSansCJKtc-Regular-5167" transform="translate(299.999954 0)"/>
    <use xlink:href="#NotoSansCJKtc-Regular-6587" transform="translate(399.999939 0)"/>
    <use xlink:href="#NotoSansCJKtc-Regular-6578" transform="translate(499.999924 0)"/>
    <use xlink:href="#NotoSansCJKtc-Regular-5b57" transform="translate(599.999908 0)"/>
    <use xlink:href="#NotoSansCJKtc-Regular-91cd" transform="translate(699.999893 0)"/>
    <use xlink:href="#NotoSansCJKtc-Regular-88fd" transform="translate(799.999878 0)"/>
   </g>
  </g>
 </g>
 <defs>
  <clipPath id="p38f1083c0e">
   <rect x="46.44" y="63.504" width="526.32" height="229.32"/>
  </clipPath>
 </defs>
</svg>
